<?xml version="1.0" encoding="UTF-8"?> <svg xmlns="http://www.w3.org/2000/svg" width="84" height="84" viewBox="0 0 84 84" fill="none"> <path fill-rule="evenodd" clip-rule="evenodd" d="M58.3055 11.7513C51.0277 7.82816 42.5793 6.66053 34.5102 8.46259C26.441 10.2646 19.2921 14.9156 14.3748 21.5622C9.45742 28.2089 7.10133 36.4056 7.73866 44.6489C8.376 52.8923 11.964 60.6294 17.8446 66.4412C23.7252 72.2531 31.5041 75.7498 39.7543 76.2901C48.0045 76.8305 56.173 74.3781 62.7613 69.3829C69.3497 64.3877 73.9162 57.1846 75.6232 49.0948C77.3302 41.005 76.0633 32.571 72.0548 25.3397C71.0324 23.4954 71.6988 21.1715 73.5431 20.1492C75.3874 19.1268 77.7113 19.7932 78.7336 21.6375C83.6329 30.4756 85.1814 40.7839 83.095 50.6714C81.0087 60.5589 75.4274 69.3627 67.375 75.468C59.3226 81.5732 49.3389 84.5706 39.2552 83.9102C29.1716 83.2498 19.6641 78.976 12.4768 71.8726C5.28937 64.7693 0.903997 55.3128 0.125032 45.2376C-0.653933 35.1624 2.22574 25.1442 8.23584 17.0205C14.2459 8.89679 22.9835 3.21234 32.8458 1.00983C42.7081 -1.19269 53.0338 0.234413 61.929 5.02935C63.7852 6.02994 64.4788 8.34584 63.4782 10.2021C62.4776 12.0583 60.1618 12.7519 58.3055 11.7513Z" fill="#808D9A"></path> <path d="M45.8181 22.1454C45.8181 20.0367 44.1087 18.3272 41.9999 18.3272C39.8912 18.3272 38.1818 20.0367 38.1818 22.1454V42.7099C38.1815 42.7278 38.1814 42.7457 38.1814 42.7636C38.1814 44.8723 39.8908 46.5818 41.9996 46.5818H62.6177C64.7264 46.5818 66.4359 44.8723 66.4359 42.7636C66.4359 40.6549 64.7264 38.9454 62.6177 38.9454H45.8181V22.1454Z" fill="#808D9A"></path> </svg> 