<?xml version="1.0" encoding="UTF-8"?> <svg xmlns="http://www.w3.org/2000/svg" width="129" height="128" viewBox="0 0 129 128" fill="none"> <path d="M125.394 39.4157C125.289 38.9237 125.085 38.4582 124.794 38.0475C124.504 37.6368 124.133 37.2894 123.704 37.0265C123.275 36.7636 122.797 36.5907 122.299 36.5182C121.801 36.4457 121.294 36.4752 120.807 36.6049L108.487 39.9438C104.677 25.525 97.4502 12.2358 87.4187 1.20007C87.0737 0.821849 86.6535 0.519762 86.1852 0.313123C85.7168 0.106484 85.2104 -0.000162335 84.6985 1.34023e-06C84.2216 -0.000409513 83.7494 0.0936454 83.3091 0.276736C82.8687 0.459827 82.469 0.728326 82.133 1.06673L52.0938 31.1326H5.45633C2.44282 31.1326 0 33.5754 0 36.5942V91.1949C0 94.2138 2.44282 96.6619 5.45633 96.6619H51.8805L82.133 126.941C82.4838 127.288 82.9009 127.56 83.3595 127.742C83.818 127.923 84.3085 128.011 84.8016 127.998C85.2946 127.986 85.7801 127.874 86.2289 127.669C86.6777 127.465 87.0805 127.172 87.4133 126.808C97.4419 115.77 104.668 102.481 108.481 88.064L120.807 91.4029C121.294 91.5326 121.801 91.5621 122.299 91.4896C122.797 91.4171 123.275 91.2442 123.704 90.9813C124.133 90.7184 124.504 90.371 124.794 89.9603C125.085 89.5496 125.289 89.0841 125.394 88.5921C128.884 72.3857 128.884 55.6222 125.394 39.4157ZM84.4638 10.3473C92.0274 19.6623 97.5218 30.4804 100.582 42.0826L65.4067 51.6085V36.5942C65.4064 35.6712 65.1712 34.7634 64.7233 33.9563C64.2755 33.1492 63.6296 32.4693 62.8465 31.9806L84.4638 10.3473ZM49.4644 49.203L37.7036 69.8976V80.6876C37.7036 82.0145 37.1765 83.287 36.2383 84.2252C35.3001 85.1635 34.0275 85.6906 32.7007 85.6906C31.3738 85.6906 30.1013 85.1635 29.163 84.2252C28.2248 83.287 27.6977 82.0145 27.6977 80.6876V68.9909L16.4543 49.203C16.1363 48.6765 15.9269 48.0917 15.8384 47.483C15.75 46.8742 15.7843 46.254 15.9394 45.6588C16.0944 45.0635 16.367 44.5053 16.7412 44.0171C17.1154 43.5289 17.5835 43.1205 18.118 42.8161C18.6524 42.5117 19.2424 42.3173 19.8532 42.2445C20.464 42.1716 21.0832 42.2218 21.6742 42.392C22.2653 42.5623 22.8163 42.8491 23.2948 43.2357C23.7733 43.6222 24.1695 44.1006 24.4602 44.6427L32.962 60.5264L41.4639 44.6374C41.7615 44.1113 42.16 43.6491 42.6366 43.2773C43.1132 42.9056 43.6585 42.6315 44.2412 42.471C44.824 42.3104 45.4327 42.2665 46.0324 42.3417C46.6322 42.4169 47.2112 42.6098 47.7362 42.9093C48.7978 43.5154 49.5757 44.5177 49.8997 45.6964C50.2236 46.8751 50.067 48.1342 49.4644 49.1977V49.203ZM100.587 85.9252C97.524 97.5283 92.0258 108.346 84.4585 117.661L62.7078 95.8885C64.3079 94.9391 65.4067 93.2004 65.4067 91.1949V76.3993L100.587 85.9252ZM118.269 82.2024L65.4067 67.8868V60.121L118.269 45.8055C120.311 57.8518 120.311 70.156 118.269 82.2024Z" fill="white"></path> </svg> 