<?xml version="1.0" encoding="UTF-8"?> <svg xmlns="http://www.w3.org/2000/svg" width="64" height="64" viewBox="0 0 64 64" fill="none"> <path fill-rule="evenodd" clip-rule="evenodd" d="M44.4233 8.95337C38.8782 5.96431 32.4414 5.07469 26.2935 6.44769C20.1456 7.82068 14.6988 11.3642 10.9522 16.4284C7.20566 21.4925 5.41053 27.7376 5.89612 34.0182C6.38171 40.2989 9.11545 46.1939 13.5959 50.6219C18.0763 55.0499 24.0031 57.7141 30.289 58.1258C36.5749 58.5375 42.7985 56.669 47.8182 52.8632C52.8379 49.0573 56.3171 43.5692 57.6177 37.4055C58.9182 31.2419 57.953 24.816 54.8989 19.3065C54.1199 17.9013 54.6276 16.1307 56.0328 15.3518C57.438 14.5728 59.2086 15.0805 59.9875 16.4857C63.7203 23.2195 64.9001 31.0734 63.3105 38.6068C61.7209 46.1401 57.4685 52.8478 51.3333 57.4994C45.1981 62.151 37.5915 64.4347 29.9088 63.9316C22.226 63.4284 14.9822 60.1722 9.5061 54.7601C4.03 49.348 0.68876 42.1431 0.0952628 34.4667C-0.498234 26.7904 1.6958 19.1575 6.27493 12.968C10.8541 6.77851 17.5112 2.4475 25.0254 0.769393C32.5395 -0.908713 40.4067 0.1786 47.184 3.83189C48.5982 4.59424 49.1267 6.35873 48.3644 7.77299C47.602 9.18725 45.8375 9.71572 44.4233 8.95337Z" fill="#808D9A"></path> <path d="M34.909 16.8727C34.909 15.266 33.6066 13.9636 31.9999 13.9636C30.3933 13.9636 29.0909 15.266 29.0909 16.8727V32.5409C29.0907 32.5545 29.0906 32.5681 29.0906 32.5818C29.0906 34.1884 30.393 35.4909 31.9997 35.4909H47.7087C49.3154 35.4909 50.6178 34.1884 50.6178 32.5818C50.6178 30.9752 49.3154 29.6727 47.7087 29.6727H34.909V16.8727Z" fill="#808D9A"></path> </svg> 