<?xml version="1.0" encoding="UTF-8"?> <svg xmlns="http://www.w3.org/2000/svg" width="21" height="21" viewBox="0 0 21 21" fill="none"> <path d="M8.62755 2.11565C10.6448 1.66513 12.7569 1.95704 14.5764 2.93782C15.0404 3.18797 15.6194 3.01457 15.8696 2.55051C16.1197 2.08646 15.9463 1.50749 15.4822 1.25734C13.2585 0.0586032 10.677 -0.298172 8.21144 0.252457C5.74587 0.803085 3.56149 2.2242 2.05896 4.25512C0.556436 6.28604 -0.163483 8.79061 0.0312581 11.3094C0.225999 13.8282 1.32234 16.1923 3.11919 17.9682C4.91604 19.744 7.29291 20.8124 9.81381 20.9775C12.3347 21.1426 14.8306 20.3933 16.8437 18.867C18.8569 17.3407 20.2522 15.1397 20.7738 12.6678C21.2953 10.196 20.9082 7.6189 19.6834 5.40937C19.4278 4.94829 18.8468 4.78171 18.3858 5.03729C17.9247 5.29288 17.7581 5.87386 18.0137 6.33494C19.0158 8.14274 19.3326 10.2512 18.9058 12.2737C18.479 14.2961 17.3374 16.0969 15.6903 17.3457C14.0432 18.5945 12.0011 19.2076 9.93857 19.0725C7.87601 18.9375 5.9313 18.0633 4.46115 16.6103C2.99101 15.1574 2.094 13.2231 1.93467 11.1622C1.77533 9.10141 2.36436 7.05222 3.5937 5.39055C4.82303 3.72889 6.61026 2.56616 8.62755 2.11565Z" fill="#808D9A"></path> <path d="M9.54544 5.72726C9.54544 5.20008 9.9728 4.77272 10.5 4.77272C11.0272 4.77272 11.4545 5.20008 11.4545 5.72726C11.4545 6.25444 11.0272 6.68181 10.5 6.68181C9.9728 6.68181 9.54544 6.25444 9.54544 5.72726Z" fill="#808D9A"></path> <path d="M10.4998 16.2272C11.027 16.2273 11.4543 15.7999 11.4544 15.2727L11.4545 8.59092C11.4545 8.06374 11.0272 7.63637 10.5 7.63635C9.97283 7.63634 9.54545 8.06369 9.54544 8.59087L9.54526 15.2727C9.54525 15.7999 9.9726 16.2272 10.4998 16.2272Z" fill="#808D9A"></path> </svg> 