<?xml version="1.0" encoding="UTF-8"?> <svg xmlns="http://www.w3.org/2000/svg" width="4493" height="48" viewBox="0 0 4493 48" fill="none"> <path fill-rule="evenodd" clip-rule="evenodd" d="M3127.59 12.0538C3116.68 12.0112 3105.81 11.9942 3094.99 12.0017C3091.68 12.004 3088.99 9.31957 3088.99 6.00587C3088.98 2.69216 3091.67 0.00400892 3094.98 0.00171629C3105.82 -0.00578198 3116.7 0.0112311 3127.64 0.0538961C3130.95 0.0668274 3133.63 2.76358 3133.61 6.07726C3133.6 9.39095 3130.9 12.0667 3127.59 12.0538ZM3056.15 6.13015C3056.17 9.44378 3053.5 12.1483 3050.19 12.1709C3039.3 12.2451 3028.45 12.3429 3017.6 12.4631C3014.29 12.4998 3011.58 9.84345 3011.54 6.52995C3011.5 3.21644 3014.16 0.500546 3017.47 0.463823C3028.33 0.343477 3039.21 0.24554 3050.11 0.171203C3053.42 0.148609 3056.13 2.81652 3056.15 6.13015ZM3166.42 6.3102C3166.46 2.99667 3169.17 0.338221 3172.48 0.372396C3183.3 0.48396 3194.18 0.62138 3205.14 0.785715C3208.45 0.835425 3211.09 3.56171 3211.04 6.87505C3210.99 10.1884 3208.27 12.8341 3204.96 12.7844C3194.02 12.6203 3183.16 12.4831 3172.36 12.3718C3169.05 12.3376 3166.39 9.62373 3166.42 6.3102ZM2978.69 6.98624C2978.75 10.2995 2976.11 13.03 2972.79 13.085C2961.94 13.2653 2951.08 13.4664 2940.21 13.6872C2936.9 13.7546 2934.16 11.1234 2934.09 7.81037C2934.02 4.49735 2936.66 1.75704 2939.97 1.68972C2950.85 1.46861 2961.72 1.26719 2972.6 1.08667C2975.91 1.03166 2978.64 3.67299 2978.69 6.98624ZM3243.85 7.47256C3243.93 4.15961 3246.67 1.53141 3249.98 1.6023C3260.78 1.83337 3271.66 2.09091 3282.63 2.37589C3285.94 2.46196 3288.55 5.21712 3288.47 8.52971C3288.38 11.8423 3285.63 14.4579 3282.31 14.3718C3271.36 14.0873 3260.5 13.8302 3249.73 13.5996C3246.41 13.5287 3243.78 10.7855 3243.85 7.47256ZM2901.26 8.55566C2901.35 11.8683 2898.73 14.6208 2895.42 14.7035C2884.59 14.9738 2873.73 15.2618 2862.84 15.5664C2859.52 15.659 2856.76 13.0489 2856.67 9.73646C2856.58 6.42405 2859.19 3.66372 2862.5 3.5711C2873.41 3.26618 2884.27 2.97783 2895.12 2.70723C2898.43 2.62455 2901.18 5.24298 2901.26 8.55566ZM3321.28 9.48356C3321.38 6.17156 3324.15 3.5729 3327.46 3.67929C3338.25 4.02567 3349.13 4.39856 3360.11 4.79878C3363.42 4.91949 3366 7.70185 3365.88 11.0134C3365.76 14.3249 3362.98 16.9115 3359.67 16.7908C3348.71 16.3912 3337.85 16.0189 3327.08 15.6731C3323.77 15.5667 3321.17 12.7956 3321.28 9.48356ZM2823.84 10.7159C2823.94 14.0279 2821.34 16.7976 2818.03 16.9021C2807.23 17.2431 2796.37 17.5984 2785.46 17.967C2782.15 18.0789 2779.37 15.4848 2779.26 12.173C2779.15 8.86117 2781.74 6.08573 2785.05 5.97388C2795.98 5.60497 2806.84 5.24935 2817.65 4.90812C2820.96 4.8036 2823.73 7.40382 2823.84 10.7159ZM3398.68 12.3036C3398.82 8.9928 3401.61 6.42208 3404.93 6.5617C3415.71 7.01629 3426.59 7.49694 3437.58 8.00439C3440.89 8.15719 3443.45 10.9645 3443.3 14.2747C3443.15 17.5849 3440.34 20.1444 3437.03 19.9916C3426.05 19.4849 3415.18 19.005 3404.42 18.551C3401.11 18.4114 3398.54 15.6143 3398.68 12.3036ZM2746.41 13.3259C2746.53 16.6374 2743.95 19.4193 2740.63 19.5395C2729.85 19.9306 2719 20.3329 2708.07 20.7452C2704.76 20.8701 2701.98 18.287 2701.85 14.9757C2701.73 11.6643 2704.31 8.87868 2707.62 8.75375C2718.56 8.34119 2729.41 7.93873 2740.2 7.54738C2743.51 7.42723 2746.29 10.0144 2746.41 13.3259ZM3476.08 15.8746C3476.25 12.5652 3479.07 10.0203 3482.38 10.1903C3493.16 10.7442 3504.05 11.3233 3515.06 11.9284C3518.37 12.1103 3520.9 14.94 3520.72 18.2487C3520.54 21.5575 3517.71 24.0922 3514.4 23.9103C3503.41 23.306 3492.53 22.7276 3481.77 22.1745C3478.46 22.0045 3475.91 19.1839 3476.08 15.8746ZM2668.99 16.2419C2669.12 19.5531 2666.54 22.3426 2663.23 22.4724C2652.47 22.8944 2641.63 23.3244 2630.69 23.7617C2627.38 23.894 2624.58 21.3172 2624.45 18.0061C2624.32 14.695 2626.9 11.9036 2630.21 11.7713C2641.15 11.3339 2652 10.9037 2662.76 10.4816C2666.07 10.3518 2668.86 12.9307 2668.99 16.2419ZM583.442 24.3889C572.471 24.3851 561.56 24.3895 550.714 24.4016C547.4 24.4054 544.711 21.7221 544.707 18.4084C544.704 15.0947 547.387 12.4054 550.701 12.4017C561.552 12.3895 572.469 12.3851 583.446 12.3889C586.76 12.39 589.445 15.0772 589.444 18.391C589.443 21.7047 586.755 24.39 583.442 24.3889ZM622.516 18.4368C622.524 15.1231 625.217 12.4433 628.531 12.4514C639.431 12.4781 650.378 12.5133 661.366 12.5576C664.68 12.571 667.355 15.2681 667.342 18.5817C667.328 21.8954 664.631 24.5709 661.318 24.5575C650.336 24.5132 639.395 24.478 628.501 24.4514C625.188 24.4433 622.508 21.7505 622.516 18.4368ZM511.665 18.478C511.675 21.7917 508.997 24.4862 505.683 24.4964C494.674 24.5302 483.746 24.5716 472.907 24.6198C469.593 24.6346 466.895 21.9603 466.88 18.6466C466.866 15.3329 469.54 12.6347 472.854 12.62C483.698 12.5717 494.631 12.5303 505.646 12.4964C508.96 12.4863 511.654 15.1643 511.665 18.478ZM700.404 18.7522C700.425 15.4385 703.128 12.7692 706.442 12.7901C717.327 12.8588 728.243 12.9368 739.182 13.0246C742.496 13.0512 745.16 15.759 745.134 19.0726C745.107 22.3862 742.399 25.0508 739.086 25.0242C728.153 24.9364 717.245 24.8585 706.366 24.7899C703.053 24.769 700.383 22.0658 700.404 18.7522ZM433.81 18.8246C433.831 22.1382 431.162 24.8414 427.848 24.8622C416.793 24.9319 405.847 25.0082 395.02 25.0905C391.706 25.1157 389 22.45 388.975 19.1363C388.949 15.8227 391.615 13.1161 394.929 13.0909C405.761 13.0085 416.712 12.9321 427.773 12.8625C431.086 12.8416 433.789 15.5109 433.81 18.8246ZM778.199 19.3788C778.234 16.0652 780.949 13.4074 784.262 13.4422C795.181 13.5571 806.115 13.6823 817.058 13.8183C820.372 13.8595 823.024 16.5789 822.983 19.8924C822.942 23.2058 820.222 25.8585 816.909 25.8174C805.974 25.6815 795.047 25.5564 784.136 25.4416C780.822 25.4067 778.164 22.6923 778.199 19.3788ZM355.908 19.4171C355.939 22.7307 353.278 25.442 349.964 25.4731C338.896 25.5768 327.975 25.6862 317.21 25.8006C313.897 25.8358 311.182 23.1782 311.147 19.8646C311.112 16.5511 313.769 13.8364 317.083 13.8012C327.852 13.6868 338.779 13.5773 349.852 13.4736C353.165 13.4426 355.877 16.1036 355.908 19.4171ZM2591.59 19.3312C2591.73 22.6422 2589.15 25.4352 2585.84 25.5696C2575.1 26.0057 2564.26 26.4472 2553.31 26.8935C2550 27.0285 2547.21 24.4538 2547.07 21.1429C2546.94 17.8319 2549.51 15.0384 2552.82 14.9034C2563.77 14.4572 2574.61 14.0156 2585.36 13.5795C2588.67 13.4451 2591.46 16.0202 2591.59 19.3312ZM278.06 20.2446C278.101 23.558 275.448 26.2773 272.135 26.3181C261.021 26.4552 250.108 26.5968 239.409 26.742C236.096 26.7869 233.374 24.1373 233.329 20.8239C233.284 17.5105 235.933 14.788 239.247 14.7431C249.95 14.5979 260.868 14.4562 271.987 14.319C275.3 14.2782 278.019 16.9311 278.06 20.2446ZM856.04 20.3481C856.09 17.0348 858.817 14.3896 862.13 14.4399C873.059 14.6059 883.987 14.7832 894.911 14.9723C898.224 15.0297 900.863 17.762 900.806 21.0752C900.748 24.3885 898.016 27.0279 894.703 26.9705C883.788 26.7816 872.868 26.6044 861.948 26.4386C858.635 26.3882 855.989 23.6615 856.04 20.3481ZM3553.52 20.1303C3553.72 16.8225 3556.56 14.301 3559.87 14.4984C3570.57 15.1371 3581.38 15.7997 3592.31 16.4868C3595.62 16.6947 3598.13 19.5443 3597.92 22.8514C3597.72 26.1586 3594.87 28.6711 3591.56 28.4631C3580.64 27.7768 3569.84 27.115 3559.15 26.4771C3555.84 26.2797 3553.32 23.4381 3553.52 20.1303ZM200.211 21.3014C200.262 24.6147 197.617 27.3417 194.303 27.3922C183.086 27.5635 172.159 27.7374 161.542 27.9127C158.228 27.9674 155.498 25.3258 155.443 22.0125C155.389 18.6993 158.03 15.969 161.344 15.9143C171.966 15.739 182.897 15.565 194.12 15.3936C197.434 15.3431 200.161 17.988 200.211 21.3014ZM933.87 21.698C933.937 18.385 936.678 15.7541 939.991 15.8217C950.933 16.045 961.86 16.2808 972.766 16.5296C976.079 16.6052 978.703 19.352 978.628 22.6649C978.552 25.9777 975.806 28.602 972.493 28.5265C961.596 28.2779 950.678 28.0423 939.746 27.8192C936.433 27.7516 933.802 25.011 933.87 21.698ZM122.456 22.5855C122.516 25.8987 119.879 28.6336 116.566 28.694C105.193 28.9015 94.2862 29.1082 83.8772 29.3117C80.5641 29.3765 77.8258 26.7433 77.761 23.4302C77.6962 20.1171 80.3295 17.3788 83.6426 17.314C94.0566 17.1104 104.968 16.9036 116.347 16.696C119.66 16.6356 122.395 19.2724 122.456 22.5855ZM2514.23 22.4816C2514.37 25.7925 2511.79 28.5858 2508.48 28.7205C2497.74 29.1574 2486.9 29.5976 2475.94 30.0404C2472.63 30.1743 2469.84 27.5987 2469.71 24.2877C2469.57 20.9766 2472.15 18.1841 2475.46 18.0502C2486.41 17.6075 2497.26 17.1673 2507.99 16.7304C2511.3 16.5957 2514.1 19.1706 2514.23 22.4816ZM1011.67 23.4756C1011.75 20.163 1014.51 17.5484 1017.82 17.6356C1028.78 17.9243 1039.72 18.2269 1050.61 18.5438C1053.92 18.6401 1056.53 21.4034 1056.44 24.7157C1056.34 28.028 1053.58 30.6351 1050.26 30.5387C1039.38 30.2221 1028.46 29.9199 1017.51 29.6315C1014.19 29.5442 1011.58 26.7882 1011.67 23.4756ZM44.5229 24.1117C44.594 27.4246 41.9661 30.168 38.6531 30.2392C26.7937 30.494 15.9305 30.737 6.1385 30.9626C2.82567 31.0389 0.0782051 28.4153 0.0018692 25.1024C-0.0744705 21.7896 2.54922 19.0421 5.86205 18.9658C15.66 18.74 26.5295 18.4969 38.3953 18.2419C41.7083 18.1708 44.4517 20.7987 44.5229 24.1117ZM3630.69 24.9806C3630.91 21.6744 3633.77 19.1738 3637.07 19.3954C3642.53 19.7609 3648.01 20.1324 3653.52 20.5098C3658.92 20.88 3664.31 21.2424 3669.67 21.597C3672.98 21.8156 3675.48 24.6732 3675.26 27.9797C3675.04 31.2862 3672.19 33.7895 3668.88 33.5709C3663.51 33.2156 3658.11 32.8526 3652.7 32.4818C3647.19 32.1047 3641.72 31.7337 3636.27 31.3685C3632.96 31.1469 3630.46 28.2869 3630.69 24.9806ZM2436.89 25.6051C2437.02 28.9162 2434.44 31.7072 2431.13 31.839C2425.68 32.056 2420.2 32.2734 2414.69 32.4911C2409.26 32.7059 2403.85 32.9181 2398.46 33.1278C2395.14 33.2566 2392.36 30.6767 2392.23 27.3655C2392.1 24.0543 2394.68 21.2657 2397.99 21.1369C2403.38 20.9272 2408.79 20.7151 2414.22 20.5005C2419.72 20.2828 2425.2 20.0655 2430.65 19.8485C2433.96 19.7167 2436.75 22.294 2436.89 25.6051ZM1089.5 25.7434C1089.61 22.4315 1092.38 19.8357 1095.69 19.9456C1101.14 20.1263 1106.58 20.3109 1112.01 20.4994C1117.45 20.6885 1122.87 20.8757 1128.27 21.061C1131.58 21.1746 1134.17 23.9515 1134.06 27.2632C1133.95 30.575 1131.17 33.1676 1127.86 33.0539C1122.46 32.8686 1117.04 32.6813 1111.59 32.4922C1106.17 32.3039 1100.74 32.1195 1095.29 31.939C1091.98 31.8291 1089.39 29.0553 1089.5 25.7434ZM4492.05 20.529C4492.05 20.5287 4492.05 20.529 4492.05 20.529V20.529ZM1166.39 28.3537C1166.5 25.0418 1169.27 22.4458 1172.59 22.5555C1183.4 22.9135 1194.13 23.2635 1204.76 23.6053C1208.07 23.7118 1210.67 26.483 1210.57 29.795C1210.46 33.107 1207.69 35.7056 1204.38 35.5991C1193.74 35.2572 1183.01 34.9071 1172.19 34.5489C1168.88 34.4392 1166.28 31.6655 1166.39 28.3537ZM2359.88 28.5951C2360 31.9065 2357.42 34.6905 2354.11 34.8133C2343.29 35.2144 2332.56 35.6049 2321.9 35.9849C2318.59 36.1029 2315.81 33.5141 2315.69 30.2025C2315.57 26.8909 2318.16 24.1106 2321.47 23.9925C2332.12 23.6128 2342.85 23.2224 2353.66 22.8215C2356.97 22.6988 2359.76 25.2837 2359.88 28.5951ZM3707.42 30.0003C3707.62 26.6925 3710.46 24.1706 3713.77 24.3677C3724.52 25.008 3735.18 25.6172 3745.75 26.1966C3749.06 26.3779 3751.6 29.2072 3751.41 32.5159C3751.23 35.8247 3748.4 38.3599 3745.1 38.1786C3734.5 37.5982 3723.82 36.9879 3713.05 36.3464C3709.74 36.1494 3707.22 33.3082 3707.42 30.0003ZM1242.94 30.8125C1243.04 27.5003 1245.81 24.8977 1249.12 24.9993C1259.99 25.3326 1270.76 25.6571 1281.45 25.9726C1284.76 26.0704 1287.36 28.8348 1287.27 32.1471C1287.17 35.4593 1284.4 38.0652 1281.09 37.9674C1270.4 37.6517 1259.62 37.3271 1248.76 36.9937C1245.44 36.8921 1242.84 34.1246 1242.94 30.8125ZM4438.59 31.0193C4438.82 34.325 4436.32 37.1919 4433.02 37.4229C4423.39 38.0958 4412.65 38.8012 4400.84 39.5147C4397.53 39.7146 4394.69 37.1952 4394.49 33.8875C4394.29 30.5798 4396.81 27.7364 4400.11 27.5366C4411.88 26.8253 4422.59 26.1224 4432.18 25.452C4435.49 25.2211 4438.35 27.7137 4438.59 31.0193ZM2283.32 31.3225C2283.43 34.6343 2280.84 37.4091 2277.53 37.5201C2266.72 37.8824 2255.98 38.2334 2245.32 38.5731C2242.01 38.6786 2239.24 36.0792 2239.13 32.7672C2239.03 29.4551 2241.63 26.6847 2244.94 26.5792C2255.6 26.2397 2266.32 25.8889 2277.12 25.5269C2280.44 25.4158 2283.21 28.0106 2283.32 31.3225ZM1319.62 33.0751C1319.71 29.7627 1322.47 27.1521 1325.78 27.2442C1336.61 27.5454 1347.36 27.8369 1358.02 28.1189C1361.33 28.2065 1363.95 30.9629 1363.86 34.2754C1363.77 37.588 1361.02 40.2023 1357.7 40.1147C1347.04 39.8326 1336.29 39.5409 1325.45 39.2396C1322.14 39.1475 1319.53 36.3876 1319.62 33.0751ZM2206.75 33.7598C2206.85 37.072 2204.24 39.8361 2200.93 39.9335C2190.11 40.2517 2179.35 40.5578 2168.66 40.852C2165.34 40.9431 2162.58 38.3317 2162.49 35.0192C2162.4 31.7068 2165.01 28.9476 2168.33 28.8565C2179.01 28.5626 2189.76 28.2566 2200.57 27.9387C2203.89 27.8413 2206.65 30.4475 2206.75 33.7598ZM3783.61 34.1739C3783.77 30.864 3786.58 28.3101 3789.89 28.4696C3800.73 28.9917 3811.47 29.4825 3822.1 29.9433C3825.41 30.0867 3827.98 32.8868 3827.83 36.1974C3827.69 39.508 3824.89 42.0755 3821.58 41.932C3810.93 41.4704 3800.17 40.9788 3789.32 40.4557C3786.01 40.2962 3783.45 37.4837 3783.61 34.1739ZM1396.22 35.0994C1396.3 31.7866 1399.05 29.1668 1402.37 29.2477C1413.18 29.5119 1423.91 29.7658 1434.57 30.0094C1437.88 30.0851 1440.5 32.8321 1440.43 36.1449C1440.35 39.4578 1437.61 42.082 1434.29 42.0062C1423.63 41.7625 1412.89 41.5085 1402.07 41.2441C1398.76 41.1632 1396.14 38.4121 1396.22 35.0994ZM4362.44 35.6412C4362.6 38.9509 4360.05 41.7665 4356.74 41.93C4346.56 42.4332 4335.84 42.9264 4324.61 43.4006C4321.3 43.5403 4318.5 40.9697 4318.36 37.6589C4318.22 34.3482 4320.79 31.551 4324.1 31.4113C4335.31 30.9383 4346 30.4464 4356.15 29.9446C4359.46 29.7811 4362.28 32.3315 4362.44 35.6412ZM2130.15 35.8649C2130.23 39.1776 2127.61 41.9295 2124.3 42.0115C2113.48 42.2791 2102.72 42.5342 2092 42.7767C2088.69 42.8516 2085.94 40.2268 2085.87 36.9139C2085.79 33.6011 2088.42 30.8547 2091.73 30.7797C2102.44 30.5374 2113.19 30.2826 2124 30.0151C2127.31 29.9332 2130.06 32.5522 2130.15 35.8649ZM1472.81 36.8481C1472.88 33.5351 1475.62 30.9046 1478.93 30.9726C1489.74 31.1945 1500.47 31.4054 1511.14 31.6052C1514.45 31.6673 1517.09 34.4035 1517.02 37.7166C1516.96 41.0297 1514.23 43.6652 1510.91 43.6031C1500.24 43.4032 1489.5 43.1921 1478.68 42.9701C1475.37 42.902 1472.74 40.1612 1472.81 36.8481ZM3860.04 37.4849C3860.16 34.1734 3862.94 31.5872 3866.25 31.7085C3877.08 32.1052 3887.8 32.4709 3898.4 32.8069C3901.71 32.9119 3904.31 35.6819 3904.21 38.994C3904.1 42.306 3901.33 44.9058 3898.02 44.8008C3887.4 44.4642 3876.66 44.0979 3865.81 43.7005C3862.5 43.5792 3859.91 40.7964 3860.04 37.4849ZM2053.52 37.5973C2053.59 40.9104 2050.95 43.6488 2047.64 43.7137C2036.84 43.9253 2026.08 44.124 2015.34 44.3096C2012.03 44.3669 2009.3 41.7275 2009.24 38.4143C2009.18 35.1011 2011.82 32.3687 2015.14 32.3114C2025.86 32.1259 2036.61 31.9275 2047.41 31.716C2050.72 31.6511 2053.46 34.2842 2053.52 37.5973ZM1549.41 38.2814C1549.46 34.9681 1552.19 32.3254 1555.51 32.3788C1566.32 32.5529 1577.07 32.7153 1587.77 32.8659C1591.08 32.9126 1593.73 35.6364 1593.68 38.9498C1593.63 42.2632 1590.91 44.9114 1587.6 44.8647C1576.9 44.714 1566.14 44.5515 1555.31 44.3772C1552 44.3239 1549.36 41.5947 1549.41 38.2814ZM1976.89 38.9218C1976.93 42.2352 1974.28 44.9589 1970.97 45.0055C1960.19 45.157 1949.43 45.2952 1938.68 45.4201C1935.37 45.4586 1932.65 42.8038 1932.61 39.4903C1932.57 36.1768 1935.23 33.4595 1938.54 33.4209C1949.28 33.2961 1960.03 33.158 1970.8 33.0067C1974.11 32.9601 1976.84 35.6084 1976.89 38.9218ZM4286.15 38.8679C4286.26 42.1798 4283.67 44.9533 4280.35 45.0627C4269.97 45.4058 4259.24 45.728 4248.17 46.0242C4244.85 46.1129 4242.1 43.4994 4242.01 40.1869C4241.92 36.8743 4244.53 34.1171 4247.84 34.0285C4258.89 33.733 4269.6 33.4115 4279.96 33.0692C4283.27 32.9598 4286.04 35.556 4286.15 38.8679ZM1626.04 39.3588C1626.07 36.0453 1628.79 33.3892 1632.1 33.4262C1642.91 33.5468 1653.67 33.6551 1664.38 33.7509C1667.69 33.7806 1670.35 36.4908 1670.32 39.8044C1670.29 43.118 1667.58 45.7801 1664.27 45.7505C1653.55 45.6545 1642.78 45.5462 1631.97 45.4254C1628.66 45.3884 1626 42.6723 1626.04 39.3588ZM1900.24 39.8121C1900.27 43.1257 1897.61 45.8341 1894.29 45.8614C1883.53 45.9502 1872.77 46.0257 1862.01 46.0878C1858.69 46.1069 1855.99 43.4362 1855.97 40.1225C1855.95 36.8089 1858.62 34.1071 1861.94 34.088C1872.69 34.0259 1883.44 33.9506 1894.19 33.8618C1897.51 33.8345 1900.22 36.4985 1900.24 39.8121ZM3936.42 39.9054C3936.51 36.5928 3939.26 33.9741 3942.57 34.0564C3953.41 34.326 3964.12 34.5647 3974.7 34.7743C3978.01 34.84 3980.64 37.5791 3980.57 40.8921C3980.51 44.2052 3977.77 46.8377 3974.46 46.772C3963.86 46.562 3953.14 46.3228 3942.27 46.0527C3938.96 45.9704 3936.34 43.2181 3936.42 39.9054ZM1702.68 40.0433C1702.7 36.7296 1705.4 34.0589 1708.71 34.0781C1719.5 34.1406 1730.26 34.1902 1740.98 34.2268C1744.3 34.2382 1746.97 36.9336 1746.96 40.2473C1746.95 43.561 1744.26 46.2381 1740.94 46.2268C1730.21 46.1901 1719.44 46.1404 1708.64 46.0779C1705.33 46.0587 1702.66 43.3569 1702.68 40.0433ZM1823.6 40.2542C1823.61 43.5679 1820.93 46.2605 1817.62 46.2684C1806.87 46.2938 1796.11 46.306 1785.33 46.305C1782.01 46.3047 1779.33 43.6182 1779.33 40.3045C1779.33 36.9908 1782.01 34.3047 1785.33 34.305C1796.1 34.306 1806.85 34.2938 1817.59 34.2684C1820.9 34.2606 1823.59 36.9405 1823.6 40.2542ZM4209.66 40.9173C4209.72 44.2305 4207.08 46.966 4203.77 47.0273C4193.29 47.2211 4182.57 47.3897 4171.59 47.5296C4168.27 47.5719 4165.55 44.9201 4165.51 41.6066C4165.47 38.2932 4168.12 35.5729 4171.44 35.5306C4182.39 35.391 4193.1 35.2227 4203.55 35.0293C4206.86 34.968 4209.6 37.6042 4209.66 40.9173ZM4012.81 41.4185C4012.86 38.1051 4015.58 35.4534 4018.89 35.4958C4029.76 35.635 4040.47 35.7436 4051.02 35.8239C4054.33 35.8491 4057 38.5557 4056.97 41.8693C4056.95 45.183 4054.24 47.8487 4050.93 47.8235C4040.36 47.7431 4029.63 47.6343 4018.74 47.4949C4015.42 47.4524 4012.77 44.732 4012.81 41.4185ZM4133.38 41.8924C4133.4 45.2061 4130.73 47.9061 4127.42 47.923C4116.88 47.9767 4106.14 48.0032 4095.21 47.9997C4091.89 47.9986 4089.21 45.3115 4089.21 41.9978C4089.21 38.6841 4091.9 35.9986 4095.21 35.9997C4106.12 36.0032 4116.84 35.9768 4127.35 35.9231C4130.67 35.9062 4133.37 38.5788 4133.38 41.8924Z" fill="#005BFF"></path> </svg> 