<?xml version="1.0" encoding="UTF-8"?> <svg xmlns="http://www.w3.org/2000/svg" width="584" height="403" viewBox="0 0 584 403" fill="none"> <path fill-rule="evenodd" clip-rule="evenodd" d="M0.5 2C0.5 1.17157 1.17157 0.5 2 0.5H6.0039C6.83233 0.5 7.5039 1.17157 7.5039 2C7.5039 2.82843 6.83233 3.5 6.0039 3.5H2C1.17157 3.5 0.5 2.82843 0.5 2ZM15.5146 2C15.5146 1.17157 16.1862 0.5 17.0146 0.5H25.0224C25.8508 0.5 26.5224 1.17157 26.5224 2C26.5224 2.82843 25.8508 3.5 25.0224 3.5H17.0146C16.1862 3.5 15.5146 2.82843 15.5146 2ZM34.5331 2C34.5331 1.17157 35.2047 0.5 36.0331 0.5H44.0409C44.8694 0.5 45.5409 1.17157 45.5409 2C45.5409 2.82843 44.8694 3.5 44.0409 3.5H36.0331C35.2047 3.5 34.5331 2.82843 34.5331 2ZM53.5517 2C53.5517 1.17157 54.2232 0.5 55.0517 0.5H63.0595C63.8879 0.5 64.5594 1.17157 64.5594 2C64.5594 2.82843 63.8879 3.5 63.0595 3.5H55.0517C54.2232 3.5 53.5517 2.82843 53.5517 2ZM72.5702 2C72.5702 1.17157 73.2417 0.5 74.0702 0.5H82.078C82.9064 0.5 83.578 1.17157 83.578 2C83.578 2.82843 82.9064 3.5 82.078 3.5H74.0702C73.2417 3.5 72.5702 2.82843 72.5702 2ZM91.5887 2C91.5887 1.17157 92.2603 0.5 93.0887 0.5H101.096C101.925 0.5 102.596 1.17157 102.596 2C102.596 2.82843 101.925 3.5 101.096 3.5H93.0887C92.2603 3.5 91.5887 2.82843 91.5887 2ZM110.607 2C110.607 1.17157 111.279 0.5 112.107 0.5H120.115C120.943 0.5 121.615 1.17157 121.615 2C121.615 2.82843 120.943 3.5 120.115 3.5H112.107C111.279 3.5 110.607 2.82843 110.607 2ZM129.626 2C129.626 1.17157 130.297 0.5 131.126 0.5H139.134C139.962 0.5 140.634 1.17157 140.634 2C140.634 2.82843 139.962 3.5 139.134 3.5H131.126C130.297 3.5 129.626 2.82843 129.626 2ZM148.644 2C148.644 1.17157 149.316 0.5 150.144 0.5H158.152C158.98 0.5 159.652 1.17157 159.652 2C159.652 2.82843 158.98 3.5 158.152 3.5H150.144C149.316 3.5 148.644 2.82843 148.644 2ZM167.663 2C167.663 1.17157 168.334 0.5 169.163 0.5H177.171C177.999 0.5 178.671 1.17157 178.671 2C178.671 2.82843 177.999 3.5 177.171 3.5H169.163C168.334 3.5 167.663 2.82843 167.663 2ZM186.681 2C186.681 1.17157 187.353 0.5 188.181 0.5H196.189C197.018 0.5 197.689 1.17157 197.689 2C197.689 2.82843 197.018 3.5 196.189 3.5H188.181C187.353 3.5 186.681 2.82843 186.681 2ZM205.7 2C205.7 1.17157 206.371 0.5 207.2 0.5H215.208C216.036 0.5 216.708 1.17157 216.708 2C216.708 2.82843 216.036 3.5 215.208 3.5H207.2C206.371 3.5 205.7 2.82843 205.7 2ZM224.718 2C224.718 1.17157 225.39 0.5 226.218 0.5H234.226C235.055 0.5 235.726 1.17157 235.726 2C235.726 2.82843 235.055 3.5 234.226 3.5H226.218C225.39 3.5 224.718 2.82843 224.718 2ZM243.737 2C243.737 1.17157 244.408 0.5 245.237 0.5H253.245C254.073 0.5 254.745 1.17157 254.745 2C254.745 2.82843 254.073 3.5 253.245 3.5H245.237C244.408 3.5 243.737 2.82843 243.737 2ZM262.755 2C262.755 1.17157 263.427 0.5 264.255 0.5H272.263C273.092 0.5 273.763 1.17157 273.763 2C273.763 2.82843 273.092 3.5 272.263 3.5H264.255C263.427 3.5 262.755 2.82843 262.755 2ZM281.774 2C281.774 1.17157 282.445 0.5 283.274 0.5H291.282C292.11 0.5 292.782 1.17157 292.782 2C292.782 2.82843 292.11 3.5 291.282 3.5H283.274C282.445 3.5 281.774 2.82843 281.774 2ZM300.792 2C300.792 1.17157 301.464 0.5 302.292 0.5H310.3C311.129 0.5 311.8 1.17157 311.8 2C311.8 2.82843 311.129 3.5 310.3 3.5H302.292C301.464 3.5 300.792 2.82843 300.792 2ZM319.811 2C319.811 1.17157 320.482 0.5 321.311 0.5H329.319C330.147 0.5 330.819 1.17157 330.819 2C330.819 2.82843 330.147 3.5 329.319 3.5H321.311C320.482 3.5 319.811 2.82843 319.811 2ZM338.829 2C338.829 1.17157 339.501 0.5 340.329 0.5H348.337C349.166 0.5 349.837 1.17157 349.837 2C349.837 2.82843 349.166 3.5 348.337 3.5H340.329C339.501 3.5 338.829 2.82843 338.829 2ZM357.848 2C357.848 1.17157 358.519 0.5 359.348 0.5H367.356C368.184 0.5 368.856 1.17157 368.856 2C368.856 2.82843 368.184 3.5 367.356 3.5H359.348C358.519 3.5 357.848 2.82843 357.848 2ZM376.866 2C376.866 1.17157 377.538 0.5 378.366 0.5H386.374C387.203 0.5 387.874 1.17157 387.874 2C387.874 2.82843 387.203 3.5 386.374 3.5H378.366C377.538 3.5 376.866 2.82843 376.866 2ZM395.885 2C395.885 1.17157 396.556 0.5 397.385 0.5H405.393C406.221 0.5 406.893 1.17157 406.893 2C406.893 2.82843 406.221 3.5 405.393 3.5H397.385C396.556 3.5 395.885 2.82843 395.885 2ZM414.903 2C414.903 1.17157 415.575 0.5 416.403 0.5H424.411C425.24 0.5 425.911 1.17157 425.911 2C425.911 2.82843 425.24 3.5 424.411 3.5H416.403C415.575 3.5 414.903 2.82843 414.903 2ZM433.922 2C433.922 1.17157 434.593 0.5 435.422 0.5H443.43C444.258 0.5 444.93 1.17157 444.93 2C444.93 2.82843 444.258 3.5 443.43 3.5H435.422C434.593 3.5 433.922 2.82843 433.922 2ZM452.94 2C452.94 1.17157 453.612 0.5 454.44 0.5H462.448C463.277 0.5 463.948 1.17157 463.948 2C463.948 2.82843 463.277 3.5 462.448 3.5H454.44C453.612 3.5 452.94 2.82843 452.94 2ZM471.959 2C471.959 1.17157 472.63 0.5 473.459 0.5H481.467C482.295 0.5 482.967 1.17157 482.967 2C482.967 2.82843 482.295 3.5 481.467 3.5H473.459C472.63 3.5 471.959 2.82843 471.959 2ZM490.977 2C490.977 1.17157 491.649 0.5 492.477 0.5H500.485C501.314 0.5 501.985 1.17157 501.985 2C501.985 2.82843 501.314 3.5 500.485 3.5H492.477C491.649 3.5 490.977 2.82843 490.977 2ZM509.996 2C509.996 1.17157 510.667 0.5 511.496 0.5H515.5C517.011 0.5 518.51 0.549295 519.997 0.646391C520.824 0.70038 521.45 1.41429 521.396 2.24096C521.342 3.06762 520.628 3.694 519.802 3.64001C518.38 3.54716 516.946 3.5 515.5 3.5H511.496C510.667 3.5 509.996 2.82843 509.996 2ZM530.376 3.65269C530.579 2.84947 531.394 2.36273 532.197 2.56552C535.128 3.30555 537.984 4.23587 540.75 5.34256C541.519 5.65032 541.893 6.52332 541.585 7.29246C541.277 8.0616 540.404 8.43561 539.635 8.12785C536.992 7.07034 534.264 6.18138 531.463 5.47425C530.66 5.27145 530.173 4.45592 530.376 3.65269ZM549.682 11.4263C550.125 10.7258 551.051 10.5164 551.751 10.9587C554.293 12.563 556.72 14.3309 559.019 16.2475C559.655 16.778 559.741 17.7239 559.211 18.3602C558.68 18.9965 557.734 19.0822 557.098 18.5517C554.9 16.7192 552.579 15.029 550.15 13.4955C549.449 13.0532 549.24 12.1268 549.682 11.4263ZM565.64 24.7894C566.276 24.2589 567.222 24.3447 567.752 24.981C569.669 27.2798 571.437 29.7073 573.041 32.2485C573.484 32.949 573.274 33.8754 572.574 34.3176C571.873 34.7599 570.947 34.5505 570.505 33.85C568.971 31.4208 567.281 29.1001 565.448 26.9021C564.918 26.2658 565.004 25.3199 565.64 24.7894ZM576.708 42.415C577.477 42.1072 578.35 42.4812 578.657 43.2504C579.764 46.0161 580.694 48.8715 581.435 51.8026C581.637 52.6059 581.151 53.4214 580.347 53.6242C579.544 53.827 578.729 53.3402 578.526 52.537C577.819 49.7362 576.93 47.0077 575.872 44.3649C575.564 43.5958 575.938 42.7228 576.708 42.415ZM581.759 62.6039C582.586 62.5499 583.3 63.1763 583.354 64.0029C583.451 65.4896 583.5 66.9892 583.5 68.5C583.5 70.0108 583.451 71.5104 583.354 72.997C583.3 73.8237 582.586 74.4501 581.759 74.3961C580.932 74.3421 580.306 73.6282 580.36 72.8015C580.453 71.3799 580.5 69.9456 580.5 68.5C580.5 67.0544 580.453 65.6201 580.36 64.1985C580.306 63.3718 580.932 62.6579 581.759 62.6039ZM580.347 83.3758C581.151 83.5786 581.637 84.3941 581.435 85.1974C580.694 88.1285 579.764 90.9839 578.657 93.7496C578.35 94.5188 577.477 94.8928 576.708 94.585C575.938 94.2772 575.564 93.4042 575.872 92.6351C576.93 89.9923 577.819 87.2638 578.526 84.463C578.729 83.6598 579.544 83.173 580.347 83.3758ZM572.574 102.682C573.274 103.125 573.484 104.051 573.041 104.751C571.437 107.293 569.669 109.72 567.753 112.019C567.222 112.655 566.276 112.741 565.64 112.211C565.004 111.68 564.918 110.734 565.448 110.098C567.281 107.9 568.971 105.579 570.505 103.15C570.947 102.45 571.873 102.24 572.574 102.682ZM559.211 118.64C559.741 119.276 559.655 120.222 559.019 120.752C556.72 122.669 554.293 124.437 551.751 126.041C551.051 126.484 550.125 126.274 549.682 125.574C549.24 124.873 549.449 123.947 550.15 123.505C552.579 121.971 554.9 120.281 557.098 118.448C557.734 117.918 558.68 118.004 559.211 118.64ZM541.585 129.708C541.893 130.477 541.519 131.35 540.75 131.657C537.984 132.764 535.128 133.694 532.197 134.434C531.394 134.637 530.579 134.151 530.376 133.347C530.173 132.544 530.66 131.729 531.463 131.526C534.264 130.819 536.992 129.93 539.635 128.872C540.404 128.564 541.277 128.938 541.585 129.708ZM521.396 134.759C521.45 135.586 520.824 136.3 519.997 136.354C518.51 136.451 517.011 136.5 515.5 136.5H511.579C510.751 136.5 510.079 135.828 510.079 135C510.079 134.172 510.751 133.5 511.579 133.5H515.5C516.946 133.5 518.38 133.453 519.802 133.36C520.628 133.306 521.342 133.932 521.396 134.759ZM64.003 133.646C65.4897 133.549 66.9892 133.5 68.5 133.5H72.4211C73.2495 133.5 73.9211 134.172 73.9211 135C73.9211 135.828 73.2495 136.5 72.4211 136.5H68.5C67.0545 136.5 65.6201 136.547 64.1985 136.64C63.3718 136.694 62.6579 136.068 62.6039 135.241C62.5499 134.414 63.1763 133.7 64.003 133.646ZM81.704 135C81.704 134.172 82.3755 133.5 83.204 133.5H91.0461C91.8745 133.5 92.5461 134.172 92.5461 135C92.5461 135.828 91.8745 136.5 91.0461 136.5H83.204C82.3755 136.5 81.704 135.828 81.704 135ZM100.329 135C100.329 134.172 101.001 133.5 101.829 133.5H109.671C110.499 133.5 111.171 134.172 111.171 135C111.171 135.828 110.499 136.5 109.671 136.5H101.829C101.001 136.5 100.329 135.828 100.329 135ZM118.954 135C118.954 134.172 119.626 133.5 120.454 133.5H128.296C129.125 133.5 129.796 134.172 129.796 135C129.796 135.828 129.125 136.5 128.296 136.5H120.454C119.626 136.5 118.954 135.828 118.954 135ZM137.579 135C137.579 134.172 138.251 133.5 139.079 133.5H146.921C147.749 133.5 148.421 134.172 148.421 135C148.421 135.828 147.749 136.5 146.921 136.5H139.079C138.251 136.5 137.579 135.828 137.579 135ZM156.204 135C156.204 134.172 156.876 133.5 157.704 133.5H165.546C166.374 133.5 167.046 134.172 167.046 135C167.046 135.828 166.374 136.5 165.546 136.5H157.704C156.876 136.5 156.204 135.828 156.204 135ZM174.829 135C174.829 134.172 175.501 133.5 176.329 133.5H184.171C184.999 133.5 185.671 134.172 185.671 135C185.671 135.828 184.999 136.5 184.171 136.5H176.329C175.501 136.5 174.829 135.828 174.829 135ZM193.454 135C193.454 134.172 194.126 133.5 194.954 133.5H202.796C203.624 133.5 204.296 134.172 204.296 135C204.296 135.828 203.624 136.5 202.796 136.5H194.954C194.126 136.5 193.454 135.828 193.454 135ZM212.079 135C212.079 134.172 212.751 133.5 213.579 133.5H221.421C222.249 133.5 222.921 134.172 222.921 135C222.921 135.828 222.249 136.5 221.421 136.5H213.579C212.751 136.5 212.079 135.828 212.079 135ZM230.704 135C230.704 134.172 231.376 133.5 232.204 133.5H240.046C240.874 133.5 241.546 134.172 241.546 135C241.546 135.828 240.874 136.5 240.046 136.5H232.204C231.376 136.5 230.704 135.828 230.704 135ZM249.329 135C249.329 134.172 250.001 133.5 250.829 133.5H258.671C259.499 133.5 260.171 134.172 260.171 135C260.171 135.828 259.499 136.5 258.671 136.5H250.829C250.001 136.5 249.329 135.828 249.329 135ZM267.954 135C267.954 134.172 268.626 133.5 269.454 133.5H277.296C278.124 133.5 278.796 134.172 278.796 135C278.796 135.828 278.124 136.5 277.296 136.5H269.454C268.626 136.5 267.954 135.828 267.954 135ZM286.579 135C286.579 134.172 287.251 133.5 288.079 133.5H295.921C296.749 133.5 297.421 134.172 297.421 135C297.421 135.828 296.749 136.5 295.921 136.5H288.079C287.251 136.5 286.579 135.828 286.579 135ZM305.204 135C305.204 134.172 305.876 133.5 306.704 133.5H314.546C315.374 133.5 316.046 134.172 316.046 135C316.046 135.828 315.374 136.5 314.546 136.5H306.704C305.876 136.5 305.204 135.828 305.204 135ZM323.829 135C323.829 134.172 324.501 133.5 325.329 133.5H333.171C333.999 133.5 334.671 134.172 334.671 135C334.671 135.828 333.999 136.5 333.171 136.5H325.329C324.501 136.5 323.829 135.828 323.829 135ZM342.454 135C342.454 134.172 343.126 133.5 343.954 133.5H351.796C352.624 133.5 353.296 134.172 353.296 135C353.296 135.828 352.624 136.5 351.796 136.5H343.954C343.126 136.5 342.454 135.828 342.454 135ZM361.079 135C361.079 134.172 361.751 133.5 362.579 133.5H370.421C371.249 133.5 371.921 134.172 371.921 135C371.921 135.828 371.249 136.5 370.421 136.5H362.579C361.751 136.5 361.079 135.828 361.079 135ZM379.704 135C379.704 134.172 380.376 133.5 381.204 133.5H389.046C389.874 133.5 390.546 134.172 390.546 135C390.546 135.828 389.874 136.5 389.046 136.5H381.204C380.376 136.5 379.704 135.828 379.704 135ZM398.329 135C398.329 134.172 399.001 133.5 399.829 133.5H407.671C408.499 133.5 409.171 134.172 409.171 135C409.171 135.828 408.499 136.5 407.671 136.5H399.829C399.001 136.5 398.329 135.828 398.329 135ZM416.954 135C416.954 134.172 417.626 133.5 418.454 133.5H426.296C427.124 133.5 427.796 134.172 427.796 135C427.796 135.828 427.124 136.5 426.296 136.5H418.454C417.626 136.5 416.954 135.828 416.954 135ZM435.579 135C435.579 134.172 436.251 133.5 437.079 133.5H444.921C445.749 133.5 446.421 134.172 446.421 135C446.421 135.828 445.749 136.5 444.921 136.5H437.079C436.251 136.5 435.579 135.828 435.579 135ZM454.204 135C454.204 134.172 454.876 133.5 455.704 133.5H463.546C464.374 133.5 465.046 134.172 465.046 135C465.046 135.828 464.374 136.5 463.546 136.5H455.704C454.876 136.5 454.204 135.828 454.204 135ZM472.829 135C472.829 134.172 473.501 133.5 474.329 133.5H482.171C482.999 133.5 483.671 134.172 483.671 135C483.671 135.828 482.999 136.5 482.171 136.5H474.329C473.501 136.5 472.829 135.828 472.829 135ZM491.454 135C491.454 134.172 492.126 133.5 492.954 133.5H500.796C501.624 133.5 502.296 134.172 502.296 135C502.296 135.828 501.624 136.5 500.796 136.5H492.954C492.126 136.5 491.454 135.828 491.454 135ZM53.6242 136.653C53.827 137.456 53.3403 138.271 52.537 138.474C49.7362 139.181 47.0078 140.07 44.3649 141.128C43.5958 141.436 42.7228 141.062 42.415 140.292C42.1072 139.523 42.4813 138.65 43.2504 138.343C46.0161 137.236 48.8715 136.306 51.8027 135.566C52.6059 135.363 53.4214 135.849 53.6242 136.653ZM34.3176 144.426C34.7599 145.127 34.5505 146.053 33.85 146.495C31.4208 148.029 29.1001 149.719 26.9021 151.552C26.2658 152.082 25.3199 151.996 24.7894 151.36C24.2589 150.724 24.3447 149.778 24.981 149.248C27.2798 147.331 29.7073 145.563 32.2485 143.959C32.949 143.516 33.8754 143.726 34.3176 144.426ZM18.3602 157.789C18.9965 158.32 19.0822 159.266 18.5517 159.902C16.7192 162.1 15.029 164.421 13.4955 166.85C13.0532 167.55 12.1268 167.76 11.4263 167.318C10.7258 166.875 10.5164 165.949 10.9587 165.249C12.563 162.707 14.3309 160.28 16.2475 157.981C16.778 157.345 17.7239 157.259 18.3602 157.789ZM7.29246 175.415C8.0616 175.723 8.43562 176.596 8.12785 177.365C7.07034 180.008 6.18138 182.736 5.47425 185.537C5.27145 186.34 4.45592 186.827 3.65269 186.624C2.84947 186.421 2.36273 185.606 2.56552 184.803C3.30555 181.872 4.23587 179.016 5.34256 176.25C5.65032 175.481 6.52332 175.107 7.29246 175.415ZM2.24096 195.604C3.06762 195.658 3.694 196.372 3.64001 197.198C3.54716 198.62 3.5 200.054 3.5 201.5C3.5 202.946 3.54716 204.38 3.64001 205.802C3.694 206.628 3.06762 207.342 2.24096 207.396C1.41429 207.45 0.70038 206.824 0.646391 205.997C0.549295 204.51 0.5 203.011 0.5 201.5C0.5 199.989 0.549295 198.49 0.646391 197.003C0.70038 196.176 1.41429 195.55 2.24096 195.604ZM3.65269 216.376C4.45592 216.173 5.27145 216.66 5.47425 217.463C6.18138 220.264 7.07033 222.992 8.12785 225.635C8.43561 226.404 8.06159 227.277 7.29246 227.585C6.52332 227.893 5.65032 227.519 5.34255 226.75C4.23587 223.984 3.30555 221.128 2.56552 218.197C2.36273 217.394 2.84947 216.579 3.65269 216.376ZM11.4263 235.682C12.1268 235.24 13.0532 235.449 13.4954 236.15C15.029 238.579 16.7192 240.9 18.5517 243.098C19.0822 243.734 18.9965 244.68 18.3602 245.211C17.7239 245.741 16.778 245.655 16.2475 245.019C14.3309 242.72 12.563 240.293 10.9587 237.751C10.5164 237.051 10.7258 236.125 11.4263 235.682ZM24.7894 251.64C25.3199 251.004 26.2658 250.918 26.9021 251.448C29.1001 253.281 31.4208 254.971 33.85 256.505C34.5505 256.947 34.7599 257.873 34.3176 258.574C33.8754 259.274 32.949 259.484 32.2485 259.041C29.7073 257.437 27.2798 255.669 24.981 253.752C24.3447 253.222 24.2589 252.276 24.7894 251.64ZM42.415 262.708C42.7228 261.938 43.5958 261.564 44.3649 261.872C47.0078 262.93 49.7362 263.819 52.537 264.526C53.3402 264.729 53.827 265.544 53.6242 266.347C53.4214 267.151 52.6059 267.637 51.8026 267.434C48.8715 266.694 46.0161 265.764 43.2504 264.657C42.4813 264.35 42.1072 263.477 42.415 262.708ZM62.6039 267.759C62.6579 266.932 63.3718 266.306 64.1985 266.36C65.6201 266.453 67.0544 266.5 68.5 266.5H72.4211C73.2495 266.5 73.9211 267.172 73.9211 268C73.9211 268.828 73.2495 269.5 72.4211 269.5H68.5C66.9892 269.5 65.4896 269.451 64.0029 269.354C63.1763 269.3 62.5499 268.586 62.6039 267.759ZM81.7039 268C81.7039 267.172 82.3755 266.5 83.2039 266.5H91.0461C91.8745 266.5 92.5461 267.172 92.5461 268C92.5461 268.828 91.8745 269.5 91.0461 269.5H83.2039C82.3755 269.5 81.7039 268.828 81.7039 268ZM100.329 268C100.329 267.172 101.001 266.5 101.829 266.5H109.671C110.499 266.5 111.171 267.172 111.171 268C111.171 268.828 110.499 269.5 109.671 269.5H101.829C101.001 269.5 100.329 268.828 100.329 268ZM118.954 268C118.954 267.172 119.626 266.5 120.454 266.5H128.296C129.124 266.5 129.796 267.172 129.796 268C129.796 268.828 129.124 269.5 128.296 269.5H120.454C119.626 269.5 118.954 268.828 118.954 268ZM137.579 268C137.579 267.172 138.251 266.5 139.079 266.5H146.921C147.749 266.5 148.421 267.172 148.421 268C148.421 268.828 147.749 269.5 146.921 269.5H139.079C138.251 269.5 137.579 268.828 137.579 268ZM156.204 268C156.204 267.172 156.876 266.5 157.704 266.5H165.546C166.374 266.5 167.046 267.172 167.046 268C167.046 268.828 166.374 269.5 165.546 269.5H157.704C156.876 269.5 156.204 268.828 156.204 268ZM174.829 268C174.829 267.172 175.501 266.5 176.329 266.5H184.171C184.999 266.5 185.671 267.172 185.671 268C185.671 268.828 184.999 269.5 184.171 269.5H176.329C175.501 269.5 174.829 268.828 174.829 268ZM193.454 268C193.454 267.172 194.126 266.5 194.954 266.5H202.796C203.624 266.5 204.296 267.172 204.296 268C204.296 268.828 203.624 269.5 202.796 269.5H194.954C194.126 269.5 193.454 268.828 193.454 268ZM212.079 268C212.079 267.172 212.751 266.5 213.579 266.5H221.421C222.249 266.5 222.921 267.172 222.921 268C222.921 268.828 222.249 269.5 221.421 269.5H213.579C212.751 269.5 212.079 268.828 212.079 268ZM230.704 268C230.704 267.172 231.376 266.5 232.204 266.5H240.046C240.874 266.5 241.546 267.172 241.546 268C241.546 268.828 240.874 269.5 240.046 269.5H232.204C231.376 269.5 230.704 268.828 230.704 268ZM249.329 268C249.329 267.172 250.001 266.5 250.829 266.5H258.671C259.499 266.5 260.171 267.172 260.171 268C260.171 268.828 259.499 269.5 258.671 269.5H250.829C250.001 269.5 249.329 268.828 249.329 268ZM267.954 268C267.954 267.172 268.626 266.5 269.454 266.5H277.296C278.124 266.5 278.796 267.172 278.796 268C278.796 268.828 278.124 269.5 277.296 269.5H269.454C268.626 269.5 267.954 268.828 267.954 268ZM286.579 268C286.579 267.172 287.251 266.5 288.079 266.5H295.921C296.749 266.5 297.421 267.172 297.421 268C297.421 268.828 296.749 269.5 295.921 269.5H288.079C287.251 269.5 286.579 268.828 286.579 268ZM305.204 268C305.204 267.172 305.876 266.5 306.704 266.5H314.546C315.374 266.5 316.046 267.172 316.046 268C316.046 268.828 315.374 269.5 314.546 269.5H306.704C305.876 269.5 305.204 268.828 305.204 268ZM323.829 268C323.829 267.172 324.501 266.5 325.329 266.5H333.171C333.999 266.5 334.671 267.172 334.671 268C334.671 268.828 333.999 269.5 333.171 269.5H325.329C324.501 269.5 323.829 268.828 323.829 268ZM342.454 268C342.454 267.172 343.125 266.5 343.954 266.5H351.796C352.624 266.5 353.296 267.172 353.296 268C353.296 268.828 352.624 269.5 351.796 269.5H343.954C343.125 269.5 342.454 268.828 342.454 268ZM361.079 268C361.079 267.172 361.751 266.5 362.579 266.5H370.421C371.249 266.5 371.921 267.172 371.921 268C371.921 268.828 371.249 269.5 370.421 269.5H362.579C361.751 269.5 361.079 268.828 361.079 268ZM379.704 268C379.704 267.172 380.376 266.5 381.204 266.5H389.046C389.874 266.5 390.546 267.172 390.546 268C390.546 268.828 389.874 269.5 389.046 269.5H381.204C380.376 269.5 379.704 268.828 379.704 268ZM398.329 268C398.329 267.172 399 266.5 399.829 266.5H407.671C408.499 266.5 409.171 267.172 409.171 268C409.171 268.828 408.499 269.5 407.671 269.5H399.829C399 269.5 398.329 268.828 398.329 268ZM416.954 268C416.954 267.172 417.626 266.5 418.454 266.5H426.296C427.124 266.5 427.796 267.172 427.796 268C427.796 268.828 427.124 269.5 426.296 269.5H418.454C417.626 269.5 416.954 268.828 416.954 268ZM435.579 268C435.579 267.172 436.251 266.5 437.079 266.5H444.921C445.749 266.5 446.421 267.172 446.421 268C446.421 268.828 445.749 269.5 444.921 269.5H437.079C436.251 269.5 435.579 268.828 435.579 268ZM454.204 268C454.204 267.172 454.875 266.5 455.704 266.5H463.546C464.374 266.5 465.046 267.172 465.046 268C465.046 268.828 464.374 269.5 463.546 269.5H455.704C454.875 269.5 454.204 268.828 454.204 268ZM472.829 268C472.829 267.172 473.501 266.5 474.329 266.5H482.171C482.999 266.5 483.671 267.172 483.671 268C483.671 268.828 482.999 269.5 482.171 269.5H474.329C473.501 269.5 472.829 268.828 472.829 268ZM491.454 268C491.454 267.172 492.126 266.5 492.954 266.5H500.796C501.624 266.5 502.296 267.172 502.296 268C502.296 268.828 501.624 269.5 500.796 269.5H492.954C492.126 269.5 491.454 268.828 491.454 268ZM510.079 268C510.079 267.172 510.75 266.5 511.579 266.5H515.5C517.011 266.5 518.51 266.549 519.997 266.646C520.824 266.7 521.45 267.414 521.396 268.241C521.342 269.068 520.628 269.694 519.802 269.64C518.38 269.547 516.946 269.5 515.5 269.5H511.579C510.75 269.5 510.079 268.828 510.079 268ZM530.376 269.653C530.579 268.849 531.394 268.363 532.197 268.566C535.128 269.306 537.984 270.236 540.75 271.343C541.519 271.65 541.893 272.523 541.585 273.292C541.277 274.062 540.404 274.436 539.635 274.128C536.992 273.07 534.264 272.181 531.463 271.474C530.66 271.271 530.173 270.456 530.376 269.653ZM549.682 277.426C550.125 276.726 551.051 276.516 551.751 276.959C554.293 278.563 556.72 280.331 559.019 282.248C559.655 282.778 559.741 283.724 559.211 284.36C558.68 284.996 557.734 285.082 557.098 284.552C554.9 282.719 552.579 281.029 550.15 279.495C549.449 279.053 549.24 278.127 549.682 277.426ZM565.64 290.789C566.276 290.259 567.222 290.345 567.752 290.981C569.669 293.28 571.437 295.707 573.041 298.249C573.484 298.949 573.274 299.875 572.574 300.318C571.873 300.76 570.947 300.551 570.505 299.85C568.971 297.421 567.281 295.1 565.448 292.902C564.918 292.266 565.004 291.32 565.64 290.789ZM576.708 308.415C577.477 308.107 578.35 308.481 578.657 309.25C579.764 312.016 580.694 314.872 581.435 317.803C581.637 318.606 581.151 319.421 580.347 319.624C579.544 319.827 578.729 319.34 578.526 318.537C577.819 315.736 576.93 313.008 575.872 310.365C575.564 309.596 575.938 308.723 576.708 308.415ZM581.759 328.604C582.586 328.55 583.3 329.176 583.354 330.003C583.451 331.49 583.5 332.989 583.5 334.5C583.5 336.011 583.451 337.51 583.354 338.997C583.3 339.824 582.586 340.45 581.759 340.396C580.932 340.342 580.306 339.628 580.36 338.802C580.453 337.38 580.5 335.946 580.5 334.5C580.5 333.054 580.453 331.62 580.36 330.198C580.306 329.372 580.932 328.658 581.759 328.604ZM580.347 349.376C581.151 349.579 581.637 350.394 581.435 351.197C580.694 354.128 579.764 356.984 578.657 359.75C578.35 360.519 577.477 360.893 576.708 360.585C575.938 360.277 575.564 359.404 575.872 358.635C576.93 355.992 577.819 353.264 578.526 350.463C578.729 349.66 579.544 349.173 580.347 349.376ZM572.574 368.682C573.274 369.125 573.484 370.051 573.041 370.751C571.437 373.293 569.669 375.72 567.753 378.019C567.222 378.655 566.276 378.741 565.64 378.211C565.004 377.68 564.918 376.734 565.448 376.098C567.281 373.9 568.971 371.579 570.505 369.15C570.947 368.449 571.873 368.24 572.574 368.682ZM559.211 384.64C559.741 385.276 559.655 386.222 559.019 386.752C556.72 388.669 554.293 390.437 551.751 392.041C551.051 392.484 550.125 392.274 549.682 391.574C549.24 390.873 549.449 389.947 550.15 389.505C552.579 387.971 554.9 386.281 557.098 384.448C557.734 383.918 558.68 384.004 559.211 384.64ZM541.585 395.708C541.893 396.477 541.519 397.35 540.75 397.657C537.984 398.764 535.128 399.694 532.197 400.434C531.394 400.637 530.579 400.151 530.376 399.347C530.173 398.544 530.66 397.729 531.463 397.526C534.264 396.819 536.992 395.93 539.635 394.872C540.404 394.564 541.277 394.938 541.585 395.708ZM521.396 400.759C521.45 401.586 520.824 402.3 519.997 402.354C518.51 402.451 517.011 402.5 515.5 402.5H511.496C510.668 402.5 509.996 401.828 509.996 401C509.996 400.172 510.668 399.5 511.496 399.5H515.5C516.946 399.5 518.38 399.453 519.802 399.36C520.628 399.306 521.342 399.932 521.396 400.759ZM0.5 401C0.5 400.172 1.17157 399.5 2 399.5H6.00419C6.83262 399.5 7.50419 400.172 7.50419 401C7.50419 401.828 6.83262 402.5 6.00419 402.5H2C1.17157 402.5 0.5 401.828 0.5 401ZM15.5149 401C15.5149 400.172 16.1865 399.5 17.0149 399.5H25.0227C25.8511 399.5 26.5227 400.172 26.5227 401C26.5227 401.828 25.8511 402.5 25.0227 402.5H17.0149C16.1865 402.5 15.5149 401.828 15.5149 401ZM34.5334 401C34.5334 400.172 35.2049 399.5 36.0334 399.5H44.0412C44.8696 399.5 45.5412 400.172 45.5412 401C45.5412 401.828 44.8696 402.5 44.0412 402.5H36.0334C35.2049 402.5 34.5334 401.828 34.5334 401ZM53.5519 401C53.5519 400.172 54.2235 399.5 55.0519 399.5H63.0597C63.8881 399.5 64.5596 400.172 64.5596 401C64.5596 401.828 63.8881 402.5 63.0597 402.5H55.0519C54.2235 402.5 53.5519 401.828 53.5519 401ZM72.5704 401C72.5704 400.172 73.2419 399.5 74.0704 399.5H82.0782C82.9066 399.5 83.5782 400.172 83.5782 401C83.5782 401.828 82.9066 402.5 82.0782 402.5H74.0704C73.2419 402.5 72.5704 401.828 72.5704 401ZM91.5889 401C91.5889 400.172 92.2604 399.5 93.0889 399.5H101.097C101.925 399.5 102.597 400.172 102.597 401C102.597 401.828 101.925 402.5 101.097 402.5H93.0889C92.2604 402.5 91.5889 401.828 91.5889 401ZM110.607 401C110.607 400.172 111.279 399.5 112.107 399.5H120.115C120.944 399.5 121.615 400.172 121.615 401C121.615 401.828 120.944 402.5 120.115 402.5H112.107C111.279 402.5 110.607 401.828 110.607 401ZM129.626 401C129.626 400.172 130.297 399.5 131.126 399.5H139.134C139.962 399.5 140.634 400.172 140.634 401C140.634 401.828 139.962 402.5 139.134 402.5H131.126C130.297 402.5 129.626 401.828 129.626 401ZM148.644 401C148.644 400.172 149.316 399.5 150.144 399.5H158.152C158.981 399.5 159.652 400.172 159.652 401C159.652 401.828 158.981 402.5 158.152 402.5H150.144C149.316 402.5 148.644 401.828 148.644 401ZM167.663 401C167.663 400.172 168.334 399.5 169.163 399.5H177.171C177.999 399.5 178.671 400.172 178.671 401C178.671 401.828 177.999 402.5 177.171 402.5H169.163C168.334 402.5 167.663 401.828 167.663 401ZM186.681 401C186.681 400.172 187.353 399.5 188.181 399.5H196.189C197.018 399.5 197.689 400.172 197.689 401C197.689 401.828 197.018 402.5 196.189 402.5H188.181C187.353 402.5 186.681 401.828 186.681 401ZM205.7 401C205.7 400.172 206.371 399.5 207.2 399.5H215.208C216.036 399.5 216.708 400.172 216.708 401C216.708 401.828 216.036 402.5 215.208 402.5H207.2C206.371 402.5 205.7 401.828 205.7 401ZM224.718 401C224.718 400.172 225.39 399.5 226.218 399.5H234.226C235.055 399.5 235.726 400.172 235.726 401C235.726 401.828 235.055 402.5 234.226 402.5H226.218C225.39 402.5 224.718 401.828 224.718 401ZM243.737 401C243.737 400.172 244.408 399.5 245.237 399.5H253.245C254.073 399.5 254.745 400.172 254.745 401C254.745 401.828 254.073 402.5 253.245 402.5H245.237C244.408 402.5 243.737 401.828 243.737 401ZM262.755 401C262.755 400.172 263.427 399.5 264.255 399.5H272.263C273.092 399.5 273.763 400.172 273.763 401C273.763 401.828 273.092 402.5 272.263 402.5H264.255C263.427 402.5 262.755 401.828 262.755 401ZM281.774 401C281.774 400.172 282.445 399.5 283.274 399.5H291.282C292.11 399.5 292.782 400.172 292.782 401C292.782 401.828 292.11 402.5 291.282 402.5H283.274C282.445 402.5 281.774 401.828 281.774 401ZM300.792 401C300.792 400.172 301.464 399.5 302.292 399.5H310.3C311.129 399.5 311.8 400.172 311.8 401C311.8 401.828 311.129 402.5 310.3 402.5H302.292C301.464 402.5 300.792 401.828 300.792 401ZM319.811 401C319.811 400.172 320.482 399.5 321.311 399.5H329.319C330.147 399.5 330.819 400.172 330.819 401C330.819 401.828 330.147 402.5 329.319 402.5H321.311C320.482 402.5 319.811 401.828 319.811 401ZM338.829 401C338.829 400.172 339.501 399.5 340.329 399.5H348.337C349.166 399.5 349.837 400.172 349.837 401C349.837 401.828 349.166 402.5 348.337 402.5H340.329C339.501 402.5 338.829 401.828 338.829 401ZM357.848 401C357.848 400.172 358.52 399.5 359.348 399.5H367.356C368.184 399.5 368.856 400.172 368.856 401C368.856 401.828 368.184 402.5 367.356 402.5H359.348C358.52 402.5 357.848 401.828 357.848 401ZM376.866 401C376.866 400.172 377.538 399.5 378.366 399.5H386.374C387.203 399.5 387.874 400.172 387.874 401C387.874 401.828 387.203 402.5 386.374 402.5H378.366C377.538 402.5 376.866 401.828 376.866 401ZM395.885 401C395.885 400.172 396.557 399.5 397.385 399.5H405.393C406.221 399.5 406.893 400.172 406.893 401C406.893 401.828 406.221 402.5 405.393 402.5H397.385C396.557 402.5 395.885 401.828 395.885 401ZM414.904 401C414.904 400.172 415.575 399.5 416.404 399.5H424.411C425.24 399.5 425.911 400.172 425.911 401C425.911 401.828 425.24 402.5 424.411 402.5H416.404C415.575 402.5 414.904 401.828 414.904 401ZM433.922 401C433.922 400.172 434.594 399.5 435.422 399.5H443.43C444.258 399.5 444.93 400.172 444.93 401C444.93 401.828 444.258 402.5 443.43 402.5H435.422C434.594 402.5 433.922 401.828 433.922 401ZM452.941 401C452.941 400.172 453.612 399.5 454.441 399.5H462.448C463.277 399.5 463.948 400.172 463.948 401C463.948 401.828 463.277 402.5 462.448 402.5H454.441C453.612 402.5 452.941 401.828 452.941 401ZM471.959 401C471.959 400.172 472.631 399.5 473.459 399.5H481.467C482.295 399.5 482.967 400.172 482.967 401C482.967 401.828 482.295 402.5 481.467 402.5H473.459C472.631 402.5 471.959 401.828 471.959 401ZM490.978 401C490.978 400.172 491.649 399.5 492.478 399.5H500.485C501.314 399.5 501.985 400.172 501.985 401C501.985 401.828 501.314 402.5 500.485 402.5H492.478C491.649 402.5 490.978 401.828 490.978 401Z" fill="#005BFF"></path> </svg> 