<?xml version="1.0" encoding="UTF-8"?> <svg xmlns="http://www.w3.org/2000/svg" width="488" height="108" viewBox="0 0 488 108" fill="none"> <path d="M203.827 80.3567H161.734L215.472 8.24679C216.643 6.66341 216.318 4.35431 214.756 3.16677C214.171 2.70495 213.39 2.44105 212.61 2.44105H134.865C128.034 2.44105 122.439 8.11485 122.439 15.0422C122.439 21.9695 128.034 27.6432 134.865 27.6432H169.801L115.868 99.8192C114.632 101.403 114.957 103.646 116.519 104.899C117.169 105.427 117.95 105.691 118.731 105.625H203.762C210.593 105.295 215.862 99.3574 215.537 92.3641C215.212 85.8986 210.137 80.7526 203.762 80.4227V80.3567H203.827ZM475.509 2.44105C468.678 2.44105 463.083 8.11485 463.083 15.0422V57.3317L395.943 3.29872C394.447 2.0452 392.17 2.24313 390.934 3.82651C390.413 4.48626 390.153 5.27795 390.153 6.13562V93.0238C390.153 99.9511 395.748 105.625 402.579 105.625C409.41 105.625 415.005 100.017 415.005 93.0238V50.7343L482.145 104.833C483.706 106.087 485.983 105.823 487.219 104.239C487.74 103.58 488 102.788 488 101.996V15.0422C487.935 8.04887 482.405 2.44105 475.509 2.44105ZM297.836 82.7318C269.405 82.7318 248.196 67.5577 248.196 53.967C248.196 40.3763 269.47 25.2022 297.836 25.2022C326.266 25.2022 347.475 40.3763 347.475 53.967C347.475 67.5577 326.331 82.7318 297.836 82.7318ZM297.836 0C256.719 0 223.344 24.1466 223.344 53.967C223.344 83.7874 256.719 107.934 297.836 107.934C338.952 107.934 372.327 83.7874 372.327 53.967C372.327 24.1466 338.952 0 297.836 0ZM53.2825 82.7978C37.6035 82.7978 24.8522 69.9328 24.8522 54.033C24.8522 38.1332 37.5385 25.2022 53.2174 25.2022C68.8964 25.2022 81.6478 38.0672 81.6478 53.967V54.033C81.6478 69.8668 68.9615 82.7318 53.2825 82.7978ZM53.2825 0C23.8763 0 0.065058 24.1466 0 53.967C0 83.7874 23.8112 107.934 53.2174 108C82.6237 108 106.435 83.8534 106.5 54.033V53.967C106.435 24.1466 82.6236 0 53.2825 0Z" fill="white"></path> </svg> 