<?xml version="1.0" encoding="UTF-8"?> <svg xmlns="http://www.w3.org/2000/svg" width="421" height="92" viewBox="0 0 421 92" fill="none"> <path d="M175.843 68.4459H139.529L185.889 7.02442C186.899 5.67573 186.619 3.70889 185.272 2.69738C184.767 2.30401 184.093 2.07923 183.42 2.07923H116.349C110.456 2.07923 105.629 6.91203 105.629 12.8125C105.629 18.713 110.456 23.5458 116.349 23.5458H146.489L99.9603 85.0235C98.894 86.3722 99.1746 88.2829 100.522 89.3506C101.083 89.8001 101.756 90.0249 102.43 89.9687H175.787C181.68 89.6877 186.226 84.6302 185.945 78.6735C185.665 73.1663 181.287 68.7831 175.787 68.5021V68.4459H175.843ZM410.225 2.07923C404.331 2.07923 399.505 6.91203 399.505 12.8125V48.8337L341.583 2.80977C340.292 1.74206 338.327 1.91064 337.261 3.25933C336.812 3.82128 336.587 4.49563 336.587 5.22617V79.2354C336.587 85.1359 341.414 89.9687 347.307 89.9687C353.201 89.9687 358.028 85.1921 358.028 79.2354V43.2142L415.95 89.2944C417.297 90.3621 419.261 90.1373 420.327 88.7886C420.776 88.2267 421.001 87.5523 421.001 86.878V12.8125C420.945 6.85583 416.174 2.07923 410.225 2.07923ZM256.945 70.4689C232.418 70.4689 214.121 57.544 214.121 45.9678C214.121 34.3915 232.474 21.4666 256.945 21.4666C281.472 21.4666 299.769 34.3915 299.769 45.9678C299.769 57.544 281.528 70.4689 256.945 70.4689ZM256.945 0C221.473 0 192.68 20.5675 192.68 45.9678C192.68 71.3681 221.473 91.9356 256.945 91.9356C292.416 91.9356 321.209 71.3681 321.209 45.9678C321.209 20.5675 292.416 0 256.945 0ZM45.9672 70.5251C32.4408 70.5251 21.4401 59.567 21.4401 46.024C21.4401 32.4809 32.3847 21.4666 45.911 21.4666C59.4374 21.4666 70.4381 32.4247 70.4381 45.9678V46.024C70.4381 59.5109 59.4935 70.4689 45.9672 70.5251ZM45.9672 0C20.5982 0 0.056126 20.5675 0 45.9678C0 71.3681 20.5421 91.9356 45.911 91.9918C71.28 91.9918 91.8221 71.4243 91.8782 46.024V45.9678C91.8221 20.5675 71.28 0 45.9672 0Z" fill="white"></path> </svg> 