<?xml version="1.0" encoding="UTF-8"?> <svg xmlns="http://www.w3.org/2000/svg" width="33" height="33" viewBox="0 0 33 33" fill="none"> <g clip-path="url(#clip0_408_1266)"> <path d="M27.504 11.4477C27.0133 11.4477 26.5547 11.359 26.128 11.1818C25.712 11.0045 25.344 10.7594 25.024 10.4466C24.704 10.1338 24.4533 9.774 24.272 9.36731C24.0907 8.9502 24 8.5018 24 8.02211C24 7.55286 24.0907 7.10967 24.272 6.69256C24.4533 6.27544 24.704 5.91568 25.024 5.61327C25.344 5.30043 25.712 5.05538 26.128 4.8781C26.5547 4.6904 27.0133 4.60176 27.504 4.61219C27.984 4.60176 28.4373 4.6904 28.864 4.8781C29.2907 5.05538 29.664 5.30043 29.984 5.61327C30.2933 5.91568 30.544 6.27544 30.736 6.69256C30.9173 7.10967 31.008 7.55286 31.008 8.02211C31.008 8.5018 30.9173 8.9502 30.736 9.36731C30.5547 9.774 30.304 10.1338 29.984 10.4466C29.664 10.7594 29.2907 11.0045 28.864 11.1818C28.4373 11.359 27.984 11.4477 27.504 11.4477ZM27.504 6.56742C27.088 6.56742 26.72 6.7082 26.4 6.98975C26.1333 7.27131 26 7.61543 26 8.02211C26 8.4288 26.1333 8.77814 26.4 9.07012C26.72 9.33082 27.088 9.46116 27.504 9.46116C27.92 9.46116 28.272 9.33082 28.56 9.07012C28.8587 8.80942 29.008 8.46009 29.008 8.02211C29.008 7.61543 28.8587 7.27131 28.56 6.98975C28.272 6.7082 27.92 6.56742 27.504 6.56742V6.56742ZM32 13.8878V21.1926C32 21.8495 31.872 22.4752 31.616 23.0696C31.3387 23.664 30.9813 24.1802 30.544 24.6181C30.0853 25.0665 29.552 25.4159 28.944 25.6661C28.3147 25.9268 27.6693 26.0572 27.008 26.0572C26.6027 26.0572 26.1973 25.9998 25.792 25.8851C25.376 25.8121 24.9973 25.6818 24.656 25.4941C24.4 26.3179 24.0213 27.0687 23.52 27.7465C23.0187 28.4243 22.432 29.0031 21.76 29.4827C21.088 29.9624 20.3467 30.3274 19.536 30.5777C18.7253 30.8592 17.8827 31 17.008 31C15.984 31 15.0187 30.8279 14.112 30.4838C13.2373 30.1397 12.4373 29.6496 11.712 29.0135C11.008 28.4191 10.4267 27.71 9.968 26.8862C9.49867 26.052 9.19467 25.1447 9.056 24.1645H1.328C0.976 24.1645 0.661333 24.0342 0.384 23.7735C0.128 23.5232 0 23.2208 0 22.8662V9.82093C0 9.46638 0.128 9.15876 0.384 8.89806C0.661333 8.64779 0.976 8.52265 1.328 8.52265H12.8C12.4907 7.89698 12.336 7.24524 12.336 6.56742C12.336 5.93132 12.4587 5.33172 12.704 4.76861C12.9387 4.24721 13.2693 3.76753 13.696 3.32956C14.1227 2.92287 14.624 2.5996 15.2 2.35976C15.7333 2.11992 16.3307 2 16.992 2C17.6427 2 18.2507 2.11992 18.816 2.35976C19.3813 2.5996 19.8773 2.92287 20.304 3.32956C20.7307 3.76753 21.0613 4.24721 21.296 4.76861C21.5413 5.33172 21.664 5.93132 21.664 6.56742C21.664 7.1931 21.5413 7.78749 21.296 8.35059C21.0613 8.90327 20.7307 9.38296 20.304 9.78964C19.8773 10.2068 19.3813 10.5352 18.816 10.7751C18.2507 11.0149 17.6427 11.1348 16.992 11.1348C16.832 11.1348 16.6667 11.1244 16.496 11.1036C16.336 11.0827 16.1707 11.0566 16 11.0254V12.4331H30.496C30.912 12.4331 31.2693 12.5739 31.568 12.8554C31.856 13.137 32 13.4811 32 13.8878V13.8878ZM17.008 3.98652C16.6347 3.98652 16.2987 4.04387 16 4.15858C15.648 4.29414 15.3493 4.48184 15.104 4.72168C14.8693 4.96152 14.6827 5.23786 14.544 5.5507C14.4053 5.87397 14.336 6.21287 14.336 6.56742C14.336 6.9324 14.4053 7.27131 14.544 7.58414C14.6827 7.89698 14.8693 8.17332 15.104 8.41316C15.3493 8.64257 15.648 8.83028 16 8.97627C16.2987 9.11183 16.6347 9.17961 17.008 9.17961C17.3707 9.17961 17.712 9.11183 18.032 8.97627C18.352 8.83028 18.6347 8.64257 18.88 8.41316C19.1253 8.17332 19.3173 7.89698 19.456 7.58414C19.6053 7.27131 19.68 6.9324 19.68 6.56742C19.68 6.21287 19.6053 5.87397 19.456 5.5507C19.3173 5.23786 19.1253 4.96152 18.88 4.72168C18.6347 4.48184 18.352 4.29414 18.032 4.15858C17.712 4.04387 17.3707 3.98652 17.008 3.98652ZM9.248 13.6532H12.256V11.2131H3.744V13.6532H6.752V21.4741H9.248V13.6532ZM23.008 23.1791V14.3883H16V22.8662C16 23.2208 15.872 23.5232 15.616 23.7735C15.3387 24.0342 15.024 24.1645 14.672 24.1645H11.072C11.2107 24.8632 11.4613 25.5149 11.824 26.1197C12.1867 26.7141 12.624 27.2303 13.136 27.6683C13.648 28.0958 14.2347 28.4347 14.896 28.685C15.5467 28.904 16.2507 29.0135 17.008 29.0135C17.8293 29.0135 18.6027 28.8727 19.328 28.5912C20.0533 28.2783 20.6933 27.856 21.248 27.3242C21.792 26.7923 22.2187 26.1719 22.528 25.4628C22.848 24.7537 23.008 23.9924 23.008 23.1791V23.1791ZM30 21.1926V14.3883H25.008V23.3199C25.2747 23.5805 25.5787 23.7787 25.92 23.9142C26.24 24.0394 26.6027 24.1019 27.008 24.1019C27.424 24.1019 27.8133 24.0237 28.176 23.8673C28.5387 23.7109 28.8533 23.5023 29.12 23.2416C29.3973 22.9809 29.6107 22.6681 29.76 22.3031C29.92 21.9486 30 21.5784 30 21.1926V21.1926Z" fill="white"></path> </g> <defs> <clipPath id="clip0_408_1266"> <rect width="32" height="32" fill="white" transform="translate(0.135742 0.681641)"></rect> </clipPath> </defs> </svg> 