<?xml version="1.0" encoding="UTF-8"?> <svg xmlns="http://www.w3.org/2000/svg" width="2059" height="1348" viewBox="0 0 2059 1348" fill="none"> <path d="M-0.000480538 1168.68C-0.000480616 1170.47 0.832426 1172.25 2.37908 1173.44C10.8261 1179.86 19.3923 1186.29 27.9584 1192.36C30.6947 1194.26 34.383 1193.67 36.2865 1190.93C38.19 1188.31 37.595 1184.5 34.8585 1182.6C26.4114 1176.53 17.9645 1170.23 9.63643 1163.92C7.01904 1161.9 3.33066 1162.38 1.30809 1164.99C0.35627 1166.18 -0.000480481 1167.37 -0.000480538 1168.68ZM51.396 1205.44C51.396 1207.35 52.3479 1209.25 54.0136 1210.44C62.8176 1216.27 71.8595 1222.1 80.9016 1227.57C83.7569 1229.24 87.326 1228.41 89.1106 1225.67C90.7762 1222.81 89.9434 1219.13 87.0881 1217.46C78.165 1211.99 69.242 1206.28 60.5569 1200.57C57.8205 1198.78 54.1323 1199.5 52.2288 1202.23C51.7529 1203.18 51.396 1204.37 51.396 1205.44ZM105.291 1238.52C105.291 1240.66 106.362 1242.56 108.384 1243.75C117.664 1248.99 127.063 1254.1 136.343 1258.86C139.318 1260.41 142.887 1259.22 144.433 1256.25C145.98 1253.39 144.79 1249.7 141.816 1248.16C132.655 1243.4 123.375 1238.4 114.214 1233.16C111.359 1231.5 107.671 1232.57 106.124 1235.43C105.529 1236.5 105.291 1237.57 105.291 1238.52ZM161.565 1267.55C161.565 1269.81 162.874 1271.95 165.016 1272.9C174.653 1277.42 184.408 1281.82 194.045 1285.87C197.138 1287.18 200.589 1285.75 201.898 1282.66C203.206 1279.68 201.779 1276.11 198.685 1274.81C189.167 1270.76 179.53 1266.48 170.013 1261.96C167.038 1260.53 163.469 1261.84 162.041 1264.81C161.685 1265.88 161.565 1266.72 161.565 1267.55ZM219.744 1292.29C219.744 1294.67 221.171 1296.93 223.551 1297.89C233.544 1301.69 243.538 1305.26 253.532 1308.59C256.625 1309.66 260.076 1308 261.027 1304.79C262.098 1301.69 260.433 1298.24 257.22 1297.29C247.345 1293.96 237.47 1290.51 227.596 1286.82C224.502 1285.63 221.052 1287.18 219.862 1290.27C219.862 1290.87 219.744 1291.58 219.744 1292.29ZM279.706 1312.28C279.706 1314.9 281.372 1317.28 283.989 1317.99C294.102 1320.97 304.453 1323.7 314.803 1326.2C318.016 1327.03 321.228 1325.01 322.061 1321.8C322.894 1318.59 320.871 1315.38 317.659 1314.54C307.546 1312.04 297.314 1309.31 287.321 1306.45C284.108 1305.5 280.896 1307.4 279.944 1310.5C279.825 1311.09 279.706 1311.69 279.706 1312.28ZM341.097 1327.27C341.097 1330.01 343 1332.51 345.855 1333.1C356.325 1335.24 366.795 1337.03 377.264 1338.69C380.477 1339.17 383.57 1337.03 384.046 1333.7C384.522 1330.37 382.38 1327.39 379.049 1326.92C368.817 1325.37 358.467 1323.47 348.235 1321.44C345.023 1320.85 341.81 1322.87 341.215 1326.08C341.215 1326.44 341.097 1326.92 341.097 1327.27ZM403.558 1337.03C403.558 1340 405.818 1342.62 408.912 1342.98C419.262 1344.17 429.97 1345.12 440.677 1345.83C444.009 1346.07 446.864 1343.57 446.983 1340.24C447.221 1337.03 444.723 1334.05 441.391 1333.94C430.803 1333.22 420.333 1332.27 410.101 1331.08C406.77 1330.72 403.915 1333.1 403.558 1336.31C403.558 1336.55 403.558 1336.79 403.558 1337.03ZM466.614 1341.43C466.614 1344.64 469.231 1347.26 472.443 1347.38C480.533 1347.62 488.624 1347.74 496.714 1347.74C499.212 1347.74 501.711 1347.74 504.209 1347.74C507.54 1347.74 510.158 1344.88 510.158 1341.67C510.158 1338.34 507.422 1335.72 504.09 1335.72C501.592 1335.72 499.093 1335.72 496.714 1335.72C488.743 1335.72 480.652 1335.6 472.681 1335.36C469.35 1335.24 466.614 1337.86 466.495 1341.19C466.614 1341.31 466.614 1341.31 466.614 1341.43ZM529.908 1340.84C529.908 1340.95 529.908 1341.07 529.908 1341.07C530.027 1344.4 532.882 1346.9 536.094 1346.78C546.564 1346.31 557.271 1345.71 567.86 1344.88C571.191 1344.64 573.571 1341.79 573.333 1338.46C573.095 1335.13 570.24 1332.75 566.908 1332.98C556.439 1333.82 545.969 1334.41 535.499 1334.89C532.406 1335.01 529.908 1337.74 529.908 1340.84ZM592.964 1335.96C592.964 1336.2 592.964 1336.43 592.964 1336.67C593.32 1340 596.295 1342.26 599.507 1341.91C609.977 1340.72 620.565 1339.41 631.035 1337.86C634.247 1337.39 636.508 1334.41 636.151 1331.08C635.675 1327.87 632.701 1325.61 629.369 1326.08C619.019 1327.63 608.43 1328.94 598.198 1330.13C595.224 1330.37 592.964 1332.98 592.964 1335.96ZM655.544 1326.92C655.544 1327.27 655.543 1327.63 655.662 1327.99C656.257 1331.2 659.351 1333.34 662.563 1332.86C672.914 1331.08 683.502 1328.94 693.853 1326.8C697.065 1326.08 699.088 1322.87 698.493 1319.78C697.779 1316.57 694.686 1314.54 691.474 1315.14C681.242 1317.28 670.891 1319.3 660.659 1321.09C657.566 1321.56 655.544 1324.06 655.544 1326.92ZM717.41 1313.95C717.41 1314.42 717.41 1314.9 717.529 1315.38C718.361 1318.59 721.574 1320.49 724.786 1319.78C735.137 1317.28 745.487 1314.54 755.6 1311.81C758.812 1310.97 760.597 1307.64 759.764 1304.43C758.931 1301.22 755.6 1299.43 752.388 1300.27C742.394 1303 732.162 1305.62 721.931 1308.12C719.194 1308.83 717.41 1311.21 717.41 1313.95ZM778.324 1297.05C778.324 1297.65 778.443 1298.24 778.562 1298.84C779.514 1301.93 782.845 1303.72 786.058 1302.76C796.17 1299.67 806.283 1296.34 816.277 1292.89C819.37 1291.82 821.036 1288.37 819.965 1285.28C818.894 1282.18 815.444 1280.52 812.351 1281.59C802.476 1285.04 792.482 1288.25 782.488 1291.34C779.99 1292.18 778.324 1294.56 778.324 1297.05ZM838.049 1276.35C838.049 1277.07 838.168 1277.78 838.406 1278.49C839.596 1281.59 843.046 1283.13 846.139 1281.94C856.133 1278.14 866.008 1274.09 875.645 1270.05C878.619 1268.74 880.047 1265.29 878.857 1262.19C877.548 1259.1 874.098 1257.79 871.004 1258.98C861.487 1263.03 851.731 1266.95 841.856 1270.76C839.477 1271.71 838.049 1273.97 838.049 1276.35ZM896.227 1251.72C896.227 1252.56 896.465 1253.39 896.822 1254.22C898.249 1257.2 901.819 1258.51 904.793 1257.08C914.43 1252.56 924.067 1247.92 933.466 1243.04C936.44 1241.49 937.511 1237.92 936.083 1235.07C934.536 1232.09 930.967 1231.02 928.112 1232.45C918.832 1237.21 909.314 1241.85 899.915 1246.25C897.536 1247.32 896.227 1249.46 896.227 1251.72ZM926.803 726.338C926.803 732.048 927.279 737.878 928.112 743.47C928.588 746.682 931.681 748.943 934.893 748.467C938.105 747.991 940.366 744.898 939.89 741.685C938.344 732.048 938.344 721.936 939.771 711.942C940.247 708.73 937.987 705.636 934.774 705.16C931.562 704.684 928.469 706.945 927.993 710.157C927.16 715.63 926.803 720.984 926.803 726.338ZM936.44 680.771C936.44 683.031 937.749 685.292 940.128 686.244C943.103 687.552 946.672 686.125 947.98 683.15C951.787 674.227 956.784 665.304 962.852 656.738C964.756 654.002 964.161 650.314 961.424 648.41C958.688 646.506 955 647.101 953.096 649.838C946.553 659.118 941.199 668.754 937.035 678.391C936.678 679.224 936.44 679.938 936.44 680.771ZM937.63 772.499C937.63 773.332 937.868 774.284 938.225 775.117C942.865 784.635 949.051 793.915 956.428 802.6C958.569 805.098 962.376 805.455 964.875 803.313C967.373 801.172 967.73 797.365 965.588 794.866C958.807 786.895 953.215 778.448 948.932 769.882C947.504 766.908 943.935 765.718 940.961 767.146C938.819 768.216 937.63 770.358 937.63 772.499ZM952.62 1222.81C952.62 1223.77 952.858 1224.84 953.334 1225.67C955 1228.52 958.569 1229.6 961.424 1227.93C970.704 1222.7 979.984 1217.34 988.907 1211.75C991.763 1210.08 992.595 1206.4 990.93 1203.54C989.264 1200.68 985.576 1199.85 982.721 1201.52C973.917 1206.99 964.756 1212.34 955.595 1217.46C953.691 1218.77 952.62 1220.79 952.62 1222.81ZM972.37 629.136C972.37 630.683 972.965 632.23 974.154 633.3C976.534 635.68 980.222 635.68 982.602 633.3C989.74 626.281 997.592 619.499 1006.04 613.432C1008.66 611.528 1009.25 607.721 1007.35 605.104C1005.44 602.486 1001.64 601.891 999.02 603.795C990.097 610.22 981.769 617.358 974.274 624.853C972.965 626.043 972.37 627.59 972.37 629.136ZM977.724 820.803C977.724 822.587 978.438 824.253 979.984 825.443C984.743 829.25 989.74 833.057 995.094 836.626C998.782 839.124 1002.71 841.623 1006.52 844.002C1009.37 845.668 1013.06 844.835 1014.72 841.98C1016.39 839.124 1015.56 835.555 1012.7 833.771C1009.01 831.51 1005.33 829.131 1001.76 826.751C996.76 823.301 991.882 819.732 987.48 816.163C984.862 814.14 981.174 814.497 979.032 817.114C978.2 818.066 977.724 819.494 977.724 820.803ZM1006.52 1189.74C1006.52 1190.93 1006.87 1192 1007.59 1193.07C1009.37 1195.81 1013.18 1196.52 1015.91 1194.74C1024.84 1188.79 1033.64 1182.6 1041.97 1176.41C1044.59 1174.51 1045.18 1170.7 1043.28 1168.09C1041.37 1165.47 1037.57 1164.87 1034.95 1166.78C1026.62 1172.85 1018.06 1178.91 1009.25 1184.86C1007.47 1185.93 1006.52 1187.84 1006.52 1189.74ZM1023.41 592.255C1023.41 593.087 1023.65 594.039 1024 594.872C1025.43 597.846 1029 599.036 1031.98 597.608C1041.14 593.206 1050.65 589.756 1060.53 587.377C1063.74 586.663 1065.65 583.331 1064.93 580.119C1064.1 576.907 1060.89 575.003 1057.67 575.717C1047.09 578.335 1036.62 582.023 1026.74 586.782C1024.72 587.971 1023.41 589.994 1023.41 592.255ZM1031.62 853.52C1031.62 855.781 1032.93 857.922 1035.07 858.993C1044.82 863.395 1054.94 867.321 1065.17 870.772C1068.26 871.842 1071.71 870.058 1072.66 866.964C1073.74 863.871 1071.95 860.421 1068.86 859.469C1059.1 856.257 1049.35 852.45 1040.07 848.167C1037.09 846.858 1033.52 848.167 1032.21 851.141C1031.86 851.855 1031.62 852.688 1031.62 853.52ZM1057.55 1152.14C1057.55 1153.45 1058.03 1154.76 1058.86 1155.95C1060.89 1158.57 1064.69 1158.93 1067.31 1156.78C1075.64 1150.12 1083.73 1143.1 1091.58 1136.08C1094.08 1133.94 1094.2 1130.13 1092.06 1127.64C1089.92 1125.14 1086.11 1125.02 1083.61 1127.16C1075.88 1134.06 1067.91 1140.84 1059.7 1147.5C1058.27 1148.69 1057.55 1150.36 1057.55 1152.14ZM1084.44 577.502L1084.44 577.621C1084.56 580.952 1087.18 583.569 1090.51 583.45C1091.46 583.45 1092.41 583.45 1093.37 583.45C1102.53 583.45 1111.69 584.402 1120.61 586.187C1123.82 586.901 1127.04 584.759 1127.63 581.547C1128.34 578.335 1126.2 575.122 1122.99 574.527C1113.23 572.505 1103.24 571.553 1093.25 571.553C1092.18 571.553 1091.22 571.553 1090.15 571.553C1087.06 571.672 1084.44 574.29 1084.44 577.502ZM1091.58 873.27C1091.58 876.006 1093.48 878.505 1096.34 879.1C1106.81 881.36 1117.52 883.026 1128.23 884.096C1131.56 884.453 1134.41 882.074 1134.77 878.743C1135.13 875.411 1132.75 872.556 1129.42 872.199C1119.18 871.128 1108.83 869.463 1098.84 867.321C1095.63 866.607 1092.41 868.749 1091.82 871.961C1091.58 872.437 1091.58 872.794 1091.58 873.27ZM1104.67 1110.03C1104.67 1111.57 1105.26 1113.12 1106.33 1114.19C1108.59 1116.57 1112.4 1116.57 1114.78 1114.19C1122.4 1106.7 1129.77 1098.96 1136.91 1091.11C1139.17 1088.73 1138.93 1084.92 1136.55 1082.66C1134.17 1080.4 1130.37 1080.64 1128.11 1083.02C1121.21 1090.63 1113.83 1098.25 1106.45 1105.63C1105.26 1106.93 1104.67 1108.48 1104.67 1110.03ZM1145.83 590.351C1145.83 592.611 1147.14 594.753 1149.28 595.705C1153.21 597.489 1157.02 599.512 1160.7 601.772C1165.7 604.747 1170.58 607.959 1175.22 611.528C1177.84 613.551 1181.64 612.956 1183.55 610.339C1185.57 607.721 1184.98 603.914 1182.36 602.01C1177.36 598.322 1172.13 594.753 1166.77 591.541C1162.73 589.161 1158.56 586.901 1154.28 584.997C1151.31 583.569 1147.74 584.878 1146.31 587.852C1145.95 588.566 1145.83 589.518 1145.83 590.351ZM1147.14 1063.15C1147.14 1064.94 1147.86 1066.6 1149.4 1067.79C1152.02 1069.81 1155.71 1069.46 1157.85 1066.96C1164.39 1058.99 1170.7 1050.66 1176.65 1042.45L1177.24 1041.62C1179.15 1039 1178.55 1035.19 1175.93 1033.29C1173.32 1031.39 1169.51 1031.98 1167.61 1034.6L1167.01 1035.43C1161.18 1043.52 1154.99 1051.61 1148.57 1059.34C1147.62 1060.53 1147.14 1061.84 1147.14 1063.15ZM1154.4 879.813C1154.4 883.145 1157.14 885.762 1160.35 885.762C1170.94 885.762 1181.76 885.167 1192.47 884.096C1195.8 883.74 1198.18 880.765 1197.82 877.553C1197.47 874.222 1194.61 871.842 1191.28 872.199C1180.93 873.27 1170.58 873.746 1160.35 873.865C1157.02 873.865 1154.4 876.482 1154.4 879.813ZM1184.14 1011.87C1184.14 1013.9 1185.09 1015.8 1186.88 1016.87C1189.62 1018.66 1193.3 1017.82 1195.09 1014.97C1200.8 1005.93 1206.27 996.645 1211.27 987.366C1212.82 984.51 1211.74 980.822 1208.89 979.275C1206.03 977.729 1202.35 978.799 1200.8 981.655C1195.92 990.697 1190.57 999.739 1184.98 1008.54C1184.38 1009.73 1184.14 1010.8 1184.14 1011.87ZM1196.16 627.827C1196.16 629.255 1196.64 630.683 1197.71 631.873C1204.49 639.249 1210.79 647.339 1216.38 656.024C1218.17 658.761 1221.86 659.594 1224.59 657.809C1227.33 656.024 1228.16 652.336 1226.38 649.6C1220.43 640.32 1213.65 631.635 1206.39 623.783C1204.13 621.403 1200.32 621.165 1197.94 623.426C1196.87 624.615 1196.16 626.281 1196.16 627.827ZM1214.36 956.432C1214.36 958.693 1215.67 960.834 1217.81 961.905C1220.79 963.333 1224.36 962.024 1225.78 958.931C1230.3 949.175 1234.47 939.3 1238.16 929.425C1239.35 926.332 1237.8 922.882 1234.71 921.692C1231.61 920.502 1228.16 922.049 1226.97 925.142C1223.29 934.779 1219.24 944.416 1214.84 953.934C1214.48 954.648 1214.36 955.6 1214.36 956.432ZM1217.22 873.389C1217.22 873.746 1217.22 874.222 1217.34 874.579C1218.05 877.791 1221.14 879.932 1224.36 879.219C1230.42 878.029 1236.49 876.601 1242.56 874.936C1240.89 881.836 1238.99 888.737 1236.97 895.637C1236.02 898.73 1237.8 902.062 1241.01 903.013C1244.22 903.965 1247.44 902.18 1248.39 898.968C1251.12 889.807 1253.5 880.408 1255.65 871.128C1258.74 870.177 1260.4 866.845 1259.45 863.752C1258.5 860.54 1255.17 858.874 1251.96 859.826C1241.96 862.919 1231.85 865.418 1221.86 867.44C1219.12 868.035 1217.22 870.534 1217.22 873.389ZM1230.66 680.652C1230.66 681.485 1230.78 682.317 1231.14 683.15C1235.3 692.311 1238.87 701.948 1241.85 712.061C1242.8 715.273 1246.13 717.058 1249.22 716.106C1252.43 715.154 1254.22 711.823 1253.27 708.729C1250.17 698.141 1246.37 687.909 1242.08 678.391C1240.77 675.417 1237.21 673.989 1234.23 675.417C1231.97 676.131 1230.66 678.272 1230.66 680.652ZM1248.63 740.971C1248.63 741.328 1248.63 741.685 1248.75 741.923C1250.41 751.917 1251.6 762.268 1252.2 772.737C1252.43 776.069 1255.17 778.567 1258.5 778.329C1261.83 778.091 1264.33 775.355 1264.09 772.024C1263.5 761.197 1262.19 750.37 1260.52 740.02C1259.93 736.807 1256.84 734.547 1253.62 735.142C1250.77 735.618 1248.63 738.116 1248.63 740.971ZM1249.94 835.555C1249.94 838.53 1252.08 841.028 1255.17 841.504C1258.38 841.98 1261.48 839.6 1261.83 836.388C1263.26 825.681 1264.09 814.854 1264.57 804.384C1264.69 801.053 1262.07 798.317 1258.86 798.198C1255.53 798.079 1252.79 800.696 1252.67 803.908C1252.31 814.021 1251.36 824.491 1250.05 834.841C1249.94 834.96 1249.94 835.317 1249.94 835.555ZM1277.54 854.948C1277.54 855.662 1277.66 856.495 1278.01 857.209C1279.2 860.302 1282.77 861.73 1285.75 860.54C1295.5 856.614 1305.38 852.093 1314.89 847.215C1317.87 845.668 1319.06 842.099 1317.51 839.244C1315.97 836.269 1312.4 835.079 1309.54 836.626C1300.26 841.385 1290.74 845.668 1281.23 849.594C1278.96 850.308 1277.54 852.569 1277.54 854.948ZM1333.93 826.394C1333.93 827.465 1334.17 828.536 1334.76 829.488C1336.43 832.343 1340.12 833.176 1342.97 831.51C1351.9 826.037 1360.94 820.089 1369.74 813.902C1372.48 811.999 1373.07 808.31 1371.17 805.574C1369.27 802.838 1365.58 802.243 1362.84 804.146C1354.27 810.214 1345.47 816.044 1336.79 821.279C1334.88 822.468 1333.93 824.372 1333.93 826.394ZM1385.21 789.632C1385.21 791.059 1385.68 792.368 1386.64 793.558C1388.78 796.056 1392.58 796.294 1395.08 794.153C1403.29 787.133 1411.14 779.638 1418.4 771.905C1420.66 769.525 1420.54 765.718 1418.16 763.457C1415.78 761.197 1411.98 761.316 1409.72 763.695C1402.7 771.072 1395.2 778.329 1387.35 784.992C1385.92 786.3 1385.21 787.966 1385.21 789.632ZM1428.4 743.708C1428.4 745.492 1429.23 747.277 1430.77 748.467C1433.39 750.489 1437.2 749.894 1439.1 747.277C1445.41 738.83 1451.48 729.788 1457.07 720.508C1458.73 717.653 1457.78 713.964 1455.05 712.299C1452.19 710.633 1448.5 711.585 1446.84 714.321C1441.48 723.244 1435.77 731.929 1429.59 740.02C1428.75 741.209 1428.4 742.518 1428.4 743.708ZM1460.76 689.694C1460.76 691.954 1462.07 694.096 1464.21 695.048C1467.18 696.475 1470.75 695.167 1472.18 692.192C1476.58 682.793 1480.62 673.157 1484.67 662.687C1485.86 659.594 1484.31 656.143 1481.22 654.954C1478.13 653.764 1474.68 655.31 1473.49 658.404C1469.68 668.636 1465.63 678.034 1461.35 687.076C1460.99 687.909 1460.76 688.742 1460.76 689.694ZM1483.24 630.564C1483.24 633.062 1484.91 635.442 1487.41 636.275C1490.5 637.227 1493.95 635.442 1494.9 632.349C1497.76 623.307 1500.49 613.551 1503.71 601.772C1504.54 598.56 1502.75 595.348 1499.54 594.396C1496.33 593.444 1493.12 595.348 1492.17 598.56C1488.95 610.219 1486.22 619.737 1483.48 628.779C1483.36 629.493 1483.24 630.088 1483.24 630.564ZM1500.14 569.65C1500.14 572.267 1501.92 574.765 1504.54 575.36C1507.75 576.193 1510.96 574.29 1511.8 571.077C1514.41 561.321 1517.15 550.852 1520.12 540.739C1521.08 537.527 1519.29 534.314 1516.08 533.363C1512.87 532.411 1509.65 534.195 1508.7 537.408C1505.73 547.639 1502.87 558.228 1500.26 568.103C1500.26 568.698 1500.14 569.174 1500.14 569.65ZM1518.46 509.211C1518.46 511.59 1519.89 513.851 1522.27 514.803C1525.36 515.992 1528.81 514.446 1530 511.353C1533.92 500.764 1538.09 491.603 1542.61 483.275C1544.16 480.419 1543.09 476.731 1540.23 475.185C1537.38 473.638 1533.69 474.709 1532.14 477.564C1527.38 486.368 1522.98 496.005 1518.82 507.069C1518.58 507.783 1518.46 508.497 1518.46 509.211ZM1549.03 454.245C1549.03 455.911 1549.75 457.577 1551.18 458.766C1553.67 460.908 1557.48 460.551 1559.62 458.052C1566.29 450.2 1573.42 443.657 1581.63 437.827C1584.37 435.923 1584.96 432.235 1583.06 429.499C1581.16 426.762 1577.47 426.168 1574.73 428.071C1565.81 434.377 1557.72 441.872 1550.46 450.319C1549.51 451.509 1549.03 452.937 1549.03 454.245ZM1599.84 418.077C1599.84 418.791 1599.96 419.624 1600.31 420.338C1601.62 423.431 1605.07 424.859 1608.05 423.55C1617.21 419.743 1626.84 416.055 1637.31 412.367C1640.41 411.296 1642.07 407.846 1640.88 404.752C1639.81 401.659 1636.36 399.993 1633.27 401.183C1622.56 404.99 1612.8 408.678 1603.52 412.605C1601.26 413.437 1599.84 415.698 1599.84 418.077ZM1659.32 396.543C1659.32 397.138 1659.44 397.733 1659.56 398.328C1660.51 401.421 1663.96 403.206 1667.06 402.135C1677.05 398.923 1687.04 395.829 1697.16 392.736C1700.25 391.784 1702.03 388.453 1701.08 385.241C1700.13 382.147 1696.8 380.363 1693.59 381.315C1683.47 384.408 1673.36 387.501 1663.25 390.713C1660.87 391.784 1659.32 394.045 1659.32 396.543ZM1719.76 377.983C1719.76 378.578 1719.88 379.173 1720 379.768C1720.95 382.98 1724.28 384.646 1727.49 383.694C1737.61 380.601 1747.72 377.507 1757.83 374.295C1760.93 373.343 1762.71 369.893 1761.64 366.8C1760.69 363.706 1757.24 361.922 1754.14 362.993C1744.15 366.205 1734.04 369.298 1724.04 372.391C1721.43 373.105 1719.76 375.485 1719.76 377.983ZM1779.96 358.591C1779.96 359.304 1780.08 359.899 1780.32 360.613C1781.39 363.706 1784.84 365.372 1787.93 364.182C1798.64 360.375 1808.4 356.687 1817.68 352.88C1820.77 351.69 1822.2 348.121 1820.89 345.147C1819.7 342.053 1816.13 340.626 1813.16 341.934C1803.99 345.741 1794.36 349.311 1783.89 353.118C1781.39 353.832 1779.96 356.092 1779.96 358.591ZM1838.26 334.558C1838.26 335.391 1838.5 336.343 1838.85 337.175C1840.28 340.15 1843.85 341.339 1846.83 339.912C1856.7 335.153 1866.22 330.156 1875.14 324.921C1878 323.255 1878.95 319.567 1877.28 316.712C1875.62 313.856 1871.93 312.905 1869.07 314.57C1860.39 319.567 1851.11 324.564 1841.59 329.204C1839.57 330.156 1838.26 332.297 1838.26 334.558ZM1892.87 302.792C1892.87 303.982 1893.22 305.172 1893.94 306.242C1895.84 308.979 1899.53 309.573 1902.27 307.67C1911.07 301.483 1919.64 294.94 1927.73 288.039C1930.23 285.898 1930.58 282.091 1928.44 279.592C1926.3 277.094 1922.49 276.737 1919.99 278.878C1912.14 285.541 1903.93 291.846 1895.37 297.795C1893.82 298.985 1892.87 300.888 1892.87 302.792ZM1941.05 261.984C1941.05 263.531 1941.65 265.077 1942.84 266.267C1945.22 268.528 1949.02 268.528 1951.28 266.148C1956.76 260.556 1962.23 254.608 1967.46 248.54C1969.25 246.518 1971.03 244.376 1972.7 242.234C1974.84 239.736 1974.48 235.929 1971.87 233.787C1969.37 231.646 1965.56 232.003 1963.42 234.62C1961.75 236.643 1959.97 238.665 1958.3 240.688C1953.31 246.518 1947.95 252.347 1942.6 257.701C1941.65 259.01 1941.05 260.437 1941.05 261.984ZM1981.38 213.324C1981.38 215.228 1982.22 217.012 1983.88 218.202C1986.62 220.105 1990.31 219.51 1992.21 216.774C1998.4 207.97 2004.23 198.928 2009.58 189.767C2011.25 186.912 2010.29 183.224 2007.44 181.558C2004.58 179.892 2000.9 180.844 1999.23 183.7C1994 192.504 1988.28 201.308 1982.34 209.874C1981.74 210.945 1981.38 212.134 1981.38 213.324ZM2013.39 158.953C2013.39 161.213 2014.58 163.355 2016.72 164.307C2019.69 165.735 2023.26 164.545 2024.69 161.571C2029.33 151.815 2033.61 141.94 2037.3 132.065C2038.49 128.972 2036.94 125.521 2033.85 124.332C2030.76 123.142 2027.31 124.689 2026.12 127.782C2022.55 137.3 2018.39 146.937 2013.86 156.336C2013.63 157.168 2013.39 158.001 2013.39 158.953ZM2035.64 99.8233C2035.64 102.441 2037.42 104.82 2040.04 105.534C2043.25 106.367 2046.46 104.582 2047.41 101.37C2050.27 91.019 2052.65 80.4306 2054.43 69.9609C2055.03 66.7486 2052.77 63.6552 2049.56 63.0604C2046.34 62.4656 2043.25 64.7261 2042.66 67.9383C2040.87 78.0511 2038.61 88.1638 2035.87 98.2766C2035.64 98.7524 2035.64 99.2285 2035.64 99.8233ZM2046.22 37.6002C2046.22 40.6935 2048.6 43.3109 2051.82 43.5489C2055.15 43.7868 2058 41.2883 2058.24 37.9571C2058.96 27.2496 2059.19 16.4227 2058.84 5.71509C2058.72 2.38383 2055.98 -0.114644 2052.65 0.00439501C2049.32 0.123312 2046.82 2.85962 2046.94 6.19088C2047.3 16.4226 2047.06 26.8923 2046.34 37.124C2046.22 37.243 2046.22 37.3622 2046.22 37.6002Z" fill="white"></path> </svg> 