<?xml version="1.0" encoding="UTF-8"?> <svg xmlns="http://www.w3.org/2000/svg" width="976" height="390" viewBox="0 0 976 390" fill="none"> <path d="M96 0C42.9807 0 0 42.9807 0 96V232C0 285.019 42.9807 328 96 328H137.929C140.17 331.705 142.413 335.008 144.601 337.675C167.557 365.663 198.242 380.401 223.613 388.888C227.994 390.353 230.84 383.944 227.344 380.924C218.402 373.198 211.494 363.858 205.004 349.149C202.286 342.989 200.46 335.504 199.305 328H880C933.019 328 976 285.019 976 232V96C976 42.9807 933.019 0 880 0H96Z" fill="white"></path> </svg> 