<?xml version="1.0" encoding="UTF-8"?> <svg xmlns="http://www.w3.org/2000/svg" width="1496" height="388" viewBox="0 0 1496 388" fill="none"> <path d="M1399.35 0C1452.73 0 1496 42.8589 1496 95.728V231.343C1496 284.212 1452.73 327.071 1399.35 327.071H1357.14C1354.89 330.765 1352.63 334.058 1350.43 336.718C1327.32 364.626 1296.42 379.323 1270.88 387.786C1266.47 389.247 1263.61 382.856 1267.13 379.844C1276.13 372.141 1283.08 362.827 1289.62 348.159C1292.35 342.017 1294.19 334.553 1295.35 327.071H96.646C43.2699 327.071 0 284.212 0 231.343V95.728C0 42.8589 43.2699 0 96.646 0H1399.35Z" fill="white"></path> </svg> 