<?xml version="1.0" encoding="UTF-8"?> <svg xmlns="http://www.w3.org/2000/svg" width="76" height="56" viewBox="0 0 76 56" fill="none"> <path fill-rule="evenodd" clip-rule="evenodd" d="M17.0196 1.23037C17.8074 2.01842 18.25 3.0871 18.25 4.20139C18.25 5.31569 17.8074 6.38437 17.0196 7.17241C14.2878 9.90398 12.1207 13.1469 10.6422 16.716C9.16375 20.2851 8.40278 24.1105 8.40278 27.9737C8.40278 31.837 9.16375 35.6623 10.6422 39.2315C12.1207 42.8006 14.2878 46.0435 17.0196 48.7751C17.421 49.1627 17.7411 49.6264 17.9613 50.1391C18.1816 50.6518 18.2975 51.2032 18.3024 51.7612C18.3072 52.3192 18.2009 52.8726 17.9896 53.389C17.7783 53.9054 17.4663 54.3746 17.0717 54.7692C16.6771 55.1638 16.2079 55.4758 15.6915 55.6871C15.175 55.8984 14.6217 56.0047 14.0637 55.9999C13.5057 55.995 12.9543 55.8791 12.4416 55.6589C11.9289 55.4386 11.4652 55.1185 11.0776 54.7171C7.56555 51.2051 4.77966 47.0358 2.87897 42.4472C0.978274 37.8585 0 32.9405 0 27.9737C0 23.007 0.978274 18.089 2.87897 13.5003C4.77966 8.91168 7.56555 4.74235 11.0776 1.23037C11.8656 0.442565 12.9343 0 14.0486 0C15.1629 0 16.2316 0.442565 17.0196 1.23037ZM58.6223 1.23037C59.4103 0.442565 60.479 0 61.5933 0C62.7076 0 63.7763 0.442565 64.5643 1.23037C68.0763 4.74235 70.8622 8.91168 72.7629 13.5003C74.6636 18.089 75.6419 23.007 75.6419 27.9737C75.6419 32.9405 74.6636 37.8585 72.7629 42.4472C70.8622 47.0358 68.0763 51.2051 64.5643 54.7171C64.1767 55.1185 63.713 55.4386 63.2003 55.6589C62.6876 55.8791 62.1361 55.995 61.5782 55.9999C61.0202 56.0047 60.4668 55.8984 59.9504 55.6871C59.4339 55.4758 58.9647 55.1638 58.5702 54.7692C58.1756 54.3746 57.8636 53.9054 57.6523 53.389C57.441 52.8726 57.3347 52.3192 57.3395 51.7612C57.3444 51.2032 57.4603 50.6518 57.6805 50.1391C57.9008 49.6264 58.2209 49.1627 58.6223 48.7751C61.3541 46.0435 63.5212 42.8006 64.9996 39.2315C66.4781 35.6623 67.2391 31.837 67.2391 27.9737C67.2391 24.1105 66.4781 20.2851 64.9996 16.716C63.5212 13.1469 61.3541 9.90398 58.6223 7.17241C57.8345 6.38437 57.3919 5.31569 57.3919 4.20139C57.3919 3.0871 57.8345 2.01842 58.6223 1.23037ZM28.9079 13.1144C29.6957 13.9025 30.1383 14.9712 30.1383 16.0855C30.1383 17.1998 29.6957 18.2684 28.9079 19.0565C27.737 20.2272 26.8082 21.617 26.1745 23.1467C25.5408 24.6764 25.2147 26.3159 25.2147 27.9716C25.2147 29.6274 25.5408 31.2669 26.1745 32.7966C26.8082 34.3263 27.737 35.7161 28.9079 36.8868C29.298 37.2772 29.6075 37.7407 29.8185 38.2507C30.0296 38.7607 30.1381 39.3073 30.1379 39.8593C30.1377 40.4113 30.0288 40.9578 29.8174 41.4677C29.606 41.9775 29.2962 42.4408 28.9058 42.8309C28.5153 43.2211 28.0519 43.5305 27.5419 43.7416C27.0318 43.9526 26.4852 44.0612 25.9333 44.061C25.3813 44.0608 24.8348 43.9519 24.3249 43.7404C23.815 43.529 23.3518 43.2193 22.9616 42.8288C19.0226 38.8886 16.8098 33.5452 16.8098 27.9737C16.8098 22.4023 19.0226 17.0589 22.9616 13.1187C23.3519 12.7279 23.8154 12.418 24.3255 12.2065C24.8357 11.995 25.3825 11.8862 25.9348 11.8862C26.487 11.8862 27.0338 11.995 27.544 12.2065C28.0541 12.418 28.5176 12.7279 28.9079 13.1187V13.1144ZM46.734 13.1144C47.1243 12.7237 47.5877 12.4138 48.0979 12.2023C48.608 11.9908 49.1549 11.882 49.7071 11.882C50.2594 11.882 50.8062 11.9908 51.3163 12.2023C51.8265 12.4138 52.29 12.7237 52.6802 13.1144C54.6319 15.0656 56.1801 17.3821 57.2364 19.9317C58.2926 22.4813 58.8363 25.214 58.8363 27.9737C58.8363 30.7335 58.2926 33.4662 57.2364 36.0158C56.1801 38.5653 54.6319 40.8819 52.6802 42.833C51.8917 43.6216 50.8222 44.0645 49.7071 44.0645C48.592 44.0645 47.5225 43.6216 46.734 42.833C45.9455 42.0445 45.5025 40.9751 45.5025 39.8599C45.5025 38.7448 45.9455 37.6753 46.734 36.8868C49.0974 34.5227 50.4251 31.3166 50.4251 27.9737C50.4251 24.6309 49.0974 21.4248 46.734 19.0607C46.3433 18.6704 46.0333 18.2069 45.8218 17.6968C45.6104 17.1866 45.5015 16.6398 45.5015 16.0876C45.5015 15.5353 45.6104 14.9885 45.8218 14.4783C46.0333 13.9682 46.3433 13.5047 46.734 13.1144ZM37.8209 23.7715C38.9354 23.7715 40.0043 24.2142 40.7924 25.0023C41.5805 25.7904 42.0232 26.8592 42.0232 27.9737V28.0158C42.0232 29.1303 41.5805 30.1992 40.7924 30.9872C40.0043 31.7753 38.9354 32.2181 37.8209 32.2181C36.7064 32.2181 35.6376 31.7753 34.8495 30.9872C34.0614 30.1992 33.6186 29.1303 33.6186 28.0158V27.9737C33.6186 26.8592 34.0614 25.7904 34.8495 25.0023C35.6376 24.2142 36.7064 23.7715 37.8209 23.7715Z" fill="#808D9A"></path> </svg> 