<?xml version="1.0" encoding="UTF-8"?> <svg xmlns="http://www.w3.org/2000/svg" width="223" height="128" viewBox="0 0 223 128" fill="none"> <path d="M24.0462 0C10.7659 0 0 10.7452 0 24L0 88.5C0 101.755 10.7659 112.5 24.0462 112.5H34.5488C35.1099 113.426 35.6719 114.252 36.2199 114.919C41.9701 121.916 49.656 125.6 56.011 127.722C57.1084 128.088 57.8212 126.486 56.9455 125.731C54.7057 123.8 52.9755 121.465 51.3497 117.787C50.6689 116.247 50.2117 114.376 49.9222 112.5L198.5 112.5C211.78 112.5 222.546 101.755 222.546 88.5V24C222.546 10.7452 211.78 0 198.5 0L24.0462 0Z" fill="white"></path> </svg> 