<?xml version="1.0" encoding="UTF-8"?> <svg xmlns="http://www.w3.org/2000/svg" width="886" height="482" viewBox="0 0 886 482" fill="none"> <g clip-path="url(#clip0_108:77)"> <rect width="886" height="482" rx="30" fill="white"></rect> <path d="M595.829 285.046C595.719 282.076 595.528 279.126 595.257 276.2C594.846 276.239 594.48 275.937 594.44 275.526C594.104 272.079 593.658 268.665 593.104 265.288C593.038 264.88 593.314 264.494 593.722 264.427C593.227 261.497 592.652 258.594 591.999 255.722C591.596 255.814 591.194 255.563 591.101 255.16C590.319 251.795 589.43 248.471 588.436 245.192C588.316 244.797 588.539 244.378 588.935 244.258C588.061 241.422 587.11 238.621 586.084 235.856C585.696 236.001 585.265 235.805 585.119 235.418C583.903 232.188 582.583 229.008 581.165 225.883C580.994 225.506 581.16 225.062 581.536 224.891C580.299 222.198 578.989 219.547 577.607 216.939C577.242 217.133 576.789 216.995 576.594 216.631C574.966 213.592 573.241 210.612 571.424 207.696C571.206 207.345 571.312 206.883 571.663 206.664C570.085 204.158 568.439 201.7 566.727 199.291C566.391 199.532 565.923 199.454 565.682 199.118C563.673 196.321 561.576 193.591 559.393 190.934C559.13 190.615 559.176 190.143 559.495 189.88C557.606 187.603 555.654 185.379 553.642 183.212C553.34 183.494 552.866 183.478 552.584 183.176C550.231 180.665 547.796 178.23 545.285 175.877C544.983 175.594 544.967 175.121 545.249 174.818C543.082 172.807 540.858 170.855 538.581 168.966C538.318 169.285 537.846 169.331 537.526 169.068C534.87 166.885 532.14 164.788 529.343 162.779C529.007 162.538 528.929 162.07 529.17 161.734C526.761 160.022 524.303 158.376 521.797 156.798C521.578 157.149 521.116 157.255 520.765 157.037C517.849 155.22 514.869 153.495 511.83 151.867C511.466 151.672 511.328 151.218 511.522 150.854C508.914 149.472 506.263 148.162 503.57 146.925C503.399 147.301 502.955 147.467 502.578 147.296C499.453 145.878 496.273 144.558 493.043 143.342C492.656 143.196 492.46 142.765 492.605 142.377C489.84 141.351 487.038 140.4 484.203 139.526C484.083 139.922 483.664 140.145 483.269 140.025C479.99 139.031 476.666 138.142 473.301 137.36C472.898 137.267 472.647 136.865 472.739 136.462C469.867 135.809 466.964 135.234 464.034 134.739C463.967 135.147 463.582 135.423 463.173 135.356C459.796 134.803 456.382 134.356 452.935 134.021C452.524 133.981 452.222 133.615 452.261 133.204C449.335 132.933 446.386 132.742 443.415 132.632C443.401 133.045 443.055 133.369 442.641 133.356C440.924 133.3 439.2 133.272 437.469 133.272C435.739 133.272 434.014 133.3 432.297 133.356C431.884 133.369 431.538 133.045 431.523 132.632C428.553 132.742 425.604 132.933 422.677 133.204C422.716 133.615 422.415 133.981 422.003 134.021C418.557 134.356 415.143 134.803 411.765 135.356C411.357 135.423 410.972 135.147 410.904 134.739C407.974 135.234 405.072 135.809 402.199 136.462C402.292 136.865 402.041 137.267 401.638 137.36C398.273 138.142 394.949 139.031 391.67 140.025C391.274 140.145 390.856 139.922 390.735 139.526C387.9 140.4 385.099 141.351 382.334 142.377C382.479 142.765 382.283 143.196 381.896 143.342C378.665 144.558 375.486 145.878 372.36 147.296C371.984 147.467 371.54 147.301 371.368 146.925C368.676 148.162 366.024 149.472 363.416 150.854C363.61 151.218 363.473 151.672 363.108 151.867C360.069 153.495 357.089 155.22 354.173 157.037C353.822 157.255 353.361 157.149 353.141 156.798C350.636 158.376 348.177 160.022 345.769 161.734C346.009 162.07 345.932 162.538 345.596 162.779C342.798 164.788 340.069 166.885 337.412 169.068C337.092 169.331 336.621 169.285 336.357 168.966C334.08 170.855 331.857 172.807 329.689 174.818C329.971 175.121 329.956 175.594 329.654 175.877C327.142 178.23 324.708 180.665 322.355 183.176C322.072 183.478 321.598 183.494 321.296 183.212C319.284 185.379 317.333 187.603 315.444 189.88C315.762 190.143 315.808 190.615 315.546 190.934C313.363 193.591 311.265 196.321 309.257 199.118C309.015 199.454 308.548 199.532 308.212 199.291C306.5 201.7 304.854 204.158 303.276 206.664C303.626 206.883 303.733 207.345 303.514 207.696C301.697 210.612 299.973 213.592 298.345 216.631C298.15 216.995 297.696 217.133 297.331 216.939C295.95 219.547 294.639 222.198 293.402 224.891C293.778 225.062 293.945 225.506 293.774 225.883C292.355 229.008 291.036 232.188 289.819 235.418C289.674 235.805 289.242 236.001 288.855 235.856C287.829 238.621 286.878 241.422 286.004 244.258C286.399 244.378 286.622 244.797 286.502 245.192C285.509 248.471 284.619 251.795 283.838 255.16C283.744 255.563 283.342 255.814 282.939 255.722C282.286 258.594 281.711 261.497 281.217 264.426C281.625 264.494 281.901 264.879 281.834 265.288C281.28 268.665 280.834 272.079 280.499 275.526C280.459 275.937 280.093 276.239 279.681 276.2C279.41 279.126 279.219 282.075 279.109 285.046C279.523 285.06 279.847 285.406 279.833 285.819C279.778 287.537 279.75 289.261 279.75 290.992C279.75 292.722 279.778 294.447 279.833 296.164C279.847 296.577 279.523 296.923 279.109 296.938C279.219 299.908 279.41 302.857 279.681 305.784C280.093 305.745 280.459 306.046 280.499 306.458C280.834 309.904 281.28 313.318 281.834 316.696C281.901 317.104 281.625 317.489 281.217 317.557C281.711 320.487 282.286 323.389 282.939 326.262C283.342 326.169 283.744 326.42 283.838 326.823C284.619 330.188 285.509 333.512 286.502 336.791C286.622 337.187 286.399 337.605 286.004 337.726C286.878 340.561 287.829 343.362 288.855 346.127C289.242 345.982 289.674 346.178 289.819 346.565C291.036 349.795 292.355 352.975 293.774 356.101C293.945 356.477 293.778 356.921 293.402 357.093C294.639 359.785 295.95 362.437 297.331 365.045C297.696 364.851 298.15 364.988 298.345 365.353C299.973 368.392 301.697 371.371 303.514 374.287C303.733 374.639 303.626 375.1 303.276 375.32C304.854 377.825 306.5 380.284 308.212 382.692C308.548 382.452 309.015 382.529 309.257 382.865C311.265 385.663 313.363 388.392 315.546 391.049C315.808 391.369 315.762 391.84 315.444 392.103C317.333 394.381 319.284 396.604 321.296 398.772C321.598 398.49 322.072 398.505 322.355 398.807C324.708 401.319 327.142 403.753 329.654 406.106C329.956 406.389 329.971 406.863 329.689 407.165C331.857 409.177 334.08 411.128 336.358 413.017C336.621 412.698 337.092 412.653 337.412 412.915C340.069 415.098 342.798 417.196 345.596 419.204C345.932 419.445 346.009 419.913 345.769 420.249C348.177 421.961 350.636 423.607 353.141 425.185C353.361 424.835 353.822 424.728 354.173 424.947C357.089 426.764 360.069 428.488 363.108 430.116C363.473 430.311 363.61 430.765 363.416 431.13C366.024 432.511 368.676 433.822 371.368 435.059C371.54 434.683 371.984 434.516 372.36 434.687C375.486 436.106 378.665 437.425 381.896 438.642C382.283 438.787 382.479 439.219 382.334 439.606C385.099 440.632 387.9 441.583 390.735 442.457C390.856 442.062 391.274 441.839 391.67 441.959C394.949 442.952 398.273 443.841 401.638 444.623C402.041 444.717 402.292 445.119 402.199 445.522C405.072 446.175 407.974 446.75 410.904 447.244C410.972 446.836 411.357 446.56 411.765 446.627C415.143 447.181 418.557 447.627 422.003 447.962C422.415 448.002 422.716 448.368 422.677 448.78C425.604 449.051 428.553 449.242 431.523 449.351C431.538 448.938 431.884 448.614 432.297 448.628C434.014 448.683 435.738 448.711 437.469 448.711C439.2 448.711 440.924 448.683 442.641 448.628C443.055 448.614 443.401 448.938 443.415 449.351C446.385 449.242 449.335 449.051 452.261 448.78C452.222 448.368 452.524 448.002 452.935 447.962C456.382 447.627 459.796 447.181 463.173 446.627C463.581 446.56 463.967 446.836 464.034 447.244C466.964 446.75 469.867 446.175 472.739 445.522C472.647 445.119 472.898 444.717 473.3 444.623C476.666 443.841 479.99 442.952 483.269 441.959C483.664 441.839 484.083 442.062 484.203 442.457C487.038 441.583 489.84 440.632 492.604 439.606C492.46 439.219 492.656 438.787 493.043 438.642C496.273 437.425 499.453 436.106 502.578 434.687C502.955 434.516 503.399 434.683 503.57 435.059C506.263 433.822 508.914 432.511 511.522 431.13C511.328 430.765 511.466 430.311 511.83 430.116C514.869 428.488 517.849 426.764 520.765 424.947C521.116 424.728 521.578 424.835 521.797 425.185C524.303 423.607 526.761 421.961 529.17 420.249C528.929 419.913 529.007 419.445 529.343 419.204C532.14 417.196 534.87 415.098 537.526 412.915C537.846 412.653 538.318 412.698 538.581 413.017C540.858 411.128 543.082 409.177 545.249 407.165C544.967 406.863 544.983 406.389 545.285 406.106C547.796 403.753 550.231 401.319 552.584 398.807C552.866 398.505 553.34 398.49 553.642 398.772C555.654 396.604 557.606 394.381 559.495 392.103C559.176 391.84 559.13 391.369 559.393 391.049C561.576 388.392 563.673 385.663 565.682 382.865C565.923 382.529 566.391 382.452 566.727 382.692C568.439 380.284 570.085 377.825 571.663 375.32C571.312 375.1 571.206 374.639 571.424 374.287C573.241 371.372 574.966 368.392 576.594 365.353C576.789 364.988 577.242 364.851 577.607 365.045C578.989 362.437 580.299 359.785 581.536 357.093C581.16 356.921 580.994 356.477 581.165 356.101C582.583 352.975 583.903 349.795 585.119 346.565C585.265 346.178 585.696 345.982 586.084 346.127C587.11 343.362 588.061 340.561 588.935 337.726C588.539 337.605 588.316 337.187 588.436 336.791C589.43 333.512 590.319 330.188 591.101 326.823C591.194 326.42 591.596 326.169 591.999 326.262C592.652 323.389 593.227 320.487 593.722 317.557C593.314 317.489 593.038 317.104 593.104 316.696C593.658 313.318 594.104 309.904 594.44 306.458C594.48 306.046 594.846 305.745 595.257 305.784C595.528 302.857 595.719 299.908 595.829 296.938C595.416 296.923 595.092 296.577 595.105 296.164C595.161 294.447 595.188 292.722 595.188 290.992C595.188 289.261 595.161 287.537 595.105 285.82C595.092 285.406 595.416 285.06 595.829 285.046Z" fill="#D0EDFF" stroke="#002F85" stroke-width="1.5" stroke-linecap="round" stroke-dasharray="10 10"></path> <rect x="24" y="432" width="837" height="4" rx="2" fill="#002F85"></rect> <rect x="-97" y="432" width="991" height="58" fill="white"></rect> <rect x="24" y="432" width="837" height="4" rx="2" fill="#002F85"></rect> <path d="M349.724 243.511C349.724 243.511 341.313 311.011 350.437 320.6C359.56 330.188 379.559 318.062 379.559 318.062L384.808 241.207L349.724 243.511Z" fill="#FFB094"></path> <path d="M365.612 292.31C350.27 304.938 320.601 316.276 410.504 382.038L420.589 371.49C420.589 371.49 389.846 319.088 383.676 311.272C377.506 303.456 365.612 292.31 365.612 292.31Z" fill="#FFB094"></path> </g> <path d="M492.868 379.382C492.868 379.382 493.353 390.681 494.739 393.305C496.089 395.896 497.206 393.668 496.39 400.421C495.538 407.207 495.545 407.826 495.475 411.085C495.404 414.311 496.39 432.292 496.39 432.292L463.91 432.292L395.187 434.565L380.935 433.5C380.935 433.5 380.583 421.438 380.692 415.279C380.801 409.153 379.398 408.158 380.935 402.049C382.472 395.939 385.013 374.31 385.013 374.31L492.868 379.382Z" fill="#002F85"></path> <path d="M494.504 410.483L494.433 410.484C493.468 410.423 470.316 408.433 465.477 390.837C465.328 390.267 465.642 389.691 466.212 389.542C466.781 389.357 467.356 389.708 467.505 390.278C471.935 406.45 494.338 408.377 494.587 408.374C495.159 408.403 495.593 408.934 495.564 409.506C495.535 410.078 495.076 410.512 494.504 410.483Z" fill="#00215C"></path> <path d="M383.787 408.088C382.217 408.07 381.216 407.938 381.18 407.938C380.608 407.873 380.174 407.342 380.274 406.769C380.34 406.233 380.799 405.834 381.335 405.828C381.37 405.828 381.406 405.828 381.406 405.828C382.336 405.96 403.458 408.366 406.727 391.178C406.828 390.605 407.323 390.207 407.967 390.342C408.539 390.443 408.902 391.011 408.802 391.584C405.869 406.874 390.107 408.195 383.787 408.088Z" fill="#00215C"></path> <path d="M440.931 434.982C440.36 434.988 439.891 434.578 439.884 434.067L438.738 399.862C438.732 399.351 439.19 398.9 439.761 398.894C440.261 398.857 440.837 399.298 440.844 399.809L441.989 434.014C441.996 434.525 441.538 434.976 440.967 434.982L440.931 434.982Z" fill="#00215C"></path> <path d="M429.628 434.806C429.057 434.812 428.588 434.402 428.581 433.891L427.449 399.047C427.442 398.504 427.901 398.085 428.472 398.08C428.937 398.139 429.548 398.484 429.555 398.995L430.686 433.839C430.694 434.381 430.235 434.8 429.664 434.806L429.628 434.806Z" fill="#00215C"></path> <path d="M418.57 168.871L422.787 166.179L427.29 135.042L457.462 139.097L458.91 169.345L462.687 171.946L456.957 176.62L435.172 181.94L426.67 175.032L418.57 168.871Z" fill="#FFB094"></path> <path d="M349.414 306.821C342.017 277.641 353.984 234.164 353.984 234.164L382.831 234.625L380.188 301.007L349.414 306.821Z" fill="#FFB094"></path> <path d="M537.836 291.499C529.348 292.868 508.843 256.469 492.882 213.266L515.569 200.299C524.878 215.103 583.039 293.915 537.836 291.499Z" fill="#FFB094"></path> <path d="M461.638 170.673C461.638 170.673 477.414 176.962 485.043 179.27C492.672 181.578 510.657 187.378 517.593 197.912C516.851 196.857 536.657 230.398 536.657 230.398C536.657 230.398 511.202 252.109 505.74 252.027C505.74 252.027 491.456 244.693 491.147 274.246C491.096 279.213 497.403 396.668 497.403 396.668C497.403 396.668 491.974 385.539 484.252 387.627C476.565 389.678 449.987 406.807 427.076 400.956C404.165 395.104 382.465 382.664 382.465 382.664C382.465 382.664 385.324 313.278 385.099 302.812C385.001 297.346 381.191 266.517 381.191 266.517C381.191 266.517 352.458 272.916 342.197 265.099C342.197 265.099 357.786 191.496 371.558 184.588C385.365 177.679 419.486 167.825 419.486 167.825C419.486 167.825 444.93 186.297 461.638 170.673Z" fill="white"></path> <path d="M428.369 170.595C433.257 173.297 438.131 173.512 440.545 173.8L434.614 184.931C433.936 184.868 430.725 184.341 424.231 179.932C418.416 175.983 417.364 171.732 416.231 168.509L423.376 167.125C423.963 167.398 424.603 168.514 428.369 170.595Z" fill="#DBE3F1"></path> <path d="M450.667 170.344C445.841 173.155 440.973 173.481 438.567 173.823L443.366 185.52C444.043 185.441 448.622 184.139 455.014 179.585C460.739 175.506 461.85 174.047 462.91 170.8L455.58 166.762C455 167.048 454.385 168.178 450.667 170.344Z" fill="#DBE3F1"></path> <path d="M430.523 296.473L438.161 181.729L441.596 181.69L452.565 296.473L439.539 316.159L430.523 296.473Z" fill="#005BFF"></path> <path d="M438.992 185.362C437.773 185.295 435.61 181.942 434.542 180.671L435.59 176.124L439.279 174.228C440.079 174.127 441.777 173.98 442.164 174.196C442.551 174.411 444.059 177.747 444.765 179.388C443.256 181.672 443.637 185.617 438.992 185.362Z" fill="#004FDD"></path> <path d="M428.239 168.565C433.128 171.267 437.785 173.31 440.199 173.598L434.043 182.118C433.365 182.055 430.595 182.311 424.101 177.902C418.286 173.953 417.214 170.634 416.082 167.411L423.246 165.095C423.833 165.368 424.473 166.484 428.239 168.565Z" fill="white"></path> <path d="M451.343 169.068C446.296 171.462 441.458 173.474 439.031 173.611L444.628 182.48C445.308 182.459 448.524 182.033 455.016 177.622C461.289 173.36 461.919 173.598 463.249 170.452L459.025 164.877C458.422 165.113 455.231 167.225 451.343 169.068Z" fill="white"></path> <path d="M435.956 387.597C415.321 387.258 393.127 372.216 392.911 372.039C392.659 371.864 392.584 371.543 392.76 371.291C392.936 371.039 393.256 370.964 393.508 371.139C393.76 371.315 418.183 387.869 439.298 386.416C458.451 385.093 479.161 376.141 483.174 374.345C482.346 373.746 480.124 372.914 474.752 374.547C467.495 376.737 445.475 383.345 427.98 376.682C427.694 376.578 427.547 376.258 427.651 375.971C427.755 375.684 428.074 375.538 428.361 375.642C445.497 382.166 467.268 375.632 474.419 373.479C482.708 370.991 484.383 373.938 484.565 374.293C484.638 374.435 484.64 374.578 484.57 374.722C484.536 374.865 484.43 374.974 484.288 375.047C484.04 375.157 460.747 386.067 439.346 387.523C438.241 387.607 437.099 387.62 435.956 387.597Z" fill="#E7E7F2"></path> <path d="M380.835 263.376C380.585 263.379 380.333 263.167 380.294 262.918L376.781 242.591C376.742 242.305 376.917 242.017 377.238 241.942C377.559 241.903 377.81 242.079 377.885 242.4L381.399 262.727C381.438 263.012 381.262 263.3 380.942 263.375C380.906 263.375 380.871 263.376 380.835 263.376Z" fill="#E7E7F2"></path> <path d="M379.815 258.421C379.637 258.423 379.493 258.353 379.384 258.176L371.877 247.648C371.695 247.4 371.763 247.042 372.011 246.896C372.259 246.715 372.616 246.782 372.762 247.031L380.269 257.558C380.451 257.806 380.383 258.164 380.135 258.31C380.029 258.383 379.922 258.42 379.815 258.421Z" fill="#E7E7F2"></path> <path d="M457.427 139.098L427.218 135.008L424.438 154.37C427.413 158.552 434.353 166.264 445.016 165.393C450.829 164.934 455.136 160.741 458.223 155.883L457.427 139.098Z" fill="#F17C53"></path> <path d="M413.701 104.36C413.701 104.36 414.785 127.68 419.21 137.063C423.635 146.446 428.18 156.971 440.718 157.794C453.256 158.618 464.359 146.094 467.84 128.797C471.322 111.499 469.348 94.7279 469.348 94.7279L459.894 88.8675C459.894 88.8675 444.24 87.0788 437.29 88.0147C430.34 88.9506 413.701 104.36 413.701 104.36Z" fill="#FFB094"></path> <path d="M442.499 135.335C442.428 135.336 442.356 135.301 442.284 135.23C441.884 134.556 441.842 134.02 442.154 133.195C442.292 132.765 442.684 132.689 442.969 132.614C443.04 132.613 443.147 132.576 443.218 132.54L443.467 132.466C443.929 132.317 444.391 132.169 444.78 131.843C445.169 131.517 445.555 130.87 445.44 130.228C445.401 129.907 445.255 129.587 445.108 129.267L445.072 129.196C443.572 125.997 442.78 122.183 442.916 118.465C442.914 118.287 443.02 118.178 443.163 118.177C443.305 118.175 443.379 118.353 443.38 118.496C443.278 122.07 443.998 125.778 445.46 128.834L445.497 128.905C445.679 129.261 445.862 129.652 445.903 130.08C446.021 131.043 445.566 131.906 445.036 132.341C444.576 132.703 444.078 132.888 443.58 133.036L443.331 133.11C443.224 133.147 443.153 133.148 443.046 133.185C442.833 133.223 442.619 133.261 442.55 133.441C442.342 134.05 442.346 134.372 442.637 134.833C442.71 134.975 442.712 135.154 442.606 135.262C442.607 135.334 442.535 135.335 442.499 135.335Z" fill="#EF754A"></path> <path d="M423.354 111.631C422.897 113.162 425.719 112.306 427.438 111.57C429.157 110.833 433.24 111.389 434.698 111.025C436.157 110.661 436.19 107.536 433.636 107.438C431.041 107.312 424.571 107.61 423.354 111.631Z" fill="#623C22"></path> <path d="M461.835 111.235C462.269 112.774 459.444 111.841 457.745 111.1C456.047 110.358 451.949 110.799 450.489 110.416C449.034 109.997 449.068 106.9 451.632 106.859C454.242 106.753 460.74 107.187 461.835 111.235Z" fill="#623C22"></path> <path d="M456.791 120.641C456.916 118.906 456.091 117.482 454.949 117.46C453.807 117.438 452.78 118.826 452.655 120.561C452.53 122.295 453.354 123.719 454.497 123.741C455.639 123.764 456.666 122.375 456.791 120.641Z" fill="#412016"></path> <path d="M431.962 120.771C432.049 119.037 431.176 117.616 430.034 117.607C428.892 117.599 427.872 118.997 427.821 120.731C427.733 122.466 428.606 123.886 429.748 123.895C430.891 123.925 431.874 122.527 431.962 120.771Z" fill="#412016"></path> <path d="M431.122 120.112C431.148 119.595 430.888 119.171 430.547 119.168C430.206 119.166 429.902 119.583 429.886 120.1C429.86 120.618 430.121 121.042 430.462 121.044C430.802 121.053 431.096 120.636 431.122 120.112Z" fill="white"></path> <path d="M455.401 119.839C455.427 119.321 455.166 118.897 454.825 118.895C454.485 118.892 454.18 119.309 454.165 119.827C454.139 120.344 454.399 120.768 454.74 120.771C455.081 120.78 455.375 120.363 455.401 119.839Z" fill="white"></path> <path d="M470.57 120.833C470.57 120.833 479.396 90.0043 467.47 83.3142C455.58 76.6594 449.337 77.0156 449.337 77.0156C449.337 77.0156 420.081 71.9144 415.49 85.7226C410.898 99.5309 415.535 124.562 415.535 124.562L422.883 98.7883L461.132 91.0678L468.936 121.53L470.57 120.833Z" fill="#623C22"></path> <path d="M417.273 120.398C417.273 120.398 415.254 112.238 410.005 118.407C407.926 120.86 410.314 130.016 417.393 127.828C417.393 127.828 419.548 125.839 417.273 120.398Z" fill="#FFB094"></path> <path d="M413.551 125.836C412.98 125.843 412.407 125.671 411.938 125.283C411.83 125.213 411.828 125.034 411.863 124.926C411.933 124.783 412.039 124.746 412.147 124.852C413.373 125.91 415.54 124.992 416.071 124.557C416.034 124.522 415.998 124.487 415.962 124.416C415.6 123.991 414.913 123.213 415.15 122.031C415.252 121.565 415.462 121.205 415.709 121.024C415.922 120.879 416.136 120.841 416.314 120.839C415.946 119.842 414.992 117.566 413.745 117.723C410.287 118.12 410.395 121.406 410.397 121.548C410.398 121.691 410.329 121.835 410.222 121.836C410.115 121.837 410.006 121.732 410.005 121.589C410.004 121.553 409.957 120.553 410.41 119.547C410.828 118.614 411.707 117.425 413.739 117.187C415.628 116.987 416.815 120.94 416.852 121.083C416.889 121.189 416.855 121.297 416.82 121.369C416.749 121.441 416.678 121.478 416.607 121.443C416.607 121.443 416.212 121.268 415.893 121.486C415.716 121.596 415.612 121.847 415.508 122.17C415.304 123.03 415.846 123.595 416.171 123.985C416.316 124.162 416.425 124.303 416.498 124.445C416.534 124.516 416.536 124.695 416.395 124.875C416.078 125.2 414.8 125.858 413.551 125.836Z" fill="#EF754A"></path> <path d="M467.547 121.797C467.547 121.797 469.812 113.732 474.881 120.035C476.872 122.549 474.19 131.62 467.203 129.233C467.203 129.233 465.109 127.184 467.547 121.797Z" fill="#FFB094"></path> <path d="M471.144 127.365C471.715 127.358 472.285 127.245 472.78 126.846C472.886 126.774 472.92 126.594 472.847 126.488C472.81 126.346 472.667 126.311 472.561 126.384C471.323 127.399 469.134 126.423 468.629 125.964C468.665 125.928 468.7 125.892 468.735 125.856C469.123 125.458 469.829 124.7 469.601 123.488C469.524 123.024 469.342 122.669 469.054 122.458C468.838 122.317 468.623 122.248 468.445 122.25C468.826 121.281 469.872 119.018 471.123 119.218C474.591 119.715 474.343 123.005 474.345 123.148C474.346 123.291 474.419 123.433 474.526 123.432C474.634 123.467 474.739 123.322 474.737 123.18C474.737 123.18 474.833 122.178 474.393 121.111C474.025 120.15 473.155 118.945 471.153 118.646C469.258 118.382 467.981 122.291 467.912 122.47C467.877 122.578 467.878 122.685 467.951 122.756C467.987 122.827 468.095 122.861 468.166 122.825C468.166 122.825 468.557 122.678 468.88 122.888C469.06 123.029 469.17 123.242 469.245 123.599C469.398 124.455 468.869 125.032 468.516 125.394C468.339 125.574 468.234 125.683 468.199 125.826C468.165 125.898 468.167 126.076 468.311 126.253C468.601 126.643 469.859 127.344 471.144 127.365Z" fill="#EF754A"></path> <path d="M442.148 140.312C438.394 140.396 435.791 139.276 434.958 138.705C435.647 140.596 437.563 145.268 442.467 145.213C447.371 145.157 449.043 140.656 449.881 138.537C448.867 139.093 445.902 140.227 442.148 140.312Z" fill="white"></path> <path d="M475.532 85.9755C476.152 87.1477 477.377 88.1701 477.57 89.4542C477.763 90.7383 476.848 91.9635 476.291 93.1846C475.734 94.4058 475.681 96.05 477.045 96.7492C474.725 96.7397 472.704 94.7973 473.111 92.9347C472.041 92.9467 471.048 93.5296 470.664 94.32C470.245 95.1108 470.47 96.1088 471.156 96.7442C469.833 96.6162 468.509 96.2738 467.643 95.4618C467.066 94.9323 466.773 94.2567 466.48 93.5811C465.38 91.0566 464.281 88.5321 463.182 86.0433C464.41 90.4601 461.289 95.4262 456.204 97.1629C454.106 97.9012 451.611 98.1437 450.019 99.4837C448.781 100.498 448.227 102.005 446.953 102.984C445.113 104.398 442.294 104.43 439.723 104.388C439.683 103.959 440.432 103.915 440.967 103.874C442.108 103.789 442.954 102.886 443.194 101.99C443.434 101.059 443.209 100.132 442.949 99.2061C442.074 100.752 439.796 101.386 437.727 101.48C435.657 101.539 433.548 101.206 431.479 101.372C428.341 101.658 425.539 103.19 422.439 103.725C420.587 104.068 418.695 104.017 416.843 104.431C414.813 104.847 413.004 105.797 411.12 106.497C409.165 107.234 406.78 107.796 404.878 106.925C407.188 106.005 409.388 104.873 411.408 103.599C412.365 102.981 413.425 102.04 412.951 101.117C411.903 103.201 408.668 104.345 406.053 103.553C407.306 103.824 408.654 103.059 409.214 102.123C409.774 101.152 409.762 100.045 409.75 98.9731C409.688 96.6155 409.661 94.2933 409.599 91.9358C409.59 91.1141 409.581 90.2924 409.893 89.5027C410.484 88.1383 412.08 87.1913 412.529 85.8285C412.77 85.0397 412.617 84.1838 412.608 83.3621C412.577 80.6112 414.296 77.9834 416.738 76.0979C419.18 74.2123 422.235 72.963 425.365 71.9273C430.806 70.1151 436.681 68.834 442.575 69.232C447.147 69.5378 451.552 70.8102 455.85 72.0837C457.891 72.6681 460.04 73.3228 461.413 74.7366C462.568 75.9027 462.978 77.4345 463.351 78.8595C465.277 78.7306 467.275 78.6366 469.17 78.9725C471.066 79.3085 472.932 80.1807 473.876 81.5636C474.854 82.8389 474.766 84.5192 475.532 85.9755Z" fill="#9B5E34"></path> <g opacity="0.3"> <path opacity="0.3" d="M416.757 87.2808C417.085 87.8845 417.909 88.1253 418.585 87.9748C419.262 87.8242 419.864 87.3887 420.394 86.9539C421.243 86.2654 422.163 85.5047 422.329 84.4309C422.397 84.1086 422.392 83.7156 422.568 83.4277C422.778 83.1038 423.133 82.9569 423.453 82.8461C424.449 82.4775 425.444 82.109 426.404 81.7409C427.292 81.4093 428.216 81.0415 428.851 80.3555C429.521 79.6333 429.795 78.6298 429.998 77.6627C430.203 76.7671 430.153 75.5171 429.257 75.2414C428.971 75.1731 428.686 75.2121 428.401 75.251C426.014 75.7067 423.704 76.5546 421.575 77.722C421.256 77.9042 420.937 78.0865 420.762 78.41C420.587 78.7336 420.592 79.1266 420.596 79.5196C420.579 81.1991 419.812 82.8157 418.611 83.9369C418.117 84.4069 417.514 84.7711 417.092 85.3475C416.67 85.924 416.429 86.677 416.757 87.2808Z" fill="white"></path> </g> <g opacity="0.3"> <path opacity="0.3" d="M442.877 73.8742C442.764 73.3037 442.118 73.0609 441.581 72.924C441.044 72.7514 440.507 72.6146 439.934 72.4424C438.716 72.0988 437.392 71.7564 436.22 72.2699C435.651 72.5264 435.122 73.0683 435.236 73.6745C435.387 74.3874 436.247 74.6635 436.998 74.8337C438.644 75.2082 440.437 75.8669 441.964 75.1708C442.461 74.9508 442.991 74.4446 442.877 73.8742Z" fill="white"></path> </g> <path d="M358.93 308.716C358.894 308.717 358.859 308.753 358.823 308.753C355.394 308.577 351.81 304.116 351.665 303.903C351.557 303.797 351.59 303.582 351.732 303.473C351.838 303.365 352.052 303.363 352.124 303.469C352.16 303.504 355.709 307.966 358.923 308.145C359.066 308.143 359.175 308.285 359.141 308.464C359.142 308.571 359.036 308.679 358.93 308.716Z" fill="#EF754A"></path> <path d="M551.192 287.375C548.254 295.455 506.477 295.64 460.97 288.542L460.737 264.764L513.116 265.008C544.255 266.51 558.315 261.298 551.192 287.375Z" fill="#FFB094"></path> <path d="M462.215 288.897C457.968 290.403 448.15 290.968 443.845 290.671C439.416 290.377 439.394 285.834 439.394 285.834C436.183 284.692 436.881 279.316 436.881 279.316C434.621 276.774 436.796 272.782 436.796 272.782C436.098 272.369 434.814 271.165 435.817 267.522C436.821 263.879 447.976 264.268 448.564 263.19C449.152 262.113 446.27 259.591 443.839 253.693C441.41 247.858 446.009 241.796 447.898 242.482C449.788 243.168 451.661 253.006 456.15 255.165C459.5 256.738 464.408 262.245 466.803 265.094" fill="#FFB094"></path> <defs> <clipPath id="clip0_108:77"> <rect width="886" height="482" rx="30" fill="white"></rect> </clipPath> </defs> </svg> 