<?xml version="1.0" encoding="UTF-8"?> <svg xmlns="http://www.w3.org/2000/svg" width="886" height="482" viewBox="0 0 886 482" fill="none"> <g clip-path="url(#clip0_107:2154)"> <rect width="886" height="482" rx="30" fill="white"></rect> <path d="M595.829 285.046C595.719 282.076 595.528 279.126 595.257 276.2C594.846 276.239 594.48 275.937 594.44 275.526C594.104 272.079 593.658 268.665 593.104 265.288C593.038 264.88 593.314 264.494 593.722 264.427C593.227 261.497 592.652 258.594 591.999 255.722C591.596 255.814 591.194 255.563 591.101 255.16C590.319 251.795 589.43 248.471 588.436 245.192C588.316 244.797 588.539 244.378 588.935 244.258C588.061 241.422 587.11 238.621 586.084 235.856C585.696 236.001 585.265 235.805 585.119 235.418C583.903 232.188 582.583 229.008 581.165 225.883C580.994 225.506 581.16 225.062 581.536 224.891C580.299 222.198 578.989 219.547 577.607 216.939C577.242 217.133 576.789 216.995 576.594 216.631C574.966 213.592 573.241 210.612 571.424 207.696C571.206 207.345 571.312 206.883 571.663 206.664C570.085 204.158 568.439 201.7 566.727 199.291C566.391 199.532 565.923 199.454 565.682 199.118C563.673 196.321 561.576 193.591 559.393 190.934C559.13 190.615 559.176 190.143 559.495 189.88C557.606 187.603 555.654 185.379 553.642 183.212C553.34 183.494 552.866 183.478 552.584 183.176C550.231 180.665 547.796 178.23 545.285 175.877C544.983 175.594 544.967 175.121 545.249 174.818C543.082 172.807 540.858 170.855 538.581 168.966C538.318 169.285 537.846 169.331 537.526 169.068C534.87 166.885 532.14 164.788 529.343 162.779C529.007 162.538 528.929 162.07 529.17 161.734C526.761 160.022 524.303 158.376 521.797 156.798C521.578 157.149 521.116 157.255 520.765 157.037C517.849 155.22 514.869 153.495 511.83 151.867C511.466 151.672 511.328 151.218 511.522 150.854C508.914 149.472 506.263 148.162 503.57 146.925C503.399 147.301 502.955 147.467 502.578 147.296C499.453 145.878 496.273 144.558 493.043 143.342C492.656 143.196 492.46 142.765 492.605 142.377C489.84 141.351 487.038 140.4 484.203 139.526C484.083 139.922 483.664 140.145 483.269 140.025C479.99 139.031 476.666 138.142 473.301 137.36C472.898 137.267 472.647 136.865 472.739 136.462C469.867 135.809 466.964 135.234 464.034 134.739C463.967 135.147 463.582 135.423 463.173 135.356C459.796 134.803 456.382 134.356 452.935 134.021C452.524 133.981 452.222 133.615 452.261 133.204C449.335 132.933 446.386 132.742 443.415 132.632C443.401 133.045 443.055 133.369 442.641 133.356C440.924 133.3 439.2 133.272 437.469 133.272C435.739 133.272 434.014 133.3 432.297 133.356C431.884 133.369 431.538 133.045 431.523 132.632C428.553 132.742 425.604 132.933 422.677 133.204C422.716 133.615 422.415 133.981 422.003 134.021C418.557 134.356 415.143 134.803 411.765 135.356C411.357 135.423 410.972 135.147 410.904 134.739C407.974 135.234 405.072 135.809 402.199 136.462C402.292 136.865 402.041 137.267 401.638 137.36C398.273 138.142 394.949 139.031 391.67 140.025C391.274 140.145 390.856 139.922 390.735 139.526C387.9 140.4 385.099 141.351 382.334 142.377C382.479 142.765 382.283 143.196 381.896 143.342C378.665 144.558 375.486 145.878 372.36 147.296C371.984 147.467 371.54 147.301 371.368 146.925C368.676 148.162 366.024 149.472 363.416 150.854C363.61 151.218 363.473 151.672 363.108 151.867C360.069 153.495 357.089 155.22 354.173 157.037C353.822 157.255 353.361 157.149 353.141 156.798C350.636 158.376 348.177 160.022 345.769 161.734C346.009 162.07 345.932 162.538 345.596 162.779C342.798 164.788 340.069 166.885 337.412 169.068C337.092 169.331 336.621 169.285 336.357 168.966C334.08 170.855 331.857 172.807 329.689 174.818C329.971 175.121 329.956 175.594 329.654 175.877C327.142 178.23 324.708 180.665 322.355 183.176C322.072 183.478 321.598 183.494 321.296 183.212C319.284 185.379 317.333 187.603 315.444 189.88C315.762 190.143 315.808 190.615 315.546 190.934C313.363 193.591 311.265 196.321 309.257 199.118C309.015 199.454 308.548 199.532 308.212 199.291C306.5 201.7 304.854 204.158 303.276 206.664C303.626 206.883 303.733 207.345 303.514 207.696C301.697 210.612 299.973 213.592 298.345 216.631C298.15 216.995 297.696 217.133 297.331 216.939C295.95 219.547 294.639 222.198 293.402 224.891C293.778 225.062 293.945 225.506 293.774 225.883C292.355 229.008 291.036 232.188 289.819 235.418C289.674 235.805 289.242 236.001 288.855 235.856C287.829 238.621 286.878 241.422 286.004 244.258C286.399 244.378 286.622 244.797 286.502 245.192C285.509 248.471 284.619 251.795 283.838 255.16C283.744 255.563 283.342 255.814 282.939 255.722C282.286 258.594 281.711 261.497 281.217 264.426C281.625 264.494 281.901 264.879 281.834 265.288C281.28 268.665 280.834 272.079 280.499 275.526C280.459 275.937 280.093 276.239 279.681 276.2C279.41 279.126 279.219 282.075 279.109 285.046C279.523 285.06 279.847 285.406 279.833 285.819C279.778 287.537 279.75 289.261 279.75 290.992C279.75 292.722 279.778 294.447 279.833 296.164C279.847 296.577 279.523 296.923 279.109 296.938C279.219 299.908 279.41 302.857 279.681 305.784C280.093 305.745 280.459 306.046 280.499 306.458C280.834 309.904 281.28 313.318 281.834 316.696C281.901 317.104 281.625 317.489 281.217 317.557C281.711 320.487 282.286 323.389 282.939 326.262C283.342 326.169 283.744 326.42 283.838 326.823C284.619 330.188 285.509 333.512 286.502 336.791C286.622 337.187 286.399 337.605 286.004 337.726C286.878 340.561 287.829 343.362 288.855 346.127C289.242 345.982 289.674 346.178 289.819 346.565C291.036 349.795 292.355 352.975 293.774 356.101C293.945 356.477 293.778 356.921 293.402 357.093C294.639 359.785 295.95 362.437 297.331 365.045C297.696 364.851 298.15 364.988 298.345 365.353C299.973 368.392 301.697 371.371 303.514 374.287C303.733 374.639 303.626 375.1 303.276 375.32C304.854 377.825 306.5 380.284 308.212 382.692C308.548 382.452 309.015 382.529 309.257 382.865C311.265 385.663 313.363 388.392 315.546 391.049C315.808 391.369 315.762 391.84 315.444 392.103C317.333 394.381 319.284 396.604 321.296 398.772C321.598 398.49 322.072 398.505 322.355 398.807C324.708 401.319 327.142 403.753 329.654 406.106C329.956 406.389 329.971 406.863 329.689 407.165C331.857 409.177 334.08 411.128 336.358 413.017C336.621 412.698 337.092 412.653 337.412 412.915C340.069 415.098 342.798 417.196 345.596 419.204C345.932 419.445 346.009 419.913 345.769 420.249C348.177 421.961 350.636 423.607 353.141 425.185C353.361 424.835 353.822 424.728 354.173 424.947C357.089 426.764 360.069 428.488 363.108 430.116C363.473 430.311 363.61 430.765 363.416 431.13C366.024 432.511 368.676 433.822 371.368 435.059C371.54 434.683 371.984 434.516 372.36 434.687C375.486 436.106 378.665 437.425 381.896 438.642C382.283 438.787 382.479 439.219 382.334 439.606C385.099 440.632 387.9 441.583 390.735 442.457C390.856 442.062 391.274 441.839 391.67 441.959C394.949 442.952 398.273 443.841 401.638 444.623C402.041 444.717 402.292 445.119 402.199 445.522C405.072 446.175 407.974 446.75 410.904 447.244C410.972 446.836 411.357 446.56 411.765 446.627C415.143 447.181 418.557 447.627 422.003 447.962C422.415 448.002 422.716 448.368 422.677 448.78C425.604 449.051 428.553 449.242 431.523 449.351C431.538 448.938 431.884 448.614 432.297 448.628C434.014 448.683 435.738 448.711 437.469 448.711C439.2 448.711 440.924 448.683 442.641 448.628C443.055 448.614 443.401 448.938 443.415 449.351C446.385 449.242 449.335 449.051 452.261 448.78C452.222 448.368 452.524 448.002 452.935 447.962C456.382 447.627 459.796 447.181 463.173 446.627C463.581 446.56 463.967 446.836 464.034 447.244C466.964 446.75 469.867 446.175 472.739 445.522C472.647 445.119 472.898 444.717 473.3 444.623C476.666 443.841 479.99 442.952 483.269 441.959C483.664 441.839 484.083 442.062 484.203 442.457C487.038 441.583 489.84 440.632 492.604 439.606C492.46 439.219 492.656 438.787 493.043 438.642C496.273 437.425 499.453 436.106 502.578 434.687C502.955 434.516 503.399 434.683 503.57 435.059C506.263 433.822 508.914 432.511 511.522 431.13C511.328 430.765 511.466 430.311 511.83 430.116C514.869 428.488 517.849 426.764 520.765 424.947C521.116 424.728 521.578 424.835 521.797 425.185C524.303 423.607 526.761 421.961 529.17 420.249C528.929 419.913 529.007 419.445 529.343 419.204C532.14 417.196 534.87 415.098 537.526 412.915C537.846 412.653 538.318 412.698 538.581 413.017C540.858 411.128 543.082 409.177 545.249 407.165C544.967 406.863 544.983 406.389 545.285 406.106C547.796 403.753 550.231 401.319 552.584 398.807C552.866 398.505 553.34 398.49 553.642 398.772C555.654 396.604 557.606 394.381 559.495 392.103C559.176 391.84 559.13 391.369 559.393 391.049C561.576 388.392 563.673 385.663 565.682 382.865C565.923 382.529 566.391 382.452 566.727 382.692C568.439 380.284 570.085 377.825 571.663 375.32C571.312 375.1 571.206 374.639 571.424 374.287C573.241 371.372 574.966 368.392 576.594 365.353C576.789 364.988 577.242 364.851 577.607 365.045C578.989 362.437 580.299 359.785 581.536 357.093C581.16 356.921 580.994 356.477 581.165 356.101C582.583 352.975 583.903 349.795 585.119 346.565C585.265 346.178 585.696 345.982 586.084 346.127C587.11 343.362 588.061 340.561 588.935 337.726C588.539 337.605 588.316 337.187 588.436 336.791C589.43 333.512 590.319 330.188 591.101 326.823C591.194 326.42 591.596 326.169 591.999 326.262C592.652 323.389 593.227 320.487 593.722 317.557C593.314 317.489 593.038 317.104 593.104 316.696C593.658 313.318 594.104 309.904 594.44 306.458C594.48 306.046 594.846 305.745 595.257 305.784C595.528 302.857 595.719 299.908 595.829 296.938C595.416 296.923 595.092 296.577 595.105 296.164C595.161 294.447 595.188 292.722 595.188 290.992C595.188 289.261 595.161 287.537 595.105 285.82C595.092 285.406 595.416 285.06 595.829 285.046Z" fill="#D0EDFF" stroke="#002F85" stroke-width="1.5" stroke-linecap="round" stroke-dasharray="10 10"></path> <path d="M369.113 302.386C369.113 302.386 372.618 370.34 383.253 378.167C393.929 386.034 411.492 370.584 411.492 370.584L403.22 293.989L369.113 302.386Z" fill="#FFB094"></path> <path d="M374.112 362.071C380.283 380.959 380.035 412.72 474.028 352.949L467.878 339.714C467.878 339.714 407.878 349.257 398.351 352.155C388.824 355.054 374.112 362.071 374.112 362.071Z" fill="#FFB094"></path> <path d="M369.814 385.98C369.814 385.98 379.418 426.764 380.643 438.405H257.579C257.579 438.405 272.354 402.492 281.712 389.117C291.07 375.742 345.664 376.898 345.664 376.898L369.814 385.98Z" fill="#353535"></path> <path d="M237.822 296.353C237.822 296.353 211.05 358.885 217.163 370.625C223.275 382.365 245.849 376.251 245.849 376.251L272.173 303.854L237.822 296.353Z" fill="#FFB094"></path> <path d="M294.422 243.156C280.445 248.292 261.456 252.776 249.721 263.171C237.985 273.566 236.192 287.997 227.146 306.055C218.1 324.113 211.825 325.377 214.962 328.516C218.1 331.655 221.645 337.076 231.139 337.076C240.634 337.076 247.316 338.34 253.673 341.52C259.989 344.699 271.113 346.289 271.113 346.289L292.14 285.754L294.422 243.156Z" fill="#F91155"></path> <path d="M270.461 325.459C273.64 348.042 276.119 382.734 283.82 385.017C290.14 386.89 296.663 386.89 302.979 386.89C309.295 386.89 369.332 386.89 369.332 386.89C369.332 386.89 375.674 384.159 379.26 373.764C382.845 363.369 378.567 340.338 380.849 338.789C390.547 332.022 388.917 322.809 388.917 322.809C388.917 322.809 396.496 326.926 401.753 326.926C406.52 326.926 415.566 324.847 415.566 324.847C415.566 324.847 407.702 260.929 391.525 251.88C381.419 246.254 348.128 243.278 348.128 243.278L294.422 243.156L270.95 267.248L266.876 289.831L270.461 325.459Z" fill="#F91155"></path> <path d="M351.551 244.053L346.498 242.3C343.686 241.322 341.69 238.794 341.364 235.859L338.144 205.653L307.583 200.028L306.076 227.666C305.75 233.332 302.612 238.468 297.681 241.281L294.381 243.156C294.381 243.156 328.243 263.62 341.16 258.809C354.118 253.958 351.551 244.053 351.551 244.053Z" fill="#FFB094"></path> <path d="M340.039 221.973L340.693 230.781C340.693 230.781 309.419 232.183 306.683 202.046C304.043 173.433 340.039 221.973 340.039 221.973Z" fill="#E1967B"></path> <path d="M360.378 174.006C360.378 174.006 356.762 223.55 340.693 225.157C324.623 226.763 315.842 214.94 313.374 211.096C310.907 207.251 301.067 196.34 300.153 175.105C299.331 153.87 314.458 144.696 327.435 145.612C340.412 146.527 360.378 174.006 360.378 174.006Z" fill="#FFB094"></path> <path d="M336.678 199.294C336.678 199.294 336.474 199.253 336.392 199.172C335.985 198.723 335.822 198.071 336.026 197.5C336.066 197.378 336.148 197.297 336.27 197.297C337.004 197.134 337.737 197.011 338.348 196.604C338.837 196.277 339.367 195.707 339.367 195.014C339.367 194.484 339.041 193.995 338.715 193.465L338.552 193.22C336.555 190 336.352 185.883 336.229 182.581C336.229 182.418 336.392 182.214 336.392 182.214C336.718 182.214 336.881 182.336 336.881 182.54C337.044 185.923 337.207 189.755 339.122 192.853L339.245 193.057C339.611 193.587 339.978 194.239 340.019 194.932C340.019 195.748 339.53 196.604 338.674 197.093C338.022 197.5 337.289 197.663 336.596 197.827C336.555 198.153 336.678 198.479 336.881 198.683C337.004 198.805 337.004 199.009 336.841 199.131C336.8 199.253 336.759 199.294 336.678 199.294Z" fill="#C25353"></path> <path d="M328.732 207.243C328.732 207.243 332.766 215.925 338.959 214.866C344.909 213.846 346.213 205.612 346.213 205.612C346.213 205.612 343.157 202.881 341.486 202.759C339.652 202.636 337.656 204.43 337.656 204.43C337.656 204.43 336.148 203.166 334.314 203.207C332.44 203.248 329.913 206.427 328.732 207.243Z" fill="#C43F3C"></path> <path d="M346.09 205.612L328.732 207.243C328.732 207.243 340.426 218.331 346.09 205.612Z" fill="white"></path> <path d="M313.37 176.588C316.792 172.879 325.961 169.455 329.424 174.998C329.628 175.325 329.506 175.977 329.017 175.936C326.776 175.895 324.779 174.917 322.497 174.958C319.482 175.039 316.752 176.262 314.103 177.485C313.492 177.77 312.962 176.996 313.37 176.588Z" fill="#952914"></path> <path d="M357.582 172.145C353.466 169.169 343.809 167.661 341.567 173.776C341.445 174.142 341.69 174.713 342.179 174.632C344.379 174.142 346.131 172.797 348.413 172.39C351.388 171.86 354.281 172.553 357.133 173.205C357.663 173.327 358.07 172.512 357.582 172.145Z" fill="#952914"></path> <path d="M300.921 190.603C300.921 190.603 325.67 168.174 333.242 149.611C333.242 149.611 354.723 165.243 361.18 178.228C361.18 178.228 361.937 141.062 332.724 135.282C303.472 129.502 294.585 152.705 293.588 157.02C292.592 161.335 291.835 186.899 297.334 191.255C302.874 195.57 300.921 190.603 300.921 190.603Z" fill="#AB2F17"></path> <path d="M265.487 185.224C267.013 181.688 270.87 179.037 270.629 175.18C270.548 173.332 269.424 171.645 268.861 169.877C267.174 164.574 271.432 158.226 276.976 157.744C278.503 157.584 280.11 157.905 281.637 158.226C288.064 159.833 294.251 164.413 295.778 170.921C296.26 173.171 296.18 175.582 296.18 177.912C296.26 185.947 297.787 193.981 300.599 201.534C298.59 205.471 293.769 207.721 289.511 206.757C288.948 206.596 288.305 206.435 287.984 205.873C287.663 205.311 287.823 204.668 287.823 204.025C287.823 201.936 285.815 200.329 283.726 199.847C281.637 199.365 279.547 199.767 277.458 199.767C273.762 199.686 269.986 198.32 267.415 195.588C265.004 192.857 264.04 188.678 265.487 185.224Z" fill="#AB2F17"></path> <g opacity="0.5"> <path opacity="0.31" d="M289.43 191.089C288.064 187.794 289.189 184.098 289.832 180.643C290.475 177.108 290.475 173.01 287.743 170.68C287.181 170.198 286.538 169.877 285.815 169.716C285.172 169.636 284.449 169.796 283.806 169.877C281.074 170.439 278.262 170.519 275.45 170.278C274.646 171.966 275.932 173.974 277.458 175.019C278.985 176.144 280.913 176.867 281.958 178.394C284.609 182.17 280.833 187.794 283.003 191.812C283.485 192.696 284.127 193.338 284.851 194.062C285.574 194.785 286.377 195.427 287.422 195.749C288.386 195.99 289.671 195.669 290.073 194.785C290.636 193.499 289.912 192.214 289.43 191.089Z" fill="white"></path> </g> <path d="M332.44 147.564C332.44 147.564 333.662 169.128 313.003 189.47C313.003 189.47 326.001 172.104 326.816 154.82C327.631 137.536 332.44 147.564 332.44 147.564Z" fill="#AB2F17"></path> <path d="M304.772 193.302C304.772 193.302 301.226 183.192 292.995 190.856C289.735 193.913 293.932 205.286 305.261 202.555C305.261 202.514 308.643 200.068 304.772 193.302Z" fill="#FFB094"></path> <path d="M302.938 199.212C301.512 199.905 298.293 200.639 296.337 199.375C296.174 199.294 296.133 199.09 296.255 198.927C296.337 198.764 296.54 198.723 296.703 198.845C298.7 200.15 302.204 199.008 303.019 198.479C302.938 198.438 302.897 198.356 302.816 198.315C302.204 197.786 301.064 196.848 301.43 195.38C301.593 194.769 301.878 194.361 302.327 194.117C302.653 193.954 303.019 193.913 303.305 193.913C302.693 192.69 301.064 189.837 299.026 190.04C297.07 190.203 295.644 190.856 294.748 191.916C293.647 193.22 293.77 194.769 293.77 194.769C293.77 194.973 293.647 195.136 293.484 195.136C293.321 195.136 293.158 195.014 293.118 194.851C293.118 194.769 292.955 193.016 294.218 191.508C295.236 190.285 296.826 189.592 298.945 189.388C301.96 189.103 304.038 194.035 304.12 194.239C304.16 194.361 304.16 194.484 304.038 194.606C303.957 194.687 303.794 194.728 303.712 194.687C303.712 194.687 303.101 194.484 302.612 194.728C302.327 194.891 302.123 195.177 302.041 195.584C301.756 196.644 302.612 197.378 303.182 197.867C303.468 198.112 303.631 198.234 303.712 198.438C303.753 198.56 303.753 198.764 303.508 199.008C303.386 198.968 303.182 199.09 302.938 199.212Z" fill="#CD5959"></path> <path d="M272.417 343.069C272.377 343.069 272.295 343.069 272.254 343.028C272.051 342.947 271.928 342.702 272.01 342.458C276.166 332.348 279.793 323.298 279.834 323.176C279.915 322.972 280.16 322.85 280.404 322.932C280.608 323.013 280.73 323.258 280.649 323.502C280.608 323.584 276.981 332.633 272.825 342.784C272.784 342.947 272.621 343.069 272.417 343.069Z" fill="#3C251D"></path> <path d="M360.597 381.591C360.515 381.591 360.393 381.55 360.312 381.509C360.149 381.346 360.108 381.102 360.271 380.898C362.349 378.411 367.687 371.441 367.687 368.832C367.687 365.53 367.972 359.538 367.972 359.497C367.972 359.252 368.135 359.089 368.421 359.089C368.665 359.089 368.828 359.293 368.828 359.538C368.828 359.578 368.543 365.571 368.543 368.832C368.543 372.256 361.249 381.061 360.923 381.428C360.841 381.509 360.719 381.591 360.597 381.591Z" fill="#3C251D"></path> <path d="M356.97 382.202C356.767 382.202 356.604 382.08 356.563 381.876C356.522 381.631 356.644 381.428 356.889 381.346C358.356 380.979 359.864 373.234 360.475 367.853C360.515 367.649 360.678 367.486 360.923 367.486H360.964C361.208 367.527 361.371 367.731 361.33 367.975C361.086 370.258 359.66 381.55 357.093 382.202C357.052 382.161 357.011 382.202 356.97 382.202Z" fill="#3C251D"></path> <path d="M299.23 384.893C299.189 384.893 299.148 384.893 299.067 384.852C293.769 382.977 289.939 365.693 289.776 364.959C289.735 364.714 289.858 364.511 290.102 364.429C290.387 364.388 290.55 364.511 290.632 364.755C290.673 364.918 294.544 382.284 299.393 383.996C299.597 384.077 299.719 384.322 299.637 384.567C299.556 384.77 299.393 384.893 299.23 384.893Z" fill="#3C251D"></path> <path d="M389.162 322.035C388.917 322.035 388.713 321.831 388.713 321.586C388.836 315.39 386.228 309.194 383.742 303.202C381.297 297.372 378.975 291.869 379.423 286.855C379.423 286.611 379.667 286.407 379.912 286.448C380.156 286.448 380.319 286.692 380.319 286.937C379.871 291.706 382.153 297.128 384.557 302.876C387.083 308.949 389.732 315.227 389.61 321.627C389.569 321.872 389.365 322.035 389.162 322.035Z" fill="#3C251D"></path> <path d="M382.723 300.063C382.479 300.063 382.316 299.9 382.275 299.655C382.031 295.13 384.15 288.771 384.231 288.527C384.313 288.323 384.516 288.16 384.761 288.241C385.005 288.323 385.128 288.567 385.046 288.771C385.046 288.853 382.927 295.212 383.131 299.614C383.172 299.859 382.968 300.063 382.723 300.063Z" fill="#3C251D"></path> <path d="M239.578 347.643C221.339 355.529 189.69 358.209 257.871 446.293L270.482 438.95C270.482 438.95 255.45 380.085 251.685 370.866C247.921 361.647 239.578 347.643 239.578 347.643Z" fill="#FFB094"></path> <path d="M228.287 366.997C228.083 366.997 227.92 366.875 227.879 366.671C227.839 366.426 227.961 366.223 228.205 366.141C239.167 363.655 249.313 366.1 249.395 366.141C249.639 366.182 249.761 366.426 249.721 366.671C249.68 366.916 249.435 367.038 249.191 366.997C249.109 366.956 239.126 364.551 228.409 366.997C228.328 366.997 228.328 366.997 228.287 366.997Z" fill="#E1967B"></path> <path d="M254.057 433.425C256.01 443.18 261.842 459.919 267.181 463.741C272.521 467.564 290.415 477.231 290.415 477.231L292.68 458.277C293.002 455.59 291.939 452.955 289.858 451.244L264.015 430.032L254.057 433.425Z" fill="#FFB094"></path> <path d="M279.39 469.882C279.39 469.882 276.371 485.032 279.111 489.331C281.85 493.63 285.261 473.159 285.261 473.159C285.261 473.159 289.355 480.677 291.975 477.643C294.595 474.608 293.518 468.87 293.531 466.787C293.545 464.704 295.625 452.884 293.03 450.858C290.435 448.833 282.133 447.537 282.133 447.537L279.39 469.882Z" fill="#FFB094"></path> <path d="M280.866 444.55C280.866 444.55 295.427 450.925 297.024 452.776C298.622 454.628 303.61 463.842 305.437 467.305C307.265 470.767 308.272 475.981 308.272 475.981C308.272 475.981 305.824 477.123 302.171 471.093C298.518 465.063 294.886 461.094 294.886 461.094C294.886 461.094 301.964 472.439 301.672 475.015C301.379 477.59 301.35 489.772 301.35 489.772C301.35 489.772 298.516 492.035 296.723 486.525C294.909 480.98 296.18 476.845 294.917 475.081C293.655 473.317 293.655 473.317 293.655 473.317C293.655 473.317 294.316 481.42 293.551 483.751C292.786 486.083 291.421 496.78 289.914 495.489C288.407 494.197 286.759 493.554 287.923 488.019C289.087 482.484 287.166 475.54 287.166 475.54L284.215 471.364L280.866 444.55Z" fill="#FFB094"></path> <path d="M460.863 355.56C470.756 354.514 487.961 350.249 492.259 345.285C496.557 340.321 507.833 323.394 507.833 323.394L489.168 319.392C486.522 318.823 483.801 319.638 481.905 321.553L458.418 345.368L460.863 355.56Z" fill="#FFB094"></path> <path d="M499.499 333.695C499.499 333.695 514.306 338.097 518.839 335.765C523.373 333.434 503.304 328.151 503.304 328.151C503.304 328.151 511.167 324.767 508.387 321.878C505.607 318.99 499.793 319.534 497.721 319.328C495.648 319.123 484.07 315.963 481.814 318.36C479.558 320.756 477.502 328.904 477.502 328.904L499.499 333.695Z" fill="#FFB094"></path> <path d="M474.411 329.891C474.411 329.891 482.1 315.979 484.092 314.559C486.083 313.139 495.717 309.022 499.333 307.521C502.95 306.02 508.234 305.498 508.234 305.498C508.234 305.498 509.146 308.041 502.804 311.122C496.463 314.204 492.177 317.455 492.177 317.455C492.177 317.455 504.126 311.452 506.663 311.981C509.201 312.51 521.329 313.662 521.329 313.662C521.329 313.662 523.321 316.692 517.669 317.97C511.98 319.265 507.98 317.618 506.107 318.713C504.234 319.808 504.234 319.808 504.234 319.808C504.234 319.808 512.363 319.896 514.614 320.873C516.866 321.849 527.392 324.195 525.967 325.576C524.542 326.958 523.749 328.54 518.345 326.87C512.941 325.201 505.849 326.474 505.849 326.474L501.419 329.027L474.411 329.891Z" fill="#FFB094"></path> <path d="M269.184 433.481C269.184 433.481 262.457 433.108 253.562 441.163L249.437 435.455C249.437 435.455 257.147 426.014 267.144 425.522L269.184 433.481Z" fill="#353535"></path> <path d="M265.466 436.622C266.806 436.033 266.784 433.033 265.418 429.922C264.051 426.811 261.857 424.765 260.517 425.354C259.177 425.943 259.199 428.942 260.566 432.053C261.932 435.165 264.126 437.21 265.466 436.622Z" fill="#3C251D"></path> <path d="M260.869 433.702C260.603 433.244 260.351 432.731 260.12 432.253C258.621 428.787 258.676 425.643 260.294 424.937C261.609 424.36 263.52 425.698 265.038 428.304C265.304 428.762 265.556 429.275 265.788 429.754C267.286 433.219 267.231 436.364 265.613 437.07C264.298 437.647 262.387 436.308 260.869 433.702ZM264.263 428.755C262.889 426.396 261.405 425.468 260.639 425.773C259.697 426.18 259.571 428.8 260.936 431.872C261.167 432.35 261.378 432.793 261.644 433.251C263.018 435.61 264.502 436.538 265.268 436.233C266.21 435.826 266.336 433.207 264.971 430.135C264.775 429.636 264.509 429.178 264.263 428.755Z" fill="#3C251D"></path> <path d="M266.48 436.046C267.795 435.469 267.786 432.457 266.401 429.349C265.016 426.242 262.82 424.173 261.505 424.75C260.19 425.327 260.199 428.339 261.584 431.447C262.934 434.575 265.129 436.644 266.48 436.046Z" fill="white"></path> <path d="M261.926 433.087C261.659 432.629 261.407 432.116 261.176 431.637C260.491 430.056 260.099 428.492 260.089 427.178C260.087 425.717 260.499 424.723 261.335 424.377C262.65 423.8 264.562 425.139 266.059 427.709C266.325 428.167 266.577 428.681 266.809 429.159C267.494 430.74 267.885 432.304 267.896 433.618C267.898 435.079 267.486 436.073 266.649 436.419C265.355 437.031 263.443 435.693 261.926 433.087ZM265.319 428.14C263.945 425.781 262.406 424.838 261.696 425.158C261.252 425.369 260.97 426.099 260.984 427.175C260.988 428.399 261.354 429.836 261.977 431.312C262.209 431.79 262.44 432.269 262.686 432.691C264.06 435.051 265.599 435.993 266.31 435.674C266.753 435.463 267.035 434.733 267.022 433.656C267.017 432.433 266.651 430.995 266.028 429.519C265.797 429.041 265.565 428.563 265.319 428.14Z" fill="#3C251D"></path> <path d="M326.308 183.109C326.083 181.037 324.805 179.535 323.454 179.754C322.103 179.973 321.19 181.83 321.415 183.902C321.639 185.973 322.917 187.475 324.268 187.256C325.62 187.038 326.533 185.181 326.308 183.109Z" fill="#412016"></path> <path d="M325.368 184.349C325.288 183.733 324.89 183.289 324.488 183.359C324.085 183.429 323.816 183.987 323.909 184.6C323.989 185.216 324.387 185.659 324.79 185.589C325.194 185.527 325.45 184.972 325.368 184.349Z" fill="white"></path> <path d="M351.216 180.698C350.991 178.627 349.713 177.125 348.362 177.344C347.011 177.563 346.098 179.419 346.322 181.491C346.547 183.563 347.825 185.065 349.176 184.846C350.528 184.627 351.441 182.77 351.216 180.698Z" fill="#412016"></path> <path d="M350.276 181.935C350.195 181.319 349.798 180.875 349.395 180.945C348.993 181.016 348.724 181.573 348.816 182.186C348.897 182.802 349.295 183.246 349.697 183.176C350.101 183.113 350.357 182.558 350.276 181.935Z" fill="white"></path> <path d="M474.36 428.965H482.319V431.989H474.36V428.965Z" fill="#38437E"></path> <path d="M464.324 428.965H472.284V431.989H464.324V428.965Z" fill="#38437E"></path> <path d="M454.375 428.965H462.334V431.989H454.375V428.965Z" fill="#38437E"></path> <path d="M444.771 428.965H452.731V431.989H444.771V428.965Z" fill="#38437E"></path> <path d="M434.519 428.965H442.479V431.989H434.519V428.965Z" fill="#38437E"></path> <path d="M424.916 428.965H432.876V431.989H424.916V428.965Z" fill="#38437E"></path> <path d="M292.72 346.193L408.781 347.748C410.857 347.791 412.631 349.26 413.02 351.334L427.598 432.94C428.074 435.575 426.041 438.037 423.315 438.037L307.99 438.512C305.87 438.512 304.053 437 303.707 434.927L288.394 351.29C287.875 348.655 289.951 346.149 292.72 346.193Z" fill="#CBC1CB"></path> <path d="M289.13 346.193L405.191 347.748C407.267 347.791 409.041 349.26 409.43 351.334L424.008 432.94C424.484 435.575 422.45 438.037 419.725 438.037L304.4 438.512C302.28 438.512 300.463 437 300.117 434.927L284.804 351.29C284.285 348.655 286.404 346.149 289.13 346.193Z" fill="#7492CC"></path> <path d="M427.469 432.853L412.891 351.247C412.545 349.174 410.771 347.705 408.651 347.662L292.591 346.106C292.461 346.106 292.331 346.15 292.158 346.15L405.104 347.662C407.181 347.705 408.954 349.174 409.344 351.247L423.921 432.853C424.397 435.489 422.364 437.951 419.639 437.951L307.731 438.426C307.774 438.426 307.861 438.426 307.861 438.426L423.229 437.951C425.911 437.951 427.944 435.489 427.469 432.853Z" fill="#38437E"></path> <path d="M486.169 439.161L394.376 437.951L394.463 430.045L486.256 431.255C486.386 431.255 486.515 431.385 486.515 431.514L486.429 438.988C486.386 439.074 486.299 439.161 486.169 439.161Z" fill="#7492CC"></path> <path d="M433.957 432.896H443.43V435.489H433.957V432.896Z" fill="#3C251D"></path> <path d="M433.957 433.242H443.43V434.279H433.957V433.242Z" fill="white"></path> <path d="M480.373 434.755C480.373 433.977 479.767 433.372 478.989 433.372C478.21 433.372 477.604 433.977 477.604 434.755C477.604 435.532 478.21 436.137 478.989 436.137C479.767 436.137 480.373 435.532 480.373 434.755Z" fill="#3C251D"></path> <path d="M475.961 434.755C475.961 433.977 475.355 433.372 474.576 433.372C473.798 433.372 473.192 433.977 473.192 434.755C473.192 435.532 473.798 436.137 474.576 436.137C475.312 436.137 475.961 435.532 475.961 434.755Z" fill="#3C251D"></path> <path d="M343.894 398.12C346.576 399.503 349.95 399.33 352.676 398.034C356.785 396.09 360.808 391.338 360.116 386.542C359.424 381.877 354.925 378.809 350.556 377.945C347.485 377.341 344.154 377.902 341.645 379.803C335.805 384.21 337.535 394.621 343.678 397.991C343.765 398.034 343.808 398.077 343.894 398.12Z" fill="white"></path> <path d="M627.4 341.33C633.879 359.724 646.613 413.641 648.475 423.471C652.571 445.365 631.358 455.631 631.358 455.631L605.889 455.854C605.889 455.854 620.325 441.493 617.942 426.152C615.484 410.811 600.888 361.139 600.888 361.139L627.4 341.33Z" fill="#FFB094"></path> <path d="M469.696 345.202C463.217 363.596 450.482 417.513 448.621 427.343C444.525 449.237 446.089 492.505 446.089 492.505L471.558 492.728C471.558 492.728 476.771 445.365 479.154 430.024C481.611 414.683 496.207 365.011 496.207 365.011L469.696 345.202Z" fill="#FFB094"></path> <path d="M508.767 442.61C508.767 442.61 508.32 413.268 506.533 402.917C504.746 392.566 594.856 400.683 594.856 400.683C594.856 400.683 590.462 440.525 591.877 446.408C593.143 452.217 508.767 442.61 508.767 442.61Z" fill="#E8A080"></path> <path d="M507.427 444.546C507.427 444.546 497.448 453.185 493.129 462.494C488.809 471.803 487.469 478.505 485.16 484.165C482.852 489.825 484.862 488.186 484.862 488.186L608.782 488.484L619.431 488.782C619.431 488.782 606.771 450.802 592.1 444.472C577.355 438.216 507.427 444.546 507.427 444.546Z" fill="#6069B4"></path> <path d="M609.527 488.707C609.527 488.707 603.494 472.994 600.143 464.43C596.941 456.089 585.249 444.621 585.1 444.472C584.877 444.248 584.877 443.95 585.1 443.727C585.324 443.503 585.621 443.503 585.845 443.727C586.366 444.174 597.835 455.493 601.111 464.057C604.388 472.622 610.495 488.335 610.495 488.335L609.527 488.707Z" fill="#3C251D"></path> <path d="M536.173 489.601C536.024 489.601 535.8 489.527 535.726 489.378L528.279 477.537C528.204 477.462 528.204 477.313 528.204 477.239L531.555 442.759C531.555 442.461 531.853 442.238 532.151 442.312C532.449 442.312 532.673 442.61 532.598 442.908L529.247 477.239L535.8 487.665L539.822 442.61C539.822 442.312 540.12 442.163 540.418 442.163C540.715 442.163 540.939 442.461 540.864 442.759L536.768 489.303C536.768 489.527 536.619 489.675 536.396 489.75C536.247 489.601 536.173 489.601 536.173 489.601Z" fill="#3C251D"></path> <path d="M590.09 469.121C587.036 469.121 583.685 468.6 580.483 466.962C573.259 463.313 568.418 455.419 566.11 443.28C566.035 442.982 566.259 442.759 566.557 442.684C566.855 442.61 567.078 442.833 567.152 443.131C569.387 454.897 574.078 462.568 581.004 466.068C590.462 470.834 601.037 465.845 601.111 465.77C601.335 465.621 601.707 465.77 601.781 465.994C601.93 466.217 601.781 466.589 601.558 466.664C601.26 466.813 596.345 469.121 590.09 469.121Z" fill="#3C251D"></path> <path d="M493.054 467.781C492.458 467.781 491.863 467.707 491.267 467.632C490.969 467.558 490.82 467.334 490.82 467.037C490.894 466.739 491.192 466.59 491.416 466.59C504.523 468.675 513.608 443.876 513.757 443.653C513.831 443.355 514.129 443.206 514.427 443.355C514.725 443.429 514.8 443.727 514.725 444.025C514.353 445.068 505.938 467.781 493.054 467.781Z" fill="#3C251D"></path> <path d="M501.544 313.105C488.288 316.084 478.085 328.744 474.138 336.861C470.266 344.979 454.925 362.703 454.925 362.703C454.925 362.703 460.957 364.788 472.053 374.469C483.149 384.076 490.448 389.438 490.448 389.438L499.459 381.097L501.544 313.105Z" fill="#005BFF"></path> <path d="M592.026 432.929H507.427V444.621H592.026V432.929Z" fill="#3C251D"></path> <path d="M525.97 444.248V432.482C525.97 431.663 526.64 430.918 527.534 430.918H545.482C546.301 430.918 547.045 431.588 547.045 432.482V444.248C547.045 445.067 546.375 445.812 545.482 445.812H527.534C526.64 445.812 525.97 445.067 525.97 444.248ZM543.918 434.046H529.024V442.684H543.918V434.046Z" fill="#EEBD31"></path> <path d="M574.762 255.113H578.337V244.24H574.762V255.113Z" fill="#EFC266"></path> <path d="M604.76 431.961C604.76 431.961 595.376 439.759 575.194 433.428C555.785 434.673 534.881 430.748 513.21 433.428C491.539 436.109 492.85 377.325 492.85 377.325C492.85 377.325 492.16 388.916 493.054 376.554C493.948 364.192 492.756 360.022 493.054 350.713C493.352 341.404 497.895 318.541 497.895 316.456C497.895 314.371 512.342 306.85 532.151 304.392C552.035 302.009 577.876 303.796 577.876 303.796C577.876 303.796 611.314 312.211 611.314 323.308C611.314 334.404 601.782 414.534 604.76 431.961Z" fill="#005BFF"></path> <path d="M560.948 205.485C564.887 206.798 569.39 205.047 573.392 206.173C577.207 207.236 579.896 210.738 581.397 214.427C582.21 216.429 582.835 218.555 583.085 220.681C583.711 225.059 583.398 230.124 586.713 233.063C588.464 234.627 590.902 235.19 593.154 236.065C596.531 237.316 599.658 239.505 601.659 242.506C603.597 245.571 604.223 249.573 602.784 252.887C601.909 254.826 600.345 256.514 599.908 258.641C599.22 261.705 600.971 264.769 603.097 267.021C605.223 269.334 607.787 271.273 609.351 273.962C611.852 278.34 611.039 283.968 609.101 288.596C608.037 291.097 606.662 293.473 604.535 295.224C602.472 296.913 599.595 297.851 596.968 297.163C598.72 296.6 600.095 294.974 600.345 293.161C595.092 296.663 588.338 297.163 582.085 296.35C575.831 295.537 569.765 293.599 563.574 292.473C561.51 292.098 559.384 291.848 557.258 291.91C554.694 291.973 552.192 292.598 549.691 293.036C537.434 295.412 523.613 295.287 513.92 287.407C512.794 286.469 511.731 285.469 511.043 284.218C508.98 280.528 510.418 275.838 512.544 272.149C514.671 268.459 517.547 265.082 518.423 260.955C519.673 255.076 516.734 249.198 514.608 243.632C512.482 238.004 511.294 231 515.233 226.497C517.672 223.745 521.55 222.62 524.301 220.181C526.74 217.992 528.116 214.928 530.055 212.239C536.121 203.671 548.378 199.606 557.883 204.046C558.884 204.547 559.884 205.11 560.948 205.485Z" fill="#5C2F1F"></path> <path d="M536.843 272.221C536.843 272.221 537.513 298.136 535.651 300.222C533.789 302.307 526.342 305.137 526.342 305.137C526.342 305.137 542.428 314.446 557.397 313.775C572.365 313.105 577.429 303.573 577.429 303.573C577.429 303.573 570.131 301.264 569.163 297.987C568.195 294.711 567.674 267.008 567.674 267.008L536.843 272.221Z" fill="#FFB094"></path> <path d="M536.97 280.69V292.307C536.97 292.307 564.066 293.195 566.507 267.15L536.97 280.69Z" fill="#FA926D"></path> <path d="M573.554 234.232C573.554 234.232 572.542 256 568.412 264.758C564.281 273.516 560.039 283.34 548.336 284.109C536.632 284.878 526.269 273.188 523.019 257.042C519.77 240.896 521.612 225.242 521.612 225.242L530.436 219.772C530.436 219.772 545.049 218.102 551.536 218.976C558.023 219.849 573.554 234.232 573.554 234.232Z" fill="#FFB094"></path> <path d="M529.673 247.501C529.873 245.665 531.005 244.334 532.202 244.528C533.399 244.722 534.208 246.367 534.009 248.203C533.81 250.039 532.678 251.369 531.48 251.175C530.283 250.981 529.474 249.336 529.673 247.501Z" fill="#412016"></path> <path d="M530.507 248.597C530.578 248.051 530.93 247.658 531.287 247.72C531.643 247.782 531.882 248.276 531.799 248.819C531.728 249.365 531.376 249.758 531.019 249.696C530.661 249.641 530.434 249.149 530.507 248.597Z" fill="white"></path> <path d="M551.552 248.595C551.751 246.759 552.884 245.428 554.081 245.622C555.278 245.816 556.087 247.461 555.888 249.297C555.689 251.133 554.556 252.463 553.359 252.269C552.162 252.075 551.353 250.43 551.552 248.595Z" fill="#412016"></path> <path d="M552.385 249.691C552.456 249.145 552.809 248.752 553.166 248.814C553.522 248.876 553.76 249.37 553.678 249.913C553.607 250.459 553.255 250.852 552.898 250.79C552.54 250.734 552.313 250.243 552.385 249.691Z" fill="white"></path> <path d="M542.13 262.763C542.205 262.763 542.279 262.763 542.354 262.688C542.726 262.316 542.8 261.72 542.652 261.199C542.652 261.124 542.503 261.05 542.428 260.976C541.758 260.827 541.162 260.752 540.566 260.454C540.12 260.231 539.673 259.71 539.598 259.114C539.598 258.667 539.822 258.22 540.12 257.773L540.268 257.55C541.907 254.72 541.981 251.145 542.056 248.241C542.056 248.092 541.907 247.943 541.758 247.943C541.758 247.943 541.46 248.092 541.46 248.241C541.386 251.22 541.386 254.571 539.747 257.252L539.598 257.475C539.3 257.997 539.002 258.518 539.002 259.114C539.002 259.858 539.449 260.529 540.194 260.976C540.79 261.273 541.46 261.422 542.056 261.571C542.13 261.869 541.981 262.093 541.832 262.316C541.758 262.465 541.758 262.614 541.832 262.688C541.981 262.688 542.056 262.763 542.13 262.763Z" fill="#DB906F"></path> <path d="M524.406 239.751C527.832 237.294 535.8 236.102 537.662 241.166C537.811 241.464 537.587 241.985 537.141 241.836C535.353 241.39 533.864 240.272 532.002 239.975C529.545 239.528 527.162 240.049 524.778 240.645C524.332 240.719 523.959 240.049 524.406 239.751Z" fill="#5C2F1F"></path> <path d="M549.003 269.52C549.003 269.52 545.981 274.838 541.54 274.154C537.099 273.47 534.541 268.845 534.541 268.845C534.541 268.845 536.864 267.595 538.241 267.206C539.618 266.817 541.835 267.827 541.835 267.827C541.835 267.827 543.685 267.007 545.472 267.543C547.259 268.08 548.149 268.66 549.003 269.52Z" fill="#C45555"></path> <path d="M534.865 269.117C534.865 269.117 539.612 269.721 541.394 269.796C543.176 269.87 549.1 269.576 549.1 269.576C549.038 269.66 541.296 275.837 534.865 269.117Z" fill="white"></path> <path d="M562.982 243.847C560.227 240.645 552.78 237.592 549.726 242.06C549.577 242.358 549.652 242.879 550.024 242.879C551.886 242.879 553.599 242.134 555.461 242.283C557.918 242.432 560.152 243.549 562.312 244.592C562.833 244.815 563.354 244.22 562.982 243.847Z" fill="#5C2F1F"></path> <path d="M547.269 206.091C553.748 205.197 560.301 205.942 565.886 209.591C572.589 213.984 577.578 221.283 578.993 229.177C579.664 232.975 579.738 236.922 579.44 240.794C579.291 242.507 578.993 250.401 577.355 251.294C571.621 254.348 560.078 238.039 557.546 234.39C556.28 232.528 548.684 216.665 547.418 217.41C541.981 220.538 539.896 223.591 533.343 228.357C528.279 231.932 523.438 236.773 521.502 242.73C520.459 241.464 519.789 239.677 519.566 238.113C518.523 231.187 519.938 223.964 523.587 217.931C526.789 212.57 534.162 209.516 539.896 207.729C542.205 206.984 544.737 206.388 547.269 206.091Z" fill="#5C2F1F"></path> <path d="M570.429 254.05C570.429 254.05 573.11 245.262 580.408 251.592C583.313 254.05 580.11 263.954 570.355 261.944C570.28 261.944 567.301 259.933 570.429 254.05Z" fill="#FFB094"></path> <path d="M572.217 259.039C573.483 259.56 576.238 260.156 577.876 258.964C578.025 258.89 578.025 258.667 577.951 258.592C577.876 258.443 577.653 258.443 577.578 258.518C575.94 259.709 572.887 258.816 572.142 258.369C572.217 258.294 572.291 258.294 572.291 258.22C572.812 257.773 573.706 256.879 573.334 255.688C573.185 255.166 572.887 254.794 572.514 254.645C572.217 254.496 571.919 254.496 571.695 254.496C572.142 253.454 573.483 250.922 575.195 250.996C576.834 251.071 578.1 251.592 578.919 252.485C579.887 253.603 579.813 254.869 579.813 254.869C579.813 255.018 579.887 255.166 580.111 255.166C580.259 255.166 580.408 255.092 580.408 254.869C580.408 254.794 580.483 253.305 579.366 252.039C578.472 251.071 577.057 250.475 575.27 250.4C572.663 250.251 571.1 254.496 571.025 254.72C570.951 254.794 571.025 254.943 571.1 255.018C571.174 255.092 571.323 255.092 571.397 255.092C571.397 255.092 571.919 254.869 572.366 255.092C572.589 255.241 572.812 255.464 572.887 255.837C573.185 256.73 572.44 257.401 571.993 257.847C571.77 258.071 571.621 258.145 571.546 258.369C571.472 258.518 571.546 258.667 571.77 258.816C571.77 258.816 571.993 258.89 572.217 259.039Z" fill="#DB906F"></path> <path d="M545.162 447.198C580.75 438.165 612.972 426.634 626.082 429.683C639.191 432.733 640.03 427.151 642.402 437.021C644.795 446.959 631.364 459.089 622.295 458.974C573.184 458.292 544.205 459.465 544.205 459.465L545.162 447.198Z" fill="#FFB094"></path> <path d="M596.122 310.052C621.814 316.382 621.367 325.84 633.581 347.511C645.794 369.182 648.922 373.203 648.922 373.203C648.922 373.203 631.793 386.31 617.346 384.448C602.899 382.661 598.43 382.661 598.43 382.661L596.122 310.052Z" fill="#005BFF"></path> <path d="M547.1 446.623C532.261 443.637 518.9 440.622 518.9 440.622L517.062 459.467C517.062 459.467 525.615 459.795 527.495 461.129C529.375 462.463 516.586 462.901 514.423 466.034C512.245 469.234 514.251 469.676 514.251 469.676C514.251 469.676 532.027 466.657 536.181 465.308C540.321 464.026 549.024 456.035 549.024 456.035L547.1 446.623Z" fill="#FFB094"></path> <path d="M526.915 460.577L509.185 459.572C509.185 459.572 497.859 464.508 497.131 462.719C496.388 460.999 507.432 456.071 507.432 456.071L512.336 454.817L507.268 454.903C507.268 454.903 496.269 460.902 495.4 458.799C494.583 456.779 506.184 450.913 506.184 450.913L511.72 449.656L506.972 449.884C506.972 449.884 497.258 455.458 496.256 453.326C495.253 451.194 506.601 445.202 506.601 445.202L512.761 444.294L508.02 443.533C508.02 443.533 501.295 447.005 500.247 445.712C499.422 444.681 504.862 441.634 507.352 440.201C508.073 439.793 516.5 439.739 517.28 439.699L535.471 444.344L526.915 460.577Z" fill="#FFB094"></path> <rect x="24" y="432" width="837" height="4" rx="2" fill="#002F85"></rect> <rect x="-97" y="432" width="991" height="58" fill="white"></rect> <rect x="24" y="432" width="837" height="4" rx="2" fill="#002F85"></rect> </g> <defs> <clipPath id="clip0_107:2154"> <rect width="886" height="482" rx="30" fill="white"></rect> </clipPath> </defs> </svg> 