<?xml version="1.0" encoding="UTF-8"?> <svg xmlns="http://www.w3.org/2000/svg" width="886" height="482" viewBox="0 0 886 482" fill="none"> <rect width="886" height="482" rx="30" fill="#E5F5FF"></rect> <path d="M437.469 400.461C524.989 400.461 595.938 329.512 595.938 241.992C595.938 154.472 524.989 83.5225 437.469 83.5225C349.949 83.5225 279 154.472 279 241.992C279 329.512 349.949 400.461 437.469 400.461Z" fill="#B7E5FF"></path> <path d="M507.829 236.046C507.719 233.076 507.528 230.126 507.257 227.2C506.846 227.239 506.48 226.937 506.44 226.526C506.104 223.079 505.658 219.665 505.104 216.288C505.038 215.88 505.314 215.494 505.722 215.427C505.227 212.497 504.652 209.594 503.999 206.722C503.596 206.814 503.194 206.563 503.101 206.16C502.319 202.795 501.43 199.471 500.436 196.192C500.316 195.797 500.539 195.378 500.935 195.258C500.061 192.422 499.11 189.621 498.084 186.856C497.696 187.001 497.265 186.805 497.119 186.418C495.903 183.188 494.583 180.008 493.165 176.883C492.994 176.506 493.16 176.062 493.536 175.891C492.299 173.198 490.989 170.547 489.607 167.939C489.242 168.133 488.789 167.995 488.594 167.631C486.966 164.592 485.241 161.612 483.424 158.696C483.206 158.345 483.312 157.883 483.663 157.664C482.085 155.158 480.439 152.7 478.727 150.291C478.391 150.532 477.923 150.454 477.682 150.118C475.673 147.321 473.576 144.591 471.393 141.934C471.13 141.615 471.176 141.143 471.495 140.88C469.606 138.603 467.654 136.379 465.642 134.212C465.34 134.494 464.866 134.478 464.584 134.176C462.231 131.665 459.796 129.23 457.285 126.877C456.983 126.594 456.967 126.121 457.249 125.818C455.082 123.807 452.858 121.855 450.581 119.966C450.318 120.285 449.846 120.331 449.526 120.068C446.87 117.885 444.14 115.788 441.343 113.779C441.007 113.538 440.929 113.07 441.17 112.734C438.761 111.022 436.303 109.376 433.797 107.798C433.578 108.149 433.116 108.255 432.765 108.037C429.849 106.22 426.869 104.495 423.83 102.867C423.466 102.672 423.328 102.218 423.522 101.854C420.914 100.472 418.263 99.1619 415.57 97.9247C415.399 98.3007 414.955 98.467 414.578 98.2961C411.453 96.8777 408.273 95.5583 405.043 94.3418C404.656 94.1961 404.46 93.7645 404.605 93.3773C401.84 92.3512 399.038 91.4 396.203 90.5262C396.083 90.9216 395.664 91.1448 395.269 91.0248C391.99 90.0315 388.666 89.142 385.301 88.3602C384.898 88.2666 384.647 87.8646 384.739 87.4617C381.867 86.8087 378.964 86.2339 376.034 85.7394C375.967 86.1472 375.582 86.4233 375.173 86.3564C371.796 85.8028 368.382 85.3565 364.935 85.0211C364.524 84.981 364.222 84.6153 364.261 84.2037C361.335 83.9328 358.386 83.7415 355.415 83.6319C355.401 84.0451 355.055 84.369 354.641 84.3557C352.924 84.3003 351.2 84.2725 349.469 84.2725C347.739 84.2725 346.014 84.3003 344.297 84.3557C343.884 84.369 343.538 84.0451 343.523 83.6319C340.553 83.7415 337.604 83.9328 334.677 84.2037C334.716 84.6153 334.415 84.981 334.003 85.0211C330.557 85.3565 327.143 85.8028 323.765 86.3564C323.357 86.4233 322.972 86.1472 322.904 85.7394C319.974 86.2339 317.072 86.8087 314.199 87.4617C314.292 87.8646 314.041 88.2666 313.638 88.3602C310.273 89.142 306.949 90.0314 303.67 91.0248C303.274 91.1448 302.856 90.9216 302.735 90.5262C299.9 91.4 297.099 92.3512 294.334 93.3773C294.479 93.7645 294.283 94.196 293.896 94.3418C290.665 95.5582 287.486 96.8777 284.36 98.2961C283.984 98.467 283.54 98.3007 283.368 97.9247C280.676 99.1619 278.024 100.472 275.416 101.854C275.61 102.218 275.473 102.672 275.108 102.867C272.069 104.495 269.089 106.22 266.173 108.037C265.822 108.255 265.361 108.149 265.141 107.798C262.636 109.376 260.177 111.022 257.769 112.734C258.009 113.07 257.932 113.538 257.596 113.779C254.798 115.788 252.069 117.885 249.412 120.068C249.092 120.331 248.621 120.285 248.357 119.966C246.08 121.855 243.857 123.807 241.689 125.818C241.971 126.121 241.956 126.594 241.654 126.877C239.142 129.23 236.708 131.665 234.355 134.176C234.072 134.478 233.598 134.494 233.296 134.212C231.284 136.379 229.333 138.603 227.444 140.88C227.762 141.143 227.808 141.615 227.546 141.934C225.363 144.591 223.265 147.321 221.257 150.118C221.015 150.454 220.548 150.532 220.212 150.291C218.5 152.7 216.854 155.158 215.276 157.664C215.626 157.883 215.733 158.345 215.514 158.696C213.697 161.612 211.973 164.592 210.345 167.631C210.15 167.995 209.696 168.133 209.331 167.939C207.95 170.547 206.639 173.198 205.402 175.891C205.778 176.062 205.945 176.506 205.774 176.883C204.355 180.008 203.036 183.188 201.819 186.418C201.674 186.805 201.242 187.001 200.855 186.856C199.829 189.621 198.878 192.422 198.004 195.258C198.399 195.378 198.622 195.797 198.502 196.192C197.509 199.471 196.619 202.795 195.838 206.16C195.744 206.563 195.342 206.814 194.939 206.722C194.286 209.594 193.711 212.497 193.217 215.426C193.625 215.494 193.901 215.879 193.834 216.288C193.28 219.665 192.834 223.079 192.499 226.526C192.459 226.937 192.093 227.239 191.681 227.2C191.41 230.126 191.219 233.075 191.109 236.046C191.523 236.06 191.847 236.406 191.833 236.819C191.778 238.537 191.75 240.261 191.75 241.992C191.75 243.722 191.778 245.447 191.833 247.164C191.847 247.577 191.523 247.923 191.109 247.938C191.219 250.908 191.41 253.857 191.681 256.784C192.093 256.745 192.459 257.046 192.499 257.458C192.834 260.904 193.28 264.318 193.834 267.696C193.901 268.104 193.625 268.489 193.217 268.557C193.711 271.487 194.286 274.389 194.939 277.262C195.342 277.169 195.744 277.42 195.838 277.823C196.619 281.188 197.509 284.512 198.502 287.791C198.622 288.187 198.399 288.605 198.004 288.726C198.878 291.561 199.829 294.362 200.855 297.127C201.242 296.982 201.674 297.178 201.819 297.565C203.036 300.795 204.355 303.975 205.774 307.101C205.945 307.477 205.778 307.921 205.402 308.093C206.639 310.785 207.95 313.437 209.331 316.045C209.696 315.851 210.15 315.988 210.345 316.353C211.973 319.392 213.697 322.371 215.514 325.287C215.733 325.639 215.626 326.1 215.276 326.32C216.854 328.825 218.5 331.284 220.212 333.692C220.548 333.452 221.015 333.529 221.257 333.865C223.265 336.663 225.363 339.392 227.546 342.049C227.808 342.369 227.762 342.84 227.444 343.103C229.333 345.381 231.284 347.604 233.296 349.772C233.598 349.49 234.072 349.505 234.355 349.807C236.708 352.319 239.142 354.753 241.654 357.106C241.956 357.389 241.971 357.863 241.689 358.165C243.857 360.177 246.08 362.128 248.358 364.017C248.621 363.698 249.092 363.653 249.412 363.915C252.069 366.098 254.798 368.196 257.596 370.204C257.932 370.445 258.009 370.913 257.769 371.249C260.177 372.961 262.636 374.607 265.141 376.185C265.361 375.835 265.822 375.728 266.173 375.947C269.089 377.764 272.069 379.488 275.108 381.116C275.473 381.311 275.61 381.765 275.416 382.13C278.024 383.511 280.676 384.822 283.368 386.059C283.54 385.683 283.984 385.516 284.36 385.687C287.486 387.106 290.665 388.425 293.896 389.642C294.283 389.787 294.479 390.219 294.334 390.606C297.099 391.632 299.9 392.583 302.735 393.457C302.856 393.062 303.274 392.839 303.67 392.959C306.949 393.952 310.273 394.841 313.638 395.623C314.041 395.717 314.292 396.119 314.199 396.522C317.072 397.175 319.974 397.75 322.904 398.244C322.972 397.836 323.357 397.56 323.765 397.627C327.143 398.181 330.557 398.627 334.003 398.962C334.415 399.002 334.716 399.368 334.677 399.78C337.604 400.051 340.553 400.242 343.523 400.351C343.538 399.938 343.884 399.614 344.297 399.628C346.014 399.683 347.738 399.711 349.469 399.711C351.2 399.711 352.924 399.683 354.641 399.628C355.055 399.614 355.401 399.938 355.415 400.351C358.385 400.242 361.335 400.051 364.261 399.78C364.222 399.368 364.524 399.002 364.935 398.962C368.382 398.627 371.796 398.181 375.173 397.627C375.581 397.56 375.967 397.836 376.034 398.244C378.964 397.75 381.867 397.175 384.739 396.522C384.647 396.119 384.898 395.717 385.3 395.623C388.666 394.841 391.99 393.952 395.269 392.959C395.664 392.839 396.083 393.062 396.203 393.457C399.038 392.583 401.84 391.632 404.604 390.606C404.46 390.219 404.656 389.787 405.043 389.642C408.273 388.425 411.453 387.106 414.578 385.687C414.955 385.516 415.399 385.683 415.57 386.059C418.263 384.822 420.914 383.511 423.522 382.13C423.328 381.765 423.466 381.311 423.83 381.116C426.869 379.488 429.849 377.764 432.765 375.947C433.116 375.728 433.578 375.835 433.797 376.185C436.303 374.607 438.761 372.961 441.17 371.249C440.929 370.913 441.007 370.445 441.343 370.204C444.14 368.196 446.87 366.098 449.526 363.915C449.846 363.653 450.318 363.698 450.581 364.017C452.858 362.128 455.082 360.177 457.249 358.165C456.967 357.863 456.983 357.389 457.285 357.106C459.796 354.753 462.231 352.319 464.584 349.807C464.866 349.505 465.34 349.49 465.642 349.772C467.654 347.604 469.606 345.381 471.495 343.103C471.176 342.84 471.13 342.369 471.393 342.049C473.576 339.392 475.673 336.663 477.682 333.865C477.923 333.529 478.391 333.452 478.727 333.692C480.439 331.284 482.085 328.825 483.663 326.32C483.312 326.1 483.206 325.639 483.424 325.287C485.241 322.372 486.966 319.392 488.594 316.353C488.789 315.988 489.242 315.851 489.607 316.045C490.989 313.437 492.299 310.785 493.536 308.093C493.16 307.921 492.994 307.477 493.165 307.101C494.583 303.975 495.903 300.795 497.119 297.565C497.265 297.178 497.696 296.982 498.084 297.127C499.11 294.362 500.061 291.561 500.935 288.726C500.539 288.605 500.316 288.187 500.436 287.791C501.43 284.512 502.319 281.188 503.101 277.823C503.194 277.42 503.596 277.169 503.999 277.262C504.652 274.389 505.227 271.487 505.722 268.557C505.314 268.489 505.038 268.104 505.104 267.696C505.658 264.318 506.104 260.904 506.44 257.458C506.48 257.046 506.846 256.745 507.257 256.784C507.528 253.857 507.719 250.908 507.829 247.938C507.416 247.923 507.092 247.577 507.105 247.164C507.161 245.447 507.188 243.722 507.188 241.992C507.188 240.261 507.161 238.537 507.105 236.82C507.092 236.406 507.416 236.06 507.829 236.046Z" stroke="white" stroke-width="1.5" stroke-linecap="round" stroke-dasharray="10 10"></path> <path d="M723.382 246.289L723.64 246.52L723.947 246.36L728.361 244.049L726.31 248.586L726.167 248.903L726.414 249.147L729.902 252.598L724.962 252.141L724.625 252.11L724.471 252.411L722.193 256.864L721.206 252.042L721.136 251.697L720.787 251.647L715.914 250.952L720.233 248.422L720.526 248.25L720.474 247.915L719.724 243.017L723.382 246.289Z" stroke="#002F85" stroke-linecap="round"></path> <path d="M610.474 90.1358L615.545 87.079L612.478 92.1276L612.124 92.7109L612.787 92.8729L618.522 94.2745L612.787 95.6761L612.124 95.8381L612.478 96.4213L615.545 101.47L610.474 98.4132L609.892 98.0626L609.73 98.7221L608.32 104.462L606.898 98.7212L606.735 98.0633L606.154 98.4132L601.083 101.47L604.15 96.4213L604.504 95.8381L603.841 95.6761L598.106 94.2745L603.841 92.8729L604.504 92.7109L604.15 92.1276L601.083 87.0791L606.154 90.1358L606.735 90.4857L606.898 89.8278L608.32 84.0872L609.73 89.8269L609.892 90.4864L610.474 90.1358Z" stroke="#002F85" stroke-linecap="round"></path> <path d="M241.474 248.833L246.545 245.777L243.478 250.825L243.124 251.409L243.787 251.571L249.522 252.972L243.787 254.374L243.124 254.536L243.478 255.119L246.545 260.168L241.474 257.111L240.892 256.76L240.73 257.42L239.32 263.159L237.898 257.419L237.735 256.761L237.154 257.111L232.083 260.168L235.15 255.119L235.504 254.536L234.841 254.374L229.106 252.972L234.841 251.571L235.504 251.409L235.15 250.825L232.083 245.777L237.154 248.833L237.735 249.183L237.898 248.525L239.32 242.785L240.73 248.525L240.892 249.184L241.474 248.833Z" stroke="#002F85" stroke-linecap="round"></path> <path d="M578.557 150.288L578.578 334.795C578.635 343.489 571.559 350.487 562.85 350.427L324.729 350.622C316.036 350.679 309.037 343.603 309.097 334.894L309.092 150.504C309.034 141.81 316.111 134.812 324.82 134.872L562.823 134.693C571.517 134.636 578.515 141.712 578.557 150.288Z" fill="white"></path> <path d="M578.557 150.288L578.601 165.301L309.018 165.532L308.974 150.519C308.917 141.825 315.994 134.827 324.702 134.887L562.823 134.692C571.517 134.635 578.515 141.712 578.557 150.288Z" fill="#F91155"></path> <path d="M442.305 206.81L442.296 216.824L439.437 216.838L439.369 208.98L437.463 208.989L437.423 206.849L442.305 206.81Z" fill="#1C455F"></path> <path d="M483.364 214.586L483.419 216.843L475.679 216.896L475.685 215.107L479.406 211.644C479.727 211.364 480.033 210.966 480.12 210.717C480.207 210.467 480.294 210.217 480.263 209.983C480.217 209.631 480.187 209.397 479.922 209.193C479.657 208.989 479.408 208.902 478.939 208.963C478.587 209.009 478.235 209.054 477.899 209.217C477.563 209.38 477.359 209.645 477.155 209.91L475.096 208.747C475.489 208.1 476.014 207.555 476.687 207.229C477.36 206.904 478.165 206.68 479.235 206.66C479.954 206.686 480.688 206.829 481.304 206.987C481.936 207.262 482.333 207.568 482.629 208.007C482.924 208.445 483.117 209.016 483.076 209.617C483.035 210.219 482.979 210.703 482.688 211.217C482.515 211.716 481.99 212.262 481.347 212.822L479.435 214.62L483.364 214.586Z" fill="#1C455F"></path> <path d="M519.959 211.856C520.387 212.396 520.58 212.967 520.672 213.671C520.631 214.272 520.457 214.771 520.167 215.286C519.876 215.8 519.335 216.228 518.663 216.554C517.99 216.88 517.169 216.986 516.216 216.991C515.498 216.965 514.779 216.939 514.163 216.781C513.429 216.638 512.915 216.347 512.4 216.057L513.43 213.896C513.828 214.202 514.21 214.391 514.709 214.565C515.208 214.738 515.693 214.794 516.161 214.733C516.645 214.79 516.982 214.627 517.318 214.464C517.655 214.301 517.741 214.051 517.696 213.7C517.737 213.098 517.207 212.691 516.137 212.71L514.95 212.746L514.955 210.957L516.735 209.057L512.806 209.091L512.766 206.95L520.038 206.959L520.032 208.748L517.931 210.928C518.884 210.923 519.531 211.316 519.959 211.856Z" fill="#EF754A"></path> <path d="M559.808 214.901L558.371 214.85L558.38 216.756L555.638 216.754L555.629 214.848L550.38 214.815L550.386 213.027L554.828 206.847L557.804 206.818L553.801 212.702L555.824 212.678L555.845 211.006L558.469 211.023L558.448 212.694L559.885 212.746L559.808 214.901Z" fill="#EF754A"></path> <path d="M333.469 235.139C334.147 235.766 334.473 236.439 334.477 237.392C334.436 237.993 334.278 238.609 333.987 239.124C333.696 239.638 333.156 240.066 332.483 240.392C331.811 240.718 330.99 240.825 330.037 240.829C329.319 240.803 328.6 240.778 327.984 240.619C327.25 240.476 326.735 240.186 326.221 239.895L327.251 237.735C327.648 238.041 328.148 238.214 328.53 238.403C329.029 238.576 329.513 238.633 329.982 238.572C330.466 238.628 330.803 238.465 331.139 238.302C331.475 238.139 331.562 237.89 331.634 237.523C331.588 237.171 331.44 236.952 331.175 236.748C330.91 236.544 330.426 236.488 329.708 236.462L326.966 236.461L327.524 230.667L333.843 230.68L333.883 232.82L329.837 232.869L329.668 234.322L330.387 234.347C331.691 234.297 332.807 234.629 333.469 235.139Z" fill="#353535"></path> <path d="M370.838 234.692C371.352 234.983 371.75 235.289 372.06 235.845C372.355 236.283 372.549 236.854 372.508 237.455C372.482 238.174 372.309 238.673 372.018 239.188C371.61 239.717 371.187 240.13 370.631 240.441C370.076 240.751 369.372 240.843 368.654 240.817C367.217 240.765 366.101 240.433 365.276 239.587C364.451 238.741 364.049 237.482 364.085 235.928C364.05 234.74 364.28 233.757 364.774 232.977C365.269 232.198 365.779 231.536 366.671 231.062C367.446 230.604 368.368 230.365 369.454 230.462C370.055 230.503 370.539 230.56 371.023 230.616C371.522 230.789 372.022 230.963 372.287 231.167L371.241 233.21C370.726 232.919 370.095 232.644 369.391 232.735C368.673 232.709 368.102 232.903 367.679 233.315C367.256 233.728 366.965 234.242 366.954 235.078C367.48 234.533 368.285 234.309 369.238 234.304C369.707 234.244 370.206 234.417 370.838 234.692ZM369.419 238.453C369.623 238.188 369.827 237.923 369.781 237.571C369.736 237.22 369.69 236.868 369.425 236.664C369.16 236.46 368.895 236.256 368.427 236.317C368.075 236.363 367.723 236.408 367.402 236.688C367.198 236.953 366.994 237.218 367.04 237.57C367.086 237.922 367.131 238.273 367.396 238.477C367.661 238.681 368.043 238.87 368.395 238.824C368.762 238.896 369.098 238.733 369.419 238.453Z" fill="#1C455F"></path> <path d="M409.288 230.649L409.282 232.438L405.701 240.65L402.608 240.695L406.015 232.981L403.391 232.965L403.355 234.519L400.965 234.472L400.946 230.66L409.288 230.649Z" fill="#1C455F"></path> <path d="M446.745 236.389C447.041 236.827 447.086 237.179 447.163 237.765C447.122 238.366 446.963 238.983 446.657 239.38C446.249 239.91 445.811 240.205 445.138 240.531C444.45 240.739 443.762 240.948 442.926 240.938C442.091 240.927 441.357 240.784 440.608 240.524C439.976 240.248 439.446 239.84 439.034 239.417C438.621 238.994 438.545 238.408 438.469 237.822C438.525 237.338 438.582 236.854 438.887 236.456C439.193 236.059 439.515 235.779 439.953 235.484C439.571 235.295 439.291 234.974 439.128 234.637C438.965 234.301 438.802 233.964 438.858 233.48C438.899 232.879 439.073 232.38 439.379 231.982C439.685 231.585 440.225 231.157 440.796 230.964C441.367 230.77 442.055 230.562 442.89 230.572C443.726 230.583 444.343 230.741 444.959 230.9C445.591 231.175 445.988 231.481 446.401 231.904C446.696 232.342 446.89 232.913 446.951 233.382C447.012 233.851 446.823 234.233 446.619 234.498C446.43 234.88 446.226 235.145 445.773 235.323C446.17 235.629 446.567 235.935 446.745 236.389ZM443.926 238.543C444.248 238.263 444.334 238.013 444.289 237.661C444.243 237.31 444.197 236.958 443.932 236.754C443.667 236.55 443.301 236.479 442.816 236.423C442.348 236.483 441.996 236.529 441.675 236.809C441.354 237.089 441.267 237.339 441.313 237.691C441.358 238.042 441.404 238.394 441.669 238.598C441.934 238.802 442.316 238.991 442.785 238.93C443.254 238.869 443.59 238.706 443.926 238.543ZM441.977 232.717C441.758 232.865 441.671 233.115 441.6 233.482C441.646 233.833 441.676 234.068 441.941 234.272C442.206 234.476 442.455 234.562 442.807 234.517C443.159 234.471 443.51 234.425 443.73 234.278C443.949 234.13 444.036 233.88 444.107 233.513C444.061 233.162 444.031 232.927 443.766 232.723C443.501 232.519 443.251 232.433 442.9 232.478C442.416 232.422 442.181 232.452 441.977 232.717Z" fill="#1C455F"></path> <path d="M482.847 231.698C483.672 232.544 484.074 233.803 484.038 235.357C484.073 236.544 483.843 237.528 483.348 238.307C482.854 239.087 482.226 239.764 481.452 240.222C480.677 240.681 479.739 240.803 478.669 240.822C478.068 240.781 477.584 240.725 477.1 240.669C476.6 240.495 476.101 240.322 475.836 240.118L476.882 238.075C477.396 238.366 478.013 238.524 478.731 238.55C479.45 238.575 480.021 238.382 480.444 237.97C480.867 237.557 481.158 237.042 481.168 236.207C480.628 236.634 479.838 236.976 478.885 236.98C478.284 236.939 477.682 236.898 477.168 236.607C476.653 236.317 476.256 236.011 475.945 235.455C475.65 235.017 475.456 234.446 475.498 233.845C475.523 233.126 475.697 232.627 475.988 232.112C476.278 231.598 476.819 231.17 477.374 230.859C477.93 230.549 478.633 230.457 479.352 230.483C480.891 230.402 482.022 230.851 482.847 231.698ZM480.603 234.611C480.807 234.347 481.011 234.082 480.965 233.73C480.92 233.378 480.874 233.027 480.609 232.823C480.344 232.619 479.962 232.43 479.611 232.476C479.259 232.521 478.907 232.567 478.586 232.847C478.382 233.112 478.178 233.377 478.224 233.729C478.27 234.08 478.315 234.432 478.58 234.636C478.845 234.84 479.227 235.029 479.579 234.983C480.048 234.922 480.399 234.876 480.603 234.611Z" fill="#1C455F"></path> <path d="M513.102 230.626L513.092 240.64L510.233 240.654L510.165 232.796L508.26 232.805L508.22 230.665L513.102 230.626Z" fill="#EF754A"></path> <path d="M516.726 240.167C516.079 239.775 515.518 239.132 515.177 238.342C514.836 237.552 514.597 236.63 514.577 235.56C514.557 234.489 514.787 233.506 515.165 232.742C515.542 231.978 516.052 231.315 516.725 230.99C517.382 230.547 518.188 230.323 519.023 230.333C519.859 230.344 520.593 230.487 521.255 230.997C521.902 231.39 522.462 232.032 522.803 232.822C523.144 233.612 523.383 234.534 523.403 235.605C523.423 236.675 523.193 237.658 522.816 238.422C522.438 239.186 521.929 239.849 521.256 240.175C520.598 240.618 519.793 240.841 518.957 240.831C518.239 240.805 517.372 240.56 516.726 240.167ZM520.233 237.804C520.523 237.29 520.666 236.556 520.662 235.603C520.657 234.65 520.55 233.83 520.255 233.391C519.96 232.953 519.562 232.647 519.093 232.708C518.609 232.652 518.171 232.947 517.998 233.446C517.707 233.961 517.564 234.695 517.568 235.648C517.573 236.601 517.68 237.421 517.975 237.859C518.27 238.298 518.668 238.604 519.137 238.543C519.488 238.497 519.927 238.202 520.233 237.804Z" fill="#EF754A"></path> <path d="M554.577 230.599L554.567 240.613L551.708 240.627L551.641 232.769L549.735 232.778L549.695 230.638L554.577 230.599Z" fill="#EF754A"></path> <path d="M560.412 230.556L560.402 240.57L557.543 240.584L557.476 232.726L555.57 232.735L555.53 230.595L560.412 230.556Z" fill="#EF754A"></path> <path d="M326.571 254.51L326.561 264.523L323.702 264.537L323.634 256.68L321.729 256.689L321.689 254.549L326.571 254.51Z" fill="#353535"></path> <path d="M335.801 262.25L335.856 264.508L328.115 264.56L328.121 262.771L331.843 259.308C332.164 259.028 332.47 258.63 332.556 258.381C332.643 258.131 332.73 257.881 332.699 257.647C332.654 257.295 332.623 257.061 332.358 256.857C332.094 256.653 331.844 256.566 331.375 256.627C331.023 256.673 330.672 256.719 330.335 256.881C329.999 257.044 329.795 257.309 329.591 257.574L327.533 256.411C327.926 255.764 328.451 255.219 329.123 254.894C329.796 254.568 330.602 254.344 331.672 254.324C332.39 254.35 333.124 254.493 333.74 254.651C334.372 254.927 334.77 255.232 335.065 255.671C335.36 256.109 335.554 256.68 335.513 257.281C335.472 257.883 335.415 258.367 335.125 258.881C334.951 259.381 334.426 259.926 333.784 260.486L331.872 262.284L335.801 262.25Z" fill="#353535"></path> <path d="M363.868 254.431L363.858 264.444L360.999 264.458L360.931 256.6L359.025 256.609L358.986 254.469L363.868 254.431Z" fill="#1C455F"></path> <path d="M372.396 259.52C372.823 260.061 373.017 260.631 373.108 261.335C373.067 261.936 372.894 262.435 372.603 262.95C372.312 263.464 371.772 263.892 371.099 264.218C370.426 264.544 369.606 264.65 368.653 264.655C367.934 264.629 367.216 264.603 366.599 264.445C365.866 264.302 365.351 264.011 364.836 263.721L365.867 261.561C366.264 261.866 366.646 262.055 367.146 262.229C367.645 262.402 368.129 262.458 368.598 262.398C369.082 262.454 369.418 262.291 369.755 262.128C370.091 261.965 370.178 261.715 370.132 261.364C370.173 260.762 369.643 260.355 368.573 260.374L367.386 260.41L367.392 258.621L369.171 256.721L365.242 256.755L365.202 254.615L372.474 254.623L372.468 256.412L370.368 258.592C371.321 258.587 371.968 258.98 372.396 259.52Z" fill="#1C455F"></path> <path d="M401.297 254.453L401.287 264.466L398.428 264.48L398.361 256.623L396.455 256.632L396.649 254.461L401.297 254.453Z" fill="#1C455F"></path> <path d="M412.244 262.566L410.807 262.515L410.816 264.421L408.075 264.419L408.066 262.513L402.817 262.48L402.823 260.692L407.264 254.512L410.24 254.483L406.237 260.367L408.26 260.343L408.281 258.671L410.906 258.688L410.885 260.359L412.322 260.411L412.244 262.566Z" fill="#1C455F"></path> <path d="M438.476 254.389L438.467 264.403L435.608 264.417L435.54 256.559L433.634 256.568L433.595 254.428L438.476 254.389Z" fill="#1C455F"></path> <path d="M446.811 258.909C447.489 259.536 447.814 260.209 447.819 261.161C447.778 261.763 447.62 262.379 447.329 262.894C447.038 263.408 446.498 263.836 445.825 264.162C445.152 264.488 444.332 264.594 443.379 264.599C442.661 264.573 441.942 264.548 441.325 264.389C440.592 264.246 440.077 263.956 439.563 263.665L440.593 261.505C440.99 261.811 441.49 261.984 441.872 262.173C442.371 262.346 442.855 262.403 443.324 262.342C443.808 262.398 444.144 262.235 444.481 262.072C444.817 261.909 444.904 261.66 444.976 261.293C444.93 260.941 444.782 260.722 444.517 260.518C444.252 260.314 443.768 260.258 443.05 260.232L440.308 260.231L440.866 254.437L447.185 254.45L447.225 256.59L443.179 256.639L443.01 258.092L443.729 258.117C445.033 258.067 446.149 258.399 446.811 258.909Z" fill="#1C455F"></path> <path d="M475.789 254.427L475.779 264.44L472.92 264.454L472.852 256.596L470.947 256.606L470.907 254.466L475.789 254.427Z" fill="#1C455F"></path> <path d="M484.18 258.461C484.694 258.752 485.091 259.058 485.402 259.614C485.697 260.052 485.891 260.623 485.85 261.224C485.824 261.943 485.65 262.442 485.36 262.957C484.952 263.486 484.529 263.899 483.973 264.21C483.417 264.52 482.714 264.612 481.996 264.586C480.559 264.534 479.443 264.202 478.618 263.356C477.793 262.51 477.391 261.251 477.427 259.697C477.392 258.509 477.622 257.526 478.116 256.746C478.611 255.967 479.121 255.305 480.013 254.831C480.788 254.373 481.71 254.134 482.795 254.231C483.397 254.272 483.881 254.329 484.365 254.385C484.864 254.558 485.364 254.732 485.628 254.936L484.583 256.979C484.068 256.688 483.452 256.53 482.733 256.504C482.015 256.478 481.444 256.672 481.021 257.084C480.598 257.497 480.307 258.011 480.296 258.847C480.821 258.302 481.627 258.078 482.58 258.073C483.049 258.013 483.548 258.186 484.18 258.461ZM482.761 262.222C482.965 261.957 483.169 261.692 483.123 261.34C483.078 260.989 483.032 260.637 482.767 260.433C482.502 260.229 482.237 260.025 481.768 260.086C481.3 260.147 481.065 260.177 480.744 260.457C480.54 260.722 480.336 260.987 480.382 261.339C480.428 261.691 480.473 262.042 480.738 262.246C481.003 262.45 481.385 262.639 481.737 262.593C482.088 262.547 482.44 262.502 482.761 262.222Z" fill="#1C455F"></path> <path d="M512.968 254.363L512.958 264.376L510.1 264.39L510.032 256.532L508.126 256.541L508.086 254.401L512.968 254.363Z" fill="#EF754A"></path> <path d="M522.63 254.418L522.624 256.207L519.043 264.42L515.95 264.464L519.357 256.75L516.733 256.734L516.697 258.288L514.307 258.241L514.288 254.429L522.63 254.418Z" fill="#EF754A"></path> <path d="M551.585 254.35L551.575 264.363L548.716 264.377L548.649 256.519L546.743 256.529L546.703 254.388L551.585 254.35Z" fill="#EF754A"></path> <path d="M561.275 260.123C561.57 260.561 561.616 260.913 561.692 261.499C561.651 262.1 561.492 262.717 561.187 263.114C560.779 263.644 560.34 263.939 559.667 264.265C558.979 264.474 558.291 264.682 557.456 264.672C556.62 264.661 555.886 264.518 555.137 264.258C554.505 263.983 553.991 263.692 553.563 263.151C553.15 262.728 553.074 262.142 552.998 261.556C553.054 261.072 553.111 260.588 553.417 260.191C553.723 259.793 554.044 259.513 554.482 259.218C554.1 259.029 553.937 258.693 553.657 258.372C553.494 258.035 553.331 257.699 553.387 257.215C553.429 256.613 553.602 256.114 553.908 255.717C554.214 255.319 554.754 254.892 555.325 254.698C555.896 254.505 556.584 254.296 557.42 254.307C558.255 254.317 558.872 254.476 559.488 254.634C560.12 254.909 560.518 255.215 560.93 255.638C561.225 256.077 561.419 256.648 561.48 257.117C561.541 257.585 561.352 257.967 561.148 258.232C560.959 258.614 560.755 258.879 560.302 259.058C560.699 259.363 561.096 259.669 561.275 260.123ZM558.456 262.277C558.777 261.997 558.863 261.747 558.818 261.396C558.772 261.044 558.726 260.693 558.461 260.489C558.197 260.285 557.83 260.213 557.346 260.157C556.877 260.218 556.525 260.263 556.204 260.544C555.883 260.824 555.796 261.073 555.842 261.425C555.887 261.777 555.933 262.128 556.198 262.332C556.463 262.536 556.83 262.608 557.314 262.664C557.783 262.603 558.119 262.44 558.456 262.277ZM556.507 256.452C556.287 256.599 556.201 256.849 556.129 257.216C556.175 257.568 556.205 257.802 556.47 258.006C556.735 258.21 556.985 258.297 557.336 258.251C557.688 258.205 558.04 258.16 558.259 258.012C558.478 257.864 558.565 257.615 558.636 257.248C558.591 256.896 558.56 256.662 558.295 256.458C558.03 256.254 557.781 256.167 557.429 256.213C556.945 256.156 556.726 256.304 556.507 256.452Z" fill="#EF754A"></path> <path d="M326.672 278.216L326.662 288.23L323.803 288.244L323.735 280.386L321.829 280.395L321.79 278.255L326.672 278.216Z" fill="#353535"></path> <path d="M335.283 279.362C336.108 280.208 336.51 281.467 336.474 283.022C336.509 284.209 336.279 285.192 335.785 285.972C335.29 286.751 334.663 287.429 333.888 287.887C333.113 288.345 332.191 288.584 331.105 288.487C330.504 288.446 330.02 288.39 329.536 288.333C329.037 288.16 328.537 287.986 328.272 287.782L329.318 285.739C329.833 286.03 330.464 286.306 331.168 286.214C331.886 286.24 332.457 286.047 332.88 285.634C333.303 285.222 333.594 284.707 333.605 283.871C333.064 284.299 332.274 284.64 331.321 284.645C330.72 284.604 330.119 284.563 329.604 284.272C329.09 283.981 328.692 283.675 328.382 283.12C328.086 282.681 327.893 282.111 327.934 281.509C327.96 280.791 328.133 280.291 328.424 279.777C328.715 279.262 329.255 278.834 329.811 278.524C330.366 278.213 331.069 278.122 331.788 278.148C333.327 278.067 334.458 278.516 335.283 279.362ZM333.04 282.276C333.244 282.011 333.448 281.746 333.402 281.395C333.356 281.043 333.31 280.691 333.046 280.487C332.781 280.283 332.399 280.095 332.047 280.14C331.695 280.186 331.344 280.232 331.023 280.512C330.819 280.777 330.615 281.042 330.66 281.393C330.706 281.745 330.752 282.097 331.017 282.301C331.281 282.504 331.546 282.708 332.015 282.648C332.484 282.587 332.82 282.424 333.04 282.276Z" fill="#353535"></path> <path d="M367.848 285.976L367.903 288.234L360.162 288.286L360.168 286.498L363.89 283.034C364.211 282.754 364.517 282.357 364.604 282.107C364.69 281.857 364.777 281.608 364.747 281.373C364.701 281.022 364.67 280.787 364.406 280.583C364.141 280.379 363.891 280.293 363.422 280.354C363.071 280.399 362.719 280.445 362.382 280.608C362.046 280.771 361.842 281.036 361.638 281.301L359.58 280.138C359.973 279.491 360.498 278.946 361.171 278.62C361.843 278.294 362.649 278.07 363.719 278.05C364.437 278.076 365.171 278.219 365.788 278.377C366.419 278.653 366.817 278.959 367.112 279.397C367.407 279.836 367.601 280.406 367.56 281.008C367.519 281.609 367.462 282.093 367.172 282.608C366.998 283.107 366.473 283.652 365.831 284.212L363.919 286.01L367.848 285.976Z" fill="#1C455F"></path> <path d="M370.833 287.853C370.186 287.461 369.626 286.818 369.285 286.028C368.944 285.238 368.705 284.316 368.685 283.246C368.665 282.175 368.895 281.192 369.272 280.428C369.65 279.664 370.16 279.001 370.832 278.676C371.49 278.233 372.295 278.009 373.131 278.019C373.967 278.03 374.7 278.173 375.363 278.683C376.01 279.076 376.57 279.718 376.911 280.508C377.252 281.298 377.491 282.22 377.511 283.291C377.531 284.361 377.301 285.344 376.924 286.108C376.546 286.872 376.036 287.535 375.364 287.861C374.706 288.304 373.901 288.527 373.065 288.517C372.214 288.389 371.48 288.246 370.833 287.853ZM374.208 285.388C374.499 284.874 374.642 284.14 374.637 283.187C374.632 282.234 374.526 281.414 374.23 280.975C373.935 280.537 373.538 280.231 373.069 280.292C372.585 280.236 372.146 280.531 371.973 281.03C371.682 281.545 371.539 282.279 371.544 283.232C371.548 284.185 371.655 285.005 371.95 285.443C372.246 285.882 372.643 286.188 373.112 286.127C373.581 286.066 373.917 285.903 374.208 285.388Z" fill="#1C455F"></path> <path d="M404.559 285.973L404.614 288.23L396.873 288.283L396.879 286.494L400.601 283.031C400.922 282.75 401.228 282.353 401.315 282.103C401.401 281.854 401.488 281.604 401.458 281.37C401.412 281.018 401.381 280.784 401.117 280.58C400.852 280.376 400.602 280.289 400.133 280.35C399.781 280.396 399.43 280.441 399.093 280.604C398.757 280.767 398.553 281.032 398.349 281.297L396.291 280.134C396.684 279.487 397.209 278.942 397.882 278.616C398.554 278.29 399.36 278.067 400.43 278.047C401.148 278.073 401.882 278.216 402.499 278.374C403.13 278.649 403.528 278.955 403.823 279.394C404.118 279.832 404.312 280.403 404.271 281.004C404.23 281.605 404.173 282.089 403.883 282.604C403.709 283.103 403.184 283.648 402.542 284.209L400.63 286.007L404.559 285.973Z" fill="#1C455F"></path> <path d="M409.755 278.265L409.745 288.278L406.887 288.292L406.819 280.434L404.913 280.444L404.873 278.303L409.755 278.265Z" fill="#1C455F"></path> <path d="M442.223 285.965L442.278 288.222L434.537 288.274L434.543 286.486L438.264 283.022C438.586 282.742 438.891 282.345 438.978 282.095C439.065 281.846 439.152 281.596 439.121 281.361C439.076 281.01 439.045 280.775 438.78 280.571C438.515 280.368 438.266 280.281 437.797 280.342C437.445 280.387 437.094 280.433 436.757 280.596C436.421 280.759 436.217 281.024 436.013 281.289L433.955 280.126C434.347 279.479 434.872 278.934 435.545 278.608C436.218 278.282 437.023 278.058 438.093 278.038C438.812 278.064 439.546 278.207 440.162 278.366C440.794 278.641 441.191 278.947 441.487 279.385C441.782 279.824 441.975 280.395 441.934 280.996C441.893 281.597 441.837 282.081 441.546 282.596C441.373 283.095 440.848 283.64 440.205 284.2L438.294 285.998L442.223 285.965Z" fill="#1C455F"></path> <path d="M450.799 285.923L450.854 288.181L443.113 288.233L443.119 286.444L446.841 282.981C447.162 282.701 447.468 282.303 447.555 282.054C447.641 281.804 447.728 281.554 447.698 281.32C447.652 280.968 447.621 280.734 447.357 280.53C447.092 280.326 446.842 280.239 446.373 280.3C446.022 280.346 445.67 280.392 445.334 280.555C444.997 280.717 444.793 280.982 444.589 281.247L442.531 280.084C442.924 279.437 443.449 278.892 444.122 278.567C444.794 278.241 445.6 278.017 446.67 277.997C447.388 278.023 448.122 278.166 448.739 278.324C449.37 278.6 449.768 278.906 450.063 279.344C450.358 279.782 450.552 280.353 450.511 280.954C450.47 281.556 450.413 282.04 450.123 282.554C449.949 283.054 449.424 283.599 448.782 284.159L446.87 285.957L450.799 285.923Z" fill="#1C455F"></path> <path d="M479.535 286.003L479.59 288.26L471.849 288.313L471.855 286.524L475.577 283.061C475.898 282.781 476.204 282.383 476.29 282.134C476.377 281.884 476.464 281.634 476.433 281.4C476.388 281.048 476.357 280.814 476.092 280.61C475.827 280.406 475.578 280.319 475.109 280.38C474.757 280.426 474.406 280.471 474.069 280.634C473.733 280.797 473.529 281.062 473.325 281.327L471.267 280.164C471.659 279.517 472.185 278.972 472.857 278.646C473.53 278.321 474.335 278.097 475.406 278.077C476.124 278.103 476.858 278.246 477.474 278.404C478.106 278.679 478.503 278.985 478.799 279.424C479.094 279.862 479.288 280.433 479.246 281.034C479.205 281.636 479.149 282.12 478.858 282.634C478.685 283.134 478.16 283.679 477.518 284.239L475.606 286.037L479.535 286.003Z" fill="#1C455F"></path> <path d="M487.394 283.194C487.822 283.734 488.015 284.305 488.106 285.008C488.065 285.609 487.892 286.109 487.601 286.623C487.311 287.138 486.77 287.566 486.097 287.891C485.425 288.217 484.604 288.324 483.651 288.329C482.933 288.303 482.214 288.277 481.598 288.119C480.864 287.976 480.349 287.685 479.835 287.394L480.865 285.234C481.262 285.54 481.645 285.729 482.144 285.902C482.643 286.076 483.127 286.132 483.596 286.071C484.08 286.127 484.417 285.964 484.753 285.802C485.089 285.639 485.176 285.389 485.13 285.037C485.171 284.436 484.642 284.028 483.572 284.048L482.384 284.083L482.39 282.294L484.169 280.395L480.241 280.428L480.201 278.288L487.473 278.297L487.467 280.085L485.366 282.265C486.334 282.378 486.966 282.653 487.394 283.194Z" fill="#1C455F"></path> <path d="M516.949 285.908L517.004 288.166L509.263 288.218L509.269 286.43L512.991 282.966C513.312 282.686 513.618 282.289 513.704 282.039C513.791 281.789 513.878 281.54 513.847 281.305C513.802 280.954 513.771 280.719 513.506 280.515C513.241 280.311 512.992 280.225 512.523 280.286C512.171 280.331 511.82 280.377 511.483 280.54C511.147 280.703 510.943 280.968 510.739 281.233L508.681 280.07C509.073 279.423 509.599 278.878 510.271 278.552C510.944 278.226 511.749 278.002 512.82 277.982C513.538 278.008 514.272 278.151 514.888 278.309C515.52 278.585 515.918 278.891 516.213 279.329C516.508 279.768 516.702 280.338 516.661 280.94C516.62 281.541 516.563 282.025 516.273 282.54C516.099 283.039 515.574 283.584 514.932 284.144L513.02 285.942L516.949 285.908Z" fill="#EF754A"></path> <path d="M527.242 286.24L525.805 286.188L525.815 288.094L523.073 288.093L523.064 286.187L517.815 286.154L517.821 284.365L522.262 278.186L525.238 278.157L521.235 284.041L523.258 284.016L523.28 282.345L525.904 282.361L525.883 284.033L527.32 284.084L527.242 286.24Z" fill="#EF754A"></path> <path d="M554.026 285.976L554.081 288.234L546.341 288.286L546.347 286.498L550.068 283.034C550.389 282.754 550.695 282.357 550.782 282.107C550.869 281.857 550.956 281.608 550.925 281.373C550.879 281.022 550.849 280.787 550.584 280.583C550.319 280.379 550.069 280.293 549.601 280.354C549.249 280.399 548.897 280.445 548.561 280.608C548.225 280.771 548.021 281.036 547.817 281.301L545.758 280.138C546.151 279.491 546.676 278.946 547.349 278.62C548.022 278.294 548.827 278.07 549.897 278.05C550.616 278.076 551.35 278.219 551.966 278.377C552.598 278.653 552.995 278.959 553.291 279.397C553.586 279.836 553.779 280.406 553.738 281.008C553.697 281.609 553.641 282.093 553.35 282.608C553.177 283.107 552.652 283.652 552.009 284.212L550.097 286.01L554.026 285.976Z" fill="#EF754A"></path> <path d="M561.707 282.713C562.385 283.341 562.711 284.013 562.715 284.966C562.674 285.568 562.516 286.184 562.225 286.699C561.935 287.213 561.394 287.641 560.721 287.967C560.049 288.293 559.228 288.399 558.275 288.404C557.557 288.378 556.838 288.352 556.222 288.194C555.488 288.051 554.973 287.76 554.459 287.47L555.489 285.309C555.886 285.615 556.386 285.789 556.768 285.978C557.267 286.151 557.751 286.207 558.22 286.146C558.704 286.203 559.041 286.04 559.377 285.877C559.713 285.714 559.8 285.464 559.872 285.097C559.826 284.746 559.678 284.527 559.413 284.323C559.149 284.119 558.664 284.062 557.946 284.037L555.204 284.035L555.762 278.242L562.081 278.255L562.121 280.395L558.075 280.444L557.906 281.896L558.625 281.922C560.046 281.857 561.03 282.086 561.707 282.713Z" fill="#EF754A"></path> <path d="M330.535 309.777L330.59 312.035L322.849 312.087L322.855 310.299L326.577 306.835C326.898 306.555 327.204 306.158 327.291 305.908C327.377 305.658 327.464 305.409 327.434 305.174C327.388 304.823 327.357 304.588 327.093 304.384C326.828 304.18 326.578 304.093 326.109 304.154C325.758 304.2 325.406 304.246 325.069 304.409C324.733 304.572 324.529 304.836 324.325 305.101L322.267 303.939C322.66 303.292 323.185 302.747 323.858 302.421C324.53 302.095 325.336 301.871 326.406 301.851C327.124 301.877 327.858 302.02 328.475 302.178C329.106 302.454 329.504 302.76 329.799 303.198C330.094 303.636 330.288 304.207 330.247 304.809C330.206 305.41 330.149 305.894 329.843 306.291C329.67 306.791 329.145 307.336 328.502 307.896L326.591 309.694L330.535 309.777Z" fill="#353535"></path> <path d="M338.155 306.045C338.669 306.336 339.067 306.642 339.377 307.197C339.673 307.636 339.866 308.207 339.825 308.808C339.799 309.526 339.626 310.026 339.335 310.54C338.927 311.07 338.504 311.483 337.948 311.793C337.393 312.104 336.69 312.195 335.971 312.169C334.534 312.118 333.418 311.786 332.593 310.94C331.768 310.093 331.366 308.835 331.402 307.28C331.367 306.093 331.597 305.11 332.092 304.33C332.586 303.551 333.213 302.873 333.988 302.415C334.763 301.957 335.685 301.718 336.771 301.815C337.372 301.856 337.856 301.912 338.34 301.969C338.84 302.142 339.339 302.316 339.604 302.52L338.558 304.562C338.044 304.272 337.412 303.996 336.709 304.088C335.99 304.062 335.419 304.255 334.996 304.668C334.573 305.08 334.282 305.595 334.272 306.431C334.797 305.886 335.602 305.662 336.555 305.657C337.039 305.713 337.64 305.754 338.155 306.045ZM336.752 309.923C336.956 309.658 337.16 309.393 337.114 309.041C337.068 308.689 337.023 308.338 336.758 308.134C336.493 307.93 336.111 307.741 335.759 307.787C335.407 307.833 335.056 307.878 334.735 308.158C334.531 308.423 334.327 308.688 334.372 309.04C334.418 309.391 334.464 309.743 334.729 309.947C334.994 310.151 335.376 310.34 335.727 310.294C336.196 310.233 336.533 310.07 336.752 309.923Z" fill="#353535"></path> <path d="M367.73 309.83L367.785 312.088L360.044 312.14L360.05 310.351L363.772 306.888C364.093 306.608 364.399 306.21 364.485 305.961C364.572 305.711 364.659 305.462 364.628 305.227C364.583 304.875 364.552 304.641 364.287 304.437C364.023 304.233 363.773 304.146 363.304 304.207C362.952 304.253 362.601 304.299 362.264 304.462C361.928 304.625 361.724 304.889 361.52 305.154L359.462 303.991C359.854 303.344 360.38 302.799 361.052 302.474C361.725 302.148 362.53 301.924 363.601 301.904C364.319 301.93 365.053 302.073 365.669 302.231C366.301 302.507 366.699 302.813 366.994 303.251C367.289 303.689 367.483 304.26 367.442 304.862C367.401 305.463 367.344 305.947 367.038 306.344C366.865 306.844 366.34 307.389 365.697 307.949L363.786 309.747L367.73 309.83Z" fill="#1C455F"></path> <path d="M376.723 301.987L376.717 303.775L373.135 311.988L370.042 312.033L373.45 304.319L370.826 304.302L370.789 305.857L368.399 305.81L368.381 301.998L376.723 301.987Z" fill="#1C455F"></path> <path d="M405.144 309.735L405.199 311.992L397.458 312.045L397.464 310.256L401.186 306.793C401.507 306.512 401.813 306.115 401.9 305.865C401.986 305.616 402.073 305.366 402.043 305.132C401.997 304.78 401.966 304.546 401.702 304.342C401.437 304.138 401.187 304.051 400.718 304.112C400.367 304.158 400.015 304.203 399.678 304.366C399.342 304.529 399.138 304.794 398.934 305.059L396.876 303.896C397.269 303.249 397.794 302.704 398.467 302.378C399.139 302.052 399.945 301.829 401.015 301.809C401.733 301.835 402.467 301.978 403.084 302.136C403.715 302.411 404.113 302.717 404.408 303.156C404.703 303.594 404.897 304.165 404.856 304.766C404.815 305.367 404.758 305.852 404.452 306.249C404.279 306.748 403.754 307.293 403.112 307.853L401.2 309.651L405.144 309.735Z" fill="#1C455F"></path> <path d="M414.18 307.726C414.475 308.165 414.521 308.517 414.597 309.103C414.556 309.704 414.398 310.32 414.092 310.718C413.684 311.248 413.245 311.543 412.573 311.869C411.885 312.077 411.197 312.286 410.361 312.275C409.525 312.265 408.791 312.122 408.042 311.861C407.411 311.586 406.881 311.178 406.468 310.755C406.056 310.332 405.98 309.746 405.903 309.16C405.96 308.676 406.016 308.192 406.322 307.794C406.511 307.412 406.949 307.117 407.387 306.821C407.005 306.633 406.725 306.311 406.562 305.975C406.399 305.639 406.236 305.302 406.293 304.818C406.334 304.217 406.507 303.718 406.813 303.32C407.119 302.923 407.66 302.495 408.23 302.302C408.801 302.108 409.489 301.9 410.325 301.91C411.161 301.921 411.777 302.079 412.394 302.237C413.025 302.513 413.423 302.819 413.835 303.242C414.131 303.68 414.324 304.251 414.385 304.72C414.446 305.189 414.257 305.571 414.053 305.836C413.865 306.218 413.661 306.483 413.207 306.661C413.604 306.967 413.884 307.288 414.18 307.726ZM411.244 309.896C411.565 309.616 411.651 309.366 411.606 309.015C411.56 308.663 411.514 308.311 411.25 308.107C410.985 307.903 410.603 307.715 410.134 307.776C409.665 307.836 409.313 307.882 408.992 308.162C408.671 308.442 408.584 308.692 408.63 309.044C408.675 309.395 408.721 309.747 408.986 309.951C409.251 310.155 409.633 310.344 410.102 310.283C410.688 310.207 411.04 310.161 411.244 309.896ZM409.295 304.07C409.075 304.218 408.989 304.468 408.917 304.835C408.963 305.186 408.993 305.421 409.258 305.625C409.523 305.829 409.773 305.915 410.124 305.87C410.476 305.824 410.828 305.778 411.047 305.631C411.266 305.483 411.353 305.233 411.424 304.866C411.379 304.515 411.348 304.28 411.083 304.076C410.818 303.872 410.569 303.786 410.217 303.831C409.85 303.76 409.514 303.923 409.295 304.07Z" fill="#1C455F"></path> <path d="M442.339 309.788L442.394 312.046L434.653 312.098L434.659 310.309L438.381 306.846C438.702 306.566 439.008 306.169 439.094 305.919C439.181 305.669 439.268 305.42 439.237 305.185C439.192 304.833 439.161 304.599 438.896 304.395C438.632 304.191 438.382 304.104 437.913 304.165C437.561 304.211 437.21 304.257 436.873 304.42C436.537 304.583 436.333 304.847 436.129 305.112L434.071 303.949C434.463 303.302 434.989 302.757 435.661 302.432C436.334 302.106 437.139 301.882 438.21 301.862C438.928 301.888 439.662 302.031 440.278 302.189C440.91 302.465 441.308 302.771 441.603 303.209C441.898 303.647 442.092 304.218 442.051 304.82C442.01 305.421 441.953 305.905 441.647 306.302C441.474 306.802 440.949 307.347 440.306 307.907L438.395 309.705L442.339 309.788Z" fill="#1C455F"></path> <path d="M450.164 303.05C450.989 303.897 451.391 305.155 451.355 306.71C451.39 307.897 451.16 308.88 450.665 309.66C450.171 310.439 449.544 311.117 448.769 311.575C447.994 312.033 447.056 312.155 445.986 312.175C445.385 312.134 444.901 312.078 444.417 312.021C443.917 311.848 443.418 311.674 443.153 311.47L444.199 309.428C444.713 309.718 445.33 309.876 446.048 309.902C446.767 309.928 447.338 309.735 447.761 309.322C448.184 308.91 448.475 308.395 448.485 307.559C447.945 307.987 447.155 308.328 446.202 308.333C445.601 308.292 445 308.251 444.485 307.96C443.97 307.669 443.573 307.363 443.262 306.808C442.967 306.369 442.774 305.799 442.815 305.197C442.841 304.479 443.014 303.979 443.305 303.465C443.596 302.95 444.136 302.523 444.691 302.212C445.247 301.901 445.95 301.81 446.669 301.836C448.208 301.755 449.339 302.204 450.164 303.05ZM448.038 305.949C448.242 305.684 448.446 305.419 448.4 305.067C448.354 304.716 448.309 304.364 448.044 304.16C447.779 303.956 447.397 303.767 447.045 303.813C446.693 303.859 446.342 303.905 446.021 304.185C445.817 304.45 445.613 304.714 445.658 305.066C445.704 305.418 445.75 305.769 446.015 305.973C446.28 306.177 446.544 306.381 447.013 306.32C447.38 306.392 447.717 306.229 448.038 305.949Z" fill="#1C455F"></path> <path d="M479.051 307.043C479.479 307.584 479.672 308.155 479.763 308.858C479.722 309.459 479.549 309.958 479.258 310.473C478.967 310.988 478.427 311.415 477.754 311.741C477.081 312.067 476.261 312.174 475.308 312.178C474.59 312.152 473.871 312.127 473.255 311.968C472.521 311.825 472.006 311.535 471.492 311.244L472.522 309.084C472.919 309.39 473.302 309.578 473.801 309.752C474.3 309.925 474.784 309.982 475.253 309.921C475.737 309.977 476.074 309.814 476.41 309.651C476.746 309.488 476.833 309.239 476.787 308.887C476.828 308.286 476.299 307.878 475.229 307.898L474.041 307.933L474.047 306.144L475.826 304.244L471.898 304.278L471.858 302.138L479.13 302.146L479.124 303.935L477.023 306.115C477.859 306.126 478.506 306.518 479.051 307.043Z" fill="#1C455F"></path> <path d="M482.738 311.57C482.091 311.177 481.531 310.535 481.19 309.745C480.849 308.955 480.61 308.033 480.59 306.962C480.57 305.892 480.8 304.909 481.177 304.145C481.555 303.381 482.065 302.718 482.738 302.392C483.395 301.949 484.2 301.726 485.036 301.736C485.872 301.747 486.606 301.89 487.268 302.4C487.915 302.792 488.475 303.435 488.816 304.225C489.157 305.015 489.396 305.937 489.416 307.007C489.436 308.078 489.206 309.061 488.829 309.825C488.451 310.589 487.941 311.252 487.269 311.577C486.611 312.02 485.806 312.244 484.97 312.234C484.134 312.223 483.385 311.963 482.738 311.57ZM486.128 309.223C486.419 308.708 486.562 307.974 486.557 307.021C486.553 306.068 486.446 305.248 486.151 304.81C485.855 304.371 485.458 304.065 484.989 304.126C484.505 304.07 484.067 304.365 483.893 304.865C483.602 305.379 483.459 306.113 483.464 307.066C483.469 308.019 483.575 308.839 483.871 309.278C484.166 309.716 484.563 310.022 485.032 309.961C485.501 309.9 485.822 309.62 486.128 309.223Z" fill="#1C455F"></path> <path d="M515.762 307.04C516.189 307.581 516.383 308.151 516.474 308.855C516.433 309.456 516.26 309.955 515.969 310.47C515.678 310.984 515.138 311.412 514.465 311.738C513.792 312.064 512.972 312.17 512.019 312.175C511.3 312.149 510.582 312.123 509.965 311.965C509.232 311.822 508.717 311.531 508.203 311.241L509.233 309.081C509.63 309.386 510.012 309.575 510.512 309.749C511.011 309.922 511.495 309.978 511.964 309.918C512.448 309.974 512.784 309.811 513.121 309.648C513.457 309.485 513.544 309.235 513.498 308.884C513.539 308.282 513.01 307.875 511.939 307.894L510.752 307.93L510.758 306.141L512.537 304.241L508.608 304.275L508.569 302.135L515.84 302.143L515.834 303.932L513.734 306.112C514.687 306.107 515.334 306.5 515.762 307.04Z" fill="#EF754A"></path> <path d="M521.66 301.983L521.65 311.996L518.791 312.01L518.724 304.152L516.818 304.162L516.778 302.021L521.66 301.983Z" fill="#EF754A"></path> <path d="M353.575 147.941C353.583 152.589 349.79 156.419 345.142 156.427C340.495 156.435 336.664 152.642 336.656 147.995C336.648 143.347 340.442 139.517 345.089 139.509C349.736 139.501 353.567 143.294 353.575 147.941Z" fill="white"></path> <path d="M402.923 147.965C402.931 152.612 399.138 156.442 394.491 156.45C389.843 156.458 386.013 152.665 386.005 148.018C385.997 143.37 389.79 139.54 394.437 139.532C399.085 139.524 402.915 143.317 402.923 147.965Z" fill="white"></path> <path d="M452.272 147.987C452.28 152.635 448.487 156.465 443.839 156.473C439.192 156.481 435.362 152.688 435.354 148.041C435.346 143.393 439.139 139.563 443.786 139.555C448.418 139.43 452.249 143.223 452.272 147.987Z" fill="white"></path> <path d="M501.605 147.893C501.613 152.54 497.82 156.371 493.173 156.379C488.525 156.387 484.695 152.594 484.687 147.946C484.679 143.299 488.472 139.468 493.12 139.46C497.767 139.452 501.597 143.245 501.605 147.893Z" fill="white"></path> <path d="M550.954 147.917C550.962 152.564 547.169 156.394 542.521 156.402C537.874 156.41 534.044 152.617 534.036 147.97C534.028 143.322 537.821 139.492 542.468 139.484C547.1 139.359 550.931 143.152 550.954 147.917Z" fill="white"></path> <path d="M345.038 150.124C343.015 150.148 341.365 148.456 341.34 146.432L341.27 122.961C341.378 121.04 343.07 119.389 345.093 119.365C347.116 119.34 348.767 121.033 348.791 123.056L348.862 146.528C348.754 148.449 347.061 150.099 345.038 150.124Z" fill="#19232E"></path> <path d="M394.387 150.147C392.364 150.171 390.713 148.479 390.689 146.456L390.618 122.984C390.594 120.961 392.286 119.311 394.309 119.286C396.332 119.261 397.983 120.954 398.007 122.977L398.078 146.449C398.102 148.472 396.41 150.122 394.387 150.147Z" fill="#19232E"></path> <path d="M443.72 150.052C441.697 150.077 440.047 148.384 440.022 146.361L439.952 122.889C439.927 120.866 441.62 119.216 443.643 119.192C445.666 119.167 447.316 120.86 447.341 122.883L447.411 146.354C447.451 148.495 445.758 150.145 443.72 150.052Z" fill="#19232E"></path> <path d="M493.069 150.076C491.046 150.101 489.395 148.408 489.371 146.385L489.3 122.913C489.276 120.89 490.968 119.24 492.991 119.215C495.014 119.191 496.665 120.883 496.689 122.906L496.76 146.378C496.784 148.401 495.092 150.052 493.069 150.076Z" fill="#19232E"></path> <path d="M542.417 150.099C540.394 150.123 538.744 148.431 538.719 146.408L538.649 122.936C538.624 120.913 540.317 119.263 542.34 119.238C544.363 119.214 546.013 120.906 546.038 122.929L546.108 146.401C546.133 148.424 544.44 150.074 542.417 150.099Z" fill="#19232E"></path> <path d="M460 283C460 286.188 458.213 289.164 455.142 291.382C452.074 293.598 447.784 295 443 295C438.216 295 433.926 293.598 430.858 291.382C427.787 289.164 426 286.188 426 283C426 279.812 427.787 276.836 430.858 274.618C433.926 272.402 438.216 271 443 271C447.784 271 452.074 272.402 455.142 274.618C458.213 276.836 460 279.812 460 283Z" stroke="#F91155" stroke-width="2"></path> </svg> 