<?xml version="1.0" encoding="UTF-8"?> <svg xmlns="http://www.w3.org/2000/svg" width="886" height="482" viewBox="0 0 886 482" fill="none"> <g clip-path="url(#clip0_107:2508)"> <rect width="886" height="482" rx="30" fill="white"></rect> <path d="M595.829 285.046C595.719 282.076 595.528 279.126 595.257 276.2C594.846 276.239 594.48 275.937 594.44 275.526C594.104 272.079 593.658 268.665 593.104 265.288C593.038 264.88 593.314 264.494 593.722 264.427C593.227 261.497 592.652 258.594 591.999 255.722C591.596 255.814 591.194 255.563 591.101 255.16C590.319 251.795 589.43 248.471 588.436 245.192C588.316 244.797 588.539 244.378 588.935 244.258C588.061 241.422 587.11 238.621 586.084 235.856C585.696 236.001 585.265 235.805 585.119 235.418C583.903 232.188 582.583 229.008 581.165 225.883C580.994 225.506 581.16 225.062 581.536 224.891C580.299 222.198 578.989 219.547 577.607 216.939C577.242 217.133 576.789 216.995 576.594 216.631C574.966 213.592 573.241 210.612 571.424 207.696C571.206 207.345 571.312 206.883 571.663 206.664C570.085 204.158 568.439 201.7 566.727 199.291C566.391 199.532 565.923 199.454 565.682 199.118C563.673 196.321 561.576 193.591 559.393 190.934C559.13 190.615 559.176 190.143 559.495 189.88C557.606 187.603 555.654 185.379 553.642 183.212C553.34 183.494 552.866 183.478 552.584 183.176C550.231 180.665 547.796 178.23 545.285 175.877C544.983 175.594 544.967 175.121 545.249 174.818C543.082 172.807 540.858 170.855 538.581 168.966C538.318 169.285 537.846 169.331 537.526 169.068C534.87 166.885 532.14 164.788 529.343 162.779C529.007 162.538 528.929 162.07 529.17 161.734C526.761 160.022 524.303 158.376 521.797 156.798C521.578 157.149 521.116 157.255 520.765 157.037C517.849 155.22 514.869 153.495 511.83 151.867C511.466 151.672 511.328 151.218 511.522 150.854C508.914 149.472 506.263 148.162 503.57 146.925C503.399 147.301 502.955 147.467 502.578 147.296C499.453 145.878 496.273 144.558 493.043 143.342C492.656 143.196 492.46 142.765 492.605 142.377C489.84 141.351 487.038 140.4 484.203 139.526C484.083 139.922 483.664 140.145 483.269 140.025C479.99 139.031 476.666 138.142 473.301 137.36C472.898 137.267 472.647 136.865 472.739 136.462C469.867 135.809 466.964 135.234 464.034 134.739C463.967 135.147 463.582 135.423 463.173 135.356C459.796 134.803 456.382 134.356 452.935 134.021C452.524 133.981 452.222 133.615 452.261 133.204C449.335 132.933 446.386 132.742 443.415 132.632C443.401 133.045 443.055 133.369 442.641 133.356C440.924 133.3 439.2 133.272 437.469 133.272C435.739 133.272 434.014 133.3 432.297 133.356C431.884 133.369 431.538 133.045 431.523 132.632C428.553 132.742 425.604 132.933 422.677 133.204C422.716 133.615 422.415 133.981 422.003 134.021C418.557 134.356 415.143 134.803 411.765 135.356C411.357 135.423 410.972 135.147 410.904 134.739C407.974 135.234 405.072 135.809 402.199 136.462C402.292 136.865 402.041 137.267 401.638 137.36C398.273 138.142 394.949 139.031 391.67 140.025C391.274 140.145 390.856 139.922 390.735 139.526C387.9 140.4 385.099 141.351 382.334 142.377C382.479 142.765 382.283 143.196 381.896 143.342C378.665 144.558 375.486 145.878 372.36 147.296C371.984 147.467 371.54 147.301 371.368 146.925C368.676 148.162 366.024 149.472 363.416 150.854C363.61 151.218 363.473 151.672 363.108 151.867C360.069 153.495 357.089 155.22 354.173 157.037C353.822 157.255 353.361 157.149 353.141 156.798C350.636 158.376 348.177 160.022 345.769 161.734C346.009 162.07 345.932 162.538 345.596 162.779C342.798 164.788 340.069 166.885 337.412 169.068C337.092 169.331 336.621 169.285 336.357 168.966C334.08 170.855 331.857 172.807 329.689 174.818C329.971 175.121 329.956 175.594 329.654 175.877C327.142 178.23 324.708 180.665 322.355 183.176C322.072 183.478 321.598 183.494 321.296 183.212C319.284 185.379 317.333 187.603 315.444 189.88C315.762 190.143 315.808 190.615 315.546 190.934C313.363 193.591 311.265 196.321 309.257 199.118C309.015 199.454 308.548 199.532 308.212 199.291C306.5 201.7 304.854 204.158 303.276 206.664C303.626 206.883 303.733 207.345 303.514 207.696C301.697 210.612 299.973 213.592 298.345 216.631C298.15 216.995 297.696 217.133 297.331 216.939C295.95 219.547 294.639 222.198 293.402 224.891C293.778 225.062 293.945 225.506 293.774 225.883C292.355 229.008 291.036 232.188 289.819 235.418C289.674 235.805 289.242 236.001 288.855 235.856C287.829 238.621 286.878 241.422 286.004 244.258C286.399 244.378 286.622 244.797 286.502 245.192C285.509 248.471 284.619 251.795 283.838 255.16C283.744 255.563 283.342 255.814 282.939 255.722C282.286 258.594 281.711 261.497 281.217 264.426C281.625 264.494 281.901 264.879 281.834 265.288C281.28 268.665 280.834 272.079 280.499 275.526C280.459 275.937 280.093 276.239 279.681 276.2C279.41 279.126 279.219 282.075 279.109 285.046C279.523 285.06 279.847 285.406 279.833 285.819C279.778 287.537 279.75 289.261 279.75 290.992C279.75 292.722 279.778 294.447 279.833 296.164C279.847 296.577 279.523 296.923 279.109 296.938C279.219 299.908 279.41 302.857 279.681 305.784C280.093 305.745 280.459 306.046 280.499 306.458C280.834 309.904 281.28 313.318 281.834 316.696C281.901 317.104 281.625 317.489 281.217 317.557C281.711 320.487 282.286 323.389 282.939 326.262C283.342 326.169 283.744 326.42 283.838 326.823C284.619 330.188 285.509 333.512 286.502 336.791C286.622 337.187 286.399 337.605 286.004 337.726C286.878 340.561 287.829 343.362 288.855 346.127C289.242 345.982 289.674 346.178 289.819 346.565C291.036 349.795 292.355 352.975 293.774 356.101C293.945 356.477 293.778 356.921 293.402 357.093C294.639 359.785 295.95 362.437 297.331 365.045C297.696 364.851 298.15 364.988 298.345 365.353C299.973 368.392 301.697 371.371 303.514 374.287C303.733 374.639 303.626 375.1 303.276 375.32C304.854 377.825 306.5 380.284 308.212 382.692C308.548 382.452 309.015 382.529 309.257 382.865C311.265 385.663 313.363 388.392 315.546 391.049C315.808 391.369 315.762 391.84 315.444 392.103C317.333 394.381 319.284 396.604 321.296 398.772C321.598 398.49 322.072 398.505 322.355 398.807C324.708 401.319 327.142 403.753 329.654 406.106C329.956 406.389 329.971 406.863 329.689 407.165C331.857 409.177 334.08 411.128 336.358 413.017C336.621 412.698 337.092 412.653 337.412 412.915C340.069 415.098 342.798 417.196 345.596 419.204C345.932 419.445 346.009 419.913 345.769 420.249C348.177 421.961 350.636 423.607 353.141 425.185C353.361 424.835 353.822 424.728 354.173 424.947C357.089 426.764 360.069 428.488 363.108 430.116C363.473 430.311 363.61 430.765 363.416 431.13C366.024 432.511 368.676 433.822 371.368 435.059C371.54 434.683 371.984 434.516 372.36 434.687C375.486 436.106 378.665 437.425 381.896 438.642C382.283 438.787 382.479 439.219 382.334 439.606C385.099 440.632 387.9 441.583 390.735 442.457C390.856 442.062 391.274 441.839 391.67 441.959C394.949 442.952 398.273 443.841 401.638 444.623C402.041 444.717 402.292 445.119 402.199 445.522C405.072 446.175 407.974 446.75 410.904 447.244C410.972 446.836 411.357 446.56 411.765 446.627C415.143 447.181 418.557 447.627 422.003 447.962C422.415 448.002 422.716 448.368 422.677 448.78C425.604 449.051 428.553 449.242 431.523 449.351C431.538 448.938 431.884 448.614 432.297 448.628C434.014 448.683 435.738 448.711 437.469 448.711C439.2 448.711 440.924 448.683 442.641 448.628C443.055 448.614 443.401 448.938 443.415 449.351C446.385 449.242 449.335 449.051 452.261 448.78C452.222 448.368 452.524 448.002 452.935 447.962C456.382 447.627 459.796 447.181 463.173 446.627C463.581 446.56 463.967 446.836 464.034 447.244C466.964 446.75 469.867 446.175 472.739 445.522C472.647 445.119 472.898 444.717 473.3 444.623C476.666 443.841 479.99 442.952 483.269 441.959C483.664 441.839 484.083 442.062 484.203 442.457C487.038 441.583 489.84 440.632 492.604 439.606C492.46 439.219 492.656 438.787 493.043 438.642C496.273 437.425 499.453 436.106 502.578 434.687C502.955 434.516 503.399 434.683 503.57 435.059C506.263 433.822 508.914 432.511 511.522 431.13C511.328 430.765 511.466 430.311 511.83 430.116C514.869 428.488 517.849 426.764 520.765 424.947C521.116 424.728 521.578 424.835 521.797 425.185C524.303 423.607 526.761 421.961 529.17 420.249C528.929 419.913 529.007 419.445 529.343 419.204C532.14 417.196 534.87 415.098 537.526 412.915C537.846 412.653 538.318 412.698 538.581 413.017C540.858 411.128 543.082 409.177 545.249 407.165C544.967 406.863 544.983 406.389 545.285 406.106C547.796 403.753 550.231 401.319 552.584 398.807C552.866 398.505 553.34 398.49 553.642 398.772C555.654 396.604 557.606 394.381 559.495 392.103C559.176 391.84 559.13 391.369 559.393 391.049C561.576 388.392 563.673 385.663 565.682 382.865C565.923 382.529 566.391 382.452 566.727 382.692C568.439 380.284 570.085 377.825 571.663 375.32C571.312 375.1 571.206 374.639 571.424 374.287C573.241 371.372 574.966 368.392 576.594 365.353C576.789 364.988 577.242 364.851 577.607 365.045C578.989 362.437 580.299 359.785 581.536 357.093C581.16 356.921 580.994 356.477 581.165 356.101C582.583 352.975 583.903 349.795 585.119 346.565C585.265 346.178 585.696 345.982 586.084 346.127C587.11 343.362 588.061 340.561 588.935 337.726C588.539 337.605 588.316 337.187 588.436 336.791C589.43 333.512 590.319 330.188 591.101 326.823C591.194 326.42 591.596 326.169 591.999 326.262C592.652 323.389 593.227 320.487 593.722 317.557C593.314 317.489 593.038 317.104 593.104 316.696C593.658 313.318 594.104 309.904 594.44 306.458C594.48 306.046 594.846 305.745 595.257 305.784C595.528 302.857 595.719 299.908 595.829 296.938C595.416 296.923 595.092 296.577 595.105 296.164C595.161 294.447 595.188 292.722 595.188 290.992C595.188 289.261 595.161 287.537 595.105 285.82C595.092 285.406 595.416 285.06 595.829 285.046Z" fill="#D0EDFF" stroke="#002F85" stroke-width="1.5" stroke-linecap="round" stroke-dasharray="10 10"></path> <rect x="24" y="432" width="837" height="4" rx="2" fill="#002F85"></rect> <path d="M484.606 406.493C484.606 406.493 484.973 419.345 486.389 422.335C487.753 425.325 488.959 422.754 488.015 430.465C487.071 438.176 487.071 438.91 486.966 442.582C486.861 446.254 489.327 462.882 489.327 462.882L453.92 466.291L382.582 468.022L367.265 463.564C367.265 463.564 367.58 452.916 367.737 445.939C367.947 438.963 366.478 437.809 368.157 430.885C369.836 423.961 372.721 399.412 372.721 399.412L484.606 406.493Z" fill="#F91155"></path> <path d="M485.917 438.122L485.865 438.122C484.868 438.017 460.844 435.709 456.018 417.403C455.861 416.826 456.228 416.196 456.805 416.039C457.382 415.882 458.012 416.249 458.169 416.826C462.575 433.664 485.812 435.919 486.075 435.919C486.652 435.972 487.124 436.496 487.071 437.126C487.019 437.703 486.494 438.122 485.917 438.122Z" fill="#3B3047"></path> <path d="M370.989 434.294C369.363 434.241 368.314 434.136 368.261 434.136C367.684 434.031 367.212 433.507 367.317 432.877C367.37 432.3 367.894 431.881 368.419 431.933C368.471 431.933 368.471 431.933 368.471 431.933C369.415 432.091 391.341 434.818 394.908 417.036C395.013 416.459 395.538 416.04 396.22 416.197C396.797 416.302 397.216 416.879 397.059 417.508C393.964 433.297 377.546 434.503 370.989 434.294Z" fill="#3B3047"></path> <path d="M430 467.445C429.423 467.445 428.951 466.973 428.951 466.343L428.217 426.635C428.217 426.006 428.689 425.534 429.318 425.534C429.843 425.481 430.42 426.006 430.42 426.635L431.154 466.343C431.102 466.92 430.63 467.445 430 467.445Z" fill="#3B3047"></path> <path d="M418.198 467.13C417.621 467.13 417.149 466.657 417.149 466.028L416.415 425.586C416.415 424.956 416.887 424.484 417.516 424.484C417.988 424.537 418.618 424.956 418.618 425.586L419.352 466.028C419.352 466.605 418.88 467.13 418.198 467.13Z" fill="#3B3047"></path> <path d="M409.911 186.604L414.317 183.876L419.352 151.617L450.668 156.18L451.822 187.601L455.703 190.328L449.671 195.102L426.958 200.347L418.251 193.108L409.911 186.604Z" fill="#FFB094"></path> <path d="M336.527 328.86C329.131 298.542 342.087 253.588 342.087 253.588L372.039 254.428L368.524 323.248L336.527 328.86Z" fill="#FFB094"></path> <path d="M454.602 188.965C454.602 188.965 470.667 198.438 478.536 200.904C486.456 203.422 504.685 221.426 511.767 232.442C518.848 243.457 529.335 299.962 529.335 299.962C529.335 299.962 507.109 303.21 501.443 303.053C501.443 303.053 484.658 266.125 484.029 296.758C483.924 301.899 485.865 412.263 485.865 412.263C485.865 412.263 483.609 412.21 475.583 414.256C467.558 416.302 439.757 433.769 416.048 427.422C392.338 421.075 369.94 407.962 369.94 407.962C369.94 407.962 373.717 336.047 373.612 325.189C373.56 319.523 369.94 287.526 369.94 287.526C369.94 287.526 340.041 293.821 329.446 285.585C329.446 285.585 346.493 209.422 360.866 202.445C375.291 195.469 410.802 185.607 410.802 185.607C410.802 185.607 437.082 205.016 454.602 188.965Z" fill="white"></path> <path fill-rule="evenodd" clip-rule="evenodd" d="M412.396 184.989C412.256 184.878 412.184 184.818 412.184 184.818C412.184 184.818 374.963 193.928 360.538 200.904C346.165 207.881 329.445 286.057 329.445 286.057C340.041 294.292 369.94 287.998 369.94 287.998C369.94 287.998 373.56 319.995 373.612 325.66C373.717 336.518 369.94 408.433 369.94 408.433C369.94 408.433 392.338 421.547 416.048 427.894C434.276 432.773 454.922 423.577 467.141 418.134C470.815 416.498 473.728 415.2 475.583 414.727C483.609 412.682 485.864 412.734 485.864 412.734C485.864 412.734 483.924 302.37 484.029 297.23C484.658 266.596 501.443 303.524 501.443 303.524C507.108 303.682 535.896 289.591 535.896 289.591C535.896 289.591 519.435 229.354 512.354 218.338C505.273 207.323 486.704 201.133 478.783 198.615C474.922 197.406 469.026 195.172 464.023 193.212V412.949H412.396V184.989Z" fill="#005BFF"></path> <path d="M412.408 184.222C412.408 184.222 413.702 272.789 413.702 292.003C413.702 311.217 409.82 409.423 409.82 409.423L363.693 406.189L363.046 301.578L376.179 230.414L412.408 184.222Z" fill="#005BFF"></path> <path d="M349.604 216.461L365.884 237.882L391.097 223.978C393.001 222.93 395.366 223.279 396.924 224.792L412.963 240.908C413.021 245.678 413.079 250.274 413.136 254.58L392.597 233.926L366.922 248.122C364.788 249.285 362.191 248.762 360.691 246.842L345.633 227.236C347.133 223.919 347.931 219.429 349.604 216.461Z" fill="#F91155"></path> <path d="M451.419 187.62C451.419 187.62 463.392 289.321 465.158 323.532C466.925 357.744 461.632 410.109 461.632 410.109L482.679 411.455L491.692 270.515L494.361 218.63C494.361 218.63 478.767 193.842 451.419 187.62Z" fill="#005BFF"></path> <path d="M515.788 225.457L505.607 235.873L480.395 221.968C478.491 220.921 476.125 221.27 474.567 222.783L457.162 238.686C457.105 243.456 458.384 248.985 458.326 253.29L478.894 231.917L504.569 246.112C506.703 247.276 509.3 246.752 510.8 244.832L519.122 234.611C519.122 233.341 517.462 228.424 515.788 225.457Z" fill="#F91155"></path> <path d="M540.942 310.502C540.942 310.502 540.994 310.554 540.994 310.607C542.043 314.016 538.949 319.104 538.791 319.314C538.686 319.471 538.529 319.471 538.319 319.419C538.162 319.367 538.109 319.157 538.162 319.052C538.214 318.999 541.309 313.964 540.312 310.764C540.26 310.607 540.365 310.449 540.522 310.449C540.732 310.344 540.837 310.397 540.942 310.502Z" fill="#D75050"></path> <path d="M425.385 413.679C403.983 413.102 381.113 397.209 380.903 397.051C380.641 396.894 380.589 396.527 380.746 396.264C380.903 396.002 381.271 395.95 381.533 396.107C381.795 396.264 406.973 413.784 428.899 412.473C448.832 411.319 470.391 402.297 474.587 400.461C473.748 399.831 471.44 398.94 465.88 400.566C458.326 402.716 435.351 409.378 417.307 402.244C416.992 402.139 416.887 401.825 416.992 401.51C417.097 401.195 417.412 401.09 417.726 401.195C435.456 408.172 458.116 401.615 465.565 399.464C474.22 396.999 475.898 400.041 476.056 400.408C476.108 400.566 476.108 400.723 476.056 400.828C476.003 400.985 475.898 401.09 475.741 401.143C475.479 401.248 451.192 412.315 428.952 413.574C427.798 413.679 426.591 413.732 425.385 413.679Z" fill="#E9E9F4"></path> <path d="M365.727 288.399C365.477 288.318 365.292 288.038 365.373 287.788L368.631 266.625C368.678 266.31 368.958 266.125 369.274 266.171C369.589 266.218 369.774 266.499 369.727 266.814L366.469 287.977C366.422 288.293 366.142 288.478 365.826 288.431C365.777 288.415 365.777 288.415 365.727 288.399Z" fill="#A5F1BB"></path> <path d="M366.36 283.203C366.21 283.154 366.042 282.99 365.991 282.808L362.092 269.971C362.023 269.673 362.186 269.34 362.484 269.27C362.782 269.201 363.115 269.364 363.184 269.662L367.083 282.499C367.152 282.797 366.989 283.13 366.691 283.2C366.609 283.283 366.459 283.235 366.36 283.203Z" fill="#A5F1BB"></path> <path d="M450.615 156.18L419.3 151.617L416.94 167.353C419.982 171.759 427.011 180.886 438.079 180.1C444.111 179.68 447.993 173.595 451.245 168.612L450.615 156.18Z" fill="#F17C53"></path> <path d="M405.358 116.147C405.358 116.147 406.493 140.578 411.129 150.409C415.765 160.239 420.526 171.265 433.662 172.128C446.797 172.991 458.429 159.87 462.076 141.748C465.724 123.627 463.656 106.057 463.656 106.057L453.751 99.9169C453.751 99.9169 437.351 98.043 430.07 99.0235C422.789 100.004 405.358 116.147 405.358 116.147Z" fill="#FFB094"></path> <path d="M434.718 153.088C430.968 153.13 428.381 151.982 427.556 151.402C428.223 153.298 430.084 157.985 434.981 157.985C439.879 157.985 441.599 153.509 442.459 151.402C441.441 151.947 438.467 153.046 434.718 153.088Z" fill="white"></path> <path d="M435.24 148.6C435.165 148.6 435.09 148.564 435.015 148.49C434.595 147.783 434.551 147.222 434.878 146.358C435.023 145.907 435.433 145.827 435.732 145.749C435.806 145.748 435.918 145.71 435.992 145.671L436.253 145.593C436.738 145.438 437.222 145.283 437.63 144.942C438.037 144.6 438.441 143.922 438.321 143.249C438.28 142.913 438.126 142.578 437.973 142.242L437.935 142.168C436.364 138.817 435.534 134.821 435.677 130.926C435.674 130.739 435.785 130.625 435.935 130.624C436.084 130.622 436.161 130.808 436.163 130.958C436.056 134.703 436.81 138.587 438.342 141.789L438.38 141.864C438.571 142.236 438.763 142.645 438.805 143.094C438.929 144.103 438.453 145.007 437.897 145.463C437.415 145.842 436.894 146.035 436.372 146.191L436.111 146.269C436 146.308 435.925 146.308 435.813 146.347C435.589 146.387 435.365 146.427 435.293 146.615C435.075 147.254 435.079 147.591 435.384 148.074C435.46 148.223 435.462 148.41 435.351 148.523C435.352 148.598 435.278 148.599 435.24 148.6Z" fill="#EF754A"></path> <path d="M453.849 123.561C452.286 123.357 450.79 122.813 449.227 122.609C447.324 122.337 445.556 122.745 443.721 122.677C442.77 122.609 442.226 121.317 443.178 120.842C446.44 119.278 451.81 119.958 454.325 122.541C454.597 122.813 454.393 123.628 453.849 123.561Z" fill="#3C251D"></path> <path d="M416.188 124.036C417.751 123.832 419.247 123.288 420.81 123.084C422.713 122.812 424.48 123.22 426.316 123.152C427.267 123.084 427.811 121.793 426.859 121.317C423.597 119.754 418.227 120.433 415.712 123.016C415.44 123.288 415.644 124.104 416.188 124.036Z" fill="#3C251D"></path> <path d="M450.212 133.205C450.343 131.388 449.479 129.896 448.283 129.873C447.086 129.85 446.01 131.304 445.879 133.121C445.748 134.938 446.612 136.43 447.809 136.454C449.005 136.477 450.081 135.023 450.212 133.205Z" fill="#412016"></path> <path d="M424.2 133.342C424.292 131.525 423.378 130.037 422.181 130.028C420.984 130.019 419.916 131.484 419.862 133.3C419.77 135.118 420.684 136.606 421.881 136.615C423.078 136.647 424.109 135.182 424.2 133.342Z" fill="#412016"></path> <path d="M423.339 134.159C423.367 133.617 423.094 133.173 422.737 133.17C422.38 133.167 422.061 133.604 422.045 134.146C422.017 134.689 422.29 135.133 422.647 135.135C423.004 135.145 423.312 134.708 423.339 134.159Z" fill="white"></path> <path d="M449.209 134.124C449.237 133.582 448.964 133.138 448.607 133.135C448.25 133.132 447.931 133.569 447.915 134.111C447.887 134.654 448.16 135.098 448.517 135.1C448.874 135.11 449.182 134.673 449.209 134.124Z" fill="white"></path> <path d="M464.937 133.406C464.937 133.406 474.183 101.109 461.689 94.1003C449.232 87.1284 442.692 87.5017 442.692 87.5017C442.692 87.5017 412.042 82.1574 407.232 96.6235C402.421 111.09 407.279 137.313 407.279 137.313L414.978 110.312L455.049 102.223L463.225 134.137L464.937 133.406Z" fill="#623C22"></path> <path d="M447.84 77.0428C449.773 76.5453 451.722 77.5188 453.459 78.4825C455.156 79.4022 456.893 80.3658 458.185 81.7706C458.629 82.2535 459.028 82.7764 459.561 83.1794C461.244 84.3925 463.614 83.6215 465.579 84.2597C467.585 84.9 468.854 86.8078 469.961 88.54C470.472 89.4041 471.021 90.354 470.847 91.354C470.561 92.9369 468.576 93.6419 467.787 95.0752C467.137 96.2629 467.49 97.7917 468.199 98.9592C468.866 100.125 469.881 101.096 470.59 102.264C470.986 102.871 471.293 103.557 471.175 104.266C471.067 104.765 470.793 105.172 470.479 105.535C468.997 107.272 466.783 108.344 464.525 108.533C460.82 108.821 457.14 106.758 453.469 107.216C450.994 107.52 448.804 111.055 446.588 112.169C444.369 113.325 441.74 114.21 439.36 113.385C437.815 112.85 436.597 111.659 435.24 110.755C433.222 109.442 430.838 108.7 428.419 108.713C427.993 108.735 427.483 108.753 427.254 109.12C426.577 109.971 428.22 111.14 427.832 112.172C427.734 112.461 427.425 112.699 427.164 112.855C423.931 114.611 418.828 108.91 415.671 111.534C413.111 113.641 409.949 115.005 406.66 115.481C405.079 115.701 403.382 115.705 401.883 115.089C399.678 114.145 398.218 111.808 398.074 109.449C397.93 107.09 399.06 104.706 400.79 103.107C401.189 102.748 401.587 102.388 401.696 101.889C401.804 101.39 401.531 100.874 401.212 100.439C400.501 99.313 399.613 98.3472 399.027 97.2695C398.441 96.1919 398.211 94.7528 398.855 93.6908C399.177 93.1598 399.665 92.7206 400.233 92.3692C401.458 91.5865 402.921 91.151 404.364 91.1347C405.85 91.1204 407.749 91.3355 408.405 90.022C408.685 89.489 408.63 88.8563 408.699 88.2715C408.987 85.7645 411.489 83.9915 413.974 83.4779C416.459 82.9644 419.07 83.3809 421.617 83.3743C422.381 83.3681 423.147 83.32 423.84 83.0165C424.446 82.7509 424.936 82.2697 425.423 81.8305C428.029 79.6423 431.599 78.6335 434.97 79.1277C437.666 79.5481 440.448 80.8548 442.995 79.9241C444.728 79.1652 445.994 77.5023 447.84 77.0428Z" fill="#623C22"></path> <path d="M409.1 132.952C409.1 132.952 406.984 124.403 401.485 130.866C399.308 133.436 401.809 143.028 409.225 140.736C409.225 140.736 411.483 138.652 409.1 132.952Z" fill="#FFB094"></path> <path d="M405.2 138.648C404.602 138.655 404.002 138.475 403.511 138.068C403.398 137.995 403.396 137.808 403.432 137.695C403.505 137.544 403.617 137.506 403.73 137.617C405.014 138.725 407.284 137.764 407.84 137.308C407.802 137.271 407.764 137.234 407.726 137.16C407.347 136.715 406.628 135.9 406.875 134.661C406.982 134.174 407.202 133.797 407.462 133.607C407.684 133.454 407.908 133.414 408.095 133.412C407.71 132.369 406.71 129.984 405.403 130.149C401.781 130.564 401.894 134.006 401.896 134.156C401.898 134.306 401.825 134.456 401.713 134.458C401.6 134.459 401.487 134.348 401.485 134.198C401.485 134.161 401.436 133.113 401.91 132.06C402.348 131.081 403.268 129.836 405.397 129.587C407.377 129.378 408.62 133.519 408.659 133.668C408.698 133.78 408.662 133.893 408.625 133.968C408.551 134.044 408.477 134.082 408.402 134.045C408.402 134.045 407.988 133.863 407.654 134.091C407.469 134.206 407.359 134.469 407.251 134.807C407.037 135.708 407.604 136.3 407.946 136.708C408.097 136.894 408.211 137.042 408.288 137.191C408.326 137.265 408.328 137.453 408.18 137.641C407.848 137.982 406.509 138.671 405.2 138.648Z" fill="#EF754A"></path> <path d="M461.769 134.416C461.769 134.416 464.142 125.967 469.452 132.57C471.538 135.204 468.729 144.707 461.408 142.206C461.408 142.206 459.215 140.06 461.769 134.416Z" fill="#FFB094"></path> <path d="M465.537 140.249C466.136 140.242 466.733 140.123 467.251 139.706C467.363 139.63 467.398 139.442 467.322 139.331C467.283 139.181 467.133 139.146 467.022 139.222C465.725 140.284 463.432 139.262 462.903 138.782C462.94 138.744 462.977 138.706 463.014 138.668C463.421 138.252 464.16 137.457 463.921 136.187C463.841 135.701 463.649 135.329 463.348 135.108C463.122 134.961 462.897 134.889 462.71 134.891C463.11 133.875 464.205 131.505 465.516 131.715C469.149 132.235 468.889 135.682 468.89 135.832C468.892 135.981 468.969 136.13 469.081 136.129C469.193 136.165 469.304 136.014 469.302 135.864C469.302 135.864 469.403 134.815 468.941 133.697C468.556 132.691 467.644 131.429 465.546 131.115C463.561 130.838 462.224 134.934 462.151 135.122C462.115 135.234 462.116 135.347 462.192 135.421C462.23 135.495 462.343 135.531 462.417 135.493C462.417 135.493 462.827 135.339 463.166 135.559C463.355 135.707 463.469 135.93 463.548 136.304C463.708 137.2 463.154 137.805 462.784 138.184C462.599 138.373 462.488 138.487 462.453 138.637C462.416 138.712 462.418 138.899 462.57 139.085C462.874 139.493 464.191 140.227 465.537 140.249Z" fill="#EF754A"></path> <g opacity="0.3"> <path opacity="0.3" d="M407.924 101.219C408.268 101.851 409.13 102.104 409.839 101.946C410.548 101.788 411.179 101.332 411.734 100.876C412.624 100.155 413.587 99.3582 413.761 98.2332C413.832 97.8955 413.828 97.4838 414.011 97.1823C414.232 96.8429 414.604 96.689 414.939 96.5729C415.982 96.1868 417.025 95.8007 418.03 95.415C418.961 95.0676 419.929 94.6824 420.594 93.9636C421.296 93.2071 421.583 92.1557 421.796 91.1426C422.01 90.2043 421.958 88.8947 421.02 88.6059C420.72 88.5344 420.421 88.5752 420.122 88.616C417.622 89.0934 415.201 89.9816 412.971 91.2047C412.637 91.3956 412.303 91.5865 412.12 91.9255C411.936 92.2645 411.941 92.6762 411.946 93.0879C411.928 94.8475 411.124 96.541 409.866 97.7157C409.348 98.2081 408.717 98.5896 408.275 99.1935C407.833 99.7974 407.58 100.586 407.924 101.219Z" fill="white"></path> </g> <g opacity="0.3"> <path opacity="0.3" d="M434.059 86.8126C433.94 86.215 433.264 85.9606 432.701 85.8172C432.138 85.6364 431.576 85.493 430.976 85.3126C429.7 84.9527 428.312 84.594 427.084 85.1319C426.489 85.4007 425.935 85.9684 426.054 86.6034C426.212 87.3503 427.113 87.6396 427.9 87.8179C429.625 88.2102 431.502 88.9003 433.102 88.171C433.623 87.9406 434.178 87.4102 434.059 86.8126Z" fill="white"></path> </g> <path d="M440.392 303.066C431.822 308.078 379.529 300.47 363.74 304.607C347.951 308.744 336.534 321.067 336.534 321.067C336.534 321.067 334.055 332.369 340.488 336.031C346.903 339.643 367.132 342.943 385.723 339.476C404.314 336.009 426.658 323.402 451.308 320.054L440.392 303.066Z" fill="#FFB094"></path> <path d="M628.283 320.94L628.283 214.369L466.672 214.369L466.672 320.94L628.283 320.94Z" fill="#E5F5FF"></path> <path d="M529.033 212.497C529.033 212.497 528.51 228.307 533.129 227.926C535.653 227.735 536.367 216.449 536.367 216.449C536.367 216.449 537.129 228.688 540.51 228.831C543.891 228.926 544.272 215.782 544.272 215.782C544.272 215.782 542.891 229.354 548.034 228.831C550.511 228.593 551.653 215.735 551.653 215.735C551.653 215.735 550.939 227.116 553.701 226.259C556.463 225.45 557.32 213.02 557.32 213.02C557.32 213.02 554.701 210.163 551.558 211.687C550.463 212.211 548.034 210.02 545.653 211.401C545.653 211.401 539.891 207.734 536.034 211.83C536.129 211.83 532.51 206.353 529.033 212.497Z" fill="#FFB094"></path> <path d="M417.267 312.585L446.37 298.521C446.37 298.521 468.504 294.764 469.936 297.296C471.336 299.785 471.17 321.575 471.17 321.575C471.17 321.575 457.566 320.274 442.031 319.367C441.811 319.335 410.111 329.452 410.111 329.452L417.267 312.585Z" fill="#FFB094"></path> <path d="M437.976 303.149C437.976 303.149 444.139 296.585 455.244 289.802C459.478 287.231 467.127 277.66 468.736 280.518C470.303 283.406 459.033 293.651 459.419 294.606C459.805 295.562 468.154 296.399 468.154 296.399L456.002 302.393L437.976 303.149Z" fill="#FFB094"></path> <path d="M463.243 297.186C463.243 297.186 493.904 289.683 494.979 292.088C496.012 294.524 471.216 301.38 471.216 301.38C471.216 301.38 499.222 299.001 499.835 301.489C500.448 303.976 471.137 308.377 471.137 308.377C471.137 308.377 498.375 311.284 498.223 313.623C498.144 315.973 470.827 315.416 470.827 315.416C470.827 315.416 491.9 321.55 491.779 323.669C491.628 325.746 471.243 321.586 471.243 321.586L457.684 318.942L463.243 297.186Z" fill="#FFB094"></path> <path d="M526.046 264.287H510.178C509.011 264.287 508 263.351 508 262.103V246.185C508 245.014 508.933 244 510.178 244H526.046C527.213 244 528.224 244.936 528.224 246.185V262.103C528.224 263.273 527.213 264.287 526.046 264.287Z" fill="#005BFF"></path> <path d="M551.794 264.287H535.926C534.759 264.287 533.748 263.351 533.748 262.103V246.185C533.748 245.014 534.681 244 535.926 244H551.794C552.961 244 553.972 244.936 553.972 246.185V262.103C553.894 263.273 552.961 264.287 551.794 264.287Z" fill="#8DC0DC"></path> <path d="M577.463 264.287H561.595C560.428 264.287 559.417 263.351 559.417 262.103V246.185C559.417 245.014 560.35 244 561.595 244H577.463C578.63 244 579.641 244.936 579.641 246.185V262.103C579.641 263.273 578.63 264.287 577.463 264.287Z" fill="#8DC0DC"></path> <path d="M603.21 264.287H587.342C586.175 264.287 585.164 263.351 585.164 262.103V246.185C585.164 245.014 586.097 244 587.342 244H603.21C604.377 244 605.388 244.936 605.388 246.185V262.103C605.311 263.273 604.377 264.287 603.21 264.287Z" fill="#F91155"></path> <path d="M526.046 291.598H510.178C509.011 291.598 508 290.661 508 289.413V273.495C508 272.324 508.933 271.31 510.178 271.31H526.046C527.213 271.31 528.224 272.246 528.224 273.495V289.413C528.224 290.583 527.213 291.598 526.046 291.598Z" fill="#005BFF"></path> <path d="M551.794 291.598H535.926C534.759 291.598 533.748 290.661 533.748 289.413V273.495C533.748 272.324 534.681 271.31 535.926 271.31H551.794C552.961 271.31 553.972 272.246 553.972 273.495V289.413C553.894 290.583 552.961 291.598 551.794 291.598Z" fill="#8DC0DC"></path> <path d="M577.463 291.598H561.595C560.428 291.598 559.417 290.661 559.417 289.413V273.495C559.417 272.324 560.35 271.31 561.595 271.31H577.463C578.63 271.31 579.641 272.246 579.641 273.495V289.413C579.641 290.583 578.63 291.598 577.463 291.598Z" fill="#8DC0DC"></path> <path d="M603.21 291.598H587.342C586.175 291.598 585.164 290.661 585.164 289.413V273.495C585.164 272.324 586.097 271.31 587.342 271.31H603.21C604.377 271.31 605.388 272.246 605.388 273.495V289.413C605.311 290.583 604.377 291.598 603.21 291.598Z" fill="#F91155"></path> <rect x="-97" y="432" width="991" height="58" fill="white"></rect> <rect x="24" y="432" width="837" height="4" rx="2" fill="#002F85"></rect> </g> <defs> <clipPath id="clip0_107:2508"> <rect width="886" height="482" rx="30" fill="white"></rect> </clipPath> </defs> </svg> 