<?xml version="1.0" encoding="UTF-8"?> <svg xmlns="http://www.w3.org/2000/svg" width="886" height="482" viewBox="0 0 886 482" fill="none"> <g clip-path="url(#clip0_118:1389)"> <rect width="886" height="482" rx="30" fill="#E5F5FF"></rect> <path d="M595.829 285.046C595.719 282.076 595.528 279.126 595.257 276.2C594.846 276.239 594.48 275.937 594.44 275.526C594.104 272.079 593.658 268.665 593.104 265.288C593.038 264.88 593.314 264.494 593.722 264.427C593.227 261.497 592.652 258.594 591.999 255.722C591.596 255.814 591.194 255.563 591.101 255.16C590.319 251.795 589.43 248.471 588.436 245.192C588.316 244.797 588.539 244.378 588.935 244.258C588.061 241.422 587.11 238.621 586.084 235.856C585.696 236.001 585.265 235.805 585.119 235.418C583.903 232.188 582.583 229.008 581.165 225.883C580.994 225.506 581.16 225.062 581.536 224.891C580.299 222.198 578.989 219.547 577.607 216.939C577.242 217.133 576.789 216.995 576.594 216.631C574.966 213.592 573.241 210.612 571.424 207.696C571.206 207.345 571.312 206.883 571.663 206.664C570.085 204.158 568.439 201.7 566.727 199.291C566.391 199.532 565.923 199.454 565.682 199.118C563.673 196.321 561.576 193.591 559.393 190.934C559.13 190.615 559.176 190.143 559.495 189.88C557.606 187.603 555.654 185.379 553.642 183.212C553.34 183.494 552.866 183.478 552.584 183.176C550.231 180.665 547.796 178.23 545.285 175.877C544.983 175.594 544.967 175.121 545.249 174.818C543.082 172.807 540.858 170.855 538.581 168.966C538.318 169.285 537.846 169.331 537.526 169.068C534.87 166.885 532.14 164.788 529.343 162.779C529.007 162.538 528.929 162.07 529.17 161.734C526.761 160.022 524.303 158.376 521.797 156.798C521.578 157.149 521.116 157.255 520.765 157.037C517.849 155.22 514.869 153.495 511.83 151.867C511.466 151.672 511.328 151.218 511.522 150.854C508.914 149.472 506.263 148.162 503.57 146.925C503.399 147.301 502.955 147.467 502.578 147.296C499.453 145.878 496.273 144.558 493.043 143.342C492.656 143.196 492.46 142.765 492.605 142.377C489.84 141.351 487.038 140.4 484.203 139.526C484.083 139.922 483.664 140.145 483.269 140.025C479.99 139.031 476.666 138.142 473.301 137.36C472.898 137.267 472.647 136.865 472.739 136.462C469.867 135.809 466.964 135.234 464.034 134.739C463.967 135.147 463.582 135.423 463.173 135.356C459.796 134.803 456.382 134.356 452.935 134.021C452.524 133.981 452.222 133.615 452.261 133.204C449.335 132.933 446.386 132.742 443.415 132.632C443.401 133.045 443.055 133.369 442.641 133.356C440.924 133.3 439.2 133.272 437.469 133.272C435.739 133.272 434.014 133.3 432.297 133.356C431.884 133.369 431.538 133.045 431.523 132.632C428.553 132.742 425.604 132.933 422.677 133.204C422.716 133.615 422.415 133.981 422.003 134.021C418.557 134.356 415.143 134.803 411.765 135.356C411.357 135.423 410.972 135.147 410.904 134.739C407.974 135.234 405.072 135.809 402.199 136.462C402.292 136.865 402.041 137.267 401.638 137.36C398.273 138.142 394.949 139.031 391.67 140.025C391.274 140.145 390.856 139.922 390.735 139.526C387.9 140.4 385.099 141.351 382.334 142.377C382.479 142.765 382.283 143.196 381.896 143.342C378.665 144.558 375.486 145.878 372.36 147.296C371.984 147.467 371.54 147.301 371.368 146.925C368.676 148.162 366.024 149.472 363.416 150.854C363.61 151.218 363.473 151.672 363.108 151.867C360.069 153.495 357.089 155.22 354.173 157.037C353.822 157.255 353.361 157.149 353.141 156.798C350.636 158.376 348.177 160.022 345.769 161.734C346.009 162.07 345.932 162.538 345.596 162.779C342.798 164.788 340.069 166.885 337.412 169.068C337.092 169.331 336.621 169.285 336.357 168.966C334.08 170.855 331.857 172.807 329.689 174.818C329.971 175.121 329.956 175.594 329.654 175.877C327.142 178.23 324.708 180.665 322.355 183.176C322.072 183.478 321.598 183.494 321.296 183.212C319.284 185.379 317.333 187.603 315.444 189.88C315.762 190.143 315.808 190.615 315.546 190.934C313.363 193.591 311.265 196.321 309.257 199.118C309.015 199.454 308.548 199.532 308.212 199.291C306.5 201.7 304.854 204.158 303.276 206.664C303.626 206.883 303.733 207.345 303.514 207.696C301.697 210.612 299.973 213.592 298.345 216.631C298.15 216.995 297.696 217.133 297.331 216.939C295.95 219.547 294.639 222.198 293.402 224.891C293.778 225.062 293.945 225.506 293.774 225.883C292.355 229.008 291.036 232.188 289.819 235.418C289.674 235.805 289.242 236.001 288.855 235.856C287.829 238.621 286.878 241.422 286.004 244.258C286.399 244.378 286.622 244.797 286.502 245.192C285.509 248.471 284.619 251.795 283.838 255.16C283.744 255.563 283.342 255.814 282.939 255.722C282.286 258.594 281.711 261.497 281.217 264.426C281.625 264.494 281.901 264.879 281.834 265.288C281.28 268.665 280.834 272.079 280.499 275.526C280.459 275.937 280.093 276.239 279.681 276.2C279.41 279.126 279.219 282.075 279.109 285.046C279.523 285.06 279.847 285.406 279.833 285.819C279.778 287.537 279.75 289.261 279.75 290.992C279.75 292.722 279.778 294.447 279.833 296.164C279.847 296.577 279.523 296.923 279.109 296.938C279.219 299.908 279.41 302.857 279.681 305.784C280.093 305.745 280.459 306.046 280.499 306.458C280.834 309.904 281.28 313.318 281.834 316.696C281.901 317.104 281.625 317.489 281.217 317.557C281.711 320.487 282.286 323.389 282.939 326.262C283.342 326.169 283.744 326.42 283.838 326.823C284.619 330.188 285.509 333.512 286.502 336.791C286.622 337.187 286.399 337.605 286.004 337.726C286.878 340.561 287.829 343.362 288.855 346.127C289.242 345.982 289.674 346.178 289.819 346.565C291.036 349.795 292.355 352.975 293.774 356.101C293.945 356.477 293.778 356.921 293.402 357.093C294.639 359.785 295.95 362.437 297.331 365.045C297.696 364.851 298.15 364.988 298.345 365.353C299.973 368.392 301.697 371.371 303.514 374.287C303.733 374.639 303.626 375.1 303.276 375.32C304.854 377.825 306.5 380.284 308.212 382.692C308.548 382.452 309.015 382.529 309.257 382.865C311.265 385.663 313.363 388.392 315.546 391.049C315.808 391.369 315.762 391.84 315.444 392.103C317.333 394.381 319.284 396.604 321.296 398.772C321.598 398.49 322.072 398.505 322.355 398.807C324.708 401.319 327.142 403.753 329.654 406.106C329.956 406.389 329.971 406.863 329.689 407.165C331.857 409.177 334.08 411.128 336.358 413.017C336.621 412.698 337.092 412.653 337.412 412.915C340.069 415.098 342.798 417.196 345.596 419.204C345.932 419.445 346.009 419.913 345.769 420.249C348.177 421.961 350.636 423.607 353.141 425.185C353.361 424.835 353.822 424.728 354.173 424.947C357.089 426.764 360.069 428.488 363.108 430.116C363.473 430.311 363.61 430.765 363.416 431.13C366.024 432.511 368.676 433.822 371.368 435.059C371.54 434.683 371.984 434.516 372.36 434.687C375.486 436.106 378.665 437.425 381.896 438.642C382.283 438.787 382.479 439.219 382.334 439.606C385.099 440.632 387.9 441.583 390.735 442.457C390.856 442.062 391.274 441.839 391.67 441.959C394.949 442.952 398.273 443.841 401.638 444.623C402.041 444.717 402.292 445.119 402.199 445.522C405.072 446.175 407.974 446.75 410.904 447.244C410.972 446.836 411.357 446.56 411.765 446.627C415.143 447.181 418.557 447.627 422.003 447.962C422.415 448.002 422.716 448.368 422.677 448.78C425.604 449.051 428.553 449.242 431.523 449.351C431.538 448.938 431.884 448.614 432.297 448.628C434.014 448.683 435.738 448.711 437.469 448.711C439.2 448.711 440.924 448.683 442.641 448.628C443.055 448.614 443.401 448.938 443.415 449.351C446.385 449.242 449.335 449.051 452.261 448.78C452.222 448.368 452.524 448.002 452.935 447.962C456.382 447.627 459.796 447.181 463.173 446.627C463.581 446.56 463.967 446.836 464.034 447.244C466.964 446.75 469.867 446.175 472.739 445.522C472.647 445.119 472.898 444.717 473.3 444.623C476.666 443.841 479.99 442.952 483.269 441.959C483.664 441.839 484.083 442.062 484.203 442.457C487.038 441.583 489.84 440.632 492.604 439.606C492.46 439.219 492.656 438.787 493.043 438.642C496.273 437.425 499.453 436.106 502.578 434.687C502.955 434.516 503.399 434.683 503.57 435.059C506.263 433.822 508.914 432.511 511.522 431.13C511.328 430.765 511.466 430.311 511.83 430.116C514.869 428.488 517.849 426.764 520.765 424.947C521.116 424.728 521.578 424.835 521.797 425.185C524.303 423.607 526.761 421.961 529.17 420.249C528.929 419.913 529.007 419.445 529.343 419.204C532.14 417.196 534.87 415.098 537.526 412.915C537.846 412.653 538.318 412.698 538.581 413.017C540.858 411.128 543.082 409.177 545.249 407.165C544.967 406.863 544.983 406.389 545.285 406.106C547.796 403.753 550.231 401.319 552.584 398.807C552.866 398.505 553.34 398.49 553.642 398.772C555.654 396.604 557.606 394.381 559.495 392.103C559.176 391.84 559.13 391.369 559.393 391.049C561.576 388.392 563.673 385.663 565.682 382.865C565.923 382.529 566.391 382.452 566.727 382.692C568.439 380.284 570.085 377.825 571.663 375.32C571.312 375.1 571.206 374.639 571.424 374.287C573.241 371.372 574.966 368.392 576.594 365.353C576.789 364.988 577.242 364.851 577.607 365.045C578.989 362.437 580.299 359.785 581.536 357.093C581.16 356.921 580.994 356.477 581.165 356.101C582.583 352.975 583.903 349.795 585.119 346.565C585.265 346.178 585.696 345.982 586.084 346.127C587.11 343.362 588.061 340.561 588.935 337.726C588.539 337.605 588.316 337.187 588.436 336.791C589.43 333.512 590.319 330.188 591.101 326.823C591.194 326.42 591.596 326.169 591.999 326.262C592.652 323.389 593.227 320.487 593.722 317.557C593.314 317.489 593.038 317.104 593.104 316.696C593.658 313.318 594.104 309.904 594.44 306.458C594.48 306.046 594.846 305.745 595.257 305.784C595.528 302.857 595.719 299.908 595.829 296.938C595.416 296.923 595.092 296.577 595.105 296.164C595.161 294.447 595.188 292.722 595.188 290.992C595.188 289.261 595.161 287.537 595.105 285.82C595.092 285.406 595.416 285.06 595.829 285.046Z" fill="#D0EDFF" stroke="#002F85" stroke-width="1.5" stroke-linecap="round" stroke-dasharray="10 10"></path> <rect x="24" y="432" width="837" height="4" rx="2" fill="#002F85"></rect> <path fill-rule="evenodd" clip-rule="evenodd" d="M776.445 19C781.968 19 786.445 23.4772 786.445 29V201.42C786.445 206.942 781.968 211.42 776.445 211.42H297.487C291.964 211.42 287.487 206.942 287.487 201.42V123.268C287.281 123.161 287.071 123.04 286.857 122.904C278.07 117.323 270.216 120.575 261.475 133.106C270.288 110.572 279.565 101.413 287.487 100.083V29C287.487 23.4772 291.964 19 297.487 19H776.445Z" fill="white"></path> <path d="M297.487 120.195L297.729 119.485L298.237 119.659V120.195H297.487ZM296.026 119.482L295.628 120.117L295.628 120.117L296.026 119.482ZM270.645 129.547L271.257 129.98L269.947 129.271L270.645 129.547ZM297.487 96.8571H298.237V97.5365L297.561 97.6035L297.487 96.8571ZM798.998 19V24.2653H797.498V19H798.998ZM798.998 34.796V45.3267H797.498V34.796H798.998ZM798.998 55.8574V66.3881H797.498V55.8574H798.998ZM798.998 76.9187V87.4494H797.498V76.9187H798.998ZM798.998 97.9801V108.511H797.498V97.9801H798.998ZM798.998 119.041V129.572H797.498V119.041H798.998ZM798.998 140.103V150.633H797.498V140.103H798.998ZM798.998 161.164V171.695H797.498V161.164H798.998ZM798.998 182.225V187.491H797.498V182.225H798.998ZM798.998 187.491C798.998 188.947 798.708 190.337 798.182 191.606L796.796 191.031C797.248 189.942 797.498 188.746 797.498 187.491H798.998ZM792.363 197.425C791.095 197.951 789.704 198.241 788.248 198.241V196.741C789.504 196.741 790.699 196.491 791.789 196.039L792.363 197.425ZM788.248 198.241H783.24V196.741H788.248V198.241ZM773.224 198.241H763.208V196.741H773.224V198.241ZM753.193 198.241H743.177V196.741H753.193V198.241ZM733.161 198.241H723.145V196.741H733.161V198.241ZM713.129 198.241H703.113V196.741H713.129V198.241ZM693.097 198.241H683.082V196.741H693.097V198.241ZM673.066 198.241H663.05V196.741H673.066V198.241ZM653.034 198.241H643.018V196.741H653.034V198.241ZM633.002 198.241H622.986V196.741H633.002V198.241ZM612.971 198.241H602.955V196.741H612.971V198.241ZM592.939 198.241H582.923V196.741H592.939V198.241ZM572.907 198.241H562.891V196.741H572.907V198.241ZM552.875 198.241H542.86V196.741H552.875V198.241ZM532.844 198.241H522.828V196.741H532.844V198.241ZM512.812 198.241H502.796V196.741H512.812V198.241ZM492.78 198.241H482.764V196.741H492.78V198.241ZM472.749 198.241H462.733V196.741H472.749V198.241ZM452.717 198.241H442.701V196.741H452.717V198.241ZM432.685 198.241H422.669V196.741H432.685V198.241ZM412.653 198.241H402.637V196.741H412.653V198.241ZM392.622 198.241H382.606V196.741H392.622V198.241ZM372.59 198.241H362.574V196.741H372.59V198.241ZM352.558 198.241H342.542V196.741H352.558V198.241ZM332.526 198.241H322.51V196.741H332.526V198.241ZM312.495 198.241H307.487V196.741H312.495V198.241ZM307.487 198.241C306.031 198.241 304.64 197.951 303.372 197.425L303.946 196.039C305.036 196.491 306.231 196.741 307.487 196.741V198.241ZM297.553 191.606C297.027 190.337 296.737 188.947 296.737 187.491H298.237C298.237 188.746 298.487 189.942 298.938 191.031L297.553 191.606ZM296.737 187.491V181.883H298.237V187.491H296.737ZM296.737 170.667V159.451H298.237V170.667H296.737ZM296.737 148.235V137.019H298.237V148.235H296.737ZM296.737 125.803V120.195H298.237V125.803H296.737ZM297.245 120.905C297.103 120.857 296.959 120.802 296.815 120.741L297.397 119.359C297.511 119.407 297.621 119.449 297.729 119.485L297.245 120.905ZM296.008 120.343C295.882 120.272 295.755 120.197 295.628 120.117L296.424 118.846C296.533 118.914 296.639 118.977 296.744 119.036L296.008 120.343ZM295.628 120.117C294.502 119.412 293.402 118.86 292.322 118.458L292.845 117.052C294.033 117.494 295.225 118.094 296.424 118.846L295.628 120.117ZM285.196 117.988C283.09 118.521 280.959 119.669 278.769 121.483L277.812 120.327C280.129 118.41 282.455 117.134 284.827 116.534L285.196 117.988ZM273.546 126.93C272.79 127.873 272.028 128.89 271.257 129.98L270.032 129.114C270.818 128.002 271.599 126.962 272.375 125.993L273.546 126.93ZM269.947 129.271C270.657 127.482 271.369 125.777 272.084 124.154L273.457 124.758C272.75 126.363 272.045 128.051 271.342 129.823L269.947 129.271ZM277.032 114.234C279.128 110.561 281.231 107.517 283.319 105.038L284.466 106.005C282.447 108.402 280.395 111.368 278.335 114.978L277.032 114.234ZM291.912 97.7927C293.785 96.8341 295.626 96.2879 297.413 96.1108L297.561 97.6035C295.978 97.7603 294.318 98.2466 292.595 99.128L291.912 97.7927ZM296.737 96.8571V91.9911H298.237V96.8571H296.737ZM296.737 82.2589V72.5268H298.237V82.2589H296.737ZM296.737 62.7946V53.0625H298.237V62.7946H296.737ZM296.737 43.3304V33.5982H298.237V43.3304H296.737ZM296.737 23.8661V19H298.237V23.8661H296.737ZM296.737 19C296.737 17.5438 297.027 16.1534 297.553 14.8848L298.938 15.4594C298.487 16.549 298.237 17.7444 298.237 19H296.737ZM303.372 9.06601C304.64 8.53996 306.031 8.25 307.487 8.25V9.75C306.231 9.75 305.036 9.99976 303.946 10.4516L303.372 9.06601ZM307.487 8.25H312.495V9.75H307.487V8.25ZM322.511 8.25H332.527V9.75H322.511V8.25ZM342.542 8.25H352.558V9.75H342.542V8.25ZM362.574 8.25H372.59V9.75H362.574V8.25ZM382.606 8.25H392.622V9.75H382.606V8.25ZM402.638 8.25H412.653V9.75H402.638V8.25ZM422.669 8.25H432.685V9.75H422.669V8.25ZM442.701 8.25H452.717V9.75H442.701V8.25ZM462.733 8.25H472.748V9.75H462.733V8.25ZM482.764 8.25H492.78V9.75H482.764V8.25ZM502.796 8.25H512.812V9.75H502.796V8.25ZM522.828 8.25H532.844V9.75H522.828V8.25ZM542.859 8.25H552.875V9.75H542.859V8.25ZM562.891 8.25H572.907V9.75H562.891V8.25ZM582.923 8.25H592.939V9.75H582.923V8.25ZM602.955 8.25H612.971V9.75H602.955V8.25ZM622.986 8.25H633.002V9.75H622.986V8.25ZM643.018 8.25H653.034V9.75H643.018V8.25ZM663.05 8.25H673.066V9.75H663.05V8.25ZM683.082 8.25H693.097V9.75H683.082V8.25ZM703.113 8.25H713.129V9.75H703.113V8.25ZM723.145 8.25H733.161V9.75H723.145V8.25ZM743.177 8.25H753.193V9.75H743.177V8.25ZM763.209 8.25H773.224V9.75H763.209V8.25ZM783.24 8.25H788.248V9.75H783.24V8.25ZM788.248 8.25C789.704 8.25 791.095 8.53997 792.363 9.06601L791.789 10.4516C790.699 9.99976 789.504 9.75 788.248 9.75V8.25ZM798.182 14.8848C798.708 16.1534 798.998 17.5438 798.998 19H797.498C797.498 17.7444 797.248 16.549 796.796 15.4594L798.182 14.8848Z" fill="#002F85"></path> <path d="M552.661 190.677C557.453 192.28 562.851 190.166 567.713 191.536C572.343 192.837 575.577 197.066 577.414 201.503C578.415 203.92 579.113 206.498 579.485 209.101C580.206 214.374 579.88 220.531 583.859 224.086C586.022 226.014 588.977 226.688 591.676 227.71C595.77 229.267 599.586 231.846 601.959 235.516C604.332 239.187 605.099 244.043 603.331 248.039C602.284 250.409 600.423 252.453 599.842 254.986C599.004 258.68 601.168 262.374 603.727 265.162C606.309 267.926 609.427 270.296 611.265 273.572C614.266 278.916 613.312 285.653 610.939 291.276C609.659 294.296 607.961 297.2 605.425 299.268C602.889 301.335 599.423 302.451 596.259 301.591C598.399 300.94 600.074 298.942 600.33 296.712C593.956 300.917 585.813 301.521 578.229 300.545C570.644 299.57 563.339 297.177 555.802 295.852C553.266 295.411 550.707 295.086 548.147 295.179C545.053 295.272 542.029 295.969 539.004 296.573C524.185 299.454 507.411 299.314 495.686 289.789C494.336 288.697 493.033 287.442 492.196 285.932C489.683 281.448 491.405 275.779 494.011 271.342C496.593 266.904 500.059 262.815 501.153 257.797C502.688 250.688 499.129 243.601 496.523 236.817C493.918 230.033 492.475 221.553 497.314 216.117C500.292 212.771 504.968 211.447 508.295 208.473C511.25 205.825 512.948 202.107 515.228 198.878C522.533 188.493 537.399 183.544 548.869 188.981C550.172 189.538 551.358 190.235 552.661 190.677Z" fill="black"></path> <path d="M494.546 444.729C494.546 444.729 483.844 453.837 479.168 463.711C474.492 473.585 473.003 480.647 470.467 486.618C467.931 492.612 465.023 562.701 465.023 562.701L589.815 562.539L611.288 561.516C611.288 561.516 600.028 452.303 584.487 445.473C568.97 438.642 494.546 444.729 494.546 444.729Z" fill="#38437E"></path> <path d="M586.139 509.851C586.302 509.851 586.488 509.758 586.581 509.596C586.72 509.363 586.651 509.038 586.418 508.899C527.256 473.05 517.578 441.453 517.485 441.151C517.415 440.873 517.089 440.733 516.833 440.803C516.554 440.873 516.391 441.175 516.484 441.453C516.577 441.779 526.302 473.724 585.883 509.805C585.953 509.828 586.046 509.851 586.139 509.851Z" fill="#9DBAF5"></path> <path d="M539.726 461.318C539.749 459.529 541.191 458.088 542.983 458.112C544.774 458.135 546.217 459.575 546.193 461.364C546.17 463.153 544.728 464.594 542.936 464.57C541.145 464.547 539.702 463.083 539.726 461.318Z" fill="#EBBD88"></path> <path d="M555.238 479.9C555.025 478.129 556.289 476.521 558.062 476.308C559.835 476.095 561.446 477.358 561.659 479.128C561.872 480.899 560.608 482.507 558.835 482.72C557.061 482.933 555.451 481.67 555.238 479.9Z" fill="#EBBD88"></path> <path d="M527.372 261.933C527.372 261.933 527.884 289.464 525.884 291.671C523.883 293.879 515.903 296.806 515.903 296.806C515.903 296.806 515.717 365.947 531.63 365.32C547.543 364.693 570.203 295.598 570.203 295.598C570.203 295.598 562.456 293.065 561.479 289.58C560.525 286.096 560.176 256.683 560.176 256.683L527.372 261.933Z" fill="#FFB094"></path> <path d="M527.395 271.459L527.302 283.889C527.302 283.889 552.8 285.027 555.359 257.264L527.395 271.459Z" fill="#A64A4A"></path> <path d="M513.367 210.797C513.367 210.797 507.923 246.343 515.531 262.141C523.138 277.94 532.142 275.477 535.771 275.477C539.4 275.477 550.567 273.386 556.546 263.675C562.525 253.963 567.899 244.461 570.784 233.054C573.669 221.646 571.04 198.181 553.336 194.069C535.631 189.957 518.253 195.207 513.367 210.797Z" fill="#FFB094"></path> <path d="M521.167 240.761C520.005 240.628 519.333 238.175 519.664 235.281C519.996 232.387 521.206 230.149 522.368 230.282C523.53 230.414 524.202 232.868 523.871 235.762C523.539 238.655 522.329 240.894 521.167 240.761Z" fill="#3C251D"></path> <path d="M521.771 237.578C521.815 236.922 521.494 236.378 521.061 236.367C520.629 236.357 520.234 236.879 520.203 237.536C520.158 238.192 520.48 238.735 520.912 238.746C521.345 238.765 521.726 238.242 521.771 237.578Z" fill="white"></path> <path d="M547.317 243.525C546.156 243.393 545.483 240.939 545.814 238.045C546.146 235.152 547.357 232.913 548.518 233.046C549.68 233.179 550.353 235.632 550.021 238.526C549.689 241.42 548.479 243.658 547.317 243.525Z" fill="#3C251D"></path> <path d="M547.921 240.329C547.965 239.673 547.644 239.129 547.212 239.118C546.779 239.108 546.384 239.63 546.353 240.287C546.309 240.943 546.63 241.486 547.063 241.497C547.495 241.516 547.877 240.993 547.921 240.329Z" fill="white"></path> <path d="M533.049 251.942C533.142 251.942 533.235 251.919 533.305 251.849C533.677 251.431 533.793 250.827 533.631 250.293C533.607 250.177 533.514 250.107 533.398 250.084C532.723 249.968 532.025 249.828 531.444 249.48C530.978 249.201 530.467 248.667 530.467 248.016C530.467 247.528 530.746 247.063 531.048 246.576L531.188 246.366C533.002 243.346 533.095 239.559 533.165 236.516C533.165 236.353 533.026 236.19 532.863 236.214C532.863 236.214 532.56 236.353 532.56 236.516C532.491 239.652 532.398 243.207 530.676 246.088L530.536 246.297C530.234 246.808 529.862 247.389 529.862 248.062C529.862 248.829 530.35 249.573 531.141 250.037C531.746 250.386 532.444 250.548 533.095 250.665C533.142 250.943 533.049 251.245 532.863 251.478C532.746 251.594 532.77 251.803 532.886 251.896C532.933 251.919 532.979 251.942 533.049 251.942Z" fill="#B05C56"></path> <path d="M514.437 224.783C518.09 222.228 526.605 221.02 528.536 226.41C528.652 226.735 528.419 227.246 528 227.153C526.069 226.688 524.534 225.48 522.557 225.085C519.951 224.574 517.368 225.132 514.856 225.713C514.344 225.806 514.018 225.062 514.437 224.783Z" fill="#3C251D"></path> <path d="M540.331 259.029C540.331 259.029 536.073 266.208 530.816 264.768C525.721 263.374 525.302 256.125 525.302 256.125C525.302 256.125 528.187 254.011 529.676 254.057C531.281 254.127 532.84 255.846 532.84 255.846C532.84 255.846 534.235 254.894 535.841 255.056C537.423 255.242 539.354 258.239 540.331 259.029Z" fill="#C53D37"></path> <path d="M525.395 256.125L540.307 259.03C540.331 259.03 529.21 267.649 525.395 256.125Z" fill="white"></path> <path d="M555.453 229.498C552.568 226.106 544.635 222.784 541.401 227.5C541.192 227.802 541.308 228.337 541.75 228.36C543.727 228.406 545.542 227.617 547.543 227.733C550.195 227.895 552.545 229.103 554.848 230.288C555.29 230.544 555.802 229.893 555.453 229.498Z" fill="#3C251D"></path> <path d="M563.921 241.325C560.106 230.126 552.591 226.432 546.984 219.927C541.378 213.422 542.238 207.242 542.238 207.242C542.238 207.242 536.283 210.68 527.093 212.493C517.904 214.305 510.11 229.313 510.087 232.008C510.063 234.703 510.622 217.604 510.622 217.604L514.647 203.641L525.511 194.58C525.511 194.58 541.866 188.261 549.66 191.42C557.454 194.58 564.084 192.21 570.179 203.827C576.275 215.443 578.322 229.476 577.647 230.266C576.973 231.079 572.482 241.092 572.32 241.325C572.157 241.511 563.921 241.325 563.921 241.325Z" fill="black"></path> <path d="M535.654 324.452C548.566 324.452 564.991 294.621 565.736 293.25C565.875 292.994 565.782 292.692 565.526 292.553C565.294 292.414 564.968 292.507 564.828 292.762C564.642 293.087 547.938 323.43 535.678 323.43C534.887 323.43 534.119 323.313 533.398 323.035C520.951 318.62 519.067 295.968 519.067 295.736C519.043 295.457 518.811 295.248 518.555 295.248C518.532 295.248 518.532 295.248 518.508 295.248C518.229 295.271 518.02 295.527 518.02 295.806C518.09 296.758 519.974 319.364 533.049 324.01C533.91 324.312 534.77 324.452 535.654 324.452Z" fill="#EBBD88"></path> <path d="M534.335 326.522C533.009 326.213 532.185 324.888 532.495 323.564C532.805 322.24 534.131 321.417 535.457 321.727C536.783 322.036 537.607 323.361 537.297 324.685C536.987 326.009 535.661 326.832 534.335 326.522Z" fill="white"></path> <path d="M539.447 321.967C539.447 320.922 540.308 320.085 541.355 320.108C542.401 320.108 543.239 320.968 543.216 322.013C543.216 323.059 542.355 323.895 541.308 323.872C540.284 323.849 539.447 322.989 539.447 321.967Z" fill="white"></path> <path d="M527.14 320.967C527.14 319.922 528.001 319.086 529.048 319.109C530.094 319.109 530.932 319.968 530.909 321.014C530.909 322.059 530.048 322.896 529.001 322.873C527.977 322.849 527.14 321.99 527.14 320.967Z" fill="white"></path> <path d="M522.789 316.623C522.789 315.577 523.65 314.741 524.697 314.764C525.744 314.764 526.581 315.624 526.558 316.669C526.558 317.715 525.697 318.551 524.65 318.528C523.603 318.505 522.766 317.668 522.789 316.623Z" fill="white"></path> <path d="M544.332 318.412C544.332 317.366 545.193 316.53 546.24 316.553C547.287 316.553 548.124 317.413 548.101 318.458C548.101 319.504 547.24 320.34 546.193 320.317C545.146 320.294 544.309 319.457 544.332 318.412Z" fill="white"></path> <path d="M563.223 242.928C563.223 242.928 566.178 233.658 573.855 240.373C576.903 243.044 573.39 253.476 563.037 251.315C563.037 251.315 559.896 249.178 563.223 242.928Z" fill="#FFB094"></path> <path d="M565.061 248.248C566.387 248.828 569.318 249.433 571.063 248.224C571.203 248.131 571.226 247.946 571.133 247.806C571.04 247.667 570.854 247.644 570.714 247.736C568.923 248.968 565.712 248.015 564.968 247.551C565.014 247.504 565.084 247.434 565.154 247.388C565.689 246.9 566.69 245.994 566.317 244.67C566.154 244.135 565.875 243.74 565.456 243.531C565.131 243.369 564.828 243.345 564.572 243.369C565.084 242.23 566.503 239.605 568.341 239.721C570.109 239.814 571.436 240.348 572.273 241.301C573.297 242.463 573.227 243.88 573.227 243.88C573.204 244.066 573.343 244.205 573.506 244.205C573.669 244.205 573.809 244.089 573.832 243.926C573.832 243.857 573.925 242.254 572.738 240.906C571.784 239.837 570.319 239.233 568.388 239.117C565.619 238.954 563.874 243.462 563.805 243.648C563.758 243.764 563.781 243.88 563.874 243.973C563.968 244.066 564.084 244.089 564.2 244.042C564.2 244.042 564.759 243.833 565.201 244.066C565.456 244.205 565.643 244.461 565.759 244.832C566.038 245.808 565.27 246.482 564.782 246.947C564.549 247.156 564.386 247.295 564.34 247.458C564.293 247.574 564.293 247.76 564.549 247.946C564.665 248.039 564.852 248.155 565.061 248.248Z" fill="#B05C56"></path> <path d="M563.944 251.013C563.944 249.968 564.805 249.132 565.852 249.155C566.899 249.155 567.737 250.014 567.713 251.06C567.713 252.105 566.853 252.942 565.806 252.919C564.759 252.895 563.921 252.059 563.944 251.013Z" fill="white"></path> <path d="M373.593 341.831C405.372 364.459 438.804 377.958 445.294 390.666C451.809 403.375 453.972 405.721 447.528 414.434C441.084 423.146 422.076 420.567 415.958 413.109C382.875 372.847 362.1 350.171 362.1 350.171L373.593 341.831Z" fill="#E3865F"></path> <path d="M392.088 357.722L367.009 338.392C367.009 338.392 346.048 335.906 344.838 338.323C343.628 340.739 344.768 361.161 344.768 361.161C344.768 361.161 357.517 359.302 372.057 357.745C372.267 357.722 387.459 366.504 387.459 366.504L392.088 357.722Z" fill="#E3865F"></path> <path d="M351.073 337.928C351.073 337.928 321.922 332.259 321.038 334.606C320.154 336.952 343.791 342.226 343.791 342.226C343.791 342.226 317.362 341.25 316.92 343.62C316.478 345.99 344.21 348.778 344.21 348.778C344.21 348.778 318.782 352.751 318.991 354.935C319.2 357.142 344.838 355.353 344.838 355.353C344.838 355.353 325.342 362.09 325.575 364.042C325.808 365.993 344.791 361.138 344.791 361.138L357.401 358.048L351.073 337.928Z" fill="#E3865F"></path> <path d="M516.358 296.762C499.538 300.41 480.507 298.807 465.967 318.787C451.426 338.767 438.957 368.087 435.676 373.803C432.419 379.518 431.721 375.568 431.721 375.568C431.721 375.568 427.022 377.682 413.482 363.58C399.942 349.478 392.008 353.706 392.008 353.706L384.145 347.178L370 362.488L377.491 369.737C377.491 369.737 372.466 369.69 382.074 380.54C391.683 391.39 397.057 394.666 405.595 405.144C414.133 415.622 437.351 431.606 448.914 425.24C460.476 418.874 484.183 376.358 484.183 376.358C484.183 376.358 483.718 388.927 486.184 394.689C488.65 400.451 486.789 409.767 488.161 417.318C489.534 424.869 495.117 432.326 495.117 432.326L579.24 449.507C579.24 449.507 588.339 429.283 590.968 415.32C593.597 401.334 594.271 362.953 596.528 351.127C598.785 339.302 612.674 311.422 612.674 311.422C612.674 311.422 606.811 304.08 570.658 295.577L530.736 353.799L516.358 296.762Z" fill="#F91155"></path> <path d="M494.64 432.377L584.604 433.121L584.501 445.504L494.537 444.76L494.64 432.377Z" fill="#3C251D"></path> <path d="M610.218 417.268C609.962 416.873 610.985 413.62 610.706 413.248L583.696 328.076L611.87 311.79C614.638 322.547 647.302 401.632 645.789 421.868C637.6 422.356 619.803 418.871 610.218 417.268Z" fill="#F91155"></path> <path d="M528.628 371.08C528.791 371.08 528.931 371.01 529.047 370.917L561.664 338.345C561.804 338.205 561.874 338.02 561.827 337.811L559.035 323.011L583.812 298.965C584.045 298.733 584.045 298.361 583.835 298.129C583.603 297.896 583.231 297.896 582.998 298.105L557.988 322.407C557.849 322.546 557.779 322.732 557.825 322.941L560.617 337.741L528.814 369.5L511.296 332.723L517.95 322.57C518.066 322.384 518.089 322.175 517.973 321.989L506.038 298.198C505.899 297.92 505.526 297.78 505.247 297.943C504.945 298.082 504.829 298.431 504.991 298.733L516.763 322.221L510.133 332.374C510.017 332.537 509.993 332.769 510.086 332.955L528.093 370.801C528.186 370.987 528.326 371.103 528.535 371.127C528.559 371.08 528.582 371.08 528.628 371.08Z" fill="white"></path> <path d="M483.728 376.936C483.984 376.936 484.216 376.75 484.24 376.494C484.798 372.939 485.403 369.571 485.961 366.62C487.241 359.743 488.241 354.307 487.497 351.193C487.427 350.915 487.124 350.729 486.869 350.798C486.589 350.868 486.403 351.147 486.473 351.426C487.171 354.307 486.171 359.65 484.938 366.411C484.379 369.385 483.751 372.754 483.216 376.331C483.169 376.61 483.379 376.889 483.658 376.936C483.681 376.936 483.704 376.936 483.728 376.936Z" fill="#C8D7FA"></path> <path d="M377.059 370.383C377.152 370.383 377.268 370.36 377.361 370.29C385.434 365.504 388.831 359.417 390.669 356.141C391.134 355.328 391.646 354.399 391.879 354.259C392.158 354.097 392.251 353.725 392.088 353.446C391.925 353.168 391.576 353.075 391.297 353.237C390.808 353.516 390.39 354.236 389.668 355.561C387.877 358.743 384.573 364.645 376.78 369.268C376.501 369.431 376.408 369.802 376.57 370.081C376.663 370.267 376.85 370.383 377.059 370.383Z" fill="#EBBD88"></path> <path d="M543.863 399.236C582.885 400.35 618.151 392.943 630.647 399.87C643.144 406.797 646.254 407.547 645.775 418.339C645.296 429.154 628.062 437.614 618.814 434.827C568.876 419.806 538.967 412.535 538.967 412.535L543.863 399.236Z" fill="#FFB094"></path> <path d="M551.949 411.292C543.09 414.52 526.664 418.056 520.936 415.625C515.207 413.195 498.552 403.501 498.552 403.501L512.775 392.332C514.79 390.748 517.447 390.308 519.86 391.146L549.782 401.575L551.949 411.292Z" fill="#FFB094"></path> <path d="M509.94 408.788C509.94 408.788 499.169 418.691 494.337 418.596C489.506 418.501 504.391 405.659 504.391 405.659C504.391 405.659 496.285 406.055 497.448 402.443C498.611 398.831 503.788 396.874 505.466 395.837C507.145 394.8 515.686 387.295 518.606 388.394C521.526 389.492 526.672 395.561 526.672 395.561L509.94 408.788Z" fill="#FFB094"></path> <path d="M529.715 395.114C529.715 395.114 517.37 386.49 515.083 386.112C512.795 385.734 502.877 386.244 499.172 386.473C495.468 386.703 490.751 388.458 490.751 388.458C490.751 388.458 491.035 390.998 497.718 390.979C504.402 390.959 509.405 391.938 509.405 391.938C509.405 391.938 496.73 391.809 494.791 393.314C492.851 394.82 483.005 400.846 483.005 400.846C483.005 400.846 482.572 404.25 487.916 402.984C493.3 401.717 496.019 398.653 498.07 398.804C500.121 398.955 500.121 398.955 500.121 398.955C500.121 398.955 493.237 402.413 491.727 404.18C490.217 405.947 482.233 412.321 484.022 412.902C485.811 413.483 487.145 414.498 491.051 410.83C494.956 407.163 501.524 405.293 501.524 405.293L506.36 405.62L529.715 395.114Z" fill="#FFB094"></path> <path d="M227.852 504.37C253.451 505.799 279.172 507.106 304.923 507.622C303.858 478.836 301.24 450.719 295.487 437.587C285.808 404.028 260.969 379.406 260.969 379.406L189.833 380.045C168.343 395.122 151.419 439.411 151.419 439.411C146.245 457.71 145.727 481.238 147.249 504.37C174.188 503.428 201.096 502.88 227.852 504.37Z" fill="#33B062"></path> <path d="M128.285 452.968L122.654 477.985C122.654 477.985 112.243 497.865 109.382 497.439C106.521 497.044 89.2619 483.76 89.2619 483.76C89.2619 483.76 98.5458 473.699 108.682 461.905C108.834 461.722 110.234 443.149 110.234 443.149L128.285 452.968Z" fill="#FFB094"></path> <path d="M117.844 490.752C118.666 490.995 119.732 501.452 121.923 505.282C122.867 505.251 123.841 505.221 124.784 505.16C125.424 501.877 123.81 494.096 124.176 490.357C125.485 477.438 123.963 468.531 123.963 468.531L113.705 483.335L111.117 496.619C111.148 496.619 116.84 490.478 117.844 490.752Z" fill="#FFB094"></path> <path d="M94.376 487.226C94.376 487.226 84.2093 500.023 80.4653 506.528C81.9263 506.498 83.3874 506.497 84.8789 506.467C90.9972 501.056 99.7941 491.755 99.7941 491.755C99.7941 491.755 95.7153 499.233 92.2756 506.315C94.4064 506.254 96.5371 506.194 98.6679 506.133C102.26 500.935 105.304 496.071 105.304 496.071C105.304 496.071 103.416 500.752 101.56 506.042C103.447 505.981 105.334 505.92 107.221 505.859C110.539 498.989 113.431 492.272 113.431 492.272L99.5202 474.611L89.2317 483.821C89.2317 483.821 73.5556 497.53 75.108 498.929C76.7213 500.266 94.376 487.226 94.376 487.226Z" fill="#FFB094"></path> <path d="M171.905 175.47C178.449 163.979 179.514 150.24 184.232 137.868C188.951 125.527 200 113.459 213.15 115.161C215.432 115.465 217.685 116.164 219.998 116.286C222.038 116.407 224.047 116.043 226.086 115.951C239.418 115.404 250.924 126.378 255.795 138.78C260.665 151.182 260.452 164.861 260.969 178.175C261.487 191.489 263.039 205.441 270.71 216.354C274.302 221.491 279.141 225.716 282.368 231.097C288.03 240.459 288.151 252.557 284.073 262.71C279.994 272.863 272.08 281.161 262.917 287.18C268.731 279.368 272.232 269.823 272.871 260.126C265.018 281.1 243.497 296.178 221.064 296.39C198.63 296.603 176.836 281.952 168.587 261.129C168.617 269.033 170.017 276.906 172.726 284.323C161.586 274.352 149.684 262.892 148.467 248.028C147.066 256.205 147.766 264.747 150.506 272.589C135.226 253.53 134.252 224.288 148.284 204.286C155.376 194.042 165.756 186.291 171.905 175.47Z" fill="#EF754A"></path> <path d="M277.731 241.131C290.516 246.116 308.901 353.996 308.901 353.996L329.295 458.077L299.83 464.856C299.83 464.856 291.703 427.285 277.731 383.452C267.169 350.258 253.486 273.445 253.486 273.445L266.012 249.946L277.731 241.131Z" fill="#1E964B"></path> <path d="M304.28 332.907L432.54 334.626C434.835 334.673 436.795 336.296 437.225 338.588L453.335 428.772C453.861 431.684 451.614 434.405 448.603 434.405L321.156 434.93C318.813 434.93 316.805 433.259 316.423 430.968L299.5 338.54C298.926 335.628 301.221 332.859 304.28 332.907Z" fill="#CBC1CB"></path> <path d="M300.313 332.907L428.573 334.626C430.868 334.673 432.828 336.296 433.258 338.588L449.368 428.772C449.894 431.684 447.647 434.405 444.635 434.405L317.188 434.93C314.846 434.93 312.838 433.259 312.455 430.968L295.533 338.54C294.959 335.628 297.301 332.859 300.313 332.907Z" fill="#7492CC"></path> <path d="M453.193 428.676L437.082 338.493C436.7 336.201 434.74 334.578 432.397 334.53L304.138 332.812C303.994 332.812 303.851 332.859 303.66 332.859L428.478 334.53C430.772 334.578 432.732 336.201 433.162 338.493L449.273 428.676C449.798 431.589 447.552 434.31 444.54 434.31L320.869 434.835C320.917 434.835 321.013 434.835 321.013 434.835L448.508 434.31C451.472 434.31 453.718 431.589 453.193 428.676Z" fill="#38437E"></path> <path d="M518.063 435.647L416.622 434.31L416.717 425.573L518.159 426.91C518.302 426.91 518.446 427.053 518.446 427.196L518.35 435.456C518.302 435.551 518.207 435.647 518.063 435.647Z" fill="#7492CC"></path> <path d="M358.399 390.292C361.363 391.82 365.091 391.629 368.103 390.197C372.645 388.048 377.09 382.797 376.326 377.497C375.561 372.341 370.589 368.952 365.761 367.997C362.367 367.329 358.686 367.949 355.913 370.05C349.459 374.919 351.371 386.425 358.16 390.149C358.255 390.197 358.303 390.244 358.399 390.292Z" fill="white"></path> <path d="M240.361 230.367L278.593 241.31C278.593 241.31 277.71 274.99 282.306 293.016C284.285 300.828 285.289 318.337 279.871 324.295C277.253 327.182 273.996 330.739 269.309 332.563L261.456 386.427L188.036 382.323C188.036 382.323 186.119 363.355 168.464 318.458C158.845 294.019 161.615 254.411 154.706 242.252L201.217 228.695L240.361 230.367Z" fill="#33B062"></path> <mask id="mask0_118:1389" style="mask-type:alpha" maskUnits="userSpaceOnUse" x="154" y="228" width="130" height="159"> <path d="M240.362 230.366L278.593 241.309C278.593 241.309 277.71 274.989 282.307 293.015C284.285 300.827 285.29 318.336 279.872 324.294C277.254 327.181 273.997 330.738 269.309 332.562L261.456 386.426L188.037 382.322C188.037 382.322 186.119 363.354 168.465 318.457C158.846 294.018 161.616 254.41 154.706 242.251L201.217 228.694L240.362 230.366Z" fill="#33B062"></path> </mask> <g mask="url(#mask0_118:1389)"> <path d="M137.615 248.987C143.703 247.528 149.517 246.859 155.148 247.041C169.15 247.467 181.873 253.364 189.24 262.848C191.644 265.949 193.684 269.596 195.632 273.153C199.619 280.357 203.729 287.804 211.399 291.726C217.974 295.13 225.645 294.948 232.95 294.279C245.247 293.154 257.514 290.935 269.447 287.683C273.982 286.436 278.73 284.947 282.414 281.573C285.64 278.594 287.466 274.642 289.11 271.147C290.389 268.411 291.606 265.614 292.793 262.818C291.85 260.477 290.936 258.197 289.993 255.978C288.38 260.355 286.462 264.702 284.453 268.988C282.961 272.18 281.409 275.493 278.913 277.804C276.082 280.418 272.034 281.664 268.107 282.728C256.479 285.889 244.486 288.048 232.494 289.172C226.436 289.75 219.466 290.084 213.773 287.166C207.503 283.944 203.942 277.5 200.167 270.66C198.097 266.952 195.967 263.091 193.349 259.687C185.069 248.987 170.854 242.36 155.331 241.874C150.186 241.722 144.951 242.208 139.502 243.303C138.863 245.126 138.224 247.041 137.615 248.987Z" fill="white"></path> </g> <mask id="mask1_118:1389" style="mask-type:alpha" maskUnits="userSpaceOnUse" x="146" y="379" width="159" height="129"> <path d="M227.851 504.367C253.45 505.796 279.171 507.103 304.923 507.62C303.857 478.833 301.24 450.716 295.487 437.584C285.807 404.025 260.969 379.403 260.969 379.403L189.833 380.042C168.343 395.119 151.419 439.408 151.419 439.408C146.244 457.707 145.727 481.235 147.248 504.367C174.187 503.425 201.095 502.878 227.851 504.367Z" fill="#33B062"></path> </mask> <g mask="url(#mask1_118:1389)"> <path d="M150.159 491.301C149.216 492.669 148.363 494.067 147.511 495.496C147.633 497.988 147.785 500.451 147.968 502.943C148.485 502.913 149.003 502.913 149.551 502.882C150.22 501.484 150.829 500.025 151.59 498.688C152.229 497.563 152.899 496.469 153.599 495.405C155.851 497.928 158.287 500.299 160.843 502.548C163.431 502.487 166.049 502.396 168.636 502.335C164.253 499.113 160.265 495.405 156.643 491.21C166.14 479.142 180.081 470.6 195.361 467.743C203.093 466.314 211.098 466.345 218.86 467.743C219.469 471.604 219.956 475.282 219.652 478.929C219.043 486.833 214.508 495.04 206.898 502.183C209.211 502.214 211.555 502.335 213.868 502.396C220.321 495.222 224.157 487.197 224.766 479.324C225.039 475.829 224.705 472.363 224.218 468.959C232.649 471.208 240.685 475.099 247.625 480.419C251.339 483.276 254.991 486.681 258.522 489.964C264.762 495.769 271.155 501.667 278.521 505.375C287.287 505.709 296.054 506.013 304.82 506.196C305.094 506.013 305.338 505.831 305.612 505.679C305.52 503.551 305.459 501.454 305.338 499.356C304.333 500.359 303.237 501.211 302.081 501.879C299.311 503.46 295.902 504.19 292.097 503.977C280.439 503.369 271.489 495.04 262.023 486.225C258.401 482.851 254.657 479.385 250.76 476.376C242.694 470.144 233.258 465.798 223.365 463.457C222.635 458.624 222.117 454.003 223.183 449.565C225.861 438.562 237.55 431.813 248.295 426.372C254.139 423.424 260.288 420.657 265.676 422.421C269.45 423.636 272.494 427.011 275.142 429.959L291.823 448.441C295.354 452.332 298.885 456.374 302.02 460.63C301.502 456.891 300.894 453.395 300.224 450.143C298.702 448.41 297.18 446.678 295.628 445.006L278.947 426.524C275.994 423.272 272.311 419.198 267.228 417.527C259.983 415.186 252.709 418.347 245.921 421.782C234.141 427.74 221.326 435.218 218.16 448.349C217.034 453.061 217.338 457.773 218.008 462.393C210.155 461.147 202.149 461.208 194.387 462.667C178.285 465.676 163.522 474.552 153.295 487.106C151.164 484.34 149.124 481.391 147.176 478.321C147.146 481.27 147.176 484.249 147.237 487.258C148.242 488.626 149.124 490.024 150.159 491.301Z" fill="white"></path> <path d="M194.079 391.883C189.757 390.484 185.435 388.934 181.082 387.414C176.547 385.803 171.95 384.192 167.324 382.703C166.289 384.162 165.284 385.651 164.31 387.141C169.363 388.721 174.385 390.484 179.347 392.248C183.73 393.798 188.113 395.378 192.466 396.777C212.099 403.099 239.373 407.355 257.91 391.518C259.067 390.545 260.163 389.481 261.258 388.448C263.815 385.986 266.311 383.736 269.173 382.49C268.107 380.97 267.072 379.572 266.068 378.234C262.872 379.876 260.254 382.338 257.697 384.739C256.662 385.743 255.627 386.715 254.562 387.627C237.881 401.883 212.434 397.81 194.079 391.883Z" fill="white"></path> </g> <path d="M225.356 322.015C225.356 322.015 202.374 337.7 185.206 322.076C185.206 322.076 200.335 346.272 225.356 322.015Z" fill="#1E964B"></path> <path d="M250.133 233.103L244.319 231.553C238.566 230.002 234.396 224.987 233.939 219.059L231.626 188.297L201.887 184.467L202.069 217.752C202.1 223.923 198.082 229.394 192.177 231.218L182.649 234.167C217.959 265.902 241.184 349.403 252.751 307.06C268.366 249.7 250.133 233.103 250.133 233.103Z" fill="#FFB094"></path> <path d="M233.026 204.043L233.605 214.621C233.605 214.621 214.672 215.168 207.123 191.671C199.574 168.174 233.026 204.043 233.026 204.043Z" fill="#DA7D5D"></path> <path d="M250.093 158.293C250.093 158.293 248.632 204.239 230.497 205.953C212.362 207.667 207.807 199.867 205.486 196.267C203.166 192.667 194.313 179.209 193.454 159.322C192.68 139.435 205.057 133.178 217.261 134.035C229.466 134.892 250.093 158.293 250.093 158.293Z" fill="#FFB094"></path> <path d="M217.514 188.842C217.514 188.842 219.131 190.284 221.136 191.648C222.86 192.896 224.06 194.452 227.602 194.344C231.687 194.199 231.78 192.28 233.317 190.807C234.591 189.49 235.237 187.892 235.237 187.892L217.514 188.842Z" fill="#F91155"></path> <path d="M217.516 188.842C217.516 188.842 224.711 186.295 225.681 186.501C227.068 186.816 227.087 187.088 227.494 187.059C228.173 187.013 228.525 186.168 229.902 186.347C231.144 186.534 235.239 187.891 235.239 187.891C235.239 187.891 231.945 188.255 227.19 188.583C222.833 188.748 217.516 188.842 217.516 188.842Z" fill="#CF003D"></path> <path d="M231.081 190.435C231.751 190.252 234.273 188.37 234.788 187.924L219.436 188.984C219.436 188.984 219.582 189.111 219.717 189.101C220.144 189.345 220.899 190.336 221.452 190.434C224.922 191.971 228.428 192.274 231.081 190.435Z" fill="white"></path> <path d="M218.45 165.273C218.332 163.07 217.067 161.407 215.625 161.561C214.183 161.714 213.11 163.624 213.227 165.828C213.345 168.032 214.61 169.694 216.052 169.541C217.494 169.388 218.567 167.477 218.45 165.273Z" fill="#412016"></path> <path d="M217.351 166.747C217.302 166.091 216.907 165.599 216.477 165.649C216.047 165.7 215.73 166.274 215.793 166.928C215.842 167.583 216.237 168.076 216.667 168.025C217.098 167.982 217.401 167.411 217.351 166.747Z" fill="white"></path> <path d="M242.542 164.193C242.424 161.989 241.16 160.327 239.718 160.48C238.276 160.633 237.202 162.544 237.32 164.747C237.438 166.951 238.702 168.613 240.144 168.46C241.586 168.307 242.66 166.396 242.542 164.193Z" fill="#412016"></path> <path d="M241.328 165.684C241.279 165.029 240.884 164.536 240.454 164.587C240.025 164.638 239.708 165.211 239.77 165.865C239.819 166.521 240.215 167.014 240.644 166.963C241.075 166.92 241.379 166.348 241.328 165.684Z" fill="white"></path> <path d="M226.508 181.389C226.508 181.389 226.308 181.341 226.231 181.257C225.845 180.798 225.709 180.148 225.933 179.592C225.979 179.473 226.062 179.395 226.183 179.4C226.916 179.268 227.647 179.176 228.268 178.798C228.764 178.495 229.311 177.952 229.338 177.267C229.359 176.744 229.056 176.248 228.754 175.711L228.602 175.463C226.753 172.204 226.713 168.128 226.722 164.862C226.728 164.701 226.897 164.506 226.897 164.506C227.22 164.519 227.377 164.646 227.369 164.847C227.397 168.196 227.408 171.988 229.181 175.123L229.294 175.33C229.636 175.867 229.974 176.526 229.987 177.212C229.955 178.018 229.437 178.844 228.571 179.294C227.91 179.671 227.177 179.803 226.485 179.937C226.432 180.257 226.54 180.584 226.734 180.793C226.85 180.919 226.842 181.12 226.676 181.235C226.631 181.354 226.589 181.393 226.508 181.389Z" fill="#F17C53"></path> <path d="M204.963 160.035C207.477 155.72 215.608 150.445 220.147 155.05C220.414 155.321 220.436 155.977 219.954 156.043C217.778 156.485 215.637 155.97 213.439 156.5C210.541 157.227 208.164 158.994 205.865 160.743C205.335 161.15 204.657 160.516 204.963 160.035Z" fill="#E2511E"></path> <path d="M248.057 158.611C244.901 154.698 236.068 150.735 232.33 155.98C232.118 156.298 232.202 156.906 232.691 156.956C234.921 157.065 236.946 156.24 239.233 156.448C242.213 156.72 244.797 158.137 247.352 159.505C247.826 159.76 248.428 159.089 248.057 158.611Z" fill="#E2511E"></path> <path d="M193.911 167.81C198.964 171.762 218.567 127.838 225.233 135.832C225.233 135.832 230.195 123.43 255.611 186.748C255.611 186.748 263.951 113.399 222.737 117.533C222.737 117.533 175.496 111.119 191.172 167.567L193.911 167.81Z" fill="#EF754A"></path> <path d="M196.407 169.116C196.407 169.116 194.246 159.115 185.541 165.377C182.101 167.87 184.719 179.147 195.768 177.901C195.768 177.901 199.269 175.986 196.407 169.116Z" fill="#FFB094"></path> <path d="M193.942 174.497C192.511 174.983 189.376 175.318 187.671 173.889C187.55 173.767 187.519 173.585 187.641 173.463C187.763 173.342 187.945 173.311 188.067 173.433C189.802 174.892 193.272 174.223 194.094 173.828C194.033 173.767 193.972 173.706 193.911 173.646C193.394 173.098 192.42 172.035 192.968 170.697C193.181 170.15 193.516 169.785 193.972 169.603C194.307 169.481 194.642 169.481 194.916 169.512C194.49 168.265 193.272 165.378 191.324 165.317C189.467 165.256 188.006 165.682 187.032 166.563C185.845 167.688 185.784 169.147 185.784 169.147C185.784 169.329 185.632 169.481 185.449 169.451C185.267 169.451 185.145 169.299 185.145 169.116C185.145 169.056 185.206 167.353 186.576 166.077C187.671 165.043 189.254 164.557 191.324 164.648C194.246 164.739 195.616 169.633 195.646 169.846C195.677 169.968 195.646 170.089 195.555 170.18C195.464 170.272 195.312 170.272 195.22 170.211C195.22 170.211 194.672 169.937 194.155 170.12C193.881 170.241 193.637 170.484 193.485 170.849C193.09 171.822 193.82 172.612 194.307 173.159C194.52 173.402 194.672 173.554 194.733 173.737C194.764 173.858 194.733 174.071 194.459 174.223C194.398 174.314 194.185 174.406 193.942 174.497Z" fill="#F17C53"></path> <path d="M193.668 181.124C193.394 181.732 193.09 182.34 192.573 182.765C191.933 183.282 191.081 183.373 190.29 183.434C189.042 183.525 187.611 183.525 186.789 182.583C185.998 181.701 186.089 180.364 186.211 179.178C186.211 179.087 186.241 178.966 186.302 178.874C186.393 178.722 186.606 178.631 186.789 178.631C187.702 178.601 188.25 179.604 188.981 180.151C189.742 180.668 190.929 180.607 191.416 179.847C191.933 178.996 191.355 177.932 190.777 177.142C190.442 176.686 190.137 176.047 190.472 175.622C190.868 175.288 191.477 175.257 191.964 175.47C192.451 175.652 192.846 176.047 193.181 176.443C193.912 177.324 194.399 178.51 194.216 179.634C194.125 180.151 193.912 180.637 193.668 181.124Z" fill="white"></path> <g opacity="0.35"> <path opacity="0.35" d="M215.706 137.016C215.919 136.317 216.072 135.557 215.828 134.858C215.524 133.946 214.58 133.368 213.606 133.216C212.662 133.064 211.688 133.247 210.745 133.459C209.314 133.733 207.914 134.037 206.483 134.31C204.718 134.675 202.77 134.979 201.278 133.976C199.513 132.791 199.269 130.268 197.869 128.657C196.499 127.076 194.034 126.62 192.177 127.562C191.446 127.957 190.807 128.535 190.259 129.173C188.402 131.24 187.124 133.794 186.607 136.499C186.576 136.712 186.515 136.955 186.576 137.198C186.698 137.715 187.276 137.958 187.794 138.019C190.137 138.384 192.329 136.681 194.703 136.469C196.743 136.286 198.721 137.198 200.365 138.384C202.039 139.569 203.5 140.998 205.235 142.092C206.818 143.095 208.614 143.764 210.44 144.068C212.967 142.427 214.824 139.873 215.706 137.016Z" fill="white"></path> </g> <g opacity="0.35"> <path opacity="0.35" d="M251.442 147.352C252.568 147.291 253.968 147.23 254.455 146.197C254.821 145.437 254.486 144.555 254.151 143.765C253.694 142.762 253.238 141.759 252.477 140.999C251.716 140.239 250.59 139.722 249.524 139.996C248.976 140.148 248.52 140.482 248.124 140.877C247.272 141.698 246.724 142.823 246.572 144.008C246.541 144.343 246.511 144.677 246.237 144.89C246.085 145.011 245.902 145.042 245.719 145.072C243.254 145.467 240.758 143.613 238.323 144.221C238.079 144.282 237.805 144.403 237.805 144.647C237.805 144.768 237.866 144.89 237.927 144.981C238.992 146.622 239.966 148.294 240.849 150.057C241.397 151.152 241.945 152.307 242.889 153.067C243.832 153.827 245.354 154.039 246.237 153.188C247.241 152.216 246.846 150.513 247.485 149.267C248.246 147.899 249.92 147.443 251.442 147.352Z" fill="white"></path> </g> <path d="M204.869 261.829C227.912 297.424 243.801 339.737 252.72 307.06C259.294 282.955 259.873 266.115 258.351 254.594L243.618 284.809L204.869 261.829Z" fill="white"></path> <path d="M275.702 328.825C275.488 328.825 275.275 328.734 275.154 328.551C274.91 328.248 274.941 327.792 275.245 327.548C279.993 323.688 286.507 318.429 282.703 304.234C278.867 289.856 279.141 281.284 279.141 280.949C279.172 280.554 279.476 280.25 279.872 280.25H279.902C280.298 280.25 280.602 280.584 280.602 280.98C280.602 281.071 280.328 289.704 284.103 303.869C288.121 318.946 281.211 324.569 276.158 328.643C276.036 328.795 275.884 328.825 275.702 328.825Z" fill="white"></path> <path d="M186.636 382.536L263.708 381.897L263.464 374.085L186.484 374.571L186.636 382.536Z" fill="#353535"></path> <path d="M245.065 332.793C246.295 331.505 246.247 329.466 244.958 328.237C243.669 327.009 241.626 327.057 240.396 328.344C239.166 329.632 239.214 331.671 240.503 332.9C241.793 334.128 243.835 334.08 245.065 332.793Z" fill="#353535"></path> <path d="M244.244 359.773C245.474 358.486 245.426 356.446 244.137 355.218C242.848 353.989 240.805 354.037 239.575 355.325C238.345 356.612 238.393 358.652 239.682 359.88C240.972 361.108 243.014 361.061 244.244 359.773Z" fill="#353535"></path> <path d="M155.104 241.465C168.672 243.511 210.402 344.687 210.402 344.687C217.833 352.025 193.816 393.897 179.548 379.489C161.924 349.439 134.858 288.954 134.858 288.954L131.184 279.389C124.478 261.929 136.458 242.935 155.104 241.465V241.465Z" fill="#3AC267"></path> <path d="M263.749 373.837L298.741 367.651C298.741 367.651 323.283 370.286 324.041 373.391C324.779 376.443 318.097 399.44 318.097 399.44C318.097 399.44 304.092 394.002 287.926 388.405C287.702 388.305 251.141 389.541 251.141 389.541L263.749 373.837Z" fill="#FFB094"></path> <path d="M288.478 370.038C288.478 370.038 296.959 364.936 310.733 361.078C315.981 359.623 326.931 351.784 327.781 355.287C328.577 358.811 313.594 366.281 313.717 367.407C313.84 368.533 322.424 371.913 322.424 371.913L307.777 374.623L288.478 370.038Z" fill="#FFB094"></path> <path d="M316.989 371.276C316.989 371.276 351.67 372.498 352.09 375.363C352.456 378.249 324.174 378.094 324.174 378.094C324.174 378.094 354.516 383.943 354.422 386.757C354.328 389.572 322.002 385.472 322.002 385.472C322.002 385.472 349.954 396.682 349.094 399.111C348.309 401.573 319.573 392.825 319.573 392.825C319.573 392.825 340.038 405.607 339.278 407.812C338.497 409.964 318.171 399.475 318.171 399.475L304.614 392.629L316.989 371.276Z" fill="#FFB094"></path> <path d="M291.132 364.339C280.568 367.081 227.437 349.752 209.495 349.414C191.554 349.076 175.795 358.701 175.795 358.701C175.795 358.701 175.781 375.783 181.494 381.578C187.203 387.314 201.637 390.978 222.343 392.862C243.048 394.746 268.365 392.541 295.446 396.36L291.132 364.339Z" fill="#3AC267"></path> <rect x="-97" y="432" width="991" height="58" fill="#E5F5FF"></rect> <rect x="24" y="432" width="837" height="4" rx="2" fill="#002F85"></rect> </g> <defs> <clipPath id="clip0_118:1389"> <rect width="886" height="482" rx="30" fill="white"></rect> </clipPath> </defs> </svg> 