<?xml version="1.0" encoding="UTF-8"?> <svg xmlns="http://www.w3.org/2000/svg" width="161" height="161" viewBox="0 0 161 161" fill="none"> <path d="M144.955 90.904C145.164 90.1761 144.734 86.2778 143.127 74.1669C141.942 65.4808 140.891 58.0476 140.78 57.6617C140.653 57.2614 140.251 56.5992 139.887 56.2025C137.922 54.0096 134.634 54.1682 132.617 56.5449C131.176 58.2425 131.159 58.6073 132.556 68.7292L133.833 77.9606L128.399 73.5242C121.799 68.1565 119.095 66.3874 112.912 63.4182C105.185 59.7224 96.7654 57.5997 87.5394 57.0122C82.459 56.7014 74.111 57.3848 69.1343 58.5346C59.661 60.7159 51.8581 64.1981 44.306 69.5869C39.2184 73.2417 36.795 75.4779 31.2709 81.7117L26.7172 86.8709L26.4631 77.3978C26.1565 67.0918 26.0918 66.6864 24.4281 65.2744C22.784 63.9083 20.8413 63.7198 19.0642 64.7815C18.1468 65.3463 17.1697 66.5321 16.8676 67.473C16.7441 67.8938 16.7644 75.4746 16.9332 84.2913C17.2785 102.019 17.224 101.739 19.148 103.05C19.6835 103.417 20.6008 103.816 21.1471 103.929C22.3993 104.174 53.5169 100.095 54.7337 99.5214C57.8398 98.0982 58.273 93.3552 55.4765 91.42C54.9409 91.0531 54.0406 90.6687 53.4969 90.5868C52.9361 90.4906 48.4729 90.9665 43.3492 91.6702L34.2119 92.9395L38.8927 87.5961C43.0693 82.8469 43.8406 82.0413 46.0149 80.2363C52.3364 75.0588 59.5868 71.1953 67.1473 68.9968C83.9373 64.1471 101.026 66.6185 115.846 76.0999C118.247 77.641 127.613 85.1518 127.394 85.3751C127.322 85.46 123.638 85.6036 119.223 85.7122C109.197 85.9642 108.835 85.9781 107.756 86.4929C106.035 87.2814 104.775 89.4539 104.982 91.2063C105.208 93.0044 106.899 94.9354 108.589 95.3184C109.072 95.4368 116.66 95.3054 125.406 95.0475C137.554 94.6692 141.548 94.4371 142.218 94.1295C143.374 93.5925 144.613 92.1326 144.955 90.904Z" fill="#005BFF"></path> </svg> 