<?xml version="1.0" encoding="UTF-8"?> <svg xmlns="http://www.w3.org/2000/svg" width="886" height="482" viewBox="0 0 886 482" fill="none"> <g clip-path="url(#clip0_117:982)"> <rect width="886" height="482" rx="30" fill="white"></rect> <path d="M606.91 236.357C606.822 233.591 606.669 230.842 606.454 228.11C606.042 228.143 605.68 227.837 605.646 227.425C605.375 224.179 605.016 220.96 604.569 217.768C604.512 217.358 604.797 216.98 605.206 216.921C604.811 214.186 604.353 211.471 603.832 208.778C603.426 208.857 603.033 208.593 602.952 208.187C602.321 204.997 601.602 201.838 600.799 198.714C600.696 198.313 600.937 197.905 601.337 197.801C600.637 195.128 599.875 192.48 599.053 189.858C598.658 189.983 598.237 189.765 598.112 189.371C597.126 186.274 596.055 183.215 594.901 180.196C594.754 179.809 594.947 179.377 595.333 179.228C594.337 176.654 593.281 174.11 592.168 171.596C591.791 171.765 591.348 171.596 591.178 171.218C589.851 168.255 588.442 165.337 586.956 162.465C586.765 162.098 586.909 161.646 587.275 161.455C585.997 159.012 584.662 156.602 583.273 154.229C582.917 154.438 582.458 154.32 582.247 153.964C580.596 151.171 578.869 148.429 577.069 145.74C576.839 145.396 576.931 144.931 577.274 144.701C575.731 142.417 574.135 140.172 572.487 137.967C572.157 138.215 571.687 138.149 571.438 137.818C569.487 135.229 567.464 132.696 565.373 130.223C565.106 129.907 565.146 129.435 565.461 129.167C563.673 127.071 561.837 125.017 559.954 123.009C559.653 123.292 559.179 123.278 558.895 122.978C556.668 120.624 554.376 118.332 552.022 116.105C551.722 115.821 551.708 115.347 551.991 115.046C549.983 113.163 547.929 111.327 545.833 109.539C545.566 109.854 545.093 109.894 544.777 109.627C542.304 107.536 539.771 105.513 537.182 103.562C536.851 103.313 536.785 102.843 537.033 102.513C534.828 100.866 532.583 99.2695 530.299 97.7262C530.069 98.0693 529.604 98.161 529.26 97.9309C526.571 96.1306 523.829 94.4037 521.036 92.7529C520.68 92.5424 520.562 92.0834 520.771 91.727C518.398 90.3377 515.989 89.003 513.545 87.7246C513.354 88.0914 512.902 88.2346 512.535 88.0445C509.663 86.5579 506.745 85.1493 503.782 83.8215C503.404 83.6523 503.235 83.2095 503.404 82.8319C500.89 81.7186 498.346 80.6631 495.772 79.667C495.623 80.0529 495.191 80.2461 494.804 80.0985C491.785 78.9455 488.726 77.8745 485.629 76.8882C485.235 76.7626 485.017 76.3417 485.142 75.9475C482.52 75.1252 479.872 74.3632 477.199 73.6633C477.095 74.0635 476.687 74.3043 476.286 74.2012C473.162 73.3975 470.003 72.6788 466.813 72.0477C466.407 71.9674 466.143 71.5737 466.222 71.168C463.529 70.6474 460.814 70.1888 458.079 69.7939C458.021 70.2033 457.642 70.4885 457.232 70.4311C454.04 69.9844 450.821 69.6247 447.575 69.3544C447.163 69.3201 446.857 68.9584 446.89 68.5463C444.158 68.3306 441.409 68.1779 438.643 68.0898C438.631 68.5031 438.286 68.8286 437.873 68.8172C436.254 68.7725 434.63 68.75 433 68.75C431.37 68.75 429.746 68.7725 428.127 68.8172C427.714 68.8286 427.369 68.5031 427.357 68.0898C424.591 68.1779 421.842 68.3306 419.11 68.5463C419.143 68.9584 418.837 69.3201 418.425 69.3544C415.179 69.6247 411.96 69.9844 408.768 70.4311C408.358 70.4885 407.98 70.2033 407.921 69.7939C405.186 70.1888 402.471 70.6473 399.778 71.168C399.857 71.5737 399.593 71.9674 399.187 72.0477C395.997 72.6788 392.838 73.3975 389.714 74.2012C389.313 74.3043 388.905 74.0635 388.801 73.6633C386.128 74.3632 383.48 75.1252 380.858 75.9475C380.983 76.3417 380.765 76.7626 380.371 76.8882C377.274 77.8745 374.215 78.9455 371.196 80.0985C370.809 80.2461 370.377 80.0529 370.228 79.667C367.654 80.6631 365.11 81.7186 362.596 82.8319C362.765 83.2095 362.596 83.6523 362.218 83.8215C359.255 85.1493 356.337 86.5579 353.465 88.0445C353.098 88.2346 352.646 88.0914 352.455 87.7246C350.011 89.003 347.602 90.3377 345.229 91.727C345.438 92.0834 345.32 92.5424 344.964 92.7529C342.171 94.4037 339.429 96.1306 336.74 97.9309C336.396 98.161 335.931 98.0693 335.701 97.7262C333.417 99.2694 331.172 100.865 328.967 102.513C329.215 102.843 329.149 103.313 328.818 103.562C326.229 105.513 323.696 107.536 321.223 109.627C320.907 109.894 320.435 109.854 320.167 109.539C318.071 111.327 316.017 113.163 314.009 115.046C314.292 115.347 314.278 115.821 313.978 116.105C311.624 118.332 309.332 120.624 307.105 122.978C306.821 123.278 306.347 123.292 306.046 123.009C304.163 125.017 302.327 127.071 300.539 129.167C300.854 129.435 300.894 129.907 300.627 130.223C298.536 132.696 296.513 135.229 294.562 137.818C294.313 138.149 293.843 138.215 293.513 137.967C291.865 140.172 290.269 142.417 288.726 144.701C289.069 144.931 289.161 145.396 288.931 145.74C287.131 148.429 285.404 151.171 283.753 153.964C283.542 154.32 283.083 154.438 282.727 154.229C281.338 156.602 280.003 159.011 278.725 161.455C279.091 161.646 279.235 162.098 279.044 162.465C277.558 165.337 276.149 168.255 274.822 171.218C274.652 171.596 274.21 171.765 273.832 171.596C272.719 174.11 271.663 176.654 270.667 179.228C271.053 179.377 271.246 179.809 271.099 180.196C269.945 183.215 268.874 186.274 267.888 189.371C267.763 189.765 267.342 189.983 266.947 189.858C266.125 192.48 265.363 195.128 264.663 197.801C265.063 197.905 265.304 198.313 265.201 198.714C264.398 201.838 263.679 204.997 263.048 208.187C262.967 208.593 262.574 208.857 262.168 208.778C261.647 211.471 261.189 214.186 260.794 216.921C261.203 216.98 261.488 217.358 261.431 217.768C260.984 220.96 260.625 224.179 260.354 227.425C260.32 227.837 259.958 228.143 259.546 228.11C259.331 230.842 259.178 233.591 259.09 236.357C259.503 236.369 259.829 236.714 259.817 237.127C259.772 238.746 259.75 240.37 259.75 242C259.75 243.63 259.772 245.254 259.817 246.873C259.829 247.286 259.503 247.631 259.09 247.643C259.178 250.409 259.331 253.158 259.546 255.89C259.958 255.857 260.32 256.163 260.354 256.575C260.625 259.821 260.984 263.04 261.431 266.232C261.488 266.642 261.203 267.021 260.794 267.079C261.189 269.814 261.647 272.529 262.168 275.222C262.574 275.143 262.967 275.407 263.048 275.813C263.679 279.003 264.398 282.162 265.201 285.286C265.304 285.687 265.063 286.095 264.663 286.199C265.363 288.872 266.125 291.52 266.947 294.142C267.342 294.017 267.763 294.235 267.888 294.629C268.874 297.726 269.945 300.785 271.099 303.804C271.246 304.191 271.053 304.623 270.667 304.772C271.663 307.346 272.719 309.89 273.832 312.404C274.21 312.235 274.652 312.404 274.822 312.782C276.149 315.745 277.558 318.663 279.044 321.535C279.235 321.902 279.091 322.354 278.725 322.545C280.003 324.989 281.338 327.398 282.727 329.771C283.083 329.562 283.542 329.68 283.753 330.036C285.404 332.829 287.131 335.571 288.931 338.26C289.161 338.604 289.069 339.069 288.726 339.299C290.269 341.583 291.865 343.828 293.513 346.033C293.843 345.785 294.313 345.851 294.562 346.182C296.513 348.771 298.536 351.304 300.627 353.777C300.894 354.093 300.854 354.566 300.539 354.833C302.327 356.929 304.163 358.983 306.046 360.991C306.347 360.708 306.821 360.722 307.105 361.022C309.332 363.376 311.624 365.668 313.978 367.895C314.278 368.179 314.292 368.653 314.009 368.954C316.017 370.837 318.071 372.673 320.167 374.461C320.435 374.146 320.907 374.106 321.223 374.373C323.696 376.464 326.229 378.487 328.818 380.438C329.149 380.687 329.215 381.157 328.967 381.487C331.172 383.135 333.417 384.731 335.701 386.274C335.931 385.931 336.396 385.839 336.74 386.069C339.429 387.869 342.171 389.596 344.964 391.247C345.32 391.458 345.438 391.917 345.229 392.273C347.602 393.662 350.012 394.997 352.455 396.275C352.646 395.909 353.098 395.765 353.465 395.956C356.337 397.442 359.255 398.851 362.218 400.178C362.596 400.348 362.765 400.79 362.596 401.168C365.11 402.281 367.654 403.337 370.228 404.333C370.377 403.947 370.809 403.754 371.196 403.902C374.215 405.055 377.274 406.126 380.371 407.112C380.765 407.237 380.983 407.658 380.858 408.053C383.48 408.875 386.128 409.637 388.801 410.337C388.905 409.937 389.313 409.696 389.714 409.799C392.838 410.603 395.997 411.321 399.187 411.952C399.593 412.033 399.857 412.426 399.778 412.832C402.471 413.353 405.186 413.811 407.921 414.206C407.98 413.797 408.358 413.512 408.768 413.569C411.96 414.016 415.179 414.375 418.425 414.646C418.837 414.68 419.143 415.042 419.11 415.454C421.842 415.669 424.591 415.822 427.357 415.91C427.369 415.497 427.714 415.171 428.127 415.183C429.746 415.228 431.37 415.25 433 415.25C434.63 415.25 436.254 415.228 437.873 415.183C438.286 415.171 438.631 415.497 438.643 415.91C441.409 415.822 444.158 415.669 446.89 415.454C446.857 415.042 447.163 414.68 447.575 414.646C450.821 414.375 454.04 414.016 457.232 413.569C457.642 413.512 458.02 413.797 458.079 414.206C460.814 413.811 463.529 413.353 466.222 412.832C466.143 412.426 466.407 412.033 466.813 411.952C470.003 411.321 473.162 410.602 476.286 409.799C476.687 409.696 477.095 409.937 477.199 410.337C479.872 409.637 482.52 408.875 485.142 408.053C485.017 407.658 485.235 407.237 485.629 407.112C488.726 406.126 491.785 405.055 494.804 403.901C495.191 403.754 495.623 403.947 495.772 404.333C498.346 403.337 500.89 402.281 503.404 401.168C503.235 400.79 503.404 400.348 503.782 400.178C506.745 398.851 509.663 397.442 512.535 395.956C512.902 395.765 513.354 395.909 513.545 396.275C515.988 394.997 518.398 393.662 520.771 392.273C520.562 391.917 520.68 391.458 521.036 391.247C523.829 389.596 526.571 387.869 529.26 386.069C529.604 385.839 530.069 385.931 530.299 386.274C532.583 384.731 534.828 383.135 537.033 381.487C536.785 381.157 536.851 380.687 537.182 380.438C539.771 378.487 542.304 376.464 544.777 374.373C545.093 374.106 545.565 374.146 545.833 374.461C547.929 372.673 549.983 370.837 551.991 368.954C551.708 368.653 551.722 368.179 552.022 367.895C554.376 365.668 556.668 363.376 558.895 361.022C559.179 360.722 559.653 360.708 559.954 360.991C561.837 358.983 563.673 356.929 565.461 354.833C565.146 354.565 565.106 354.093 565.373 353.777C567.464 351.304 569.487 348.771 571.438 346.182C571.687 345.851 572.157 345.785 572.487 346.033C574.135 343.828 575.731 341.583 577.274 339.299C576.931 339.069 576.839 338.604 577.069 338.26C578.869 335.571 580.596 332.829 582.247 330.036C582.458 329.68 582.917 329.562 583.273 329.771C584.662 327.398 585.997 324.989 587.275 322.545C586.909 322.354 586.765 321.902 586.956 321.535C588.442 318.663 589.851 315.745 591.178 312.782C591.348 312.404 591.79 312.235 592.168 312.404C593.281 309.89 594.337 307.346 595.333 304.772C594.947 304.623 594.754 304.191 594.901 303.804C596.055 300.785 597.126 297.726 598.112 294.629C598.237 294.235 598.658 294.017 599.053 294.142C599.875 291.52 600.637 288.872 601.337 286.199C600.937 286.095 600.696 285.687 600.799 285.286C601.602 282.162 602.321 279.003 602.952 275.813C603.033 275.407 603.426 275.143 603.832 275.222C604.353 272.529 604.811 269.814 605.206 267.079C604.797 267.02 604.512 266.642 604.569 266.232C605.016 263.04 605.375 259.821 605.646 256.575C605.68 256.163 606.042 255.857 606.454 255.89C606.669 253.158 606.822 250.409 606.91 247.643C606.497 247.631 606.171 247.286 606.183 246.873C606.228 245.254 606.25 243.63 606.25 242C606.25 240.37 606.228 238.746 606.183 237.127C606.171 236.714 606.497 236.369 606.91 236.357Z" fill="#D0EDFF" stroke="#002F85" stroke-width="1.5" stroke-linecap="round" stroke-dasharray="10 10"></path> <rect x="241" y="97" width="223.184" height="142.71" rx="10" fill="#002F85"></rect> <rect x="245.488" y="100.667" width="214.209" height="134.661" rx="10" fill="white"></rect> <rect x="261.098" y="120.439" width="159.697" height="5.26037" rx="2.63018" fill="#DBE3F1"></rect> <rect x="261.098" y="110.415" width="159.697" height="5.26037" rx="2.63018" fill="#DBE3F1"></rect> <rect x="320.417" y="168.34" width="57.4348" height="2.53397" rx="1.26699" fill="#DBE3F1"></rect> <rect x="320.416" y="177.033" width="57.4348" height="2.53397" rx="1.26699" fill="#DBE3F1"></rect> <rect x="320.416" y="186.42" width="57.4348" height="2.53397" rx="1.26699" fill="#DBE3F1"></rect> <rect x="320.416" y="141.883" width="25.3338" height="2.53397" rx="1.26699" fill="#DBE3F1"></rect> <rect x="352.518" y="141.883" width="25.3338" height="2.53397" rx="1.26699" fill="#DBE3F1"></rect> <rect x="384.619" y="141.883" width="25.3338" height="2.53397" rx="1.26699" fill="#DBE3F1"></rect> <rect x="320.416" y="149.625" width="25.3338" height="2.53397" rx="1.26699" fill="#DBE3F1"></rect> <rect x="352.518" y="149.625" width="25.3338" height="2.53397" rx="1.26699" fill="#DBE3F1"></rect> <rect x="384.619" y="149.625" width="25.3338" height="2.53397" rx="1.26699" fill="#DBE3F1"></rect> <rect x="320.416" y="156.687" width="25.3338" height="2.53397" rx="1.26699" fill="#DBE3F1"></rect> <rect x="352.518" y="156.687" width="25.3338" height="2.53397" rx="1.26699" fill="#DBE3F1"></rect> <rect x="384.619" y="156.687" width="25.3338" height="2.53397" rx="1.26699" fill="#DBE3F1"></rect> <circle cx="266.485" cy="147.271" r="5.38803" fill="#00A2FF"></circle> <circle cx="266.485" cy="161.983" r="5.38803" fill="#005BFF"></circle> <circle cx="342.779" cy="203.744" r="5.38803" fill="#DBE3F1"></circle> <circle cx="282.179" cy="147.271" r="5.38803" fill="#A5F1BB"></circle> <circle cx="282.179" cy="161.983" r="5.38803" fill="#F91155"></circle> <circle cx="358.473" cy="203.744" r="5.38803" fill="#DBE3F1"></circle> <circle cx="297.873" cy="147.271" r="5.38803" fill="#E5F5FF"></circle> <circle cx="297.873" cy="161.983" r="5.38803" fill="#FEE7EE"></circle> <circle cx="374.166" cy="203.744" r="5.38803" fill="#DBE3F1"></circle> <path d="M480.601 349.168C480.601 349.168 480.131 360.896 478.816 363.62C477.536 366.31 476.481 363.999 477.247 371.007C478.046 378.049 478.038 378.691 478.102 382.073C478.165 385.421 475.732 400.541 475.732 400.541L507.95 404.049L572.98 406.338L586.975 402.405C586.975 402.405 586.814 392.699 586.717 386.307C586.62 379.949 587.949 378.916 586.501 372.577C585.052 366.238 582.671 343.793 582.671 343.793L480.601 349.168Z" fill="#002F85"></path> <path d="M479.059 378.025L479.127 378.025C480.04 377.968 501.949 376.085 506.528 359.433C506.669 358.894 506.371 358.35 505.832 358.208C505.294 358.033 504.75 358.365 504.608 358.905C500.416 374.208 479.217 376.031 478.981 376.029C478.44 376.056 478.029 376.559 478.056 377.1C478.084 377.642 478.519 378.052 479.059 378.025Z" fill="#00215C"></path> <path d="M583.83 375.758C585.317 375.741 586.264 375.616 586.298 375.617C586.839 375.555 587.25 375.052 587.155 374.51C587.093 374.003 586.658 373.626 586.151 373.62C586.118 373.62 586.084 373.619 586.084 373.619C585.204 373.745 565.216 376.021 562.123 359.757C562.028 359.214 561.559 358.837 560.949 358.966C560.408 359.061 560.064 359.598 560.159 360.14C562.935 374.609 577.851 375.859 583.83 375.758Z" fill="#00215C"></path> <path d="M529.755 405.381C530.296 405.387 530.74 404.952 530.746 404.411L531.83 368.177C531.836 367.636 531.402 367.158 530.862 367.152C530.39 367.112 529.844 367.58 529.838 368.121L528.754 404.355C528.748 404.896 529.181 405.374 529.722 405.38L529.755 405.381Z" fill="#00215C"></path> <path d="M540.465 405.194C541.006 405.2 541.45 404.766 541.456 404.225L542.514 367.314C542.52 366.739 542.086 366.295 541.546 366.289C541.106 366.351 540.528 366.717 540.522 367.258L539.464 404.169C539.457 404.743 539.891 405.188 540.432 405.194L540.465 405.194Z" fill="#00215C"></path> <path d="M550.916 149.388L546.925 146.841L542.664 117.376L514.112 121.213L512.742 149.837L509.168 152.298L514.59 156.721L535.205 161.755L543.25 155.219L550.916 149.388Z" fill="#FFB094"></path> <path d="M418.077 218.528L401.009 198.671C401.009 198.671 382.158 185.837 379.784 187.597C377.409 189.357 368.463 209.833 368.463 209.833C368.463 209.833 381.57 214.365 396.301 220.091C396.518 220.171 412.642 235.472 412.642 235.472L418.077 218.528Z" fill="#FFB094"></path> <path d="M406.737 206.571C406.737 206.571 403.804 197.754 396.424 186.713C393.589 182.481 390.549 170.279 387.867 172.294C385.186 174.309 391.324 188.711 390.575 189.436C389.82 190.217 381.768 187.456 381.768 187.456L390.476 198.174L406.737 206.571Z" fill="#FFB094"></path> <path d="M385.985 190.285C385.985 190.285 360.829 170.236 358.839 172.092C356.849 173.948 376.864 190.846 376.864 190.846C376.864 190.846 352.003 176.772 350.441 178.844C348.88 180.915 373.996 197.473 373.996 197.473C373.996 197.473 347.697 188.685 346.793 190.938C345.889 193.19 371.345 204.179 371.345 204.179C371.345 204.179 349.365 201.09 348.601 203.071C347.831 205.108 368.463 209.833 368.463 209.833L382.092 213.103L385.985 190.285Z" fill="#FFB094"></path> <path d="M441.02 282.476C437.38 278.266 443.985 228.512 464.917 177.932L491.093 185.485C487.271 205.914 473.981 320.599 441.02 282.476Z" fill="#FFB094"></path> <path d="M623.009 295.077C626.985 291.184 624.529 241.053 607.863 188.911L581.151 194.267C583.266 214.944 587 330.335 623.009 295.077Z" fill="#FFB094"></path> <path d="M469.031 276.664C474.317 267.918 444.237 240.506 403.727 203.69L390.333 216.135L419.934 258.113C444.549 285.807 450.213 302.706 469.031 276.664Z" fill="#FFB094"></path> <path d="M621.333 280.951C630.049 286.285 615.949 324.462 596.913 375.786L579.296 370.896L586.27 320.007C595.389 284.094 592.644 266.484 621.333 280.951Z" fill="#FFB094"></path> <path d="M510.161 151.092C510.161 151.092 495.232 157.044 488.012 159.228C480.793 161.412 463.775 166.9 457.211 176.869C457.913 175.871 446.509 231.771 446.509 231.771C446.509 231.771 475.723 244.32 480.892 244.243C480.892 244.243 481.944 221.137 482.236 249.103C482.285 253.803 476.316 364.95 476.316 364.95C476.316 364.95 481.454 354.419 488.761 356.395C496.036 358.336 521.186 374.546 542.867 369.008C564.547 363.471 585.081 351.699 585.081 351.699C585.081 351.699 582.377 286.039 582.59 276.135C582.682 270.963 586.287 241.789 586.287 241.789C586.287 241.789 613.478 247.844 623.188 240.447C623.188 240.447 608.435 170.797 595.403 164.26C582.337 157.722 550.049 148.398 550.049 148.398C550.049 148.398 525.971 165.877 510.161 151.092Z" fill="#005BFF"></path> <path d="M541.643 151.021C537.017 153.578 532.405 153.782 530.121 154.054L535.733 164.588C536.375 164.527 539.414 164.029 545.559 159.857C551.062 156.12 552.057 152.097 553.129 149.047L546.368 147.737C545.813 147.996 545.207 149.052 541.643 151.021Z" fill="black"></path> <path d="M520.542 150.783C525.11 153.443 529.716 153.751 531.993 154.075L527.451 165.144C526.811 165.069 522.478 163.837 516.429 159.527C511.011 155.668 509.96 154.287 508.957 151.214L515.893 147.393C516.442 147.664 517.024 148.733 520.542 150.783Z" fill="black"></path> <path d="M541.766 149.101C537.14 151.658 532.733 153.591 530.449 153.864L536.274 161.926C536.916 161.866 539.537 162.109 545.682 157.936C551.185 154.2 552.199 151.059 553.271 148.009L546.491 145.817C545.936 146.076 545.33 147.132 541.766 149.101Z" fill="white"></path> <path d="M519.902 149.576C524.678 151.841 529.257 153.745 531.553 153.875L526.257 162.267C525.613 162.247 522.57 161.844 516.427 157.67C510.49 153.637 509.895 153.863 508.636 150.885L512.633 145.61C513.203 145.833 516.223 147.831 519.902 149.576Z" fill="white"></path> <path d="M534.463 356.367C553.99 356.046 574.992 341.812 575.196 341.645C575.435 341.478 575.506 341.175 575.339 340.936C575.173 340.698 574.87 340.627 574.632 340.793C574.393 340.959 551.282 356.624 531.3 355.249C513.176 353.997 493.579 345.526 489.781 343.826C490.564 343.26 492.668 342.472 497.751 344.017C504.618 346.09 525.456 352.343 542.011 346.038C542.282 345.94 542.42 345.637 542.322 345.365C542.224 345.094 541.922 344.955 541.65 345.053C525.435 351.227 504.832 345.044 498.066 343.007C490.222 340.653 488.637 343.441 488.464 343.777C488.395 343.912 488.394 344.047 488.46 344.183C488.492 344.319 488.592 344.421 488.727 344.49C488.962 344.595 511.004 354.919 531.255 356.297C532.301 356.377 533.382 356.389 534.463 356.367Z" fill="#E7E7F2"></path> <path d="M586.624 238.818C586.861 238.821 587.1 238.62 587.136 238.384L590.461 219.149C590.497 218.879 590.332 218.606 590.028 218.535C589.725 218.498 589.486 218.664 589.415 218.968L586.091 238.203C586.054 238.473 586.22 238.746 586.523 238.817C586.557 238.817 586.591 238.817 586.624 238.818Z" fill="#E7E7F2"></path> <path d="M482.707 235.92C482.47 235.922 482.232 235.722 482.195 235.486L478.871 216.25C478.834 215.98 479 215.708 479.303 215.637C479.607 215.6 479.845 215.766 479.916 216.07L483.24 235.305C483.277 235.575 483.111 235.847 482.808 235.919C482.774 235.919 482.741 235.919 482.707 235.92Z" fill="#E7E7F2"></path> <path d="M587.589 234.128C587.758 234.13 587.894 234.064 587.997 233.896L595.101 223.934C595.273 223.699 595.209 223.36 594.974 223.222C594.74 223.051 594.401 223.115 594.264 223.35L587.159 233.312C586.988 233.546 587.051 233.885 587.286 234.023C587.387 234.092 587.488 234.127 587.589 234.128Z" fill="#E7E7F2"></path> <path d="M481.742 231.23C481.573 231.232 481.437 231.166 481.334 230.998L474.229 221.036C474.058 220.801 474.122 220.462 474.356 220.324C474.591 220.153 474.929 220.216 475.067 220.451L482.172 230.414C482.343 230.648 482.279 230.987 482.044 231.125C481.944 231.194 481.843 231.229 481.742 231.23Z" fill="#E7E7F2"></path> <path d="M514.146 121.214L542.732 117.343L545.363 135.665C542.548 139.623 535.981 146.92 525.89 146.097C520.389 145.663 516.313 141.694 513.393 137.097L514.146 121.214Z" fill="#F17C53"></path> <path d="M555.523 88.3387C555.523 88.3387 554.497 110.406 550.31 119.286C546.123 128.165 541.822 138.125 529.957 138.904C518.092 139.683 507.586 127.832 504.291 111.463C500.997 95.0948 502.865 79.2242 502.865 79.2242L511.811 73.6785C511.811 73.6785 526.625 71.9858 533.201 72.8715C539.778 73.7571 555.523 88.3387 555.523 88.3387Z" fill="#FFB094"></path> <path d="M529.003 121.706C532.39 121.744 534.727 120.707 535.472 120.183C534.869 121.896 533.189 126.129 528.765 126.129C524.342 126.129 522.788 122.086 522.011 120.183C522.931 120.675 525.616 121.668 529.003 121.706Z" fill="white"></path> <path d="M528.531 117.652C528.599 117.652 528.667 117.619 528.735 117.553C529.114 116.914 529.153 116.408 528.858 115.627C528.728 115.219 528.357 115.148 528.087 115.077C528.02 115.076 527.919 115.041 527.852 115.007L527.616 114.936C527.179 114.796 526.741 114.656 526.373 114.348C526.005 114.039 525.64 113.426 525.748 112.819C525.786 112.515 525.924 112.212 526.063 111.91L526.097 111.842C527.516 108.815 528.266 105.206 528.137 101.688C528.139 101.519 528.039 101.416 527.904 101.415C527.769 101.413 527.699 101.582 527.698 101.717C527.795 105.099 527.113 108.608 525.729 111.5L525.695 111.567C525.522 111.904 525.349 112.273 525.311 112.679C525.199 113.59 525.629 114.407 526.131 114.818C526.566 115.161 527.037 115.336 527.509 115.476L527.744 115.546C527.845 115.581 527.913 115.582 528.014 115.617C528.216 115.653 528.418 115.689 528.484 115.859C528.68 116.436 528.677 116.74 528.401 117.177C528.332 117.311 528.331 117.48 528.431 117.583C528.43 117.651 528.497 117.651 528.531 117.652Z" fill="#EF754A"></path> <path d="M546.648 95.2209C547.08 96.6695 544.411 95.8591 542.784 95.1626C541.157 94.466 537.293 94.9914 535.913 94.647C534.533 94.3026 534.502 91.3453 536.919 91.2532C539.374 91.1336 545.497 91.4154 546.648 95.2209Z" fill="#623C22"></path> <path d="M510.234 94.8472C509.823 96.3039 512.496 95.4203 514.104 94.719C515.711 94.0177 519.588 94.4346 520.97 94.0719C522.347 93.6757 522.315 90.7446 519.889 90.7063C517.419 90.6058 511.27 91.0166 510.234 94.8472Z" fill="#623C22"></path> <path d="M515.007 103.747C514.889 102.105 515.669 100.758 516.75 100.737C517.831 100.716 518.803 102.029 518.921 103.671C519.04 105.312 518.259 106.66 517.178 106.681C516.098 106.702 515.126 105.388 515.007 103.747Z" fill="#412016"></path> <path d="M538.503 103.87C538.421 102.229 539.246 100.885 540.327 100.877C541.408 100.868 542.373 102.192 542.422 103.833C542.505 105.474 541.679 106.818 540.598 106.826C539.517 106.855 538.586 105.532 538.503 103.87Z" fill="#412016"></path> <path d="M539.281 103.696C539.256 103.206 539.502 102.805 539.825 102.802C540.148 102.8 540.435 103.195 540.45 103.684C540.475 104.174 540.228 104.575 539.906 104.578C539.583 104.586 539.305 104.191 539.281 103.696Z" fill="white"></path> <path d="M515.913 103.682C515.888 103.192 516.135 102.791 516.457 102.789C516.78 102.786 517.068 103.181 517.082 103.671C517.107 104.161 516.861 104.562 516.538 104.564C516.215 104.573 515.938 104.178 515.913 103.682Z" fill="white"></path> <path d="M501.708 103.928C501.708 103.928 493.356 74.7556 504.641 68.4247C515.893 62.1273 521.8 62.4644 521.8 62.4644C521.8 62.4644 549.485 57.6371 553.83 70.7038C558.175 83.7705 553.787 107.457 553.787 107.457L546.834 83.0678L510.639 75.7619L503.254 104.588L501.708 103.928Z" fill="#623C22"></path> <path d="M552.143 103.517C552.143 103.517 554.054 95.796 559.021 101.634C560.988 103.955 558.728 112.62 552.03 110.549C552.03 110.549 549.99 108.666 552.143 103.517Z" fill="#FFB094"></path> <path d="M555.665 108.663C556.206 108.669 556.748 108.506 557.191 108.139C557.293 108.073 557.295 107.904 557.262 107.802C557.196 107.666 557.095 107.631 556.993 107.731C555.833 108.733 553.783 107.864 553.281 107.453C553.315 107.419 553.349 107.386 553.383 107.319C553.726 106.917 554.376 106.18 554.152 105.062C554.056 104.621 553.857 104.281 553.622 104.109C553.421 103.972 553.219 103.936 553.05 103.934C553.398 102.991 554.301 100.837 555.481 100.986C558.754 101.361 558.651 104.47 558.65 104.606C558.648 104.741 558.714 104.877 558.815 104.878C558.917 104.879 559.019 104.779 559.021 104.644C559.021 104.61 559.066 103.663 558.637 102.712C558.242 101.828 557.41 100.703 555.487 100.479C553.699 100.289 552.576 104.03 552.541 104.165C552.506 104.266 552.538 104.368 552.571 104.436C552.638 104.504 552.705 104.538 552.773 104.505C552.773 104.505 553.147 104.341 553.448 104.547C553.616 104.65 553.715 104.888 553.813 105.193C554.006 106.007 553.493 106.542 553.185 106.911C553.048 107.078 552.945 107.212 552.876 107.347C552.842 107.414 552.84 107.583 552.973 107.754C553.274 108.061 554.483 108.684 555.665 108.663Z" fill="#EF754A"></path> <path d="M504.569 104.84C504.569 104.84 502.425 97.2085 497.629 103.173C495.745 105.552 498.282 114.135 504.895 111.877C504.895 111.877 506.876 109.938 504.569 104.84Z" fill="#FFB094"></path> <path d="M501.165 110.109C500.625 110.103 500.085 109.995 499.617 109.618C499.516 109.549 499.484 109.38 499.553 109.279C499.588 109.144 499.724 109.112 499.824 109.181C500.996 110.141 503.067 109.218 503.544 108.783C503.511 108.749 503.478 108.715 503.444 108.681C503.077 108.305 502.409 107.587 502.625 106.44C502.697 106.001 502.87 105.665 503.143 105.465C503.347 105.332 503.55 105.267 503.719 105.269C503.358 104.352 502.369 102.211 501.184 102.4C497.903 102.87 498.138 105.984 498.136 106.119C498.135 106.254 498.066 106.389 497.964 106.387C497.862 106.42 497.763 106.284 497.764 106.148C497.764 106.148 497.674 105.201 498.09 104.191C498.438 103.282 499.262 102.142 501.157 101.859C502.95 101.609 504.158 105.308 504.223 105.477C504.256 105.579 504.255 105.681 504.187 105.748C504.152 105.815 504.05 105.847 503.983 105.813C503.983 105.813 503.613 105.673 503.307 105.873C503.137 106.006 503.033 106.208 502.962 106.545C502.817 107.355 503.318 107.902 503.652 108.244C503.819 108.415 503.919 108.517 503.951 108.653C503.984 108.721 503.982 108.89 503.845 109.057C503.571 109.426 502.381 110.089 501.165 110.109Z" fill="#EF754A"></path> <path d="M497.013 70.9425C496.426 72.0517 495.267 73.0191 495.084 74.2343C494.902 75.4495 495.767 76.6089 496.294 77.7644C496.822 78.92 496.872 80.4759 495.581 81.1376C497.777 81.1285 499.689 79.2904 499.303 77.5279C500.317 77.5393 501.256 78.0909 501.619 78.8388C502.016 79.5872 501.803 80.5315 501.154 81.1328C502.405 81.0117 503.659 80.6877 504.478 79.9192C505.024 79.4182 505.302 78.7789 505.579 78.1396C506.619 75.7507 507.66 73.3618 508.7 71.0066C507.538 75.1862 510.491 79.8856 515.303 81.529C517.288 82.2277 519.65 82.4572 521.155 83.7252C522.327 84.6852 522.851 86.1112 524.057 87.0377C525.798 88.376 528.466 88.4061 530.899 88.3659C530.937 87.9606 530.228 87.9188 529.722 87.8793C528.642 87.7995 527.841 86.9451 527.614 86.0973C527.387 85.2156 527.6 84.3389 527.846 83.4625C528.674 84.9258 530.829 85.5249 532.787 85.6146C534.746 85.6705 536.742 85.3549 538.7 85.5122C541.669 85.7824 544.321 87.2324 547.254 87.7388C549.007 88.0629 550.798 88.0155 552.55 88.4072C554.471 88.8008 556.183 89.6992 557.966 90.3617C559.816 91.0588 562.073 91.5915 563.873 90.7665C561.687 89.8965 559.605 88.8249 557.693 87.6199C556.787 87.0349 555.784 86.1444 556.233 85.2704C557.224 87.2427 560.286 88.3254 562.76 87.5756C561.575 87.8327 560.3 87.1083 559.769 86.2232C559.239 85.3043 559.251 84.2562 559.262 83.242C559.321 81.0111 559.346 78.8135 559.405 76.5826C559.414 75.805 559.422 75.0275 559.127 74.2803C558.567 72.9891 557.057 72.0929 556.633 70.8033C556.405 70.0569 556.549 69.247 556.558 68.4694C556.587 65.8662 554.96 63.3796 552.649 61.5953C550.339 59.811 547.447 58.6288 544.486 57.6487C539.337 55.9338 533.778 54.7215 528.2 55.0982C523.873 55.3875 519.705 56.5915 515.638 57.7967C513.706 58.3497 511.673 58.9692 510.374 60.3071C509.281 61.4105 508.893 62.8601 508.54 64.2086C506.717 64.0866 504.827 63.9977 503.033 64.3156C501.239 64.6335 499.473 65.4588 498.58 66.7674C497.655 67.9742 497.738 69.5644 497.013 70.9425Z" fill="#9B5E34"></path> <g opacity="0.3"> <path opacity="0.3" d="M552.631 72.1781C552.321 72.7494 551.541 72.9773 550.901 72.8348C550.261 72.6923 549.692 72.2802 549.189 71.8687C548.386 71.2173 547.516 70.4974 547.359 69.4813C547.294 69.1762 547.299 68.8043 547.133 68.532C546.934 68.2254 546.597 68.0864 546.295 67.9815C545.353 67.6328 544.411 67.284 543.503 66.9357C542.662 66.6219 541.788 66.2739 541.187 65.6247C540.553 64.9413 540.293 63.9916 540.101 63.0765C539.908 62.2291 539.955 61.0462 540.802 60.7852C541.073 60.7207 541.343 60.7575 541.613 60.7944C543.871 61.2256 546.058 62.0279 548.072 63.1326C548.374 63.3051 548.676 63.4775 548.842 63.7837C549.007 64.0899 549.003 64.4618 548.999 64.8337C549.014 66.423 549.74 67.9528 550.877 69.0137C551.345 69.4586 551.915 69.8031 552.314 70.3486C552.713 70.8941 552.942 71.6067 552.631 72.1781Z" fill="white"></path> </g> <g opacity="0.3"> <path opacity="0.3" d="M527.914 59.4904C528.021 58.9507 528.632 58.7209 529.14 58.5913C529.648 58.428 530.156 58.2985 530.699 58.1355C531.851 57.8104 533.104 57.4864 534.213 57.9723C534.751 58.2151 535.252 58.7279 535.144 59.3015C535.002 59.9761 534.188 60.2374 533.477 60.3985C531.919 60.7528 530.223 61.3761 528.778 60.7174C528.308 60.5092 527.806 60.0302 527.914 59.4904Z" fill="white"></path> </g> <path d="M549.874 300.812C495.925 315.437 460.418 358.778 470.805 397.743C481.192 436.707 533.34 456.349 587.395 441.724C641.451 427.099 676.852 383.758 666.465 344.9C656.077 306.043 603.93 286.187 549.874 300.812Z" fill="#F91155"></path> <path d="M544.508 362.358C547.052 364.83 548.324 368.01 548.324 371.898C548.324 375.786 547.052 378.966 544.508 381.438C542.012 383.838 538.856 385.038 535.04 385.038C531.224 385.038 528.08 383.838 525.608 381.438C523.04 378.942 521.756 375.762 521.756 371.898C521.756 368.034 523.04 364.854 525.608 362.358C528.08 359.958 531.224 358.758 535.04 358.758C538.856 358.758 542.012 359.958 544.508 362.358ZM529.964 366.498C528.596 367.866 527.912 369.666 527.912 371.898C527.912 374.13 528.596 375.93 529.964 377.298C531.284 378.618 532.976 379.278 535.04 379.278C537.104 379.278 538.796 378.618 540.116 377.298C541.484 375.93 542.168 374.13 542.168 371.898C542.168 369.666 541.484 367.866 540.116 366.498C538.796 365.178 537.104 364.518 535.04 364.518C532.976 364.518 531.284 365.178 529.964 366.498ZM569.538 359.298V384.498H563.958V375.138H557.262C552.174 375.138 549.63 372.63 549.63 367.614V359.298H555.21V367.11C555.21 368.958 556.098 369.882 557.874 369.882H563.958V359.298H569.538ZM595.562 359.298V384.498H589.982V373.914H579.506V384.498H573.926V359.298H579.506V368.658H589.982V359.298H595.562ZM621.254 362.358C623.798 364.83 625.07 368.01 625.07 371.898C625.07 375.786 623.798 378.966 621.254 381.438C618.758 383.838 615.602 385.038 611.786 385.038C607.97 385.038 604.826 383.838 602.354 381.438C599.786 378.942 598.502 375.762 598.502 371.898C598.502 368.034 599.786 364.854 602.354 362.358C604.826 359.958 607.97 358.758 611.786 358.758C615.602 358.758 618.758 359.958 621.254 362.358ZM606.71 366.498C605.342 367.866 604.658 369.666 604.658 371.898C604.658 374.13 605.342 375.93 606.71 377.298C608.03 378.618 609.722 379.278 611.786 379.278C613.85 379.278 615.542 378.618 616.862 377.298C618.23 375.93 618.914 374.13 618.914 371.898C618.914 369.666 618.23 367.866 616.862 366.498C615.542 365.178 613.85 364.518 611.786 364.518C609.722 364.518 608.03 365.178 606.71 366.498Z" fill="white"></path> </g> <defs> <clipPath id="clip0_117:982"> <rect width="886" height="482" rx="30" fill="white"></rect> </clipPath> </defs> </svg> 