<?xml version="1.0" encoding="UTF-8"?> <svg xmlns="http://www.w3.org/2000/svg" width="886" height="482" viewBox="0 0 886 482" fill="none"> <g clip-path="url(#clip0_109:1562)"> <rect width="886" height="482" rx="30" fill="white"></rect> <path d="M595.829 285.046C595.719 282.076 595.528 279.126 595.257 276.2C594.846 276.239 594.48 275.937 594.44 275.526C594.104 272.079 593.658 268.665 593.104 265.288C593.038 264.88 593.314 264.494 593.722 264.427C593.227 261.497 592.652 258.594 591.999 255.722C591.596 255.814 591.194 255.563 591.101 255.16C590.319 251.795 589.43 248.471 588.436 245.192C588.316 244.797 588.539 244.378 588.935 244.258C588.061 241.422 587.11 238.621 586.084 235.856C585.696 236.001 585.265 235.805 585.119 235.418C583.903 232.188 582.583 229.008 581.165 225.883C580.994 225.506 581.16 225.062 581.536 224.891C580.299 222.198 578.989 219.547 577.607 216.939C577.242 217.133 576.789 216.995 576.594 216.631C574.966 213.592 573.241 210.612 571.424 207.696C571.206 207.345 571.312 206.883 571.663 206.664C570.085 204.158 568.439 201.7 566.727 199.291C566.391 199.532 565.923 199.454 565.682 199.118C563.673 196.321 561.576 193.591 559.393 190.934C559.13 190.615 559.176 190.143 559.495 189.88C557.606 187.603 555.654 185.379 553.642 183.212C553.34 183.494 552.866 183.478 552.584 183.176C550.231 180.665 547.796 178.23 545.285 175.877C544.983 175.594 544.967 175.121 545.249 174.818C543.082 172.807 540.858 170.855 538.581 168.966C538.318 169.285 537.846 169.331 537.526 169.068C534.87 166.885 532.14 164.788 529.343 162.779C529.007 162.538 528.929 162.07 529.17 161.734C526.761 160.022 524.303 158.376 521.797 156.798C521.578 157.149 521.116 157.255 520.765 157.037C517.849 155.22 514.869 153.495 511.83 151.867C511.466 151.672 511.328 151.218 511.522 150.854C508.914 149.472 506.263 148.162 503.57 146.925C503.399 147.301 502.955 147.467 502.578 147.296C499.453 145.878 496.273 144.558 493.043 143.342C492.656 143.196 492.46 142.765 492.605 142.377C489.84 141.351 487.038 140.4 484.203 139.526C484.083 139.922 483.664 140.145 483.269 140.025C479.99 139.031 476.666 138.142 473.301 137.36C472.898 137.267 472.647 136.865 472.739 136.462C469.867 135.809 466.964 135.234 464.034 134.739C463.967 135.147 463.582 135.423 463.173 135.356C459.796 134.803 456.382 134.356 452.935 134.021C452.524 133.981 452.222 133.615 452.261 133.204C449.335 132.933 446.386 132.742 443.415 132.632C443.401 133.045 443.055 133.369 442.641 133.356C440.924 133.3 439.2 133.272 437.469 133.272C435.739 133.272 434.014 133.3 432.297 133.356C431.884 133.369 431.538 133.045 431.523 132.632C428.553 132.742 425.604 132.933 422.677 133.204C422.716 133.615 422.415 133.981 422.003 134.021C418.557 134.356 415.143 134.803 411.765 135.356C411.357 135.423 410.972 135.147 410.904 134.739C407.974 135.234 405.072 135.809 402.199 136.462C402.292 136.865 402.041 137.267 401.638 137.36C398.273 138.142 394.949 139.031 391.67 140.025C391.274 140.145 390.856 139.922 390.735 139.526C387.9 140.4 385.099 141.351 382.334 142.377C382.479 142.765 382.283 143.196 381.896 143.342C378.665 144.558 375.486 145.878 372.36 147.296C371.984 147.467 371.54 147.301 371.368 146.925C368.676 148.162 366.024 149.472 363.416 150.854C363.61 151.218 363.473 151.672 363.108 151.867C360.069 153.495 357.089 155.22 354.173 157.037C353.822 157.255 353.361 157.149 353.141 156.798C350.636 158.376 348.177 160.022 345.769 161.734C346.009 162.07 345.932 162.538 345.596 162.779C342.798 164.788 340.069 166.885 337.412 169.068C337.092 169.331 336.621 169.285 336.357 168.966C334.08 170.855 331.857 172.807 329.689 174.818C329.971 175.121 329.956 175.594 329.654 175.877C327.142 178.23 324.708 180.665 322.355 183.176C322.072 183.478 321.598 183.494 321.296 183.212C319.284 185.379 317.333 187.603 315.444 189.88C315.762 190.143 315.808 190.615 315.546 190.934C313.363 193.591 311.265 196.321 309.257 199.118C309.015 199.454 308.548 199.532 308.212 199.291C306.5 201.7 304.854 204.158 303.276 206.664C303.626 206.883 303.733 207.345 303.514 207.696C301.697 210.612 299.973 213.592 298.345 216.631C298.15 216.995 297.696 217.133 297.331 216.939C295.95 219.547 294.639 222.198 293.402 224.891C293.778 225.062 293.945 225.506 293.774 225.883C292.355 229.008 291.036 232.188 289.819 235.418C289.674 235.805 289.242 236.001 288.855 235.856C287.829 238.621 286.878 241.422 286.004 244.258C286.399 244.378 286.622 244.797 286.502 245.192C285.509 248.471 284.619 251.795 283.838 255.16C283.744 255.563 283.342 255.814 282.939 255.722C282.286 258.594 281.711 261.497 281.217 264.426C281.625 264.494 281.901 264.879 281.834 265.288C281.28 268.665 280.834 272.079 280.499 275.526C280.459 275.937 280.093 276.239 279.681 276.2C279.41 279.126 279.219 282.075 279.109 285.046C279.523 285.06 279.847 285.406 279.833 285.819C279.778 287.537 279.75 289.261 279.75 290.992C279.75 292.722 279.778 294.447 279.833 296.164C279.847 296.577 279.523 296.923 279.109 296.938C279.219 299.908 279.41 302.857 279.681 305.784C280.093 305.745 280.459 306.046 280.499 306.458C280.834 309.904 281.28 313.318 281.834 316.696C281.901 317.104 281.625 317.489 281.217 317.557C281.711 320.487 282.286 323.389 282.939 326.262C283.342 326.169 283.744 326.42 283.838 326.823C284.619 330.188 285.509 333.512 286.502 336.791C286.622 337.187 286.399 337.605 286.004 337.726C286.878 340.561 287.829 343.362 288.855 346.127C289.242 345.982 289.674 346.178 289.819 346.565C291.036 349.795 292.355 352.975 293.774 356.101C293.945 356.477 293.778 356.921 293.402 357.093C294.639 359.785 295.95 362.437 297.331 365.045C297.696 364.851 298.15 364.988 298.345 365.353C299.973 368.392 301.697 371.371 303.514 374.287C303.733 374.639 303.626 375.1 303.276 375.32C304.854 377.825 306.5 380.284 308.212 382.692C308.548 382.452 309.015 382.529 309.257 382.865C311.265 385.663 313.363 388.392 315.546 391.049C315.808 391.369 315.762 391.84 315.444 392.103C317.333 394.381 319.284 396.604 321.296 398.772C321.598 398.49 322.072 398.505 322.355 398.807C324.708 401.319 327.142 403.753 329.654 406.106C329.956 406.389 329.971 406.863 329.689 407.165C331.857 409.177 334.08 411.128 336.358 413.017C336.621 412.698 337.092 412.653 337.412 412.915C340.069 415.098 342.798 417.196 345.596 419.204C345.932 419.445 346.009 419.913 345.769 420.249C348.177 421.961 350.636 423.607 353.141 425.185C353.361 424.835 353.822 424.728 354.173 424.947C357.089 426.764 360.069 428.488 363.108 430.116C363.473 430.311 363.61 430.765 363.416 431.13C366.024 432.511 368.676 433.822 371.368 435.059C371.54 434.683 371.984 434.516 372.36 434.687C375.486 436.106 378.665 437.425 381.896 438.642C382.283 438.787 382.479 439.219 382.334 439.606C385.099 440.632 387.9 441.583 390.735 442.457C390.856 442.062 391.274 441.839 391.67 441.959C394.949 442.952 398.273 443.841 401.638 444.623C402.041 444.717 402.292 445.119 402.199 445.522C405.072 446.175 407.974 446.75 410.904 447.244C410.972 446.836 411.357 446.56 411.765 446.627C415.143 447.181 418.557 447.627 422.003 447.962C422.415 448.002 422.716 448.368 422.677 448.78C425.604 449.051 428.553 449.242 431.523 449.351C431.538 448.938 431.884 448.614 432.297 448.628C434.014 448.683 435.738 448.711 437.469 448.711C439.2 448.711 440.924 448.683 442.641 448.628C443.055 448.614 443.401 448.938 443.415 449.351C446.385 449.242 449.335 449.051 452.261 448.78C452.222 448.368 452.524 448.002 452.935 447.962C456.382 447.627 459.796 447.181 463.173 446.627C463.581 446.56 463.967 446.836 464.034 447.244C466.964 446.75 469.867 446.175 472.739 445.522C472.647 445.119 472.898 444.717 473.3 444.623C476.666 443.841 479.99 442.952 483.269 441.959C483.664 441.839 484.083 442.062 484.203 442.457C487.038 441.583 489.84 440.632 492.604 439.606C492.46 439.219 492.656 438.787 493.043 438.642C496.273 437.425 499.453 436.106 502.578 434.687C502.955 434.516 503.399 434.683 503.57 435.059C506.263 433.822 508.914 432.511 511.522 431.13C511.328 430.765 511.466 430.311 511.83 430.116C514.869 428.488 517.849 426.764 520.765 424.947C521.116 424.728 521.578 424.835 521.797 425.185C524.303 423.607 526.761 421.961 529.17 420.249C528.929 419.913 529.007 419.445 529.343 419.204C532.14 417.196 534.87 415.098 537.526 412.915C537.846 412.653 538.318 412.698 538.581 413.017C540.858 411.128 543.082 409.177 545.249 407.165C544.967 406.863 544.983 406.389 545.285 406.106C547.796 403.753 550.231 401.319 552.584 398.807C552.866 398.505 553.34 398.49 553.642 398.772C555.654 396.604 557.606 394.381 559.495 392.103C559.176 391.84 559.13 391.369 559.393 391.049C561.576 388.392 563.673 385.663 565.682 382.865C565.923 382.529 566.391 382.452 566.727 382.692C568.439 380.284 570.085 377.825 571.663 375.32C571.312 375.1 571.206 374.639 571.424 374.287C573.241 371.372 574.966 368.392 576.594 365.353C576.789 364.988 577.242 364.851 577.607 365.045C578.989 362.437 580.299 359.785 581.536 357.093C581.16 356.921 580.994 356.477 581.165 356.101C582.583 352.975 583.903 349.795 585.119 346.565C585.265 346.178 585.696 345.982 586.084 346.127C587.11 343.362 588.061 340.561 588.935 337.726C588.539 337.605 588.316 337.187 588.436 336.791C589.43 333.512 590.319 330.188 591.101 326.823C591.194 326.42 591.596 326.169 591.999 326.262C592.652 323.389 593.227 320.487 593.722 317.557C593.314 317.489 593.038 317.104 593.104 316.696C593.658 313.318 594.104 309.904 594.44 306.458C594.48 306.046 594.846 305.745 595.257 305.784C595.528 302.857 595.719 299.908 595.829 296.938C595.416 296.923 595.092 296.577 595.105 296.164C595.161 294.447 595.188 292.722 595.188 290.992C595.188 289.261 595.161 287.537 595.105 285.82C595.092 285.406 595.416 285.06 595.829 285.046Z" fill="#D0EDFF" stroke="#002F85" stroke-width="1.5" stroke-linecap="round" stroke-dasharray="10 10"></path> <rect x="24" y="432" width="837" height="4" rx="2" fill="#002F85"></rect> <path d="M207.052 336.932C204.255 357.454 219.128 426.97 219.637 432L236.925 431.497C236.925 431.497 236.925 425.662 237.942 414.093C238.959 402.524 239.976 366.509 239.976 347.092C239.976 327.676 249.892 306.55 249.892 306.55L213.789 297.898C213.789 297.898 209.085 321.439 207.052 336.932Z" fill="#FFB094"></path> <path d="M259.17 405.801C256.5 435.576 247.22 540.934 247.22 540.934C247.22 540.934 265.144 556.203 279.001 556.203C292.857 556.203 304.934 550.095 314.976 551.368C324.892 552.64 330.739 551.495 330.739 551.495L331.883 506.069L335.316 552.258C335.316 552.258 349.935 559.511 364.554 559.766C380.063 559.893 406.758 547.805 406.758 547.805L395.699 415.726L262.348 389.005L259.17 405.801Z" fill="#3C251D"></path> <path d="M342.944 204.757C342.944 204.757 367.097 210.865 397.479 224.098C397.479 224.098 381.844 308.715 373.199 345.106L376.504 419.162C350.444 429.342 321.461 429.723 295.019 420.435L268.705 411.146L265.273 336.199L257.773 224.734C257.773 224.734 294.257 206.92 305.952 206.538C317.774 206.157 342.944 204.757 342.944 204.757Z" fill="white"></path> <path d="M336.208 162.64L343.454 211.502L310.656 210.738L310.148 169.384L336.208 162.64Z" fill="#FFB094"></path> <path d="M351.587 149.126C351.587 149.126 355.759 145.563 358.21 147.97C360.776 150.517 360.343 159.04 352.062 160.164C351.936 160.152 350.323 155.652 351.587 149.126Z" fill="#F17C53"></path> <path d="M313.009 174.063C313.009 174.063 315.356 205.3 340.895 195.492L338.87 183.886L313.009 174.063Z" fill="#F17C53"></path> <path d="M353.774 131.469C353.774 131.469 356.608 185.671 340.896 188.037C327.972 189.984 316.224 181.344 313.736 178.319C311.248 175.294 305.185 169.274 302.297 151.292C299.486 133.301 310.056 126.297 321.224 125.778C332.392 125.258 353.774 131.469 353.774 131.469Z" fill="#FFB094"></path> <path d="M337.77 173.737C341.37 173.634 343.819 172.61 344.593 172.112C344.011 173.669 342.369 177.528 337.668 177.707C332.967 177.886 331.178 174.329 330.287 172.656C331.281 173.059 334.169 173.84 337.77 173.737Z" fill="white"></path> <path d="M323.382 155.857C323.104 154.014 323.775 152.632 324.812 152.664C325.85 152.695 326.842 154.236 327.139 155.993C327.417 157.836 326.746 159.218 325.708 159.186C324.671 159.155 323.661 157.7 323.382 155.857Z" fill="#3C251D"></path> <path d="M325.482 155.927C325.416 155.318 325.695 154.801 326.097 154.775C326.499 154.749 326.886 155.221 326.939 155.83C327.004 156.439 326.725 156.957 326.323 156.983C325.922 157.016 325.547 156.544 325.482 155.927Z" fill="white"></path> <path d="M343.569 153.629C343.338 151.772 344.033 150.392 345.054 150.44C346.075 150.487 347.016 152.05 347.247 153.907C347.478 155.764 346.784 157.143 345.762 157.096C344.76 156.963 343.819 155.399 343.569 153.629Z" fill="#3C251D"></path> <path d="M345.575 154.293C345.509 153.684 345.788 153.167 346.19 153.141C346.592 153.115 346.979 153.587 347.032 154.196C347.098 154.805 346.819 155.323 346.417 155.349C346.015 155.382 345.641 154.91 345.575 154.293Z" fill="white"></path> <path d="M336.497 166.714C336.37 166.702 336.37 166.702 336.244 166.69C335.786 166.135 335.696 165.743 336.01 165.134C336.173 164.766 336.565 164.675 336.83 164.573C336.956 164.585 336.956 164.585 337.095 164.471L337.36 164.368C337.891 164.163 338.282 164.073 338.698 163.729C339.114 163.386 339.416 162.903 339.338 162.384C339.236 162.119 339.133 161.854 338.892 161.703C337.212 159.241 336.214 156.333 336.24 153.396C336.252 153.269 336.39 153.155 336.517 153.167C336.644 153.179 336.758 153.318 336.746 153.444C336.732 156.255 337.731 159.163 339.296 161.486C339.525 161.763 339.754 162.041 339.718 162.421C339.898 163.205 339.446 163.929 338.903 164.26C338.487 164.604 337.957 164.809 337.438 164.887L337.173 164.989C337.046 164.977 336.908 165.092 336.908 165.092C336.643 165.194 336.516 165.182 336.377 165.297C336.202 165.791 336.178 166.045 336.521 166.461C336.648 166.473 336.636 166.6 336.497 166.714Z" fill="#F17C53"></path> <path d="M349.045 129.81C349.045 129.81 352.351 139.768 354.385 144.985C354.385 144.985 355.401 125.484 354.384 124.338C353.367 123.32 349.045 129.81 349.045 129.81Z" fill="black"></path> <path d="M311.446 134.916C309.995 142.063 307.924 149.023 305.359 155.808C305.021 156.67 304.406 157.762 303.52 157.677C302.887 157.616 302.43 157.061 302.086 156.645C296.86 149.881 294.509 141.092 295.448 132.617C300.738 133.38 306.192 133.774 311.446 134.916Z" fill="black"></path> <path d="M295.653 118.252C292.946 124.189 294.743 137.065 295.98 142.762C307.87 145.238 308.132 144.407 311.084 142.49C316.115 139.225 315.267 133.803 318.356 130.465C321.445 127.128 327.199 125.862 336.346 126.068C345.493 126.275 359.117 136.567 360.082 134.46C361.048 132.353 358.955 121.126 356.615 116.73C352.164 108.369 344.129 102.623 332.769 102.587C321.41 102.551 299.037 110.832 295.653 118.252Z" fill="#353535"></path> <path d="M308.269 158.769C308.269 158.769 307.334 149.86 298.726 154.404C295.368 156.128 296.447 166.202 306.782 166.297C306.782 166.297 310.218 165.092 308.269 158.769Z" fill="#FFB094"></path> <path d="M315.452 146.421C317.298 143.146 323.856 141.346 327.265 143.078C328.229 143.682 327.957 145.19 326.909 145.473C325.203 145.948 323.317 145.64 321.497 145.977C319.677 146.314 318.175 147.321 316.367 147.531C315.711 147.724 315.126 147.157 315.452 146.421Z" fill="#3C251D"></path> <path d="M350.256 144.384C348.345 144.329 346.635 143.526 344.736 143.344C342.965 143.175 341.12 143.765 339.361 143.469C338.108 143.221 338.253 141.701 339.073 141.14C342.214 139.012 348.86 140.288 350.998 143.305C351.341 143.721 350.888 144.445 350.256 144.384Z" fill="#3C251D"></path> <g opacity="0.3"> <g opacity="0.3"> <path d="M308.056 118.387C308.819 118.515 309.582 118.769 310.472 118.896C310.853 119.024 311.362 119.151 311.87 119.024C312.506 118.896 313.014 118.26 313.523 117.878C315.048 116.606 317.209 116.479 319.243 116.351C320.514 116.224 321.786 116.224 322.93 116.479C323.692 116.606 324.455 116.988 325.218 117.115C327.633 117.497 330.049 115.97 331.193 113.807C331.193 113.679 331.32 113.679 331.32 113.679C331.32 113.298 331.066 113.17 330.811 113.17C330.303 112.916 330.049 112.407 329.667 111.898C327.76 109.608 324.328 108.717 321.659 109.862C319.37 110.753 317.845 112.916 315.557 113.934C314.285 114.57 312.887 114.825 311.616 114.697C310.853 114.57 310.09 114.443 309.455 114.697C308.438 115.079 307.929 116.097 307.548 117.115C307.421 117.497 307.421 117.878 307.675 118.133C307.548 118.26 307.802 118.26 308.056 118.387Z" fill="white"></path> </g> </g> <path d="M399.671 230.375C412.928 238.898 426.399 344.988 426.399 344.988C431.946 367.674 422.432 388.091 401.483 372.622C388.397 362.96 376.441 282.584 376.441 282.584L399.671 230.375Z" fill="#FFB094"></path> <path d="M341.8 200.048L349.046 209.591C349.046 209.591 346.249 227.532 333.156 228.041C320.062 228.55 308.367 208.573 308.367 208.573L311.164 201.956L341.8 200.048Z" fill="#FFB094"></path> <path d="M310.655 200.684C310.655 200.684 315.867 257.18 312.435 283.265C309.003 309.35 290.951 383.151 291.968 406.31C293.112 429.468 300.104 463.188 300.104 463.188C300.104 463.188 292.477 467.514 278.748 455.807C264.891 444.101 248.238 441.174 248.238 441.174C248.238 441.174 248.747 401.983 253.45 384.424C258.154 366.864 259.171 311.64 259.171 311.64L255.357 329.836C255.357 329.836 239.34 331.618 233.619 321.056C227.899 310.495 214.805 315.203 204 303.242C204 303.242 230.314 235.549 239.975 226.769C249.637 217.989 298.324 207.301 298.324 207.301L310.655 200.684Z" fill="#005BFF"></path> <path d="M341.798 200.048C341.798 200.048 350.824 220.788 351.078 231.095C351.332 241.402 356.29 310.877 358.832 341.924C361.375 372.972 375.612 451.481 375.612 451.481C375.612 451.481 392.011 453.262 397.477 444.864C402.944 436.466 392.901 410.381 389.087 375.644C386.418 351.213 385.019 302.479 385.019 302.479C385.019 302.479 380.981 326.556 385.938 327.319C390.896 328.083 408.914 321.715 415.524 311.917C422.135 302.246 430.021 302.479 430.021 302.479C430.021 302.479 411.334 230.841 396.206 223.588C381.079 216.335 354.51 206.919 354.51 206.919L341.798 200.048Z" fill="#005BFF"></path> <path d="M301.374 336.073C301.882 336.073 302.391 335.691 302.391 335.182C304.552 319.149 296.797 277.668 295.399 270.797L306.077 267.234L305.95 266.343L299.34 207.048C299.34 206.411 298.831 206.03 298.196 206.157C297.687 206.284 297.179 206.793 297.306 207.302L303.916 265.707L293.111 269.27L293.238 270.16C293.365 270.669 302.518 318.004 300.357 334.8C300.23 335.309 300.738 335.945 301.247 335.945C301.374 336.073 301.374 336.073 301.374 336.073Z" fill="#00A2FF"></path> <path d="M359.851 339.251H359.978C360.487 339.124 360.868 338.615 360.868 337.979C359.216 329.199 365.826 275.884 365.826 275.375L365.953 274.866L358.961 268.631C361.504 237.584 355.783 206.918 355.656 206.664C355.529 206.155 355.021 205.773 354.385 205.773C353.877 205.9 353.495 206.409 353.495 207.045C353.495 207.3 359.343 238.093 356.673 269.013V269.522L363.538 275.63C362.775 281.61 357.055 329.581 358.58 338.233C358.834 338.997 359.343 339.251 359.851 339.251Z" fill="#00A2FF"></path> <path d="M350.572 419.418C352.097 419.418 353.496 419.418 354.767 419.291C355.148 419.291 355.403 418.909 355.276 418.654C355.276 418.273 355.021 418.018 354.64 418.018C337.86 419.418 303.791 411.529 303.028 408.857C303.41 408.093 308.113 408.729 311.8 409.366C320.825 410.638 334.428 412.547 343.326 406.566C343.58 406.312 343.707 405.93 343.453 405.676C343.199 405.421 342.818 405.294 342.563 405.548C334.173 411.274 320.825 409.366 311.927 408.093C306.079 407.33 302.647 406.821 301.884 408.475C301.757 408.729 301.63 409.111 302.011 409.747C304.427 413.31 333.792 419.418 350.572 419.418Z" fill="#DBE3F1"></path> <path d="M312.822 131.214C313.764 129.387 315.644 128.417 317.64 127.585C325.898 124.03 335.232 123.901 344.066 125.002C345.584 125.147 352.156 114.39 353.638 114.916C356.994 115.876 354.796 128.969 357.525 131.148C358.591 132.017 359.657 132.886 359.928 134.062C360.108 134.846 360.035 135.606 359.963 136.366C359.89 137.126 359.805 138.013 359.238 138.598C358.243 139.653 356.369 139.218 355.026 138.578C351.224 136.936 347.561 135.179 344.061 133.054C344.392 133.597 344.838 134.279 344.892 135.051C344.946 135.823 344.62 136.559 344.077 136.891C343.673 137.108 343.281 137.198 342.775 137.15C339.449 137.215 336.316 135.253 334.811 132.297C334.564 133.551 334.189 134.794 333.942 136.048C333.905 136.428 333.73 136.923 333.453 137.152C333.314 137.266 333.049 137.369 332.784 137.471C330.192 137.862 327.945 135.985 326.078 134.145C324.555 132.721 323.043 131.17 321.519 129.746C320.602 131.32 319.673 133.021 318.756 134.594C318.292 135.445 312.59 141.646 311.782 142.08C310.432 142.846 313.807 136.933 313.043 135.581C311.887 134.32 312.056 132.547 312.822 131.214Z" fill="#353535"></path> <path d="M432.676 376.28L445.625 441.147L427.746 443.379C427.746 443.379 376.712 358.565 402.208 346.777C428.326 334.702 432.676 376.28 432.676 376.28Z" fill="#FFB094"></path> <path d="M430.056 414.85L446.073 435.912C446.073 435.912 454.788 457.38 452.602 459.236C450.339 461.194 428.489 465.945 428.489 465.945C428.489 465.945 426.749 451.931 424.118 436.136C424.093 435.958 413.189 413.803 413.189 413.803L430.056 414.85Z" fill="#FFB094"></path> <path d="M439.478 428.586C439.478 428.586 447.521 433.343 456.711 442.934C460.326 446.597 471.575 452.169 469.083 454.432C466.592 456.695 453.662 447.638 452.848 448.299C451.933 448.884 452.982 457.455 452.982 457.455L444.248 446.619L439.478 428.586Z" fill="#FFB094"></path> <path d="M451.095 452.546C451.095 452.546 465.54 481.645 463.328 483.323C461.192 484.899 448.659 461.523 448.659 461.523C448.659 461.523 457.43 489.069 455.039 490.137C452.674 491.383 441.664 462.794 441.664 462.794C441.664 462.794 444.787 490.872 442.396 491.304C440.005 491.736 434.415 464.191 434.415 464.191C434.415 464.191 432.929 486.75 430.793 487.054C428.656 487.359 428.31 465.97 428.31 465.97L427.919 451.854L451.095 452.546Z" fill="#FFB094"></path> <path d="M478.761 184.21C475.165 191.935 463.512 190.536 456.519 195.464C451.791 198.794 449.594 205.187 450.792 210.847C451.991 216.507 456.253 221.302 461.58 223.699C466.109 225.697 471.569 226.23 475.165 229.626C480.093 234.288 480.093 243.011 485.687 246.74C488.151 248.405 491.28 248.738 494.277 249.004C502.335 249.804 510.925 250.469 517.984 246.474C521.513 244.476 524.377 241.479 528.106 239.881C536.297 236.285 545.686 240.547 553.345 245.075C561.069 249.67 569.46 254.865 578.25 253.133C594.898 249.937 600.425 224.765 617.273 222.634C620.27 222.234 623.533 222.634 626.263 221.369C630.192 219.437 631.79 214.243 630.392 210.048C628.993 205.919 625.264 202.856 621.202 201.324C619.471 200.658 617.54 200.126 616.274 198.727C614.077 196.13 615.475 192.068 617.739 189.604C620.07 187.14 623.133 185.409 625.064 182.678C628.927 177.151 626.729 169.16 622.068 164.232C617.406 159.371 610.88 156.841 604.754 154.044C601.757 152.712 598.694 151.18 596.829 148.45C594.299 144.721 594.632 139.86 593.899 135.398C591.502 121.081 577.451 112.024 564.266 106.031C558.872 103.567 552.878 101.303 547.151 102.834C544.355 103.633 541.891 105.232 539.094 106.031C534.499 107.296 529.238 106.097 525.176 108.561C519.116 112.357 519.449 122.213 513.589 126.275C511.258 127.873 508.262 128.339 505.931 129.937C498.739 134.998 502.535 147.185 497.074 154.11C492.679 159.704 483.423 160.437 480.426 166.829C478.029 172.29 481.225 178.949 478.761 184.21Z" fill="#AB2F17"></path> <path d="M485.753 439.459C484.021 486.673 491.679 575.374 489.215 587.96C486.752 600.546 468.705 626.517 495.142 736.327L519.981 737.126C519.981 737.126 523.71 633.575 527.706 595.285C531.701 556.994 547.883 441.856 547.883 441.856L485.753 439.459Z" fill="#FFB094"></path> <path d="M550.081 439.459C548.349 486.673 556.007 575.374 553.544 587.96C551.08 600.546 533.033 626.517 559.47 736.327L584.309 737.126C584.309 737.126 588.038 633.575 592.034 595.285C596.029 556.994 612.211 441.856 612.211 441.856L550.081 439.459Z" fill="#FFB094"></path> <path d="M617.939 233.155C617.206 232.157 616.474 231.357 615.808 230.625C604.621 219.437 573.322 211.047 573.322 211.047L528.772 209.848C528.772 209.848 506.197 213.644 492.213 220.636C485.487 223.966 481.691 226.962 478.761 233.155C503.999 238.216 529.771 287.828 555.009 287.362C576.186 287.095 596.763 237.417 617.939 233.155Z" fill="#FFB094"></path> <path d="M565.995 178.882C565.995 178.882 565.329 204.787 567.127 206.851C568.992 208.982 576.383 211.779 576.383 211.779C576.383 211.779 560.468 221.102 545.684 220.436C530.901 219.703 525.906 210.247 525.906 210.247C525.906 210.247 533.165 207.917 534.097 204.653C535.029 201.39 535.562 173.755 535.562 173.755L565.995 178.882Z" fill="#FFB094"></path> <path d="M565.818 163.599L535.728 160.218L535.733 180.175C538.425 184.519 544.707 192.526 554.367 191.613C559.634 191.132 563.023 187.307 565.823 182.256L565.818 163.599Z" fill="#F17C53"></path> <path d="M567.734 121.189C567.734 121.189 575.631 127.354 576.224 138.318C576.816 149.282 573.041 165.828 567.734 177.766C562.427 189.704 546.436 191.384 535.119 175.076C523.802 158.767 524.244 141.484 535.89 125.86C547.537 110.237 567.734 121.189 567.734 121.189Z" fill="#FFB094"></path> <path d="M556.103 166.563C556.036 166.563 555.903 166.563 555.903 166.563C555.503 166.097 555.37 165.497 555.57 164.965C555.637 164.832 555.703 164.765 555.77 164.765C556.436 164.632 557.102 164.499 557.701 164.166C558.167 163.899 558.633 163.367 558.7 162.767C558.7 162.301 558.433 161.835 558.167 161.369L558.034 161.169C556.302 158.172 556.236 154.443 556.169 151.446C556.169 151.313 556.302 151.114 556.436 151.114C556.436 151.114 556.702 151.247 556.769 151.38C556.835 154.51 556.902 157.973 558.567 160.836L558.7 161.036C559.033 161.569 559.366 162.101 559.366 162.767C559.366 163.5 558.9 164.232 558.1 164.698C557.501 165.031 556.835 165.165 556.169 165.298C556.103 165.564 556.236 165.897 556.369 166.097C556.502 166.23 556.436 166.43 556.369 166.496C556.236 166.496 556.169 166.563 556.103 166.563Z" fill="#F17C53"></path> <path d="M546.453 172.479C546.453 172.479 547.793 173.852 549.481 175.18C550.929 176.388 551.894 177.837 555.029 177.958C558.648 178.078 558.848 176.388 560.295 175.18C561.501 174.094 562.17 172.72 562.17 172.72L546.453 172.479Z" fill="#F91155"></path> <path d="M546.454 172.479C546.454 172.479 552.967 170.668 553.811 170.909C555.017 171.272 555.017 171.513 555.379 171.513C555.982 171.513 556.344 170.789 557.55 171.03C558.635 171.272 562.171 172.721 562.171 172.721C562.171 172.721 559.238 172.841 555.017 172.841C551.157 172.721 546.454 172.479 546.454 172.479Z" fill="#CF003D"></path> <path d="M558.815 175.756C559.418 175.635 561.288 173.084 561.77 172.722H548.141C548.141 172.722 548.262 172.843 548.382 172.843C548.744 173.084 549.351 174.006 549.833 174.127C552.919 177.449 556.358 177.219 558.815 175.756Z" fill="white"></path> <path d="M536.328 146.166C538.558 143.127 545.014 139.874 547.944 143.66C548.133 143.875 548.059 144.397 547.717 144.423C546.064 144.551 544.534 144.039 542.829 144.229C540.615 144.515 538.757 145.691 536.894 146.81C536.565 147.008 536.07 146.53 536.328 146.166Z" fill="#AB2F17"></path> <path d="M570.012 146.166C567.782 143.127 561.327 139.874 558.396 143.66C558.207 143.875 558.282 144.397 558.624 144.423C560.276 144.551 561.807 144.039 563.512 144.229C565.726 144.515 567.584 145.691 569.446 146.81C569.775 147.008 570.271 146.53 570.012 146.166Z" fill="#AB2F17"></path> <path d="M554.808 107.163C548.082 106.23 541.223 107.03 535.496 110.825C528.571 115.42 523.31 123.078 521.911 131.336C521.245 135.331 521.112 139.46 521.445 143.522C521.578 145.32 521.911 153.578 523.643 154.51C529.569 157.773 529.912 150.221 533.441 143.522C536.97 136.823 545.718 125.798 547.049 126.53C552.71 129.793 561.64 129.177 567.213 134.091C572.785 139.005 573.279 148.25 575.276 154.51C576.342 153.178 583.376 142.39 583.642 140.725C584.774 133.467 583.243 125.875 579.514 119.615C576.184 114.022 568.592 110.759 562.599 108.961C560.002 108.162 557.405 107.562 554.808 107.163Z" fill="#AB2F17"></path> <path d="M530.767 157.44C530.767 157.44 527.971 148.25 520.379 154.843C517.382 157.44 520.712 167.762 530.834 165.697C530.834 165.697 533.964 163.633 530.767 157.44Z" fill="#FFB094"></path> <path d="M570.666 157.44C570.666 157.44 573.463 148.25 581.055 154.843C584.051 157.44 580.722 167.762 570.6 165.697C570.6 165.697 567.47 163.633 570.666 157.44Z" fill="#FFB094"></path> <path d="M528.904 162.634C527.638 163.167 524.775 163.766 523.044 162.567C522.91 162.501 522.91 162.301 522.977 162.168C522.977 162.168 523.243 162.035 523.376 162.101C525.108 163.3 528.238 162.434 528.97 161.968L528.77 161.835C528.238 161.369 527.305 160.436 527.638 159.171C527.772 158.638 528.105 158.239 528.504 158.039C528.837 157.906 529.103 157.839 529.37 157.906C528.904 156.774 527.505 154.177 525.707 154.243C523.976 154.31 522.644 154.843 521.845 155.775C520.846 156.907 520.913 158.305 520.913 158.305C520.913 158.505 520.779 158.638 520.646 158.638C520.513 158.638 520.38 158.505 520.313 158.372C520.313 158.372 520.247 156.707 521.379 155.375C522.311 154.31 523.776 153.777 525.641 153.644C528.371 153.511 529.969 157.973 530.102 158.172C530.169 158.305 530.102 158.372 530.036 158.505C529.969 158.572 529.836 158.638 529.703 158.572C529.703 158.572 529.17 158.372 528.704 158.572C528.437 158.705 528.238 158.971 528.171 159.304C527.905 160.237 528.637 160.969 529.103 161.369C529.303 161.569 529.503 161.702 529.57 161.901C529.636 162.035 529.636 162.168 529.37 162.368C529.303 162.434 529.103 162.567 528.904 162.634Z" fill="#F17C53"></path> <path d="M572.531 162.634C573.796 163.167 576.66 163.766 578.391 162.567C578.524 162.501 578.524 162.301 578.458 162.168C578.458 162.168 578.191 162.035 578.058 162.101C576.327 163.3 573.197 162.434 572.464 161.968L572.664 161.835C573.197 161.369 574.129 160.436 573.796 159.171C573.663 158.638 573.33 158.239 572.93 158.039C572.598 157.906 572.331 157.839 572.065 157.906C572.531 156.774 573.929 154.177 575.727 154.243C577.459 154.31 578.791 154.843 579.59 155.775C580.589 156.907 580.522 158.305 580.522 158.305C580.522 158.505 580.655 158.638 580.788 158.638C580.922 158.638 581.055 158.505 581.121 158.372C581.121 158.372 581.188 156.707 580.056 155.375C579.124 154.31 577.659 153.777 575.794 153.644C573.064 153.511 571.465 157.973 571.332 158.172C571.266 158.305 571.332 158.372 571.399 158.505C571.465 158.572 571.599 158.638 571.732 158.572C571.732 158.572 572.265 158.372 572.731 158.572C572.997 158.705 573.197 158.971 573.263 159.304C573.53 160.237 572.797 160.969 572.331 161.369C572.131 161.569 571.932 161.702 571.865 161.901C571.798 162.035 571.798 162.168 572.065 162.368C572.131 162.434 572.331 162.567 572.531 162.634Z" fill="#F17C53"></path> <path d="M545.36 158.557C544.066 158.557 543.017 156.669 543.017 154.341C543.017 152.012 544.066 150.124 545.36 150.124C546.653 150.124 547.702 152.012 547.702 154.341C547.702 156.669 546.653 158.557 545.36 158.557Z" fill="#3C251D"></path> <path d="M545.166 156.161C544.717 156.161 544.352 155.597 544.352 154.901C544.352 154.205 544.717 153.641 545.166 153.641C545.616 153.641 545.98 154.205 545.98 154.901C545.98 155.597 545.616 156.161 545.166 156.161Z" fill="white"></path> <path d="M564.514 157.62C563.22 157.62 562.171 155.733 562.171 153.404C562.171 151.075 563.22 149.187 564.514 149.187C565.808 149.187 566.856 151.075 566.856 153.404C566.856 155.733 565.808 157.62 564.514 157.62Z" fill="#3C251D"></path> <path d="M564.208 155.482C563.763 155.482 563.402 154.966 563.402 154.331C563.402 153.695 563.763 153.179 564.208 153.179C564.653 153.179 565.014 153.695 565.014 154.331C565.014 154.966 564.653 155.482 564.208 155.482Z" fill="white"></path> <g opacity="0.42"> <path opacity="0.42" d="M520.015 130.4C518.592 129.1 518.652 126.855 519.126 124.965C519.718 122.601 520.785 120.415 522.207 118.466C523.511 122.188 527.6 124.669 531.511 124.196C532.577 124.078 533.763 123.783 534.592 124.433C534.948 124.728 535.185 125.26 535.363 125.673C536.074 127.269 536.725 128.923 537.437 130.518C537.733 131.227 538.029 131.936 537.97 132.704C537.911 133.59 537.437 134.417 536.903 135.126C536.311 135.954 535.6 136.722 534.888 137.372C534.711 137.49 534.533 137.667 534.355 137.608C534.177 137.608 534 137.372 533.94 137.194C533.289 135.835 534 134.063 533.229 132.704C532.4 131.345 530.503 131.227 528.903 131.227C527.481 131.286 526.059 131.286 524.578 131.345C522.978 131.463 521.2 131.463 520.015 130.4Z" fill="white"></path> </g> <g opacity="0.42"> <path opacity="0.42" d="M570.991 129.738C570.392 130.27 569.46 130.337 568.661 130.071C567.861 129.804 567.262 129.205 566.729 128.606C566.463 128.339 566.263 128.006 566.13 127.673C565.864 126.808 566.33 125.942 567.062 125.409C567.728 124.876 568.594 124.543 569.326 124.077C571.724 122.679 572.989 119.949 573.855 117.351C573.921 117.152 573.988 116.885 574.188 116.752C574.587 116.486 575.12 116.819 575.453 117.152C577.384 119.149 578.716 121.746 579.182 124.543C579.182 124.743 579.249 124.943 579.115 125.076C578.982 125.209 578.783 125.209 578.583 125.209C575.786 125.342 573.122 126.808 571.524 129.072C571.324 129.338 571.191 129.538 570.991 129.738Z" fill="white"></path> </g> <path d="M524.91 164.499H528.239V174.621H524.91V164.499Z" fill="#FFEB7B"></path> <path d="M572.253 164.499H575.583V174.621H572.253V164.499Z" fill="#FFEB7B"></path> <path d="M498.205 295.064C498.205 295.064 507.528 338.682 507.528 341.546C507.528 344.409 481.756 395.153 481.091 406.607C480.358 418.06 461.046 511.023 461.046 511.023C461.046 511.023 476.096 516.75 489.681 516.018C503.266 515.285 503.266 502.433 523.976 506.695C544.686 510.957 559.004 516.684 573.321 516.018C587.638 515.352 625.529 504.564 625.529 504.564C625.529 504.564 613.343 443.033 602.622 405.874C591.9 368.716 587.572 342.944 587.572 342.944L594.764 247.297L591.9 222.258L576.761 234.579C567.31 242.271 554.146 243.482 543.45 237.644L513.921 221.525L498.205 295.064Z" fill="white"></path> <path d="M583.647 238.023C580.121 242.959 569.133 252.114 553.392 249.236C537.65 246.359 524.97 237.035 520.597 232.733" stroke="#C5C1FF" stroke-width="2"></path> <path d="M583.647 246.005C580.121 250.942 569.133 260.096 553.392 257.218C537.65 254.341 524.97 245.017 520.597 240.715" stroke="#C5C1FF" stroke-width="2"></path> <path d="M587.971 454.042C587.505 453.376 587.039 452.71 586.573 451.978C585.174 449.847 583.576 447.583 581.112 446.784C578.715 445.984 575.385 447.583 575.585 450.18C575.718 452.111 577.649 453.31 579.447 453.976C581.245 454.642 583.243 455.174 584.375 456.772C581.578 456.972 578.848 457.905 576.517 459.503C575.918 459.902 575.252 460.435 574.919 461.101C573.72 463.365 576.317 466.029 578.848 466.029C581.378 465.962 583.509 464.231 585.44 462.633C585.241 465.829 585.507 469.025 586.173 472.155C586.306 472.821 586.506 473.554 587.039 474.086C587.705 474.686 588.637 474.752 589.569 474.819C590.768 474.886 591.967 474.886 593.099 474.486C595.496 473.554 596.628 470.557 596.228 468.027C595.829 465.429 594.364 463.232 592.899 461.101C594.897 460.635 597.028 461.168 599.025 461.634C601.023 462.1 603.154 462.566 605.152 461.9C607.083 461.234 608.681 459.103 608.015 457.172C607.216 454.974 604.419 454.575 602.089 454.442C600.024 454.375 597.96 454.309 595.962 454.175C599.158 451.445 601.489 447.716 602.688 443.654C602.888 442.921 603.087 442.056 602.621 441.39C602.288 440.923 601.756 440.657 601.223 440.457C597.494 439.125 592.366 440.124 591.301 443.92C590.701 445.984 591.434 448.448 590.035 450.113" fill="white"></path> <path d="M508.395 439.259C507.929 438.593 507.462 437.927 506.996 437.195C505.598 435.064 504 432.8 501.536 432.001C499.138 431.202 495.809 432.8 496.009 435.397C496.142 437.328 498.073 438.527 499.871 439.193C501.669 439.859 503.667 440.391 504.799 441.989C502.002 442.189 499.272 443.122 496.941 444.72C496.342 445.119 495.676 445.652 495.343 446.318C494.144 448.582 496.741 451.246 499.272 451.246C501.802 451.179 503.933 449.448 505.864 447.85C505.664 451.046 505.931 454.242 506.597 457.372C506.73 458.038 506.93 458.771 507.463 459.304C508.128 459.903 509.061 459.969 509.993 460.036C511.192 460.103 512.39 460.103 513.522 459.703C515.92 458.771 517.052 455.774 516.652 453.244C516.253 450.646 514.788 448.449 513.323 446.318C515.32 445.852 517.451 446.385 519.449 446.851C521.447 447.317 523.578 447.783 525.576 447.117C527.507 446.451 529.105 444.32 528.439 442.389C527.64 440.192 524.843 439.792 522.512 439.659C520.448 439.592 518.384 439.526 516.386 439.392C519.582 436.662 521.913 432.933 523.112 428.871C523.311 428.138 523.511 427.273 523.045 426.607C522.712 426.141 522.179 425.874 521.647 425.674C517.917 424.343 512.79 425.341 511.724 429.137C511.125 431.202 511.858 433.665 510.459 435.33" fill="white"></path> <path d="M549.482 464.431C549.482 463.032 549.482 461.7 549.416 460.302C549.416 460.102 549.416 459.836 549.282 459.703C549.149 459.503 548.883 459.503 548.616 459.436C546.752 459.236 544.421 459.303 543.755 461.034C543.089 462.699 544.687 464.431 546.219 465.43C545.087 465.363 543.822 465.43 542.823 465.962C541.824 466.495 541.025 467.627 541.158 468.759C541.358 469.958 542.49 470.757 543.689 470.89C544.887 471.023 546.019 470.557 547.018 469.958C546.885 471.356 545.82 472.755 546.419 474.02C546.752 474.686 547.484 475.085 548.283 475.152C549.682 475.352 551.147 474.619 551.879 473.421C552.612 472.222 552.545 470.557 551.68 469.425C552.745 469.425 553.877 469.425 554.943 469.425C555.142 469.425 555.342 469.425 555.542 469.292C555.742 469.159 555.742 468.959 555.808 468.693C556.141 467.094 556.208 465.296 555.276 463.898C554.343 462.499 552.212 461.9 551.014 463.099" fill="white"></path> <path d="M461.048 435.996L459.25 457.572C459.25 457.572 456.254 476.284 453.657 476.684C451.059 477.083 431.881 470.757 431.881 470.757C431.881 470.757 436.875 460.235 442.07 448.116C442.136 447.916 441.603 428.071 441.603 428.071L461.048 435.996Z" fill="#FFB094"></path> <path d="M457.519 449.581C457.519 449.581 461.581 456.373 464.444 467.161C465.51 471.29 471.77 480.147 468.84 480.546C465.843 481.012 460.049 469.092 459.05 469.092C458.052 469.092 454.988 475.552 454.988 475.552L453.19 464.165L457.519 449.581Z" fill="#FFB094"></path> <path d="M455.654 471.423C455.654 471.423 453.59 498.06 451.193 498.193C448.729 498.326 449.728 476.551 449.728 476.551C449.728 476.551 443.934 499.591 441.537 499.392C439.139 499.192 443.601 474.486 443.601 474.486C443.601 474.486 433.346 495.396 431.282 494.597C429.217 493.865 437.475 472.222 437.475 472.222C437.475 472.222 426.087 487.272 424.289 486.539C422.491 485.807 431.947 470.69 431.947 470.69L438.074 460.635L455.654 471.423Z" fill="#FFB094"></path> <path d="M525.908 210.181C525.908 210.181 529.771 256.663 530.503 271.713C531.236 286.762 521.913 451.179 515.453 454.042C508.994 456.906 498.273 454.042 489.016 453.31C479.76 452.577 476.164 455.441 471.835 454.042C467.574 452.644 483.156 379.526 486.885 355.353C489.749 336.773 487.618 318.194 487.618 318.194C487.618 318.194 482.623 337.19 481.23 342.5C479.837 347.81 463.588 440.556 463.588 440.556L462.58 446.605C462.58 446.605 449.727 446.184 441.136 441.856V438.036C441.136 438.036 439.738 356.485 441.136 342.5C456.701 246.063 470.637 240.348 474.699 233.089C481.158 221.702 517.052 208.783 525.908 210.181Z" fill="#33B062"></path> <path d="M573.322 211.047C573.322 211.047 575.278 263.84 575.278 271.698C575.278 279.556 580.58 358.216 580.58 374.664C580.58 391.112 584.842 454.042 584.842 454.042C584.842 454.042 589.837 456.906 600.558 454.042C611.279 451.179 619.137 451.179 622.001 450.446C624.864 449.714 604.82 365.341 601.956 356.751C599.093 348.16 600.558 318.86 600.558 318.86C600.558 318.86 600.967 360.045 611.781 368.98C623.9 365.37 642.441 345.119 639.504 335.209C639.504 324.487 624.598 237.217 615.541 229.559C601.29 217.373 573.322 211.047 573.322 211.047Z" fill="#33B062"></path> <path d="M609.852 400.853L597.195 428.774C597.195 428.774 594.146 449.848 596.579 451.146C598.971 452.416 619.621 451.752 619.621 451.752C619.621 451.752 618.073 438.884 616.854 424.175C616.819 423.967 625.675 393.676 625.675 393.676L609.852 400.853Z" fill="#FFB094"></path> <path d="M601.385 420.708C601.385 420.708 595.307 426.703 589.135 437.39C586.796 441.464 577.901 448.939 580.647 450.398C583.422 451.817 592.871 440.894 593.786 441.238C594.701 441.582 595.689 449.479 595.689 449.479L601.088 437.817L601.385 420.708Z" fill="#FFB094"></path> <path d="M596.32 444.801C596.32 444.801 589.92 474.047 592.225 475.01C594.558 475.933 600.481 452.264 600.481 452.264C600.481 452.264 598.876 478.874 601.249 479.397C603.621 479.921 607.112 452.027 607.112 452.027C607.112 452.027 610.499 477.787 612.713 477.588C614.939 477.459 613.776 451.57 613.776 451.57C613.776 451.57 620.08 471.409 622.086 471.246C624.051 471.054 619.634 451.822 619.634 451.822L616.813 439.027L596.32 444.801Z" fill="#FFB094"></path> <path d="M595.818 422.257C600.37 414.015 599.687 346.214 603.243 331.147C606.8 316.08 613.541 323.894 613.541 323.894C613.541 323.894 635.503 315.609 637.886 331.103C641.459 337.102 641.433 349.949 638.576 367.657C635.72 385.365 628.46 406.051 625.857 429.5L595.818 422.257Z" fill="#33B062"></path> <path d="M517.118 338.904C514.838 338.904 512.989 336.907 512.989 334.442C512.989 331.978 514.838 329.981 517.118 329.981C519.398 329.981 521.247 331.978 521.247 334.442C521.247 336.907 519.398 338.904 517.118 338.904Z" fill="#FFEB7B"></path> <path d="M515.653 373.265C513.373 373.265 511.524 371.268 511.524 368.804C511.524 366.34 513.373 364.342 515.653 364.342C517.933 364.342 519.782 366.34 519.782 368.804C519.782 371.268 517.933 373.265 515.653 373.265Z" fill="#FFEB7B"></path> <path d="M506.53 404.165C506.53 401.701 508.394 399.703 510.658 399.703C512.923 399.703 514.787 401.701 514.787 404.165C514.787 406.629 512.923 408.626 510.658 408.626C508.394 408.693 506.53 406.695 506.53 404.165Z" fill="#FFEB7B"></path> <path d="M434.646 387.549C434.646 387.549 443.703 395.439 447.648 403.958C451.593 412.476 452.759 418.483 454.911 423.684C457.063 428.795 469.437 488.595 469.437 488.595L342.471 479.772L332.787 480.041C332.787 480.041 344.264 393.377 357.624 387.549C370.984 381.721 434.646 387.549 434.646 387.549Z" fill="#CF003D"></path> <path d="M423.871 305.422C425.055 301.427 457.255 334.302 457.255 323.058C457.255 311.814 462.339 275.457 462.339 275.457C462.339 275.457 455.71 254.914 416.987 250.959C390.8 246.077 330.941 250.453 324.462 272.825C324.462 272.825 363.67 304.861 362.93 323.058C362.19 341.256 367.299 362.454 389.048 360.087C460.173 351.862 393.537 396.425 423.871 305.422Z" fill="#F91155"></path> <path d="M361.761 174.224C361.428 168.069 364.046 161.825 368.682 157.751C371.588 155.205 375.138 153.523 378.333 151.331C380.751 149.67 382.991 147.722 385.587 146.371C389.136 144.534 393.285 143.936 397.211 144.667C400.162 145.22 402.957 146.504 405.908 146.991C408.903 147.478 411.964 147.124 414.959 147.456C423.589 148.386 431.22 155.382 432.839 163.884C433.505 167.405 433.261 171.191 434.792 174.423C437.232 179.604 443.621 182.283 445.462 187.707C447.415 193.464 443.444 199.353 440.56 204.711C439.739 206.239 438.962 207.877 438.896 209.626C438.741 213.589 442.046 216.733 443.621 220.364C445.152 223.884 444.952 228.091 443.133 231.456C441.314 234.822 437.875 237.301 434.104 237.943C435.635 237.611 436.921 236.283 437.188 234.733C437.454 233.183 436.7 231.501 435.346 230.681C436.278 231.833 435.99 233.648 435.058 234.799C434.126 235.951 432.706 236.593 431.287 237.08C426.938 238.608 422.191 239.028 417.643 238.298C418.619 237.722 419.662 237.058 420.106 236.017C420.549 234.977 420.039 233.449 418.886 233.338C418.242 233.272 417.665 233.648 417.133 234.002C412.829 236.659 407.416 237.456 402.536 236.128C399.652 235.353 396.967 233.87 394.017 233.449C388.848 232.718 383.79 235.331 378.577 235.663C372.942 236.017 367.529 233.715 362.36 231.478C363.536 228.844 363.824 225.833 363.158 223.043C362.826 225.235 362.16 227.471 360.696 229.132C359.232 230.814 356.836 231.811 354.728 231.146C356.747 229.486 357.723 226.652 357.191 224.106C356.725 221.914 355.283 220.098 354.129 218.194C351.623 214.054 350.336 208.851 352.066 204.357C354.285 198.578 360.873 195.191 362.67 189.235C364.135 184.364 362.027 179.25 361.761 174.224Z" fill="black"></path> <path d="M428.553 252.93C428.553 252.782 425.446 251.451 422.191 249.971C417.9 248.196 414.794 244.053 414.498 239.319L412.13 207.805L385.943 205.29L384.02 234.584C383.576 241.242 379.138 246.864 372.776 248.787L362.419 252.042C362.419 252.042 368.733 276.668 406.608 276.668C430.28 276.668 429.293 258.996 428.553 252.93Z" fill="#FFB094"></path> <path d="M413.462 225.263L414.349 239.318C414.349 239.318 391.713 240.206 385.647 216.682C379.581 193.158 413.462 225.263 413.462 225.263Z" fill="#F17C53"></path> <path d="M432.548 170.965C432.548 170.965 430.477 224.819 414.795 228.666C399.112 232.512 389.347 226.151 382.69 214.463C376.032 202.775 367.303 183.097 375.588 167.267C383.577 151.436 424.411 136.197 432.548 170.965Z" fill="#FFB094"></path> <path d="M418.789 193.014C418.789 190.606 419.825 188.579 420.86 188.579C422.044 188.579 422.932 190.606 422.932 193.014C422.932 195.421 421.896 197.449 420.86 197.449C419.677 197.449 418.641 195.421 418.789 193.014Z" fill="#3C251D"></path> <path d="M419.883 193.096C419.883 192.381 420.234 191.779 420.586 191.779C420.987 191.779 421.288 192.381 421.288 193.096C421.288 193.811 420.937 194.414 420.586 194.414C420.184 194.414 419.833 193.811 419.883 193.096Z" fill="white"></path> <path d="M392.75 192.792C392.75 190.505 393.785 188.579 394.821 188.579C396.004 188.579 396.892 190.505 396.892 192.792C396.892 195.079 395.856 197.005 394.821 197.005C393.637 197.005 392.75 195.079 392.75 192.792Z" fill="#3C251D"></path> <path d="M393.851 192.735C393.851 192.02 394.203 191.418 394.554 191.418C394.955 191.418 395.256 192.02 395.256 192.735C395.256 193.45 394.905 194.053 394.554 194.053C394.153 194.053 393.801 193.45 393.851 192.735Z" fill="white"></path> <path d="M407.84 207.066H407.693C407.397 206.474 407.249 205.882 407.545 205.438L407.84 205.29C408.58 205.29 409.172 205.142 409.764 204.994C410.208 204.846 410.799 204.255 410.947 203.663C410.947 203.219 410.799 202.627 410.504 202.183L410.356 201.887C409.024 198.781 409.32 194.934 409.616 191.975C409.616 191.827 409.764 191.679 409.912 191.679C410.06 191.679 410.208 191.827 410.208 191.975C409.912 195.082 409.616 198.633 410.947 201.592L411.095 201.74C411.391 202.331 411.687 202.923 411.539 203.515C411.391 204.255 410.799 204.994 410.06 205.29C409.468 205.586 408.728 205.586 408.136 205.734C408.136 206.03 408.136 206.326 408.284 206.622C408.432 206.77 408.284 206.918 408.136 207.066H407.84Z" fill="#F17C53"></path> <path d="M399.703 213.131C399.703 213.131 402.958 220.677 408.284 219.937C413.462 219.197 414.793 212.096 414.793 212.096C414.793 212.096 412.278 209.728 410.799 209.58C409.171 209.433 407.544 210.912 407.544 210.912C407.544 210.912 406.212 209.876 404.733 209.728C403.105 209.728 400.886 212.392 399.703 213.131Z" fill="#C55741"></path> <path d="M414.794 212.096L399.851 213.132C399.703 213.132 409.615 222.897 414.794 212.096Z" fill="white"></path> <path d="M389.747 182.485C393.455 180.729 397.754 179.273 401.289 182.251C401.583 182.548 401.728 183.141 401.578 183.436C401.43 183.583 401.429 183.731 401.279 184.026C400.982 184.321 400.537 184.466 400.094 184.316C396.843 183.559 393.592 182.801 390.332 183.82C389.591 183.964 389.005 182.925 389.747 182.485Z" fill="#3C251D"></path> <path d="M427.87 182.819C424.317 180.769 420.15 178.969 416.386 181.651C416.068 181.924 415.876 182.502 416.001 182.809C416.138 182.967 416.126 183.115 416.252 183.421C416.524 183.739 416.956 183.92 417.409 183.806C420.711 183.315 424.012 182.823 427.18 184.102C428.054 184.317 428.586 183.17 427.87 182.819Z" fill="#3C251D"></path> <path d="M374.848 193.602C380.174 187.98 385.648 181.914 387.719 174.368C388.903 170.374 389.051 165.935 391.418 162.532C392.601 162.828 393.045 164.16 393.489 165.343C395.265 168.894 399.703 170.226 403.698 169.93C407.692 169.634 411.391 168.154 415.238 167.71C419.232 167.267 423.671 168.302 425.742 171.705C427.961 175.552 426.186 180.878 428.405 184.725C430.181 187.684 436.838 195.229 440.241 194.785C440.241 188.275 437.43 175.552 437.43 169.042C437.43 168.006 437.43 166.971 437.134 165.935C436.542 163.864 434.915 162.236 433.288 160.757C429.737 157.502 426.038 154.099 421.747 151.732C418.197 149.809 414.202 148.625 410.355 147.441C407.396 146.554 404.437 145.666 401.33 145.666C398.963 145.666 396.596 146.258 394.229 146.85C388.755 148.181 383.133 149.661 378.398 152.62C373.664 155.579 369.669 160.609 369.373 166.231C369.225 168.598 369.669 170.965 369.521 173.481C369.225 176.144 368.19 178.511 367.598 181.174C367.006 183.837 367.154 186.796 368.93 188.719C370.853 190.347 374.256 191.086 374.848 193.602Z" fill="black"></path> <path d="M378.398 195.229C378.398 195.229 375.587 187.092 368.929 193.306C366.266 195.821 369.669 204.994 378.842 202.775C378.842 202.775 381.505 200.704 378.398 195.229Z" fill="#FFB094"></path> <path d="M376.918 199.964C375.734 200.555 373.219 201.147 371.592 200.112C371.444 199.964 371.444 199.816 371.444 199.816L371.888 199.668C373.515 200.703 376.326 199.816 376.918 199.372L376.77 199.224C376.326 198.78 375.291 198.04 375.734 196.857C375.882 196.413 376.178 195.969 376.474 195.821C376.77 195.673 377.066 195.673 377.214 195.673C376.77 194.637 375.438 192.418 373.811 192.566C372.184 192.714 371 193.158 370.408 194.046C369.52 195.081 369.668 196.413 369.668 196.413C369.668 196.561 369.52 196.709 369.373 196.709C369.225 196.709 369.077 196.561 369.077 196.413C369.077 196.413 368.929 194.933 369.964 193.75C370.704 192.714 372.036 192.122 373.811 191.974C376.326 191.826 377.954 195.673 377.954 195.821V196.117C377.954 196.265 377.806 196.265 377.806 196.265C377.806 196.265 377.214 196.117 376.77 196.265C376.474 196.413 376.326 196.561 376.326 197.005C376.03 197.892 376.77 198.484 377.214 198.78C377.362 198.928 377.51 199.076 377.658 199.224C377.658 199.224 377.658 199.52 377.51 199.668C377.214 199.816 377.066 199.964 376.918 199.964Z" fill="#F17C53"></path> <path d="M331.05 423.146L342.94 448.221C342.94 448.221 341.13 466.591 338.818 467.163C336.507 467.735 319.152 462.888 319.152 462.888C319.152 462.888 323.146 452.346 327.245 440.233C327.311 440.044 322.62 425.432 322.62 425.432L331.05 423.146Z" fill="#FFB094"></path> <path d="M339.299 439.096C339.299 439.096 344.999 446.911 347.987 457.188C349.142 461.103 355.097 469.276 352.473 469.884C349.844 470.515 344.091 459.348 343.236 459.419C342.375 459.515 339.914 465.953 339.914 465.953L337.778 455.021L339.299 439.096Z" fill="#FFB094"></path> <path d="M340.337 461.916C340.337 461.916 339.715 487.878 337.534 488.2C335.357 488.497 335.269 467.32 335.269 467.32C335.269 467.32 331.131 490.055 329.002 490.008C326.878 489.937 329.698 465.733 329.698 465.733C329.698 465.733 321.482 486.691 319.647 486.099C317.787 485.502 324.145 463.947 324.145 463.947C324.145 463.947 314.668 479.323 313.034 478.748C311.399 478.173 319.15 462.886 319.15 462.886L324.185 452.718L340.337 461.916Z" fill="#FFB094"></path> <path d="M460.829 272.15C415.638 281.385 370.357 281.385 325.166 272.239C322.028 278.785 320.593 287.482 319.876 299.049C318.531 321.286 312.74 332.225 312.74 348.809C307.271 367.459 319.876 443.946 319.876 443.946L347.9 441.561C347.9 441.561 348.275 393.121 346.506 372.664C344.355 366.208 350.183 332.225 350.183 332.225C350.183 332.225 350.183 346.751 350.631 360.828C351.079 374.906 357.894 377.685 357.894 377.685H433.84C433.84 377.685 439.31 377.685 441.551 367.643C443.793 357.6 443.793 325.321 443.793 325.321L452.241 382.941L486.371 386.259C486.371 386.259 485.344 349.936 484 340.279C482.657 330.622 471.679 286.765 460.829 272.15Z" fill="#F91155"></path> <path d="M434.667 387.519H357.645V376.938H434.667V387.519Z" fill="#353535"></path> <path d="M447.975 351.985C460.241 353.415 472.595 354.464 484.861 353.892C484.861 355.036 484.948 356.275 484.948 357.515C472.595 358.087 460.241 357.038 447.975 355.608C447.975 354.559 447.975 353.32 447.975 351.985Z" fill="white"></path> <path d="M466.401 415.892L454.51 440.966C454.51 440.966 456.321 459.336 458.632 459.908C460.943 460.481 478.298 455.633 478.298 455.633C478.298 455.633 474.304 445.092 470.205 432.978C470.14 432.789 474.83 418.177 474.83 418.177L466.401 415.892Z" fill="#EDA084"></path> <path d="M458.149 431.841C458.149 431.841 452.449 439.657 449.462 449.934C448.307 453.849 442.352 462.022 444.976 462.629C447.605 463.261 453.357 452.093 454.213 452.165C455.073 452.261 457.535 458.698 457.535 458.698L459.671 447.767L458.149 431.841Z" fill="#FFB094"></path> <path d="M457.114 454.662C457.114 454.662 457.735 480.624 459.917 480.946C462.093 481.243 462.182 460.066 462.182 460.066C462.182 460.066 466.32 482.801 468.449 482.754C470.572 482.683 467.753 458.479 467.753 458.479C467.753 458.479 475.969 479.437 477.804 478.845C479.663 478.248 473.306 456.693 473.306 456.693C473.306 456.693 482.782 472.069 484.417 471.494C486.052 470.919 478.301 455.633 478.301 455.633L473.266 445.464L457.114 454.662Z" fill="#EDA084"></path> <path d="M455.839 431.241L475.596 438.044C475.596 438.044 494.228 379.206 484.391 348.111C479.45 332.509 474.83 328.453 454.851 335.244C438.708 340.693 455.839 431.241 455.839 431.241Z" fill="#F91155"></path> <rect x="-97" y="432" width="991" height="58" fill="white"></rect> <rect x="24" y="432" width="837" height="4" rx="2" fill="#002F85"></rect> </g> <defs> <clipPath id="clip0_109:1562"> <rect width="886" height="482" rx="30" fill="white"></rect> </clipPath> </defs> </svg> 