<?xml version="1.0" encoding="UTF-8"?> <svg xmlns="http://www.w3.org/2000/svg" width="800" height="136" viewBox="0 0 800 136" fill="none"> <path d="M597.982 0H0V136H496.892C496.892 136 498.094 132.594 499.86 128.172C509.094 105.045 514.782 94.469 520.502 84.666C525.28 76.476 529.702 69.123 537.172 59.248C547.36 45.778 556.572 35.985 563.762 28.915C582.202 10.78 597.982 0 597.982 0Z" fill="#005BFF"></path> <path d="M612.858 0.25L799.608 0V136H525C525 136 530.087 116.556 542.358 91.25C548.761 78.045 561.055 56.107 572.018 42.434C579.955 32.534 587.9 23.594 594.858 16.624C605.075 6.392 612.858 0.25 612.858 0.25Z" fill="#F91155"></path> <path fill-rule="evenodd" clip-rule="evenodd" d="M662.34 82.7999C662.34 90.7199 659.975 96.9169 655.245 101.39C650.515 105.863 644.227 108.1 636.38 108.1C629.56 108.1 624.005 106.817 619.715 104.25C615.425 101.683 612.693 97.9429 611.52 93.0299L619.66 84.9999C620.467 89.1799 622.282 92.4619 625.105 94.8449C627.928 97.2279 631.577 98.4199 636.05 98.4199C646.097 98.4199 651.12 93.2129 651.12 82.7999C651.12 73.4869 645.437 68.8299 634.07 68.8299H627.91V58.4899C632.383 57.0969 636.343 54.8049 639.79 51.6149C643.237 48.4249 645.73 44.6669 647.27 40.3399H615.15V29.9999H657.61V32.3099C657.61 44.6299 652.88 53.6869 643.42 59.4799C649.58 60.8729 654.273 63.5869 657.5 67.6199C660.727 71.6529 662.34 76.7129 662.34 82.7999V82.7999ZM669.6 106.12C668.28 104.8 667.62 103.187 667.62 101.28C667.62 99.3729 668.28 97.7599 669.6 96.4399C670.92 95.1199 672.533 94.4599 674.44 94.4599C676.347 94.4599 677.96 95.1199 679.28 96.4399C680.6 97.7599 681.26 99.3729 681.26 101.28C681.26 103.187 680.6 104.8 679.28 106.12C677.96 107.44 676.347 108.1 674.44 108.1C672.533 108.1 670.92 107.44 669.6 106.12ZM691.6 79.8299C691.453 78.1429 691.343 76.3099 691.27 74.3299C691.197 72.3499 691.16 70.2969 691.16 68.1699C691.16 63.3299 691.472 58.5449 692.095 53.8149C692.718 49.0849 693.965 44.8869 695.835 41.2199C697.705 37.5529 700.382 34.5829 703.865 32.3099C707.348 30.0369 711.95 28.8999 717.67 28.8999C723.61 28.8999 728.34 30.0729 731.86 32.4199C735.38 34.7669 738.038 37.8099 739.835 41.5499C741.632 45.2899 742.805 49.5069 743.355 54.1999C743.905 58.8929 744.18 63.5499 744.18 68.1699C744.18 73.0099 743.887 77.8129 743.3 82.5799C742.713 87.3469 741.485 91.6179 739.615 95.3949C737.745 99.1719 735.068 102.233 731.585 104.58C728.102 106.927 723.463 108.1 717.67 108.1C712.83 108.1 708.833 107.312 705.68 105.735C702.527 104.158 699.978 102.05 698.035 99.4099C696.092 96.7699 694.643 93.7449 693.69 90.3349C692.737 86.9249 692.04 83.4229 691.6 79.8299ZM705.02 92.2599C707.367 96.3669 711.583 98.4199 717.67 98.4199C720.75 98.4199 723.298 97.9799 725.315 97.0999C727.332 96.2199 728.963 94.6619 730.21 92.4249C731.457 90.1879 732.337 87.1079 732.85 83.1849C733.363 79.2619 733.62 74.2569 733.62 68.1699C733.62 62.1569 733.363 57.1879 732.85 53.2649C732.337 49.3419 731.457 46.2429 730.21 43.9699C728.963 41.6969 727.332 40.1199 725.315 39.2399C723.298 38.3599 720.75 37.9199 717.67 37.9199C714.59 37.9199 712.042 38.3419 710.025 39.1849C708.008 40.0279 706.377 41.5869 705.13 43.8599C703.883 46.1329 703.003 49.2129 702.49 53.0999C701.977 56.9869 701.72 62.0099 701.72 68.1699C701.72 80.1969 702.82 88.2269 705.02 92.2599Z" fill="white" stroke="#F91155"></path> <path fill-rule="evenodd" clip-rule="evenodd" d="M77.07 36.0001V43.9201H61.14C55.08 43.9201 52.05 46.3801 52.05 51.3001C52.05 53.9401 53.385 56.1751 56.055 58.0051C58.725 59.8351 62.34 61.5901 66.9 63.2701C68.94 64.0501 70.68 64.8451 72.12 65.6551C73.56 66.4651 75 67.5301 76.44 68.8501C77.88 70.1701 78.96 71.8651 79.68 73.9351C80.4 76.0051 80.76 78.3901 80.76 81.0901C80.76 84.0901 80.13 86.7751 78.87 89.1451C77.61 91.5151 75.99 93.3751 74.01 94.7251C72.03 96.0751 70.005 97.0951 67.935 97.7851C65.865 98.4751 63.84 98.8501 61.86 98.9101C61.02 98.9701 59.82 99.0001 58.26 99.0001H44.22V91.0801H57.99C62.07 91.0801 65.4 90.2251 67.98 88.5151C70.56 86.8051 71.85 84.3001 71.85 81.0001C71.85 79.3801 71.49 77.9551 70.77 76.7251C70.05 75.4951 69.015 74.4301 67.665 73.5301C66.315 72.6301 64.935 71.8501 63.525 71.1901C62.115 70.5301 60.42 69.8401 58.44 69.1201C57.9 68.9401 57.48 68.7901 57.18 68.6701C47.76 65.0701 43.05 59.1901 43.05 51.0301C43.05 45.9901 44.67 42.2251 47.91 39.7351C51.15 37.2451 55.38 36.0001 60.6 36.0001H77.07ZM99.12 99.0001H90.66V36.0001H99.12V62.4601H126.48V36.0001H134.94V99.0001H126.48V70.3801H99.12V99.0001V99.0001ZM182.37 91.0801V99.0001H169.23C166.77 99.0001 164.835 98.9551 163.425 98.8651C162.015 98.7751 160.26 98.4151 158.16 97.7851C156.06 97.1551 154.29 96.2101 152.85 94.9501C150.63 92.9101 149.19 90.4651 148.53 87.6151C147.87 84.7651 147.54 81.4201 147.54 77.5801V36.0001H156V77.4001C156 80.8801 156.39 83.6101 157.17 85.5901C158.73 89.2501 162 91.0801 166.98 91.0801H182.37ZM186.87 43.9201V36.0001H226.47V43.9201H210.9V99.0001H202.44V43.9201H186.87ZM284.25 67.7701C284.19 64.4101 283.695 61.2301 282.765 58.2301C281.835 55.2301 280.485 52.6051 278.715 50.3551C276.945 48.1051 274.8 46.3201 272.28 45.0001C269.76 43.6801 266.91 43.0201 263.73 43.0201C260.55 43.0201 257.7 43.6801 255.18 45.0001C252.66 46.3201 250.515 48.1051 248.745 50.3551C246.975 52.6051 245.625 55.2301 244.695 58.2301C243.765 61.2301 243.27 64.4101 243.21 67.7701C243.27 71.1901 243.765 74.3701 244.695 77.3101C245.625 80.2501 246.975 82.8001 248.745 84.9601C250.515 87.1201 252.66 88.8301 255.18 90.0901C257.7 91.3501 260.55 91.9801 263.73 91.9801C266.91 91.9801 269.76 91.3501 272.28 90.0901C274.8 88.8301 276.945 87.1201 278.715 84.9601C280.485 82.8001 281.835 80.2501 282.765 77.3101C283.695 74.3701 284.19 71.1901 284.25 67.7701ZM234.12 67.7701C234.18 62.7901 234.93 58.2901 236.37 54.2701C237.81 50.2501 239.82 46.8151 242.4 43.9651C244.98 41.1151 248.07 38.9251 251.67 37.3951C255.27 35.8651 259.29 35.1001 263.73 35.1001C268.11 35.1001 272.115 35.8651 275.745 37.3951C279.375 38.9251 282.48 41.1151 285.06 43.9651C287.64 46.8151 289.65 50.2501 291.09 54.2701C292.53 58.2901 293.28 62.7901 293.34 67.7701C293.28 72.7501 292.545 77.2201 291.135 81.1801C289.725 85.1401 287.73 88.5001 285.15 91.2601C282.57 94.0201 279.465 96.1501 275.835 97.6501C272.205 99.1501 268.17 99.9001 263.73 99.9001C259.29 99.9001 255.255 99.1501 251.625 97.6501C247.995 96.1501 244.89 94.0201 242.31 91.2601C239.73 88.5001 237.735 85.1401 236.325 81.1801C234.915 77.2201 234.18 72.7501 234.12 67.7701V67.7701ZM354.27 67.7701C354.21 64.4101 353.715 61.2301 352.785 58.2301C351.855 55.2301 350.505 52.6051 348.735 50.3551C346.965 48.1051 344.82 46.3201 342.3 45.0001C339.78 43.6801 336.93 43.0201 333.75 43.0201C330.57 43.0201 327.72 43.6801 325.2 45.0001C322.68 46.3201 320.535 48.1051 318.765 50.3551C316.995 52.6051 315.645 55.2301 314.715 58.2301C313.785 61.2301 313.29 64.4101 313.23 67.7701C313.29 71.1901 313.785 74.3701 314.715 77.3101C315.645 80.2501 316.995 82.8001 318.765 84.9601C320.535 87.1201 322.68 88.8301 325.2 90.0901C327.72 91.3501 330.57 91.9801 333.75 91.9801C336.93 91.9801 339.78 91.3501 342.3 90.0901C344.82 88.8301 346.965 87.1201 348.735 84.9601C350.505 82.8001 351.855 80.2501 352.785 77.3101C353.715 74.3701 354.21 71.1901 354.27 67.7701V67.7701ZM304.14 67.7701C304.2 62.7901 304.95 58.2901 306.39 54.2701C307.83 50.2501 309.84 46.8151 312.42 43.9651C315 41.1151 318.09 38.9251 321.69 37.3951C325.29 35.8651 329.31 35.1001 333.75 35.1001C338.13 35.1001 342.135 35.8651 345.765 37.3951C349.395 38.9251 352.5 41.1151 355.08 43.9651C357.66 46.8151 359.67 50.2501 361.11 54.2701C362.55 58.2901 363.3 62.7901 363.36 67.7701C363.3 72.7501 362.565 77.2201 361.155 81.1801C359.745 85.1401 357.75 88.5001 355.17 91.2601C352.59 94.0201 349.485 96.1501 345.855 97.6501C342.225 99.1501 338.19 99.9001 333.75 99.9001C329.31 99.9001 325.275 99.1501 321.645 97.6501C318.015 96.1501 314.91 94.0201 312.33 91.2601C309.75 88.5001 307.755 85.1401 306.345 81.1801C304.935 77.2201 304.2 72.7501 304.14 67.7701V67.7701ZM409.89 91.0801V99.0001H396.75C394.29 99.0001 392.355 98.9551 390.945 98.8651C389.535 98.7751 387.78 98.4151 385.68 97.7851C383.58 97.1551 381.81 96.2101 380.37 94.9501C378.15 92.9101 376.71 90.4651 376.05 87.6151C375.39 84.7651 375.06 81.4201 375.06 77.5801V36.0001H383.52V77.4001C383.52 80.8801 383.91 83.6101 384.69 85.5901C386.25 89.2501 389.52 91.0801 394.5 91.0801H409.89V91.0801ZM450.21 36.0001V43.9201H434.28C428.22 43.9201 425.19 46.3801 425.19 51.3001C425.19 53.9401 426.525 56.1751 429.195 58.0051C431.865 59.8351 435.48 61.5901 440.04 63.2701C442.08 64.0501 443.82 64.8451 445.26 65.6551C446.7 66.4651 448.14 67.5301 449.58 68.8501C451.02 70.1701 452.1 71.8651 452.82 73.9351C453.54 76.0051 453.9 78.3901 453.9 81.0901C453.9 84.0901 453.27 86.7751 452.01 89.1451C450.75 91.5151 449.13 93.3751 447.15 94.7251C445.17 96.0751 443.145 97.0951 441.075 97.7851C439.005 98.4751 436.98 98.8501 435 98.9101C434.16 98.9701 432.96 99.0001 431.4 99.0001H417.36V91.0801H431.13C435.21 91.0801 438.54 90.2251 441.12 88.5151C443.7 86.8051 444.99 84.3001 444.99 81.0001C444.99 79.3801 444.63 77.9551 443.91 76.7251C443.19 75.4951 442.155 74.4301 440.805 73.5301C439.455 72.6301 438.075 71.8501 436.665 71.1901C435.255 70.5301 433.56 69.8401 431.58 69.1201C431.04 68.9401 430.62 68.7901 430.32 68.6701C420.9 65.0701 416.19 59.1901 416.19 51.0301C416.19 45.9901 417.81 42.2251 421.05 39.7351C424.29 37.2451 428.52 36.0001 433.74 36.0001H450.21V36.0001Z" fill="white" stroke="white" stroke-width="2"></path> </svg> 