<?xml version="1.0" encoding="UTF-8"?> <svg xmlns="http://www.w3.org/2000/svg" width="119" height="38" viewBox="0 0 119 38" fill="none"> <path d="M1.50485 35.1537C1.58977 36.5318 2.77578 37.5801 4.15388 37.4952L26.6113 36.1113C27.9894 36.0263 29.0377 34.8403 28.9528 33.4622C28.8679 32.0841 27.6818 31.0358 26.3037 31.1207L6.34161 32.3509L5.11146 12.3887C5.02654 11.0106 3.84052 9.96232 2.46243 10.0472C1.08433 10.1322 0.036005 11.3182 0.120929 12.6963L1.50485 35.1537ZM116.234 28.1665C117.602 27.9775 118.558 26.7156 118.369 25.3478L115.289 3.05956C115.1 1.69184 113.838 0.736273 112.471 0.925242C111.103 1.11421 110.147 2.37616 110.336 3.74388L113.074 23.5557L93.2618 26.2929C91.8941 26.4819 90.9385 27.7439 91.1275 29.1116C91.3164 30.4793 92.5784 31.4349 93.9461 31.2459L116.234 28.1665ZM5.87326 36.6556L7.16648 35.1925L3.42018 31.8811L2.12696 33.3442L5.87326 36.6556ZM110.666 24.8685L114.383 27.6831L117.401 23.6969L113.684 20.8824L110.666 24.8685ZM7.16648 35.1925C33.6603 5.21901 78.7736 0.718999 110.666 24.8685L113.684 20.8824C79.7075 -4.84555 31.6456 -0.0514268 3.42018 31.8811L7.16648 35.1925Z" fill="#005BFF"></path> </svg> 