<?xml version="1.0" encoding="UTF-8"?> <svg xmlns="http://www.w3.org/2000/svg" width="764" height="220" viewBox="0 0 764 220" fill="none"> <rect y="123" width="764" height="97" rx="12" fill="#E6EFFF"></rect> <path d="M98.3 147H90.4V161H92.48V148.96H98.3V147ZM97.0945 165H99.0545V159.64H99.0945C99.6745 160.64 100.695 161.3 102.215 161.3C104.655 161.3 106.715 159.46 106.715 156.38C106.715 153.3 104.655 151.46 102.215 151.46C100.695 151.46 99.6745 152.12 99.0945 153.12H99.0545V151.76H97.0945V165ZM101.795 159.38C100.075 159.38 98.9545 158.14 98.9545 156.38C98.9545 154.62 100.075 153.38 101.795 153.38C103.515 153.38 104.635 154.62 104.635 156.38C104.635 158.14 103.515 159.38 101.795 159.38ZM112.42 161.3C113.94 161.3 114.96 160.64 115.54 159.64H115.58V161H117.54V151.76H115.58V153.12H115.54C114.96 152.12 113.94 151.46 112.42 151.46C109.98 151.46 107.92 153.3 107.92 156.38C107.92 159.46 109.98 161.3 112.42 161.3ZM112.84 159.38C111.12 159.38 110 158.14 110 156.38C110 154.62 111.12 153.38 112.84 153.38C114.56 153.38 115.68 154.62 115.68 156.38C115.68 158.14 114.56 159.38 112.84 159.38ZM126.286 165H128.166V159.64H128.206C128.746 160.64 129.606 161.3 131.106 161.3C133.446 161.3 135.006 159.42 135.006 156.38C135.006 153.34 133.446 151.46 131.106 151.46C129.606 151.46 128.746 152.12 128.206 153.12H128.166V147.5H126.286V153.12H126.246C125.706 152.12 124.866 151.46 123.346 151.46C121.026 151.46 119.446 153.34 119.446 156.38C119.446 159.42 121.026 161.3 123.346 161.3C124.866 161.3 125.706 160.64 126.246 159.64H126.286V165ZM123.866 159.52C122.246 159.52 121.526 158.2 121.526 156.38C121.526 154.56 122.246 153.24 123.866 153.24C125.486 153.24 126.386 154.56 126.386 156.38C126.386 158.2 125.486 159.52 123.866 159.52ZM130.586 159.52C128.966 159.52 128.066 158.2 128.066 156.38C128.066 154.56 128.966 153.24 130.586 153.24C132.206 153.24 132.926 154.56 132.926 156.38C132.926 158.2 132.206 159.52 130.586 159.52ZM136.899 161H138.719L143.299 154.86H143.339V161H145.299V151.76H143.479L138.899 157.9H138.859V151.76H136.899V161ZM155.96 161L151.66 155.96L155.54 151.76H152.96L149.66 155.7V151.76H147.7V161H149.66V156.46L153.38 161H155.96ZM167.512 151.46C164.612 151.46 162.452 153.54 162.452 156.38C162.452 159.22 164.612 161.3 167.512 161.3C170.412 161.3 172.572 159.22 172.572 156.38C172.572 153.54 170.412 151.46 167.512 151.46ZM167.512 153.38C169.272 153.38 170.492 154.56 170.492 156.38C170.492 158.2 169.272 159.38 167.512 159.38C165.752 159.38 164.532 158.2 164.532 156.38C164.532 154.56 165.752 153.38 167.512 153.38ZM178.94 161.3C182.08 161.3 184.02 159.22 184.02 156.28C184.02 153.48 182.24 151.58 179.52 151.58C177.7 151.58 176.28 152.42 175.6 153.98H175.54C175.7 152.44 176.16 151.16 177.32 150.52C178.34 149.96 180.2 149.7 181.34 149.36C182.58 149 183.18 148.44 183.18 146.92H181.24C181.22 147.4 180.7 147.64 180.18 147.78C178.98 148.12 177.26 148.44 176.22 149.1C174.22 150.38 173.78 153.14 173.78 155.22C173.78 159.62 176.1 161.3 178.94 161.3ZM178.96 159.38C177.32 159.38 175.98 158.26 175.98 156.38C175.98 154.5 177.32 153.38 178.96 153.38C180.6 153.38 181.94 154.5 181.94 156.38C181.94 158.26 180.6 159.38 178.96 159.38ZM191.557 151.76L189.097 157.82L186.557 151.76H184.217L188.097 160.16L185.877 165H187.957L193.717 151.76H191.557ZM199.824 151.76V155.74H197.204C196.384 155.74 196.084 155.38 196.084 154.66V151.76H194.124V154.88C194.124 156.74 195.224 157.5 197.024 157.5H199.824V161H201.784V151.76H199.824ZM208.304 151.46C205.344 151.46 203.584 153.6 203.584 156.4C203.584 159.32 205.464 161.3 208.404 161.3C210.684 161.3 211.904 160.04 212.584 159.1L211.204 157.8C210.744 158.42 209.884 159.42 208.364 159.42C206.784 159.42 205.644 158.34 205.564 156.7H212.724V156.38C212.724 153.4 211.124 151.46 208.304 151.46ZM208.184 153.26C209.584 153.26 210.524 154 210.604 155.28H205.664C205.904 153.94 206.864 153.26 208.184 153.26ZM221.176 151.76V155.28H216.476V151.76H214.516V161H216.476V157.12H221.176V161H223.136V151.76H221.176ZM225.532 161H227.352L231.932 154.86H231.972V161H233.932V151.76H232.112L227.532 157.9H227.492V151.76H225.532V161ZM239.093 151.76C237.013 151.76 235.773 153.04 235.773 154.76C235.773 156.22 236.673 157.3 238.193 157.58L235.433 161H237.793L240.433 157.66H241.833V161H243.793V151.76H239.093ZM239.313 155.9C238.373 155.9 237.853 155.5 237.853 154.72C237.853 153.96 238.373 153.56 239.313 153.56H241.833V155.9H239.313Z" fill="#005BFF"></path> <path d="M89.72 189H98.1V187.62H91.8L95.96 183.16C97.34 181.66 98.06 180.42 98.06 178.94C98.06 176.66 96.56 175.2 94.02 175.2C91.46 175.2 89.82 176.7 89.76 179.16H91.2C91.26 177.44 92.46 176.56 93.96 176.56C95.58 176.56 96.56 177.58 96.56 179C96.56 180.14 95.9 181.12 94.74 182.4L89.72 187.88V189ZM105.297 189H106.757L108.637 182H108.677L110.977 187.46H112.057L114.337 182H114.377L116.257 189H117.717L115.157 179.76H113.817L111.517 185.36H111.477L109.197 179.76H107.857L105.297 189ZM123.312 179.46C120.432 179.46 118.312 181.52 118.312 184.38C118.312 187.24 120.432 189.3 123.312 189.3C126.212 189.3 128.312 187.24 128.312 184.38C128.312 181.52 126.212 179.46 123.312 179.46ZM123.312 180.88C125.312 180.88 126.792 182.26 126.792 184.38C126.792 186.5 125.312 187.88 123.312 187.88C121.312 187.88 119.832 186.5 119.832 184.38C119.832 182.26 121.312 180.88 123.312 180.88ZM137.393 187.84V179.76H130.533V184.48C130.533 185.98 130.233 186.96 129.733 187.84H128.553V191.6H129.853V189.18H137.253V191.6H138.533V187.84H137.393ZM131.973 184.56V181.08H135.953V187.84H131.273C131.693 187 131.973 186.02 131.973 184.56ZM146.092 179.76L143.212 186.4L140.332 179.76H138.632L142.472 188.02L140.112 193H141.652L147.692 179.76H146.092ZM156.583 179.76H149.063V186.6C149.063 187.4 148.783 187.76 148.123 187.76H147.423V189.08H148.303C149.623 189.08 150.503 188.32 150.503 186.62V181.12H155.143V189H156.583V179.76ZM161.607 179.76C159.707 179.76 158.427 180.84 158.427 182.6C158.427 184.2 159.487 185.18 161.087 185.36L158.207 189H159.967L162.747 185.38H164.667V189H166.107V179.76H161.607ZM161.767 184.08C160.567 184.08 159.947 183.54 159.947 182.58C159.947 181.64 160.567 181.08 161.767 181.08H164.667V184.08H161.767ZM180.556 184.16V184.14C181.696 183.92 182.276 183.12 182.276 182.06C182.276 180.52 181.136 179.76 179.476 179.76H174.616V189H179.396C181.076 189 182.536 188.16 182.536 186.38C182.536 185.1 181.816 184.32 180.556 184.16ZM179.156 180.98C180.236 180.98 180.776 181.42 180.776 182.26C180.776 183.1 180.236 183.6 179.096 183.6H176.056V180.98H179.156ZM179.236 187.78H176.056V184.78H179.316C180.456 184.78 181.036 185.3 181.036 186.28C181.036 187.22 180.416 187.78 179.236 187.78ZM197.334 179.76V183.44H191.954V179.76H190.514V189H191.954V184.78H197.334V189H198.774V179.76H197.334ZM205.395 179.46C202.575 179.46 200.695 181.44 200.695 184.4C200.695 187.32 202.575 189.3 205.495 189.3C207.815 189.3 208.995 188.04 209.675 187.08L208.635 186.14C208.075 186.88 207.195 187.9 205.475 187.9C203.535 187.9 202.195 186.62 202.155 184.58H209.835V184.32C209.835 181.58 208.415 179.46 205.395 179.46ZM205.315 180.8C207.095 180.8 208.135 181.8 208.275 183.48H202.215C202.435 181.72 203.715 180.8 205.315 180.8ZM218.916 187.84V179.76H212.056V184.48C212.056 185.98 211.756 186.96 211.256 187.84H210.076V191.6H211.376V189.18H218.776V191.6H220.056V187.84H218.916ZM213.496 184.56V181.08H217.476V187.84H212.796C213.216 187 213.496 186.02 213.496 184.56ZM225.258 179.46C222.438 179.46 220.558 181.44 220.558 184.4C220.558 187.32 222.438 189.3 225.358 189.3C227.678 189.3 228.858 188.04 229.538 187.08L228.498 186.14C227.938 186.88 227.058 187.9 225.338 187.9C223.398 187.9 222.058 186.62 222.018 184.58H229.698V184.32C229.698 181.58 228.278 179.46 225.258 179.46ZM225.178 180.8C226.958 180.8 227.998 181.8 228.138 183.48H222.078C222.298 181.72 223.578 180.8 225.178 180.8ZM239.571 179.76H232.051V186.6C232.051 187.4 231.771 187.76 231.111 187.76H230.411V189.08H231.291C232.611 189.08 233.491 188.32 233.491 186.62V181.12H238.131V189H239.571V179.76ZM250.015 179.46C247.335 179.46 245.335 181.22 245.055 183.76H243.575V179.76H242.135V189H243.575V185H245.055C245.335 187.54 247.335 189.3 250.015 189.3C252.895 189.3 255.015 187.24 255.015 184.38C255.015 181.52 252.895 179.46 250.015 179.46ZM250.015 187.88C248.015 187.88 246.535 186.5 246.535 184.38C246.535 182.26 248.015 180.88 250.015 180.88C252.015 180.88 253.495 182.26 253.495 184.38C253.495 186.5 252.015 187.88 250.015 187.88ZM275.657 182.92H262.617V184.24H275.657V182.92ZM289.933 184.18V184.16C291.113 183.9 291.653 183.18 291.653 182.08C291.653 180.58 290.433 179.76 288.773 179.76H283.813V189H288.613C290.293 189 291.933 188.22 291.933 186.4C291.933 185.02 291.153 184.34 289.933 184.18ZM288.333 181.36C289.153 181.36 289.613 181.74 289.613 182.36C289.613 183.08 289.133 183.44 288.353 183.44H285.773V181.36H288.333ZM288.433 187.4H285.773V185H288.613C289.413 185 289.913 185.38 289.913 186.22C289.913 187 289.313 187.4 288.433 187.4ZM304.114 189.3C305.314 189.3 306.334 188.98 307.274 188.36L306.354 186.7C305.714 187.1 304.914 187.4 304.054 187.4C302.274 187.4 301.114 186.12 301.114 184.38C301.114 182.64 302.274 181.36 304.054 181.36C304.914 181.36 305.714 181.66 306.354 182.06L307.274 180.4C306.334 179.78 305.314 179.46 304.114 179.46C301.134 179.46 299.034 181.44 299.034 184.38C299.034 187.32 301.134 189.3 304.114 189.3ZM308.872 193H310.832V187.64H310.872C311.452 188.64 312.472 189.3 313.992 189.3C316.432 189.3 318.492 187.46 318.492 184.38C318.492 181.3 316.432 179.46 313.992 179.46C312.472 179.46 311.452 180.12 310.872 181.12H310.832V179.76H308.872V193ZM313.572 187.38C311.852 187.38 310.732 186.14 310.732 184.38C310.732 182.62 311.852 181.38 313.572 181.38C315.292 181.38 316.412 182.62 316.412 184.38C316.412 186.14 315.292 187.38 313.572 187.38ZM324.418 179.46C321.458 179.46 319.698 181.6 319.698 184.4C319.698 187.32 321.578 189.3 324.518 189.3C326.798 189.3 328.018 188.04 328.698 187.1L327.318 185.8C326.858 186.42 325.998 187.42 324.478 187.42C322.898 187.42 321.758 186.34 321.678 184.7H328.838V184.38C328.838 181.4 327.238 179.46 324.418 179.46ZM324.298 181.26C325.698 181.26 326.638 182 326.718 183.28H321.778C322.018 181.94 322.978 181.26 324.298 181.26ZM337.919 187.5V179.76H330.999V184.52C330.999 185.8 330.719 186.64 330.239 187.5H329.039V191.6H330.759V189.3H337.499V191.6H339.219V187.5H337.919ZM332.959 184.64V181.56H335.959V187.5H332.319C332.719 186.7 332.959 185.88 332.959 184.64ZM346.46 179.76L344 185.82L341.46 179.76H339.12L343 188.16L340.78 193H342.86L348.62 179.76H346.46ZM355.884 189H357.704L362.284 182.86H362.324V189H364.284V179.76H362.464L357.884 185.9H357.844V179.76H355.884V189ZM380.705 179.76H372.485V189H374.445V181.6H378.745V189H380.705V179.76ZM385.87 179.76C383.79 179.76 382.55 181.04 382.55 182.76C382.55 184.22 383.45 185.3 384.97 185.58L382.21 189H384.57L387.21 185.66H388.61V189H390.57V179.76H385.87ZM386.09 183.9C385.15 183.9 384.63 183.5 384.63 182.72C384.63 181.96 385.15 181.56 386.09 181.56H388.61V183.9H386.09ZM400.253 179.76H391.873V181.56H395.073V189H397.033V181.56H400.253V179.76ZM408.208 179.76V183.28H403.508V179.76H401.548V189H403.508V185.12H408.208V189H410.168V179.76H408.208ZM412.563 189H414.383L418.963 182.86H419.003V189H420.963V179.76H419.143L414.563 185.9H414.523V179.76H412.563V189ZM431.284 187.16V179.76H429.324V187.16H425.324V179.76H423.364V189H430.664V191.6H432.384V187.16H431.284ZM439.624 179.76L437.164 185.82L434.624 179.76H432.284L436.164 188.16L433.944 193H436.024L441.784 179.76H439.624ZM453.508 189.3C454.688 189.3 455.688 188.98 456.668 188.38L455.968 187.14C455.188 187.6 454.388 187.9 453.468 187.9C451.368 187.9 450.008 186.34 450.008 184.38C450.008 182.42 451.368 180.86 453.468 180.86C454.388 180.86 455.188 181.16 455.968 181.62L456.668 180.38C455.688 179.78 454.688 179.46 453.508 179.46C450.548 179.46 448.488 181.44 448.488 184.38C448.488 187.32 450.548 189.3 453.508 189.3ZM467.062 175.5H464.562V176.92H465.622V189H467.062V175.5ZM474.269 175.2C471.329 175.2 469.509 177.74 469.509 182.24C469.509 186.74 471.329 189.3 474.269 189.3C477.209 189.3 479.029 186.74 479.029 182.24C479.029 177.74 477.209 175.2 474.269 175.2ZM474.269 176.56C476.249 176.56 477.529 178.74 477.529 182.24C477.529 185.74 476.249 187.94 474.269 187.94C472.289 187.94 471.009 185.74 471.009 182.24C471.009 178.74 472.289 176.56 474.269 176.56ZM483.098 179.76H481.038V181.82H483.098V179.76ZM483.098 186.94H481.038V189H483.098V186.94ZM489.855 175.2C486.915 175.2 485.095 177.74 485.095 182.24C485.095 186.74 486.915 189.3 489.855 189.3C492.795 189.3 494.615 186.74 494.615 182.24C494.615 177.74 492.795 175.2 489.855 175.2ZM489.855 176.56C491.835 176.56 493.115 178.74 493.115 182.24C493.115 185.74 491.835 187.94 489.855 187.94C487.875 187.94 486.595 185.74 486.595 182.24C486.595 178.74 487.875 176.56 489.855 176.56ZM501.183 175.2C498.243 175.2 496.423 177.74 496.423 182.24C496.423 186.74 498.243 189.3 501.183 189.3C504.123 189.3 505.943 186.74 505.943 182.24C505.943 177.74 504.123 175.2 501.183 175.2ZM501.183 176.56C503.163 176.56 504.443 178.74 504.443 182.24C504.443 185.74 503.163 187.94 501.183 187.94C499.203 187.94 497.923 185.74 497.923 182.24C497.923 178.74 499.203 176.56 501.183 176.56ZM521.729 187.84V179.76H514.869V184.48C514.869 185.98 514.569 186.96 514.069 187.84H512.889V191.6H514.189V189.18H521.589V191.6H522.869V187.84H521.729ZM516.309 184.56V181.08H520.289V187.84H515.609C516.029 187 516.309 186.02 516.309 184.56ZM528.37 179.46C525.49 179.46 523.37 181.52 523.37 184.38C523.37 187.24 525.49 189.3 528.37 189.3C531.27 189.3 533.37 187.24 533.37 184.38C533.37 181.52 531.27 179.46 528.37 179.46ZM528.37 180.88C530.37 180.88 531.85 182.26 531.85 184.38C531.85 186.5 530.37 187.88 528.37 187.88C526.37 187.88 524.89 186.5 524.89 184.38C524.89 182.26 526.37 180.88 528.37 180.88ZM543.937 175.5H541.437V176.92H542.497V189H543.937V175.5ZM550.349 175.2C547.889 175.2 546.309 176.56 546.229 178.78H547.669C547.729 177.3 548.829 176.56 550.329 176.56C551.929 176.56 552.849 177.4 552.849 178.84C552.849 180.46 551.689 181.22 549.689 181.22H548.949V182.52H549.689C552.329 182.5 553.409 183.3 553.409 185.18C553.409 187.04 552.349 187.94 550.509 187.94C548.589 187.94 547.589 187 547.469 185.54H546.009C546.149 187.98 547.849 189.3 550.509 189.3C553.409 189.3 554.909 187.7 554.909 185.3C554.909 183.2 553.749 181.94 551.789 181.78V181.74C553.489 181.4 554.349 180.18 554.349 178.62C554.349 176.56 552.829 175.2 550.349 175.2ZM558.84 179.76H556.78V181.82H558.84V179.76ZM558.84 186.94H556.78V189H558.84V186.94ZM565.598 175.2C562.658 175.2 560.838 177.74 560.838 182.24C560.838 186.74 562.658 189.3 565.598 189.3C568.538 189.3 570.358 186.74 570.358 182.24C570.358 177.74 568.538 175.2 565.598 175.2ZM565.598 176.56C567.578 176.56 568.858 178.74 568.858 182.24C568.858 185.74 567.578 187.94 565.598 187.94C563.618 187.94 562.338 185.74 562.338 182.24C562.338 178.74 563.618 176.56 565.598 176.56ZM576.926 175.2C573.986 175.2 572.166 177.74 572.166 182.24C572.166 186.74 573.986 189.3 576.926 189.3C579.866 189.3 581.686 186.74 581.686 182.24C581.686 177.74 579.866 175.2 576.926 175.2ZM576.926 176.56C578.906 176.56 580.186 178.74 580.186 182.24C580.186 185.74 578.906 187.94 576.926 187.94C574.946 187.94 573.666 185.74 573.666 182.24C573.666 178.74 574.946 176.56 576.926 176.56ZM597.771 179.76H589.831V189H591.271V181.12H596.331V189H597.771V179.76ZM604.699 179.46C601.819 179.46 599.699 181.52 599.699 184.38C599.699 187.24 601.819 189.3 604.699 189.3C607.599 189.3 609.699 187.24 609.699 184.38C609.699 181.52 607.599 179.46 604.699 179.46ZM604.699 180.88C606.699 180.88 608.179 182.26 608.179 184.38C608.179 186.5 606.699 187.88 604.699 187.88C602.699 187.88 601.219 186.5 601.219 184.38C601.219 182.26 602.699 180.88 604.699 180.88ZM629.429 175H628.149L624.569 184.36H624.529L620.949 175H619.669L616.249 189H617.889L620.489 177.98H620.529L623.949 186.76H625.149L628.569 177.98H628.609L631.209 189H632.849L629.429 175ZM640.911 189.3C642.971 189.3 644.471 188.7 645.791 187.72L644.851 186.38C643.871 187.12 642.611 187.74 640.871 187.74C637.491 187.74 635.111 185.42 635.111 182C635.111 178.58 637.491 176.26 640.871 176.26C642.611 176.26 643.871 176.88 644.851 177.62L645.791 176.28C644.471 175.3 642.971 174.7 640.911 174.7C636.431 174.7 633.431 177.66 633.431 182C633.431 186.34 636.431 189.3 640.911 189.3ZM658.483 189L651.183 181.48L657.583 175H655.403L649.403 181.3V175H647.863V189H649.403V181.86L656.183 189H658.483Z" fill="black"></path> <path fill-rule="evenodd" clip-rule="evenodd" d="M632.23 22.764C632.23 17.4096 635.708 14.8016 639.991 16.9424L721.479 57.6867C725.762 59.8275 729.239 65.9132 729.239 71.2676V148.874C729.239 154.228 725.762 156.836 721.479 154.695L639.991 113.951C635.708 111.81 632.23 105.724 632.23 100.37V22.764" fill="#005BFF"></path> <path fill-rule="evenodd" clip-rule="evenodd" d="M667.627 127.769C668.253 125.339 668.588 122.604 668.588 119.602C668.588 102.65 657.884 83.5343 644.7 76.9426C640.131 74.6585 635.861 74.1752 632.23 75.2239V100.37C632.23 105.724 635.708 111.81 639.991 113.951L667.627 127.769" fill="#5A7DA5"></path> <path fill-rule="evenodd" clip-rule="evenodd" d="M699.686 82.8006L718.322 92.1186V110.754L699.686 101.437V82.8006Z" fill="#8DB6FF"></path> <path fill-rule="evenodd" clip-rule="evenodd" d="M643.194 54.5537L661.829 63.8723V82.5083L643.194 73.191V54.5537Z" fill="#8DB6FF"></path> <path fill-rule="evenodd" clip-rule="evenodd" d="M671.417 68.6662L690.053 77.9843V96.6204L671.417 87.3024V68.6662Z" fill="#8DB6FF"></path> <path fill-rule="evenodd" clip-rule="evenodd" d="M699.686 111.025L718.322 120.343V138.979L699.686 129.661V111.025Z" fill="#8DB6FF"></path> <path fill-rule="evenodd" clip-rule="evenodd" d="M671.417 96.8903L690.053 106.208V124.844L671.417 115.526V96.8903Z" fill="#8DB6FF"></path> <path fill-rule="evenodd" clip-rule="evenodd" d="M726.359 154.975L726.359 154.975L733.894 151.202V151.201C735.78 150.374 737 148.166 737 144.994V67.387C737 62.0326 733.523 55.9469 729.239 53.8061L647.752 13.0618C645.955 12.1646 644.3 12.1018 642.984 12.7268L642.983 12.7284C642.934 12.7509 642.886 12.7751 642.838 12.7993L635.149 16.6427C636.477 15.979 638.16 16.0274 639.991 16.9423L721.479 57.6866C725.762 59.8274 729.239 65.9131 729.239 71.2675V148.874C729.239 151.918 728.116 154.074 726.359 154.975" fill="#8DB6FF"></path> <path fill-rule="evenodd" clip-rule="evenodd" d="M706.456 54.241C703.553 52.7897 701.196 54.6405 701.196 58.3728C701.196 62.1067 703.553 66.3142 706.456 67.7656C709.359 69.2169 711.716 67.3661 711.716 63.6338C711.716 59.9015 709.359 55.6924 706.456 54.241Z" fill="#5A7DA5"></path> <path fill-rule="evenodd" clip-rule="evenodd" d="M699.805 66.3433L694.904 63.8932C691.486 62.1841 689.285 57.946 689.285 51.9521C689.285 41.6444 695.794 30.0223 703.811 26.013C707.166 24.3361 710.258 24.2556 712.718 25.4862L717.618 27.9363C715.158 26.7056 712.067 26.7862 708.711 28.463C700.694 32.4724 694.186 44.0945 694.186 54.4022C694.186 60.3961 696.386 64.6342 699.805 66.3433" fill="#F91155"></path> <path fill-rule="evenodd" clip-rule="evenodd" d="M705.004 57.4741C704.615 57.7254 704.22 57.9526 703.819 58.1523C702.521 58.8015 701.277 59.1188 700.13 59.1365C701.532 61.0099 703.618 61.8846 706.048 61.4899L705.004 57.4741ZM718.145 48.2586C718.808 46.1613 719.179 43.9963 719.179 41.9055C719.179 36.1468 716.36 32.6368 712.4 32.698C713.589 34.2863 714.287 36.5946 714.287 39.4586C714.287 41.5495 713.915 43.716 713.253 45.8133L718.145 48.2586" fill="#F91155"></path> <path fill-rule="evenodd" clip-rule="evenodd" d="M721.401 49.8872C722.57 46.6108 723.237 43.1765 723.237 39.8775C723.237 29.5698 716.728 24.4555 708.711 28.4632C700.694 32.4725 694.185 44.0947 694.185 54.4024C694.185 64.5973 700.553 69.7117 708.449 65.944L706.456 63.0606L706.048 61.49C701.559 62.2181 698.243 58.6195 698.243 52.3744C698.243 44.9452 702.934 36.5705 708.711 33.6807C714.489 30.7925 719.179 34.478 719.179 41.9056C719.179 43.9964 718.808 46.1614 718.145 48.2587L721.401 49.8872" fill="#E21B56"></path> <path fill-rule="evenodd" clip-rule="evenodd" d="M710.775 59.3038C710.108 59.8096 709.418 60.2446 708.711 60.599C705.877 62.0149 703.305 61.8506 701.419 60.4379C701.96 63.0168 703.436 65.5426 705.279 67.0068C706.379 66.8006 707.529 66.4076 708.711 65.8164C709.74 65.301 710.743 64.6631 711.711 63.9173C711.714 63.8238 711.716 63.7288 711.716 63.6338C711.716 62.2001 711.368 60.6956 710.775 59.3038Z" fill="#E21B56"></path> <path fill-rule="evenodd" clip-rule="evenodd" d="M707.809 55.1432C706.579 56.4109 705.231 57.4451 703.819 58.1522C702.922 58.6 702.051 58.89 701.22 59.0333C701.253 59.4989 701.321 59.9692 701.419 60.438C703.305 61.8507 705.877 62.015 708.711 60.5991C709.418 60.2447 710.108 59.8098 710.775 59.304C710.073 57.6577 709.028 56.1693 707.809 55.1432" fill="#F91155"></path> <path fill-rule="evenodd" clip-rule="evenodd" d="M657.163 29.5939C654.26 28.1425 651.903 29.995 651.903 33.7273C651.903 37.4596 654.26 41.6687 657.163 43.12C660.065 44.5714 662.422 42.7189 662.422 38.9866C662.422 35.2543 660.065 31.0453 657.163 29.5939Z" fill="#5A7DA5"></path> <path fill-rule="evenodd" clip-rule="evenodd" d="M650.512 41.696L645.61 39.246C642.192 37.5369 639.991 33.2988 639.991 27.3065C639.991 16.9988 646.501 5.37508 654.518 1.36573C657.873 -0.311141 660.964 -0.391685 663.424 0.838988L668.324 3.28907C665.864 2.06 662.773 2.13893 659.418 3.81742C651.401 7.82516 644.892 19.4489 644.892 29.7566C644.892 35.7505 647.094 39.987 650.512 41.696" fill="#F91155"></path> <path fill-rule="evenodd" clip-rule="evenodd" d="M655.71 32.8268C655.322 33.0781 654.925 33.3052 654.526 33.505C653.227 34.1541 651.984 34.4715 650.837 34.4892C652.238 36.3642 654.324 37.2373 656.755 36.8426L655.71 32.8268ZM668.852 23.6129C669.515 21.5156 669.885 19.349 669.885 17.2598C669.885 11.4994 667.066 7.99105 663.107 8.05065C664.295 9.63893 664.993 11.9472 664.993 14.8129C664.993 16.9038 664.621 19.0687 663.959 21.166L668.852 23.6129" fill="#F91155"></path> <path fill-rule="evenodd" clip-rule="evenodd" d="M672.107 25.2399C673.277 21.9634 673.944 18.5291 673.944 15.2302C673.944 4.92246 667.435 -0.191925 659.418 3.81743C651.401 7.82517 644.892 19.4489 644.892 29.7566C644.892 39.9516 651.259 45.0659 659.155 41.2982L657.163 38.4132L656.755 36.8427C652.266 37.5708 648.951 33.9722 648.951 27.727C648.951 20.2994 653.64 11.9231 659.418 9.03491C665.196 6.14509 669.885 9.83066 669.885 17.2598C669.885 19.3491 669.515 21.5156 668.853 23.6129L672.107 25.2399" fill="#E21B56"></path> <path fill-rule="evenodd" clip-rule="evenodd" d="M661.481 34.6582C660.815 35.164 660.125 35.599 659.418 35.9517C656.584 37.3693 654.012 37.2033 652.126 35.7906C652.667 38.3696 654.142 40.8954 655.985 42.3596C657.085 42.1534 658.236 41.7604 659.418 41.1692C660.446 40.6554 661.449 40.0159 662.417 39.27C662.42 39.1766 662.422 39.0816 662.422 38.9865C662.422 37.5529 662.074 36.0484 661.481 34.6582" fill="#E21B56"></path> <path fill-rule="evenodd" clip-rule="evenodd" d="M658.516 30.4958C657.285 31.7652 655.939 32.7993 654.526 33.5048C653.629 33.9543 652.757 34.2442 651.926 34.386C651.96 34.8515 652.027 35.3219 652.126 35.7906C654.012 37.2033 656.585 37.3692 659.418 35.9517C660.125 35.5989 660.815 35.164 661.481 34.6582C660.779 33.0103 659.734 31.5219 658.516 30.4958" fill="#F91155"></path> <path fill-rule="evenodd" clip-rule="evenodd" d="M655.885 140.97C661.493 138.151 665.103 131.188 665.103 121.345C665.103 104.393 654.397 85.2777 641.212 78.6852C635.742 75.9503 630.7 75.7973 626.67 77.7656V77.7654L626.667 77.7673C626.597 77.8013 626.528 77.8358 626.46 77.8709L616.273 82.964L618.633 88.0594C617.784 90.7848 617.322 93.936 617.322 97.4557C617.322 114.408 628.028 133.523 641.212 140.116C641.863 140.441 642.507 140.729 643.144 140.982L645.536 146.145L655.885 140.97" fill="#FFAFC7"></path> <path fill-rule="evenodd" clip-rule="evenodd" d="M631.225 88.5515C620.132 83.0047 611.125 90.0813 611.125 104.344C611.125 118.607 620.132 134.69 631.225 140.237C642.319 145.783 651.325 138.707 651.325 124.444C651.325 110.181 642.319 94.0982 631.225 88.5515Z" fill="#A7293A"></path> <path fill-rule="evenodd" clip-rule="evenodd" d="M633.645 87.3418C622.551 81.7951 613.545 88.8715 613.545 103.134C613.545 117.397 622.551 133.48 633.645 139.027C644.738 144.574 653.745 137.497 653.745 123.234C653.745 108.971 644.738 92.8884 633.645 87.3418Z" fill="#E7EBF0"></path> <path fill-rule="evenodd" clip-rule="evenodd" d="M636.544 114.186C636.544 114.186 635.521 103.997 634.801 96.8236C634.764 96.4492 634.45 96.1636 634.073 96.1615C633.698 96.1594 633.381 96.4417 633.339 96.8155C632.625 103.213 631.673 111.75 631.673 111.75C631.626 111.95 631.602 112.171 631.602 112.41C631.602 114.042 632.725 115.928 634.109 116.619C635.491 117.31 636.614 116.547 636.614 114.916C636.614 114.676 636.589 114.432 636.544 114.186Z" fill="#ADB5C0"></path> <path fill-rule="evenodd" clip-rule="evenodd" d="M634.216 117.483C634.759 117.212 635.104 116.574 635.104 115.67C635.104 115.431 635.08 115.186 635.035 114.941C635.035 114.941 634.155 104.742 633.453 97.7472C633.406 97.286 633.02 96.934 632.556 96.9314C632.409 96.9306 632.271 96.965 632.147 97.0268L631.331 97.4342L631.638 97.848L630.162 112.505C630.117 112.705 630.093 112.926 630.093 113.165C630.093 114.796 631.215 116.682 632.599 117.374C632.867 117.508 633.126 117.588 633.369 117.617L633.334 117.925L634.216 117.483" fill="#454B52"></path> <path fill-rule="evenodd" clip-rule="evenodd" d="M634.152 115.382C634.152 115.382 633.129 105.194 632.409 98.02C632.371 97.6458 632.056 97.3602 631.681 97.3581C631.304 97.356 630.987 97.6381 630.945 98.0119C630.231 104.409 629.279 112.947 629.279 112.947C629.234 113.147 629.21 113.367 629.21 113.606C629.21 115.238 630.333 117.124 631.715 117.816C633.099 118.507 634.221 117.744 634.221 116.112C634.221 115.873 634.197 115.628 634.152 115.382" fill="#717C8A"></path> <path fill-rule="evenodd" clip-rule="evenodd" d="M630.157 111.767V111.767C630.157 111.767 626.383 114.043 624.062 115.443C623.796 115.603 623.659 115.915 623.722 116.219C623.783 116.524 624.031 116.757 624.339 116.801C627.345 117.224 632.593 117.963 632.593 117.963C632.78 117.992 632.962 117.992 633.137 117.96C634.336 117.743 634.524 115.563 633.77 113.831C632.738 111.461 631.04 111.218 630.157 111.767" fill="#616A75"></path> <path fill-rule="evenodd" clip-rule="evenodd" d="M632.86 118.138C633.896 117.745 634.028 115.701 633.313 114.059C632.327 111.795 630.734 111.472 629.824 111.927L628.919 112.38L628.952 112.447L623.606 115.671C623.339 115.832 623.202 116.143 623.265 116.448C623.327 116.753 623.574 116.986 623.883 117.029L631.842 118.15L632.047 118.551L632.86 118.144V118.138Z" fill="#454B52"></path> <path fill-rule="evenodd" clip-rule="evenodd" d="M628.796 112.448C628.796 112.448 625.02 114.724 622.701 116.123C622.433 116.284 622.296 116.595 622.359 116.9C622.422 117.205 622.669 117.438 622.978 117.482C625.982 117.905 631.232 118.644 631.232 118.644V118.644C631.417 118.673 631.601 118.672 631.776 118.641C632.973 118.424 633.163 116.244 632.408 114.512C631.377 112.142 629.679 111.899 628.796 112.448" fill="#717C8A"></path> <path fill-rule="evenodd" clip-rule="evenodd" d="M630.204 114.336C629.655 114.062 629.21 114.412 629.21 115.117C629.21 115.822 629.655 116.617 630.204 116.892C630.752 117.166 631.198 116.816 631.198 116.111C631.198 115.406 630.752 114.61 630.204 114.336Z" fill="#8DB6FF"></path> <path fill-rule="evenodd" clip-rule="evenodd" d="M645.267 104.477C644.719 104.202 644.275 104.552 644.275 105.257C644.275 105.963 644.719 106.758 645.267 107.032C645.816 107.306 646.261 106.956 646.261 106.251C646.261 105.546 645.816 104.751 645.267 104.477Z" fill="#5A7DA5"></path> <path fill-rule="evenodd" clip-rule="evenodd" d="M620.708 92.1964C620.159 91.9222 619.714 92.2721 619.714 92.9773C619.714 93.6825 620.159 94.4778 620.708 94.752C621.256 95.0263 621.702 94.6764 621.702 93.9712C621.702 93.266 621.256 92.4707 620.708 92.1964Z" fill="#5A7DA5"></path> <path fill-rule="evenodd" clip-rule="evenodd" d="M649.497 119.832C648.948 119.558 648.503 119.908 648.503 120.613C648.503 121.318 648.948 122.114 649.497 122.388C650.045 122.662 650.491 122.312 650.491 121.607C650.491 120.902 650.045 120.106 649.497 119.832Z" fill="#5A7DA5"></path> <path fill-rule="evenodd" clip-rule="evenodd" d="M617.667 103.918C617.117 103.643 616.673 103.993 616.673 104.698C616.673 105.403 617.117 106.199 617.667 106.473C618.214 106.747 618.661 106.397 618.661 105.692C618.661 104.987 618.214 104.192 617.667 103.918Z" fill="#5A7DA5"></path> <path fill-rule="evenodd" clip-rule="evenodd" d="M633.645 91.01C633.096 90.7357 632.651 91.0856 632.651 91.7908C632.651 92.496 633.096 93.2913 633.645 93.5654C634.192 93.8398 634.639 93.4899 634.639 92.7847C634.639 92.0795 634.192 91.2842 633.645 91.01Z" fill="#5A7DA5"></path> <path fill-rule="evenodd" clip-rule="evenodd" d="M633.645 133.285C633.096 133.01 632.651 133.36 632.651 134.065C632.651 134.771 633.096 135.566 633.645 135.84C634.192 136.114 634.639 135.765 634.639 135.059C634.639 134.354 634.192 133.559 633.645 133.285Z" fill="#5A7DA5"></path> <path fill-rule="evenodd" clip-rule="evenodd" d="M623.129 121.526C622.58 121.252 622.135 121.602 622.135 122.307C622.135 123.012 622.58 123.808 623.129 124.082C623.677 124.356 624.122 124.006 624.122 123.301C624.122 122.596 623.677 121.801 623.129 121.526Z" fill="#5A7DA5"></path> <path fill-rule="evenodd" clip-rule="evenodd" d="M645.267 132.596C644.719 132.322 644.275 132.672 644.275 133.377C644.275 134.082 644.719 134.877 645.267 135.152C645.816 135.426 646.261 135.076 646.261 134.371C646.261 133.666 645.816 132.87 645.267 132.596" fill="#5A7DA5"></path> <path fill-rule="evenodd" clip-rule="evenodd" d="M630.813 116.928L631.148 116.76C631.382 116.643 631.533 116.353 631.533 115.943C631.533 115.238 631.087 114.443 630.539 114.169C630.309 114.054 630.098 114.048 629.93 114.132L629.594 114.3C629.763 114.216 629.974 114.221 630.204 114.336C630.752 114.61 631.198 115.406 631.198 116.111C631.198 116.521 631.046 116.811 630.813 116.928Z" fill="#005BFF"></path> <path fill-rule="evenodd" clip-rule="evenodd" d="M630.89 83.8466C617.706 77.2536 607 85.6649 607 102.617C607 119.569 617.706 138.684 630.89 145.277C644.075 151.869 654.779 143.459 654.779 126.507C654.779 109.554 644.075 90.4392 630.89 83.8466ZM631.225 88.5514C620.131 83.0047 611.125 90.0813 611.125 104.344C611.125 118.607 620.131 134.69 631.225 140.237C642.319 145.783 651.325 138.707 651.325 124.444C651.325 110.181 642.319 94.0982 631.225 88.5514Z" fill="#E21B56"></path> </svg> 