<?xml version="1.0" encoding="UTF-8"?> <svg xmlns="http://www.w3.org/2000/svg" width="886" height="482" viewBox="0 0 886 482" fill="none"> <g clip-path="url(#clip0_116:703)"> <rect width="886" height="482" rx="30" fill="white"></rect> <path d="M606.91 236.357C606.822 233.591 606.669 230.842 606.454 228.11C606.042 228.143 605.68 227.837 605.646 227.425C605.375 224.179 605.016 220.96 604.569 217.768C604.512 217.358 604.797 216.98 605.206 216.921C604.811 214.186 604.353 211.471 603.832 208.778C603.426 208.857 603.033 208.593 602.952 208.187C602.321 204.997 601.602 201.838 600.799 198.714C600.696 198.313 600.937 197.905 601.337 197.801C600.637 195.128 599.875 192.48 599.053 189.858C598.658 189.983 598.237 189.765 598.112 189.371C597.126 186.274 596.055 183.215 594.901 180.196C594.754 179.809 594.947 179.377 595.333 179.228C594.337 176.654 593.281 174.11 592.168 171.596C591.791 171.765 591.348 171.596 591.178 171.218C589.851 168.255 588.442 165.337 586.956 162.465C586.765 162.098 586.909 161.646 587.275 161.455C585.997 159.012 584.662 156.602 583.273 154.229C582.917 154.438 582.458 154.32 582.247 153.964C580.596 151.171 578.869 148.429 577.069 145.74C576.839 145.396 576.931 144.931 577.274 144.701C575.731 142.417 574.135 140.172 572.487 137.967C572.157 138.215 571.687 138.149 571.438 137.818C569.487 135.229 567.464 132.696 565.373 130.223C565.106 129.907 565.146 129.435 565.461 129.167C563.673 127.071 561.837 125.017 559.954 123.009C559.653 123.292 559.179 123.278 558.895 122.978C556.668 120.624 554.376 118.332 552.022 116.105C551.722 115.821 551.708 115.347 551.991 115.046C549.983 113.163 547.929 111.327 545.833 109.539C545.566 109.854 545.093 109.894 544.777 109.627C542.304 107.536 539.771 105.513 537.182 103.562C536.851 103.313 536.785 102.843 537.033 102.513C534.828 100.866 532.583 99.2695 530.299 97.7262C530.069 98.0693 529.604 98.161 529.26 97.9309C526.571 96.1306 523.829 94.4037 521.036 92.7529C520.68 92.5424 520.562 92.0834 520.771 91.727C518.398 90.3377 515.989 89.003 513.545 87.7246C513.354 88.0914 512.902 88.2346 512.535 88.0445C509.663 86.5579 506.745 85.1493 503.782 83.8215C503.404 83.6523 503.235 83.2095 503.404 82.8319C500.89 81.7186 498.346 80.6631 495.772 79.667C495.623 80.0529 495.191 80.2461 494.804 80.0985C491.785 78.9455 488.726 77.8745 485.629 76.8882C485.235 76.7626 485.017 76.3417 485.142 75.9475C482.52 75.1252 479.872 74.3632 477.199 73.6633C477.095 74.0635 476.687 74.3043 476.286 74.2012C473.162 73.3975 470.003 72.6788 466.813 72.0477C466.407 71.9674 466.143 71.5737 466.222 71.168C463.529 70.6474 460.814 70.1888 458.079 69.7939C458.021 70.2033 457.642 70.4885 457.232 70.4311C454.04 69.9844 450.821 69.6247 447.575 69.3544C447.163 69.3201 446.857 68.9584 446.89 68.5463C444.158 68.3306 441.409 68.1779 438.643 68.0898C438.631 68.5031 438.286 68.8286 437.873 68.8172C436.254 68.7725 434.63 68.75 433 68.75C431.37 68.75 429.746 68.7725 428.127 68.8172C427.714 68.8286 427.369 68.5031 427.357 68.0898C424.591 68.1779 421.842 68.3306 419.11 68.5463C419.143 68.9584 418.837 69.3201 418.425 69.3544C415.179 69.6247 411.96 69.9844 408.768 70.4311C408.358 70.4885 407.98 70.2033 407.921 69.7939C405.186 70.1888 402.471 70.6473 399.778 71.168C399.857 71.5737 399.593 71.9674 399.187 72.0477C395.997 72.6788 392.838 73.3975 389.714 74.2012C389.313 74.3043 388.905 74.0635 388.801 73.6633C386.128 74.3632 383.48 75.1252 380.858 75.9475C380.983 76.3417 380.765 76.7626 380.371 76.8882C377.274 77.8745 374.215 78.9455 371.196 80.0985C370.809 80.2461 370.377 80.0529 370.228 79.667C367.654 80.6631 365.11 81.7186 362.596 82.8319C362.765 83.2095 362.596 83.6523 362.218 83.8215C359.255 85.1493 356.337 86.5579 353.465 88.0445C353.098 88.2346 352.646 88.0914 352.455 87.7246C350.011 89.003 347.602 90.3377 345.229 91.727C345.438 92.0834 345.32 92.5424 344.964 92.7529C342.171 94.4037 339.429 96.1306 336.74 97.9309C336.396 98.161 335.931 98.0693 335.701 97.7262C333.417 99.2694 331.172 100.865 328.967 102.513C329.215 102.843 329.149 103.313 328.818 103.562C326.229 105.513 323.696 107.536 321.223 109.627C320.907 109.894 320.435 109.854 320.167 109.539C318.071 111.327 316.017 113.163 314.009 115.046C314.292 115.347 314.278 115.821 313.978 116.105C311.624 118.332 309.332 120.624 307.105 122.978C306.821 123.278 306.347 123.292 306.046 123.009C304.163 125.017 302.327 127.071 300.539 129.167C300.854 129.435 300.894 129.907 300.627 130.223C298.536 132.696 296.513 135.229 294.562 137.818C294.313 138.149 293.843 138.215 293.513 137.967C291.865 140.172 290.269 142.417 288.726 144.701C289.069 144.931 289.161 145.396 288.931 145.74C287.131 148.429 285.404 151.171 283.753 153.964C283.542 154.32 283.083 154.438 282.727 154.229C281.338 156.602 280.003 159.011 278.725 161.455C279.091 161.646 279.235 162.098 279.044 162.465C277.558 165.337 276.149 168.255 274.822 171.218C274.652 171.596 274.21 171.765 273.832 171.596C272.719 174.11 271.663 176.654 270.667 179.228C271.053 179.377 271.246 179.809 271.099 180.196C269.945 183.215 268.874 186.274 267.888 189.371C267.763 189.765 267.342 189.983 266.947 189.858C266.125 192.48 265.363 195.128 264.663 197.801C265.063 197.905 265.304 198.313 265.201 198.714C264.398 201.838 263.679 204.997 263.048 208.187C262.967 208.593 262.574 208.857 262.168 208.778C261.647 211.471 261.189 214.186 260.794 216.921C261.203 216.98 261.488 217.358 261.431 217.768C260.984 220.96 260.625 224.179 260.354 227.425C260.32 227.837 259.958 228.143 259.546 228.11C259.331 230.842 259.178 233.591 259.09 236.357C259.503 236.369 259.829 236.714 259.817 237.127C259.772 238.746 259.75 240.37 259.75 242C259.75 243.63 259.772 245.254 259.817 246.873C259.829 247.286 259.503 247.631 259.09 247.643C259.178 250.409 259.331 253.158 259.546 255.89C259.958 255.857 260.32 256.163 260.354 256.575C260.625 259.821 260.984 263.04 261.431 266.232C261.488 266.642 261.203 267.021 260.794 267.079C261.189 269.814 261.647 272.529 262.168 275.222C262.574 275.143 262.967 275.407 263.048 275.813C263.679 279.003 264.398 282.162 265.201 285.286C265.304 285.687 265.063 286.095 264.663 286.199C265.363 288.872 266.125 291.52 266.947 294.142C267.342 294.017 267.763 294.235 267.888 294.629C268.874 297.726 269.945 300.785 271.099 303.804C271.246 304.191 271.053 304.623 270.667 304.772C271.663 307.346 272.719 309.89 273.832 312.404C274.21 312.235 274.652 312.404 274.822 312.782C276.149 315.745 277.558 318.663 279.044 321.535C279.235 321.902 279.091 322.354 278.725 322.545C280.003 324.989 281.338 327.398 282.727 329.771C283.083 329.562 283.542 329.68 283.753 330.036C285.404 332.829 287.131 335.571 288.931 338.26C289.161 338.604 289.069 339.069 288.726 339.299C290.269 341.583 291.865 343.828 293.513 346.033C293.843 345.785 294.313 345.851 294.562 346.182C296.513 348.771 298.536 351.304 300.627 353.777C300.894 354.093 300.854 354.566 300.539 354.833C302.327 356.929 304.163 358.983 306.046 360.991C306.347 360.708 306.821 360.722 307.105 361.022C309.332 363.376 311.624 365.668 313.978 367.895C314.278 368.179 314.292 368.653 314.009 368.954C316.017 370.837 318.071 372.673 320.167 374.461C320.435 374.146 320.907 374.106 321.223 374.373C323.696 376.464 326.229 378.487 328.818 380.438C329.149 380.687 329.215 381.157 328.967 381.487C331.172 383.135 333.417 384.731 335.701 386.274C335.931 385.931 336.396 385.839 336.74 386.069C339.429 387.869 342.171 389.596 344.964 391.247C345.32 391.458 345.438 391.917 345.229 392.273C347.602 393.662 350.012 394.997 352.455 396.275C352.646 395.909 353.098 395.765 353.465 395.956C356.337 397.442 359.255 398.851 362.218 400.178C362.596 400.348 362.765 400.79 362.596 401.168C365.11 402.281 367.654 403.337 370.228 404.333C370.377 403.947 370.809 403.754 371.196 403.902C374.215 405.055 377.274 406.126 380.371 407.112C380.765 407.237 380.983 407.658 380.858 408.053C383.48 408.875 386.128 409.637 388.801 410.337C388.905 409.937 389.313 409.696 389.714 409.799C392.838 410.603 395.997 411.321 399.187 411.952C399.593 412.033 399.857 412.426 399.778 412.832C402.471 413.353 405.186 413.811 407.921 414.206C407.98 413.797 408.358 413.512 408.768 413.569C411.96 414.016 415.179 414.375 418.425 414.646C418.837 414.68 419.143 415.042 419.11 415.454C421.842 415.669 424.591 415.822 427.357 415.91C427.369 415.497 427.714 415.171 428.127 415.183C429.746 415.228 431.37 415.25 433 415.25C434.63 415.25 436.254 415.228 437.873 415.183C438.286 415.171 438.631 415.497 438.643 415.91C441.409 415.822 444.158 415.669 446.89 415.454C446.857 415.042 447.163 414.68 447.575 414.646C450.821 414.375 454.04 414.016 457.232 413.569C457.642 413.512 458.02 413.797 458.079 414.206C460.814 413.811 463.529 413.353 466.222 412.832C466.143 412.426 466.407 412.033 466.813 411.952C470.003 411.321 473.162 410.602 476.286 409.799C476.687 409.696 477.095 409.937 477.199 410.337C479.872 409.637 482.52 408.875 485.142 408.053C485.017 407.658 485.235 407.237 485.629 407.112C488.726 406.126 491.785 405.055 494.804 403.901C495.191 403.754 495.623 403.947 495.772 404.333C498.346 403.337 500.89 402.281 503.404 401.168C503.235 400.79 503.404 400.348 503.782 400.178C506.745 398.851 509.663 397.442 512.535 395.956C512.902 395.765 513.354 395.909 513.545 396.275C515.988 394.997 518.398 393.662 520.771 392.273C520.562 391.917 520.68 391.458 521.036 391.247C523.829 389.596 526.571 387.869 529.26 386.069C529.604 385.839 530.069 385.931 530.299 386.274C532.583 384.731 534.828 383.135 537.033 381.487C536.785 381.157 536.851 380.687 537.182 380.438C539.771 378.487 542.304 376.464 544.777 374.373C545.093 374.106 545.565 374.146 545.833 374.461C547.929 372.673 549.983 370.837 551.991 368.954C551.708 368.653 551.722 368.179 552.022 367.895C554.376 365.668 556.668 363.376 558.895 361.022C559.179 360.722 559.653 360.708 559.954 360.991C561.837 358.983 563.673 356.929 565.461 354.833C565.146 354.565 565.106 354.093 565.373 353.777C567.464 351.304 569.487 348.771 571.438 346.182C571.687 345.851 572.157 345.785 572.487 346.033C574.135 343.828 575.731 341.583 577.274 339.299C576.931 339.069 576.839 338.604 577.069 338.26C578.869 335.571 580.596 332.829 582.247 330.036C582.458 329.68 582.917 329.562 583.273 329.771C584.662 327.398 585.997 324.989 587.275 322.545C586.909 322.354 586.765 321.902 586.956 321.535C588.442 318.663 589.851 315.745 591.178 312.782C591.348 312.404 591.79 312.235 592.168 312.404C593.281 309.89 594.337 307.346 595.333 304.772C594.947 304.623 594.754 304.191 594.901 303.804C596.055 300.785 597.126 297.726 598.112 294.629C598.237 294.235 598.658 294.017 599.053 294.142C599.875 291.52 600.637 288.872 601.337 286.199C600.937 286.095 600.696 285.687 600.799 285.286C601.602 282.162 602.321 279.003 602.952 275.813C603.033 275.407 603.426 275.143 603.832 275.222C604.353 272.529 604.811 269.814 605.206 267.079C604.797 267.02 604.512 266.642 604.569 266.232C605.016 263.04 605.375 259.821 605.646 256.575C605.68 256.163 606.042 255.857 606.454 255.89C606.669 253.158 606.822 250.409 606.91 247.643C606.497 247.631 606.171 247.286 606.183 246.873C606.228 245.254 606.25 243.63 606.25 242C606.25 240.37 606.228 238.746 606.183 237.127C606.171 236.714 606.497 236.369 606.91 236.357Z" fill="#D0EDFF" stroke="#002F85" stroke-width="1.5" stroke-linecap="round" stroke-dasharray="10 10"></path> <path d="M571.971 135.89H319.08C311.694 135.89 305.652 141.962 305.652 149.383V296.682C305.652 304.103 311.694 310.175 319.08 310.175H571.971C579.357 310.175 585.399 304.103 585.399 296.682V149.383C585.399 141.962 579.357 135.89 571.971 135.89Z" fill="#353535"></path> <path d="M588.563 310.227L588.563 310.227L626.273 366.898C626.483 367.214 626.562 367.488 626.561 367.724C626.561 367.957 626.482 368.199 626.298 368.453C625.917 368.981 625.113 369.517 623.856 369.991C621.363 370.93 617.375 371.519 612.478 371.519H278.46C273.621 371.519 269.661 370.93 267.182 369.991C265.932 369.517 265.131 368.981 264.751 368.453C264.568 368.2 264.49 367.958 264.489 367.724C264.489 367.488 264.568 367.214 264.778 366.898L302.487 310.227L302.488 310.227C302.932 309.557 303.714 308.887 304.792 308.258C305.864 307.633 307.198 307.067 308.711 306.59C311.738 305.636 315.436 305.053 319.08 305.053H571.971C575.615 305.053 579.313 305.636 582.339 306.59C583.852 307.067 585.187 307.633 586.259 308.258C587.337 308.887 588.118 309.557 588.563 310.227Z" fill="white" stroke="#DBE3F1"></path> <path d="M612.59 372.019H278.572C270.068 372.019 264.249 370.22 264.137 367.858C263.466 375.167 276.67 379.89 285.286 379.89H605.876C614.493 379.89 627.697 375.167 627.025 367.858C626.802 370.22 620.983 372.019 612.59 372.019Z" fill="#DBE3F1"></path> <path d="M326.017 314.561C324.675 314.561 323.891 314.223 324.115 313.661C324.451 312.986 324.675 312.649 325.122 311.974C325.346 311.525 326.689 311.075 327.92 311.075C331.612 311.075 333.403 311.075 337.095 311.075C338.326 311.075 339.221 311.412 338.998 311.974C338.662 312.649 338.438 312.986 338.102 313.661C337.879 314.111 336.648 314.561 335.305 314.561C331.612 314.561 329.71 314.561 326.017 314.561Z" fill="#DBE3F1"></path> <path d="M342.355 314.561C341.012 314.561 340.229 314.223 340.452 313.661C340.788 312.986 340.9 312.649 341.236 311.974C341.46 311.525 342.69 311.075 343.921 311.075C347.614 311.075 349.404 311.075 353.097 311.075C354.328 311.075 355.223 311.412 354.999 311.974C354.664 312.649 354.552 312.986 354.328 313.661C354.104 314.111 352.873 314.561 351.642 314.561C347.95 314.561 346.159 314.561 342.355 314.561Z" fill="#DBE3F1"></path> <path d="M358.804 314.561C357.461 314.561 356.566 314.223 356.79 313.661C357.125 312.986 357.237 312.649 357.461 311.974C357.685 311.525 358.804 311.075 360.147 311.075C363.839 311.075 365.63 311.075 369.322 311.075C370.553 311.075 371.448 311.412 371.337 311.974C371.113 312.649 371.001 312.986 370.777 313.661C370.665 314.111 369.434 314.561 368.091 314.561C364.399 314.561 362.496 314.561 358.804 314.561Z" fill="#DBE3F1"></path> <path d="M375.253 314.561C373.91 314.561 373.015 314.223 373.239 313.661C373.462 312.986 373.574 312.649 373.798 311.974C373.91 311.525 375.141 311.075 376.372 311.075C380.064 311.075 381.855 311.075 385.547 311.075C386.778 311.075 387.785 311.412 387.674 311.974C387.45 312.649 387.45 312.986 387.226 313.661C387.114 314.111 385.995 314.561 384.652 314.561C380.848 314.561 378.945 314.561 375.253 314.561Z" fill="#DBE3F1"></path> <path d="M391.59 314.561C390.247 314.561 389.352 314.223 389.464 313.661C389.688 312.986 389.688 312.649 389.912 311.974C390.024 311.525 391.142 311.075 392.485 311.075C396.178 311.075 397.968 311.075 401.661 311.075C402.892 311.075 403.899 311.412 403.787 311.974C403.675 312.649 403.563 312.986 403.451 313.661C403.339 314.111 402.22 314.561 400.99 314.561C397.185 314.561 395.395 314.561 391.59 314.561Z" fill="#DBE3F1"></path> <path d="M408.039 314.561C406.696 314.561 405.801 314.223 405.801 313.661C405.913 312.986 406.025 312.649 406.137 311.974C406.249 311.525 407.368 311.075 408.599 311.075C412.291 311.075 414.082 311.075 417.774 311.075C419.005 311.075 420.012 311.412 420.012 311.974C419.901 312.649 419.901 312.986 419.789 313.661C419.677 314.111 418.67 314.561 417.327 314.561C413.634 314.561 411.732 314.561 408.039 314.561Z" fill="#DBE3F1"></path> <path d="M424.488 314.561C423.146 314.561 422.139 314.223 422.25 313.661C422.362 312.986 422.362 312.649 422.474 311.974C422.474 311.525 423.593 311.075 424.824 311.075C428.517 311.075 430.307 311.075 434 311.075C435.231 311.075 436.238 311.412 436.238 311.974C436.238 312.649 436.238 312.986 436.126 313.661C436.126 314.111 435.007 314.561 433.776 314.561C430.083 314.561 428.181 314.561 424.488 314.561Z" fill="#DBE3F1"></path> <path d="M440.826 314.561C439.483 314.561 438.476 314.223 438.476 313.661C438.476 312.986 438.476 312.649 438.476 311.974C438.476 311.525 439.483 311.075 440.826 311.075C444.518 311.075 446.309 311.075 450.001 311.075C451.232 311.075 452.351 311.412 452.351 311.974C452.351 312.649 452.351 312.986 452.351 313.661C452.351 314.111 451.344 314.561 450.001 314.561C446.421 314.561 444.63 314.561 440.826 314.561Z" fill="#DBE3F1"></path> <path d="M457.275 314.561C455.932 314.561 454.925 314.223 454.925 313.661C454.925 312.986 454.925 312.649 454.813 311.974C454.813 311.525 455.82 311.075 457.051 311.075C460.744 311.075 462.534 311.075 466.227 311.075C467.458 311.075 468.577 311.412 468.577 311.974C468.688 312.649 468.688 312.986 468.8 313.661C468.8 314.111 467.793 314.561 466.562 314.561C462.87 314.561 460.967 314.561 457.275 314.561Z" fill="#DBE3F1"></path> <path d="M473.724 314.561C472.381 314.561 471.374 314.223 471.262 313.661C471.15 312.986 471.15 312.649 471.038 311.974C470.926 311.525 471.933 311.075 473.276 311.075C476.969 311.075 478.759 311.075 482.452 311.075C483.683 311.075 484.802 311.412 484.914 311.974C485.026 312.649 485.138 312.986 485.249 313.661C485.361 314.111 484.354 314.561 483.011 314.561C479.319 314.561 477.417 314.561 473.724 314.561Z" fill="#DBE3F1"></path> <path d="M490.061 314.561C488.718 314.561 487.599 314.223 487.599 313.661C487.487 312.986 487.376 312.649 487.264 311.974C487.152 311.525 488.159 311.075 489.39 311.075C493.082 311.075 494.873 311.075 498.565 311.075C499.796 311.075 501.027 311.412 501.139 311.974C501.363 312.649 501.363 312.986 501.587 313.661C501.699 314.111 500.803 314.561 499.461 314.561C495.656 314.561 493.866 314.561 490.061 314.561Z" fill="#DBE3F1"></path> <path d="M506.51 314.561C505.167 314.561 504.048 314.223 503.937 313.661C503.713 312.986 503.713 312.649 503.489 311.974C503.377 311.525 504.272 311.075 505.615 311.075C509.308 311.075 511.098 311.075 514.791 311.075C516.022 311.075 517.252 311.412 517.364 311.974C517.588 312.649 517.7 312.986 517.924 313.661C518.036 314.111 517.141 314.561 515.91 314.561C512.105 314.561 510.203 314.561 506.51 314.561Z" fill="#DBE3F1"></path> <path d="M522.959 314.561C521.617 314.561 520.498 314.223 520.274 313.661C520.05 312.986 519.938 312.649 519.714 311.974C519.602 311.525 520.498 311.075 521.728 311.075C525.421 311.075 527.211 311.075 530.904 311.075C532.135 311.075 533.366 311.412 533.59 311.974C533.925 312.649 534.037 312.986 534.261 313.661C534.485 314.111 533.59 314.561 532.247 314.561C528.554 314.561 526.652 314.561 522.959 314.561Z" fill="#DBE3F1"></path> <path d="M539.297 314.561C537.954 314.561 536.835 314.223 536.611 313.661C536.275 312.986 536.163 312.649 535.94 311.974C535.716 311.525 536.611 311.075 537.842 311.075C541.535 311.075 543.325 311.075 547.018 311.075C548.249 311.075 549.479 311.412 549.703 311.974C550.039 312.649 550.151 312.986 550.487 313.661C550.71 314.111 549.815 314.561 548.584 314.561C544.892 314.561 543.101 314.561 539.297 314.561Z" fill="#DBE3F1"></path> <path d="M555.746 314.561C554.403 314.561 553.172 314.223 552.948 313.661C552.613 312.986 552.389 312.649 552.053 311.974C551.829 311.525 552.613 311.075 553.955 311.075C557.648 311.075 559.438 311.075 563.131 311.075C564.362 311.075 565.705 311.412 565.929 311.974C566.264 312.649 566.488 312.986 566.936 313.661C567.159 314.111 566.376 314.561 565.033 314.561C561.341 314.561 559.438 314.561 555.746 314.561Z" fill="#DBE3F1"></path> <path d="M322.66 320.632C321.318 320.632 320.422 320.295 320.758 319.733C321.541 318.384 321.877 317.596 322.66 316.247C322.884 315.797 324.227 315.348 325.458 315.348C327.36 315.348 328.255 315.348 330.158 315.348C331.5 315.348 332.284 315.685 332.06 316.247C331.388 317.596 330.941 318.384 330.269 319.733C330.046 320.183 328.703 320.632 327.36 320.632C325.57 320.632 324.563 320.632 322.66 320.632Z" fill="#DBE3F1"></path> <path d="M334.745 320.632C333.403 320.632 332.507 320.295 332.731 319.733C333.403 318.384 333.738 317.596 334.522 316.247C334.745 315.797 335.976 315.348 337.319 315.348C341.124 315.348 342.914 315.348 346.719 315.348C348.061 315.348 348.957 315.685 348.733 316.247C348.173 317.596 347.838 318.384 347.166 319.733C346.942 320.183 345.712 320.632 344.369 320.632C340.452 320.632 338.55 320.632 334.745 320.632Z" fill="#DBE3F1"></path> <path d="M351.53 320.632C350.188 320.632 349.292 320.295 349.516 319.733C350.076 318.384 350.411 317.596 350.971 316.247C351.195 315.797 352.426 315.348 353.656 315.348C357.461 315.348 359.251 315.348 363.056 315.348C364.399 315.348 365.294 315.685 365.07 316.247C364.511 317.596 364.287 318.384 363.839 319.733C363.615 320.183 362.496 320.632 361.154 320.632C357.349 320.632 355.447 320.632 351.53 320.632Z" fill="#DBE3F1"></path> <path d="M368.427 320.632C367.084 320.632 366.189 320.295 366.301 319.733C366.749 318.384 367.084 317.596 367.532 316.247C367.756 315.797 368.875 315.348 370.217 315.348C374.022 315.348 375.812 315.348 379.617 315.348C380.96 315.348 381.855 315.685 381.743 316.247C381.295 317.596 381.183 318.384 380.736 319.733C380.624 320.183 379.393 320.632 378.05 320.632C374.246 320.632 372.343 320.632 368.427 320.632Z" fill="#DBE3F1"></path> <path d="M385.324 320.632C383.981 320.632 382.974 320.295 383.198 319.733C383.533 318.384 383.757 317.596 384.205 316.247C384.317 315.797 385.548 315.348 386.778 315.348C390.583 315.348 392.373 315.348 396.178 315.348C397.521 315.348 398.416 315.685 398.304 316.247C397.968 317.596 397.856 318.384 397.521 319.733C397.409 320.183 396.29 320.632 394.947 320.632C391.031 320.632 389.128 320.632 385.324 320.632Z" fill="#DBE3F1"></path> <path d="M402.221 320.632C400.878 320.632 399.871 320.295 399.983 319.733C400.318 318.384 400.43 317.596 400.654 316.247C400.766 315.797 401.885 315.348 403.228 315.348C407.032 315.348 408.823 315.348 412.627 315.348C413.97 315.348 414.977 315.685 414.865 316.247C414.641 317.596 414.529 318.384 414.418 319.733C414.306 320.183 413.187 320.632 411.844 320.632C407.927 320.632 406.025 320.632 402.221 320.632Z" fill="#DBE3F1"></path> <path d="M419.005 320.632C417.663 320.632 416.656 320.295 416.656 319.733C416.879 318.384 416.879 317.596 417.103 316.247C417.215 315.797 418.222 315.348 419.565 315.348C423.369 315.348 425.16 315.348 428.964 315.348C430.307 315.348 431.314 315.685 431.314 316.247C431.202 317.596 431.202 318.384 431.09 319.733C431.09 320.183 429.971 320.632 428.629 320.632C424.824 320.632 422.922 320.632 419.005 320.632Z" fill="#DBE3F1"></path> <path d="M435.902 320.632C434.559 320.632 433.552 320.295 433.552 319.733C433.664 318.384 433.664 317.596 433.776 316.247C433.776 315.797 434.895 315.348 436.126 315.348C439.93 315.348 441.721 315.348 445.525 315.348C446.868 315.348 447.875 315.685 447.875 316.247C447.875 317.596 447.875 318.384 447.875 319.733C447.875 320.183 446.756 320.632 445.525 320.632C441.721 320.632 439.707 320.632 435.902 320.632Z" fill="#DBE3F1"></path> <path d="M452.799 320.632C451.456 320.632 450.337 320.295 450.337 319.733C450.337 318.384 450.337 317.596 450.225 316.247C450.225 315.797 451.232 315.348 452.575 315.348C456.38 315.348 458.17 315.348 461.975 315.348C463.318 315.348 464.325 315.685 464.437 316.247C464.548 317.596 464.66 318.384 464.772 319.733C464.772 320.183 463.765 320.632 462.422 320.632C458.506 320.632 456.604 320.632 452.799 320.632Z" fill="#DBE3F1"></path> <path d="M469.584 320.632C468.241 320.632 467.122 320.295 467.122 319.733C467.01 318.384 466.898 317.596 466.786 316.247C466.786 315.797 467.793 315.348 469.024 315.348C472.829 315.348 474.619 315.348 478.424 315.348C479.766 315.348 480.885 315.685 480.885 316.247C481.109 317.596 481.221 318.384 481.445 319.733C481.557 320.183 480.55 320.632 479.207 320.632C475.402 320.632 473.5 320.632 469.584 320.632Z" fill="#DBE3F1"></path> <path d="M486.48 320.632C485.137 320.632 484.019 320.295 483.907 319.733C483.683 318.384 483.571 317.596 483.347 316.247C483.235 315.797 484.242 315.348 485.585 315.348C489.39 315.348 491.18 315.348 494.985 315.348C496.327 315.348 497.446 315.685 497.558 316.247C497.894 317.596 498.006 318.384 498.342 319.733C498.453 320.183 497.446 320.632 496.104 320.632C492.299 320.632 490.397 320.632 486.48 320.632Z" fill="#DBE3F1"></path> <path d="M503.377 320.632C502.034 320.632 500.916 320.295 500.804 319.733C500.468 318.384 500.244 317.596 499.908 316.247C499.797 315.797 500.804 315.348 502.034 315.348C505.839 315.348 507.629 315.348 511.434 315.348C512.777 315.348 513.896 315.685 514.008 316.247C514.455 317.596 514.679 318.384 515.127 319.733C515.239 320.183 514.343 320.632 513.001 320.632C509.196 320.632 507.182 320.632 503.377 320.632Z" fill="#DBE3F1"></path> <path d="M520.274 320.632C518.931 320.632 517.7 320.295 517.588 319.733C517.141 318.384 516.917 317.596 516.469 316.247C516.357 315.797 517.253 315.348 518.595 315.348C522.4 315.348 524.19 315.348 527.995 315.348C529.338 315.348 530.457 315.685 530.681 316.247C531.24 317.596 531.464 318.384 532.023 319.733C532.247 320.183 531.24 320.632 529.897 320.632C525.981 320.632 524.078 320.632 520.274 320.632Z" fill="#DBE3F1"></path> <path d="M537.059 320.632C535.716 320.632 534.485 320.295 534.261 319.733C533.702 318.384 533.478 317.596 532.919 316.247C532.695 315.797 533.59 315.348 534.933 315.348C547.13 315.348 553.284 315.348 565.481 315.348C566.824 315.348 568.055 315.685 568.279 316.247C569.062 317.596 569.398 318.384 570.181 319.733C570.405 320.183 569.621 320.632 568.279 320.632C555.858 320.632 549.591 320.632 537.059 320.632Z" fill="#DBE3F1"></path> <path d="M319.303 326.704C317.961 326.704 317.065 326.367 317.289 325.805C318.072 324.456 318.408 323.669 319.191 322.319C319.415 321.869 320.758 321.42 322.101 321.42C327.92 321.42 330.829 321.42 336.648 321.42C337.99 321.42 338.886 321.757 338.662 322.319C337.99 323.669 337.655 324.456 336.983 325.805C336.76 326.255 335.417 326.704 334.074 326.704C328.255 326.704 325.234 326.704 319.303 326.704Z" fill="#DBE3F1"></path> <path d="M341.571 326.704C340.229 326.704 339.221 326.367 339.445 325.805C340.117 324.456 340.452 323.669 341.012 322.319C341.236 321.869 342.467 321.42 343.809 321.42C347.726 321.42 349.628 321.42 353.433 321.42C354.775 321.42 355.671 321.757 355.559 322.319C354.999 323.669 354.775 324.456 354.216 325.805C353.992 326.255 352.761 326.704 351.418 326.704C347.502 326.704 345.6 326.704 341.571 326.704Z" fill="#DBE3F1"></path> <path d="M358.916 326.704C357.573 326.704 356.566 326.367 356.79 325.805C357.349 324.456 357.573 323.669 358.132 322.319C358.356 321.869 359.587 321.42 360.93 321.42C364.846 321.42 366.749 321.42 370.553 321.42C371.896 321.42 372.791 321.757 372.679 322.319C372.232 323.669 372.008 324.456 371.56 325.805C371.448 326.255 370.217 326.704 368.763 326.704C364.846 326.704 362.944 326.704 358.916 326.704Z" fill="#DBE3F1"></path> <path d="M376.26 326.704C374.917 326.704 373.91 326.367 374.022 325.805C374.47 324.456 374.694 323.669 375.141 322.319C375.253 321.869 376.484 321.42 377.827 321.42C381.743 321.42 383.645 321.42 387.45 321.42C388.793 321.42 389.8 321.757 389.688 322.319C389.352 323.669 389.129 324.456 388.793 325.805C388.681 326.255 387.45 326.704 386.107 326.704C382.191 326.704 380.177 326.704 376.26 326.704Z" fill="#DBE3F1"></path> <path d="M393.604 326.704C392.262 326.704 391.255 326.367 391.366 325.805C391.702 324.456 391.814 323.669 392.15 322.319C392.262 321.869 393.492 321.42 394.723 321.42C398.64 321.42 400.542 321.42 404.347 321.42C405.689 321.42 406.697 321.757 406.585 322.319C406.361 323.669 406.249 324.456 406.025 325.805C405.913 326.255 404.794 326.704 403.451 326.704C399.535 326.704 397.521 326.704 393.604 326.704Z" fill="#DBE3F1"></path> <path d="M410.949 326.704C409.606 326.704 408.487 326.367 408.599 325.805C408.823 324.456 408.934 323.669 409.158 322.319C409.27 321.869 410.389 321.42 411.732 321.42C415.648 321.42 417.551 321.42 421.355 321.42C422.698 321.42 423.705 321.757 423.705 322.319C423.593 323.669 423.481 324.456 423.369 325.805C423.369 326.255 422.139 326.704 420.796 326.704C416.879 326.704 414.865 326.704 410.949 326.704Z" fill="#DBE3F1"></path> <path d="M428.181 326.704C426.838 326.704 425.719 326.367 425.831 325.805C425.943 324.456 426.055 323.669 426.167 322.319C426.167 321.869 427.286 321.42 428.629 321.42C432.545 321.42 434.447 321.42 438.252 321.42C439.595 321.42 440.714 321.757 440.602 322.319C440.602 323.669 440.602 324.456 440.49 325.805C440.49 326.255 439.371 326.704 438.028 326.704C434.112 326.704 432.209 326.704 428.181 326.704Z" fill="#DBE3F1"></path> <path d="M445.525 326.704C444.183 326.704 443.064 326.367 443.064 325.805C443.064 324.456 443.064 323.669 443.064 322.319C443.064 321.869 444.183 321.42 445.525 321.42C449.442 321.42 451.344 321.42 455.149 321.42C456.492 321.42 457.611 321.757 457.611 322.319C457.722 323.669 457.722 324.456 457.834 325.805C457.834 326.255 456.715 326.704 455.373 326.704C451.456 326.704 449.442 326.704 445.525 326.704Z" fill="#DBE3F1"></path> <path d="M462.87 326.704C461.527 326.704 460.408 326.367 460.296 325.805C460.184 324.456 460.184 323.669 460.072 322.319C460.072 321.869 461.079 321.42 462.422 321.42C466.339 321.42 468.241 321.42 472.045 321.42C473.388 321.42 474.507 321.757 474.619 322.319C474.843 323.669 474.843 324.456 475.067 325.805C475.179 326.255 474.06 326.704 472.717 326.704C468.8 326.704 466.786 326.704 462.87 326.704Z" fill="#DBE3F1"></path> <path d="M480.214 326.704C478.871 326.704 477.64 326.367 477.64 325.805C477.417 324.456 477.305 323.669 477.193 322.319C477.081 321.869 478.2 321.42 479.543 321.42C483.459 321.42 485.361 321.42 489.166 321.42C490.509 321.42 491.628 321.757 491.74 322.319C492.075 323.669 492.187 324.456 492.411 325.805C492.523 326.255 491.516 326.704 490.061 326.704C486.145 326.704 484.131 326.704 480.214 326.704Z" fill="#DBE3F1"></path> <path d="M497.446 326.704C496.104 326.704 494.873 326.367 494.761 325.805C494.425 324.456 494.313 323.669 493.977 322.319C493.866 321.869 494.873 321.42 496.215 321.42C500.132 321.42 502.034 321.42 505.839 321.42C507.182 321.42 508.412 321.757 508.524 322.319C508.86 323.669 509.084 324.456 509.531 325.805C509.643 326.255 508.636 326.704 507.293 326.704C503.377 326.704 501.475 326.704 497.446 326.704Z" fill="#DBE3F1"></path> <path d="M514.791 326.704C513.448 326.704 512.217 326.367 512.105 325.805C511.658 324.456 511.546 323.669 511.098 322.319C510.986 321.869 511.882 321.42 513.224 321.42C517.141 321.42 519.043 321.42 522.848 321.42C524.19 321.42 525.421 321.757 525.533 322.319C525.981 323.669 526.317 324.456 526.764 325.805C526.988 326.255 525.981 326.704 524.638 326.704C520.722 326.704 518.819 326.704 514.791 326.704Z" fill="#DBE3F1"></path> <path d="M532.135 326.704C530.792 326.704 529.562 326.367 529.338 325.805C528.778 324.456 528.555 323.669 528.107 322.319C527.883 321.869 528.89 321.42 530.233 321.42C534.149 321.42 536.052 321.42 539.856 321.42C541.199 321.42 542.43 321.757 542.654 322.319C543.213 323.669 543.549 324.456 544.108 325.805C544.332 326.255 543.325 326.704 541.982 326.704C538.066 326.704 536.052 326.704 532.135 326.704Z" fill="#DBE3F1"></path> <path d="M549.479 326.704C548.137 326.704 546.794 326.367 546.57 325.805C546.011 324.456 545.675 323.669 545.004 322.319C544.78 321.869 545.675 321.42 547.018 321.42C555.746 321.42 560.11 321.42 568.838 321.42C570.181 321.42 571.524 321.757 571.747 322.319C572.531 323.669 572.866 324.456 573.65 325.805C573.873 326.255 572.978 326.704 571.635 326.704C562.795 326.704 558.319 326.704 549.479 326.704Z" fill="#DBE3F1"></path> <path d="M316.058 332.889C314.604 332.889 313.708 332.551 314.044 331.989C314.827 330.64 315.163 329.853 315.946 328.504C316.17 328.054 317.513 327.604 318.856 327.604C326.801 327.604 330.829 327.604 338.774 327.604C340.117 327.604 341.124 327.941 340.9 328.504C340.228 329.853 340.005 330.64 339.333 331.989C339.109 332.439 337.767 332.889 336.424 332.889C328.255 332.889 324.115 332.889 316.058 332.889Z" fill="#DBE3F1"></path> <path d="M343.921 332.889C342.467 332.889 341.571 332.551 341.795 331.989C342.355 330.64 342.69 329.853 343.362 328.504C343.586 328.054 344.816 327.604 346.271 327.604C350.299 327.604 352.202 327.604 356.23 327.604C357.573 327.604 358.58 327.941 358.356 328.504C357.797 329.853 357.573 330.64 357.013 331.989C356.79 332.439 355.559 332.889 354.104 332.889C350.076 332.889 348.061 332.889 343.921 332.889Z" fill="#DBE3F1"></path> <path d="M361.713 332.889C360.259 332.889 359.363 332.551 359.475 331.989C360.035 330.64 360.259 329.853 360.706 328.504C360.93 328.054 362.161 327.604 363.504 327.604C367.532 327.604 369.434 327.604 373.463 327.604C374.805 327.604 375.812 327.941 375.701 328.504C375.253 329.853 375.029 330.64 374.693 331.989C374.582 332.439 373.351 332.889 371.896 332.889C367.868 332.889 365.853 332.889 361.713 332.889Z" fill="#DBE3F1"></path> <path d="M379.505 332.889C378.05 332.889 377.043 332.551 377.267 331.989C377.715 330.64 377.826 329.853 378.274 328.504C378.386 328.054 379.617 327.604 380.96 327.604C384.988 327.604 386.89 327.604 390.919 327.604C392.261 327.604 393.269 327.941 393.157 328.504C392.821 329.853 392.709 330.64 392.373 331.989C392.261 332.439 391.031 332.889 389.688 332.889C385.659 332.889 383.533 332.889 379.505 332.889Z" fill="#DBE3F1"></path> <path d="M397.297 332.889C395.842 332.889 394.835 332.551 394.947 331.989C395.283 330.64 395.395 329.853 395.73 328.504C395.842 328.054 397.073 327.604 398.416 327.604C402.444 327.604 404.347 327.604 408.375 327.604C409.718 327.604 410.837 327.941 410.725 328.504C410.501 329.853 410.389 330.64 410.165 331.989C410.054 332.439 408.935 332.889 407.48 332.889C403.34 332.889 401.325 332.889 397.297 332.889Z" fill="#DBE3F1"></path> <path d="M415.089 332.889C413.634 332.889 412.627 332.551 412.627 331.989C412.851 330.64 412.963 329.853 413.075 328.504C413.187 328.054 414.306 327.604 415.648 327.604C419.677 327.604 421.579 327.604 425.607 327.604C426.95 327.604 428.069 327.941 428.069 328.504C427.957 329.853 427.957 330.64 427.845 331.989C427.845 332.439 426.615 332.889 425.272 332.889C421.132 332.889 419.117 332.889 415.089 332.889Z" fill="#DBE3F1"></path> <path d="M432.881 332.889C431.426 332.889 430.419 332.551 430.419 331.989C430.531 330.64 430.531 329.853 430.643 328.504C430.643 328.054 431.762 327.604 433.217 327.604C437.245 327.604 439.147 327.604 443.176 327.604C444.518 327.604 445.637 327.941 445.637 328.504C445.637 329.853 445.637 330.64 445.637 331.989C445.637 332.439 444.518 332.889 443.064 332.889C438.924 332.889 436.909 332.889 432.881 332.889Z" fill="#DBE3F1"></path> <path d="M450.561 332.889C449.106 332.889 447.987 332.551 447.987 331.989C447.987 330.64 447.987 329.853 447.987 328.504C447.987 328.054 449.106 327.604 450.449 327.604C454.477 327.604 456.38 327.604 460.408 327.604C461.751 327.604 462.87 327.941 462.982 328.504C463.094 329.853 463.094 330.64 463.206 331.989C463.206 332.439 462.087 332.889 460.744 332.889C456.715 332.889 454.701 332.889 450.561 332.889Z" fill="#DBE3F1"></path> <path d="M468.353 332.889C466.898 332.889 465.779 332.551 465.779 331.989C465.667 330.64 465.555 329.853 465.443 328.504C465.443 328.054 466.45 327.604 467.905 327.604C471.933 327.604 473.836 327.604 477.864 327.604C479.207 327.604 480.438 327.941 480.438 328.504C480.662 329.853 480.773 330.64 480.997 331.989C481.109 332.439 479.99 332.889 478.536 332.889C474.507 332.889 472.493 332.889 468.353 332.889Z" fill="#DBE3F1"></path> <path d="M486.145 332.889C484.69 332.889 483.571 332.551 483.459 331.989C483.235 330.64 483.123 329.853 482.9 328.504C482.788 328.054 483.907 327.604 485.249 327.604C489.278 327.604 491.18 327.604 495.208 327.604C496.551 327.604 497.782 327.941 497.894 328.504C498.23 329.853 498.342 330.64 498.677 331.989C498.789 332.439 497.782 332.889 496.327 332.889C492.299 332.889 490.173 332.889 486.145 332.889Z" fill="#DBE3F1"></path> <path d="M503.937 332.889C502.482 332.889 501.251 332.551 501.139 331.989C500.803 330.64 500.692 329.853 500.356 328.504C500.244 328.054 501.251 327.604 502.594 327.604C506.622 327.604 508.525 327.604 512.553 327.604C513.896 327.604 515.127 327.941 515.35 328.504C515.798 329.853 516.022 330.64 516.357 331.989C516.469 332.439 515.462 332.889 514.119 332.889C509.979 332.889 507.965 332.889 503.937 332.889Z" fill="#DBE3F1"></path> <path d="M521.729 332.889C520.274 332.889 519.043 332.551 518.931 331.989C518.484 330.64 518.26 329.853 517.812 328.504C517.7 328.054 518.707 327.604 520.05 327.604C524.079 327.604 525.981 327.604 530.009 327.604C531.352 327.604 532.583 327.941 532.807 328.504C533.366 329.853 533.59 330.64 534.149 331.989C534.373 332.439 533.366 332.889 531.911 332.889C527.771 332.889 525.757 332.889 521.729 332.889Z" fill="#DBE3F1"></path> <path d="M539.52 332.889C538.066 332.889 536.835 332.551 536.611 331.989C536.052 330.64 535.828 329.853 535.268 328.504C535.044 328.054 536.052 327.604 537.394 327.604C549.032 327.604 560.557 327.604 572.195 327.604C573.538 327.604 574.88 327.941 575.104 328.504C575.888 329.853 576.223 330.64 577.007 331.989C577.23 332.439 576.335 332.889 574.992 332.889C563.131 332.889 551.382 332.889 539.52 332.889Z" fill="#DBE3F1"></path> <path d="M312.701 338.961C311.247 338.961 310.352 338.623 310.575 338.061C311.359 336.712 311.694 335.925 312.478 334.575C312.701 334.126 314.156 333.676 315.499 333.676C327.36 333.676 339.333 333.676 351.195 333.676C352.649 333.676 353.545 334.013 353.433 334.575C352.873 335.925 352.649 336.712 352.09 338.061C351.866 338.511 350.635 338.961 349.181 338.961C337.095 338.961 324.898 338.961 312.701 338.961Z" fill="#DBE3F1"></path> <path d="M357.013 338.961C355.559 338.961 354.552 338.623 354.776 338.061C355.335 336.712 355.559 335.925 356.118 334.575C356.342 334.126 357.573 333.676 359.028 333.676C363.056 333.676 365.182 333.676 369.21 333.676C370.665 333.676 371.672 334.013 371.448 334.575C371.001 335.925 370.777 336.712 370.329 338.061C370.218 338.511 368.875 338.961 367.42 338.961C363.28 338.961 361.154 338.961 357.013 338.961Z" fill="#DBE3F1"></path> <path d="M375.253 338.961C373.798 338.961 372.791 338.623 372.903 338.061C373.351 336.712 373.574 335.925 373.91 334.575C374.022 334.126 375.365 333.676 376.708 333.676C380.736 333.676 382.862 333.676 386.89 333.676C388.345 333.676 389.352 334.013 389.24 334.575C388.905 335.925 388.793 336.712 388.457 338.061C388.345 338.511 387.114 338.961 385.659 338.961C381.519 338.961 379.393 338.961 375.253 338.961Z" fill="#DBE3F1"></path> <path d="M393.493 338.961C392.038 338.961 391.031 338.623 391.031 338.061C391.366 336.712 391.478 335.925 391.814 334.575C391.926 334.126 393.157 333.676 394.612 333.676C398.64 333.676 400.766 333.676 404.794 333.676C406.249 333.676 407.256 334.013 407.256 334.575C407.032 335.925 406.92 336.712 406.697 338.061C406.585 338.511 405.354 338.961 403.899 338.961C399.759 338.961 397.633 338.961 393.493 338.961Z" fill="#DBE3F1"></path> <path d="M411.732 338.961C410.277 338.961 409.158 338.623 409.27 338.061C409.494 336.712 409.606 335.925 409.83 334.575C409.942 334.126 411.061 333.676 412.515 333.676C416.544 333.676 418.67 333.676 422.698 333.676C424.153 333.676 425.16 334.013 425.16 334.575C425.048 335.925 424.936 336.712 424.824 338.061C424.824 338.511 423.593 338.961 422.139 338.961C417.886 338.961 415.872 338.961 411.732 338.961Z" fill="#DBE3F1"></path> <path d="M429.86 338.961C428.405 338.961 427.286 338.623 427.286 338.061C427.398 336.712 427.398 335.925 427.51 334.575C427.51 334.126 428.741 333.676 430.083 333.676C434.112 333.676 436.238 333.676 440.266 333.676C441.721 333.676 442.84 334.013 442.84 334.575C442.84 335.925 442.84 336.712 442.84 338.061C442.84 338.511 441.609 338.961 440.266 338.961C436.126 338.961 434.112 338.961 429.86 338.961Z" fill="#DBE3F1"></path> <path d="M448.099 338.961C446.644 338.961 445.525 338.623 445.525 338.061C445.525 336.712 445.525 335.925 445.525 334.575C445.525 334.126 446.644 333.676 448.099 333.676C452.127 333.676 454.254 333.676 458.282 333.676C459.737 333.676 460.856 334.013 460.856 334.575C460.967 335.925 460.967 336.712 461.079 338.061C461.079 338.511 459.96 338.961 458.506 338.961C454.365 338.961 452.351 338.961 448.099 338.961Z" fill="#DBE3F1"></path> <path d="M466.339 338.961C464.884 338.961 463.653 338.623 463.653 338.061C463.541 336.712 463.541 335.925 463.429 334.575C463.429 334.126 464.548 333.676 465.891 333.676C469.919 333.676 472.045 333.676 476.074 333.676C477.528 333.676 478.647 334.013 478.759 334.575C478.983 335.925 479.095 336.712 479.207 338.061C479.319 338.511 478.2 338.961 476.745 338.961C472.605 338.961 470.479 338.961 466.339 338.961Z" fill="#DBE3F1"></path> <path d="M484.578 338.961C483.124 338.961 481.893 338.623 481.893 338.061C481.669 336.712 481.557 335.925 481.333 334.575C481.221 334.126 482.34 333.676 483.795 333.676C487.823 333.676 489.949 333.676 493.978 333.676C495.432 333.676 496.663 334.013 496.663 334.575C496.999 335.925 497.111 336.712 497.447 338.061C497.559 338.511 496.44 338.961 494.985 338.961C490.845 338.961 488.718 338.961 484.578 338.961Z" fill="#DBE3F1"></path> <path d="M502.818 338.961C501.363 338.961 500.132 338.623 500.02 338.061C499.684 336.712 499.572 335.925 499.237 334.575C499.125 334.126 500.132 333.676 501.587 333.676C505.615 333.676 507.741 333.676 511.769 333.676C513.224 333.676 514.455 334.013 514.567 334.575C515.015 335.925 515.126 336.712 515.574 338.061C515.686 338.511 514.679 338.961 513.224 338.961C509.084 338.961 506.958 338.961 502.818 338.961Z" fill="#DBE3F1"></path> <path d="M521.057 338.961C519.603 338.961 518.372 338.623 518.148 338.061C517.7 336.712 517.477 335.925 517.141 334.575C517.029 334.126 518.036 333.676 519.379 333.676C523.407 333.676 525.533 333.676 529.562 333.676C531.016 333.676 532.247 334.013 532.471 334.575C533.03 335.925 533.254 336.712 533.702 338.061C533.926 338.511 532.807 338.961 531.464 338.961C527.324 338.961 525.198 338.961 521.057 338.961Z" fill="#DBE3F1"></path> <path d="M539.297 338.961C537.842 338.961 536.499 338.623 536.387 338.061C535.828 336.712 535.604 335.925 535.045 334.575C534.821 334.126 535.828 333.676 537.283 333.676C550.039 333.676 562.795 333.676 575.552 333.676C577.007 333.676 578.349 334.013 578.573 334.575C579.357 335.925 579.692 336.712 580.475 338.061C580.699 338.511 579.804 338.961 578.349 338.961C565.369 338.961 552.277 338.961 539.297 338.961Z" fill="#DBE3F1"></path> <path d="M309.456 345.033C308.002 345.033 306.995 344.695 307.218 344.133C308.002 342.784 308.337 341.997 309.121 340.647C309.344 340.198 310.799 339.748 312.254 339.748C316.394 339.748 318.52 339.748 322.66 339.748C324.115 339.748 325.122 340.085 324.898 340.647C324.227 341.997 323.891 342.784 323.22 344.133C322.996 344.583 321.541 345.033 320.087 345.033C315.835 345.033 313.709 345.033 309.456 345.033Z" fill="#DBE3F1"></path> <path d="M328.144 345.033C326.689 345.033 325.682 344.695 325.906 344.133C326.577 342.784 326.913 341.997 327.584 340.647C327.808 340.198 329.151 339.748 330.605 339.748C334.746 339.748 336.872 339.748 341.012 339.748C342.467 339.748 343.474 340.085 343.25 340.647C342.69 341.997 342.355 342.784 341.795 344.133C341.571 344.583 340.229 345.033 338.774 345.033C334.522 345.033 332.396 345.033 328.144 345.033Z" fill="#DBE3F1"></path> <path d="M346.831 345.033C345.376 345.033 344.369 344.695 344.481 344.133C345.04 342.784 345.376 341.997 345.935 340.647C346.159 340.198 347.502 339.748 348.845 339.748C352.985 339.748 355.111 339.748 359.251 339.748C360.706 339.748 361.713 340.085 361.601 340.647C361.154 341.997 360.93 342.784 360.37 344.133C360.258 344.583 358.916 345.033 357.461 345.033C353.209 345.033 351.083 345.033 346.831 345.033Z" fill="#DBE3F1"></path> <path d="M365.518 345.033C364.063 345.033 362.944 344.695 363.168 344.133C363.615 342.784 363.839 341.997 364.287 340.647C364.399 340.198 365.741 339.748 367.196 339.748C375.589 339.748 379.729 339.748 388.121 339.748C389.576 339.748 390.695 340.085 390.583 340.647C390.247 341.997 390.135 342.784 389.8 344.133C389.688 344.583 388.457 345.033 386.89 345.033C378.274 345.033 374.022 345.033 365.518 345.033Z" fill="#DBE3F1"></path> <path d="M394.835 345.033C393.381 345.033 392.262 344.695 392.373 344.133C392.709 342.784 392.821 341.997 393.157 340.647C393.269 340.198 394.5 339.748 395.954 339.748C429.076 339.748 462.198 339.748 495.209 339.748C496.663 339.748 497.894 340.085 498.006 340.647C498.342 341.997 498.454 342.784 498.789 344.133C498.901 344.583 497.782 345.033 496.328 345.033C462.422 345.033 428.629 345.033 394.835 345.033Z" fill="#DBE3F1"></path> <path d="M504.272 345.033C502.818 345.033 501.475 344.695 501.363 344.133C501.027 342.784 500.915 341.997 500.58 340.647C500.468 340.198 501.587 339.748 503.042 339.748C507.182 339.748 509.308 339.748 513.448 339.748C514.903 339.748 516.134 340.085 516.357 340.647C516.805 341.997 516.917 342.784 517.365 344.133C517.476 344.583 516.469 345.033 514.903 345.033C510.651 345.033 508.525 345.033 504.272 345.033Z" fill="#DBE3F1"></path> <path d="M522.959 345.033C521.505 345.033 520.162 344.695 520.05 344.133C519.602 342.784 519.379 341.997 519.043 340.647C518.931 340.198 519.938 339.748 521.393 339.748C525.533 339.748 527.659 339.748 531.799 339.748C533.254 339.748 534.597 340.085 534.709 340.647C535.268 341.997 535.492 342.784 535.94 344.133C536.163 344.583 535.044 345.033 533.59 345.033C529.338 345.033 527.212 345.033 522.959 345.033Z" fill="#DBE3F1"></path> <path d="M541.647 345.033C540.192 345.033 538.849 344.695 538.625 344.133C538.066 342.784 537.842 341.997 537.283 340.647C537.059 340.198 538.178 339.748 539.521 339.748C542.654 339.748 544.22 339.748 547.353 339.748C548.808 339.748 550.151 340.085 550.375 340.647C550.934 341.997 551.27 342.784 551.829 344.133C552.053 344.583 551.046 345.033 549.48 345.033C546.458 345.033 544.78 345.033 541.647 345.033Z" fill="#DBE3F1"></path> <path d="M573.65 345.033C572.195 345.033 570.74 344.695 570.516 344.133C569.845 342.784 569.509 341.997 568.726 340.647C568.502 340.198 569.509 339.748 570.852 339.748C573.985 339.748 575.552 339.748 578.685 339.748C580.14 339.748 581.483 340.085 581.818 340.647C582.602 341.997 582.937 342.784 583.721 344.133C583.944 344.583 583.049 345.033 581.483 345.033C578.461 345.033 576.783 345.033 573.65 345.033Z" fill="#DBE3F1"></path> <path d="M556.305 341.997C554.851 341.997 553.508 341.659 553.284 341.097C553.172 340.872 553.172 340.872 553.06 340.647C552.836 340.198 553.843 339.748 555.298 339.748C558.431 339.748 559.998 339.748 563.131 339.748C564.586 339.748 565.929 340.085 566.152 340.647C566.264 340.872 566.264 340.872 566.376 341.097C566.6 341.547 565.593 341.997 564.138 341.997C561.005 341.997 559.438 341.997 556.305 341.997Z" fill="#DBE3F1"></path> <path d="M557.648 345.033C556.194 345.033 554.851 344.695 554.627 344.133C554.515 343.908 554.515 343.908 554.403 343.683C554.179 343.233 555.186 342.784 556.641 342.784C559.774 342.784 561.453 342.784 564.586 342.784C566.041 342.784 567.383 343.121 567.607 343.683C567.719 343.908 567.719 343.908 567.831 344.133C568.055 344.583 567.048 345.033 565.593 345.033C562.46 345.033 560.781 345.033 557.648 345.033Z" fill="#DBE3F1"></path> <path d="M502.258 367.633C464.436 367.633 426.615 367.633 388.793 367.633C388.009 367.633 387.338 367.408 387.45 367.184C389.128 359.538 389.912 355.714 391.478 348.068C391.478 347.844 392.15 347.619 392.933 347.619C427.957 347.619 463.094 347.619 498.118 347.619C498.901 347.619 499.461 347.844 499.573 348.068C501.251 355.714 502.034 359.538 503.601 367.184C503.713 367.521 503.042 367.633 502.258 367.633Z" fill="#DBE3F1"></path> <path d="M319.08 292.185C315.387 292.185 312.366 289.149 312.366 285.438V149.383C312.366 145.672 315.387 142.636 319.08 142.636H571.971C575.664 142.636 578.685 145.672 578.685 149.383V285.438C578.685 289.149 575.664 292.185 571.971 292.185H319.08Z" fill="#DBE3F1"></path> <path d="M537.796 291.793H361.342V106H537.796V291.793Z" fill="white"></path> <path d="M437.193 151.957C437.193 166.769 424.566 178.758 408.754 178.74C392.651 178.722 379.391 166.318 379.391 151.029C379.391 135.74 392.66 123.768 408.754 124.264C424.575 124.759 437.193 137.155 437.193 151.957Z" fill="#DBE3F1"></path> <rect x="379.392" y="246.987" width="146.984" height="5.8804" fill="#DBE3F1"></rect> <rect x="379.392" y="201.062" width="146.984" height="5.8804" fill="#DBE3F1"></rect> <rect x="445.899" y="162.557" width="80.4766" height="5.8804" fill="#DBE3F1"></rect> <rect x="445.899" y="153.035" width="80.4766" height="5.8804" fill="#DBE3F1"></rect> <rect x="445.899" y="140.153" width="80.4766" height="9.24026" fill="#005BFF"></rect> <rect x="379.392" y="258.469" width="146.984" height="5.8804" fill="#DBE3F1"></rect> <rect x="379.392" y="212.543" width="146.984" height="5.8804" fill="#DBE3F1"></rect> <rect x="379.392" y="269.95" width="146.984" height="5.8804" fill="#DBE3F1"></rect> <rect x="379.392" y="224.024" width="146.984" height="5.8804" fill="#DBE3F1"></rect> <rect x="379.392" y="201.062" width="7.84137" height="5.8804" fill="#005BFF"></rect> <rect x="387.233" y="201.062" width="7.84137" height="5.8804" fill="white"></rect> <rect x="379.392" y="212.543" width="7.84137" height="5.8804" fill="#005BFF"></rect> <rect x="387.233" y="212.543" width="7.84137" height="5.8804" fill="white"></rect> <rect x="379.392" y="224.024" width="7.84137" height="5.8804" fill="#005BFF"></rect> <rect x="387.233" y="224.024" width="7.84137" height="5.8804" fill="white"></rect> <path d="M555.874 261.314C501.925 275.939 466.418 319.28 476.805 358.245C487.192 397.209 539.34 416.852 593.395 402.227C647.451 387.602 682.852 344.26 672.465 305.403C662.077 266.545 609.93 246.689 555.874 261.314Z" fill="#F91155"></path> <path d="M521.508 322.86C524.052 325.332 525.324 328.512 525.324 332.4C525.324 336.288 524.052 339.468 521.508 341.94C519.012 344.34 515.856 345.54 512.04 345.54C508.224 345.54 505.08 344.34 502.608 341.94C500.04 339.444 498.756 336.264 498.756 332.4C498.756 328.536 500.04 325.356 502.608 322.86C505.08 320.46 508.224 319.26 512.04 319.26C515.856 319.26 519.012 320.46 521.508 322.86ZM506.964 327C505.596 328.368 504.912 330.168 504.912 332.4C504.912 334.632 505.596 336.432 506.964 337.8C508.284 339.12 509.976 339.78 512.04 339.78C514.104 339.78 515.796 339.12 517.116 337.8C518.484 336.432 519.168 334.632 519.168 332.4C519.168 330.168 518.484 328.368 517.116 327C515.796 325.68 514.104 325.02 512.04 325.02C509.976 325.02 508.284 325.68 506.964 327ZM549.922 319.8V345H544.342V334.416H533.866V345H528.286V319.8H533.866V329.16H544.342V319.8H549.922ZM575.721 345H570.141V325.02H561.105V338.628C561.105 342.948 558.945 345.108 554.625 345.108H552.465V339.888H554.049C555.033 339.888 555.525 339.3 555.525 338.124V319.8H575.721V345ZM595.342 339.888H585.622L583.858 345H577.594L587.53 319.8H593.434L603.37 345H597.142L595.342 339.888ZM593.614 334.92L590.482 326.028L587.386 334.92H593.614ZM622.667 313.896C622.571 315.48 622.031 316.704 621.047 317.568C619.991 318.48 618.563 318.936 616.763 318.936C613.091 318.936 611.123 317.256 610.859 313.896H614.567C614.615 315.336 615.347 316.056 616.763 316.056C618.203 316.056 618.935 315.336 618.959 313.896H622.667ZM610.823 319.8V335.712H610.859L622.919 319.8H627.635V345H622.055V329.124H622.019L609.995 345H605.243V319.8H610.823ZM653.668 319.8V345H648.088V334.416H637.612V345H632.032V319.8H637.612V329.16H648.088V319.8H653.668Z" fill="white"></path> </g> <defs> <clipPath id="clip0_116:703"> <rect width="886" height="482" rx="30" fill="white"></rect> </clipPath> </defs> </svg> 