<?xml version="1.0" encoding="UTF-8"?> <svg xmlns="http://www.w3.org/2000/svg" width="262" height="80" viewBox="0 0 262 80" fill="none"> <rect y="4.54315" width="260.318" height="75.1555" rx="24" transform="rotate(-1 0 4.54315)" fill="#E6EFFF"></rect> <path d="M63.9763 31.9561L64.2695 48.7535L60.5501 48.8185L60.427 41.7635L53.444 41.8854L53.5672 48.9404L49.8477 49.0053L49.5545 32.2078L53.274 32.1429L53.3829 38.382L60.3658 38.2601L60.2569 32.021L63.9763 31.9561ZM67.7691 47.5643C66.7102 46.4946 66.1646 45.0319 66.1322 43.1762C66.0998 41.3205 66.5941 39.8396 67.6149 38.7336C68.5415 37.7253 69.7646 37.2079 71.2844 37.1814C72.9321 37.1526 74.1508 37.7554 74.9405 38.9898L74.9885 38.989L74.9621 37.4772L78.5856 37.414L78.7791 48.5003L75.1556 48.5635L75.1292 47.0518L75.0812 47.0526C74.3351 48.3138 73.1382 48.9588 71.4905 48.9876C69.9707 49.0141 68.7302 48.5397 67.7691 47.5643ZM74.2521 44.9307C74.7396 44.4422 74.9766 43.8059 74.9629 43.022C74.9492 42.2382 74.6902 41.6106 74.1859 41.1393C73.7139 40.6835 73.1019 40.4621 72.35 40.4753C71.6142 40.4881 71.0183 40.7305 70.5625 41.2026C70.0749 41.6912 69.838 42.3274 69.8517 43.1113C69.8653 43.8951 70.1243 44.5227 70.6286 44.994C71.1007 45.4498 71.7046 45.6713 72.4405 45.6585C73.1924 45.6453 73.7963 45.4028 74.2521 44.9307ZM89.4013 42.434C91.0044 42.598 91.8198 43.4719 91.8474 45.0557C91.8662 46.1275 91.5285 46.9495 90.8343 47.5217C90.1874 48.0451 89.36 48.3156 88.3521 48.3332L80.8893 48.4634L80.6957 37.3771L87.9666 37.2502C89.0705 37.231 89.9227 37.4641 90.5232 37.9497C91.1075 38.4196 91.4068 39.0625 91.421 39.8783C91.445 41.2541 90.7717 42.098 89.4009 42.41L89.4013 42.434ZM84.3627 39.8095L84.3929 41.5372L86.6006 41.4987C87.3365 41.4859 87.6992 41.1835 87.6889 40.5916C87.6791 40.0317 87.3063 39.7581 86.5704 39.771L84.3627 39.8095ZM86.8688 45.8627C87.6846 45.8485 88.0866 45.4974 88.0746 44.8095C88.0637 44.1856 87.6583 43.8806 86.8584 43.8946L84.4348 43.9369L84.4691 45.9046L86.8688 45.8627ZM102.609 38.1228C103.619 39.1453 104.141 40.6245 104.175 42.5602L104.189 43.376L96.246 43.5147C96.4935 44.8546 97.449 45.51 99.1128 45.4809C99.7047 45.4706 100.319 45.3479 100.955 45.1127C101.4 44.961 101.852 44.729 102.311 44.417L103.678 47.1295C102.286 48.018 100.765 48.4766 99.1176 48.5053C97.2459 48.538 95.7407 48.0282 94.6022 46.9759C93.4474 45.9079 92.8548 44.502 92.8243 42.7583C92.7922 40.9186 93.3187 39.4532 94.4038 38.362C95.4575 37.3035 96.8482 36.7591 98.576 36.729C100.288 36.6991 101.632 37.1637 102.609 38.1228ZM100.648 41.3015C100.605 40.6462 100.388 40.1459 99.9978 39.8006C99.6237 39.4551 99.1247 39.2878 98.5008 39.2987C97.125 39.3227 96.369 40.016 96.2328 41.3786L100.648 41.3015ZM117.343 45.1627L117.444 50.9459L114.42 50.9986L114.37 48.1191L106.859 48.2502L106.909 51.1297L103.886 51.1825L103.785 45.3994L105.225 45.3743C105.705 44.4857 105.935 43.4576 105.915 42.2897L105.822 36.9386L115.78 36.7647L115.927 45.1875L117.343 45.1627ZM109.468 42.3237C109.487 43.4116 109.288 44.4072 108.872 45.3106L112.352 45.2499L112.259 39.9707L109.428 40.0201L109.468 42.3237ZM118.542 36.7165L122.165 36.6533L122.27 42.6524L122.318 42.6515L126.916 36.5704L130.108 36.5146L130.301 47.601L126.678 47.6642L126.573 41.6651L126.525 41.666L121.927 47.7471L118.735 47.8028L118.542 36.7165ZM146.256 47.3225L142.376 42.3014L142.465 47.3886L138.841 47.4519L138.648 36.3656L142.271 36.3023L142.348 40.6697L145.535 36.2454L149.998 36.1675L145.695 41.2833L150.936 47.2408L146.256 47.3225ZM163.727 35.9278L156.638 51.942L152.99 52.0057L155.672 46.102L150.529 36.1582L154.705 36.0853L157.403 42.1591L160.056 35.9919L163.727 35.9278ZM164.941 35.9066L168.564 35.8434L168.591 37.3552L168.639 37.3543C169.385 36.0931 170.582 35.4481 172.229 35.4194C173.749 35.3928 174.998 35.8671 175.975 36.8422C177.017 37.8962 177.555 39.359 177.588 41.2307C177.62 43.1024 177.134 44.5832 176.129 45.6729C175.186 46.6815 173.955 47.199 172.435 47.2256C170.788 47.2543 169.569 46.6515 168.779 45.4171L168.731 45.4179L168.841 51.729L165.218 51.7922L164.941 35.9066ZM173.181 43.2039C173.653 42.7156 173.882 42.0795 173.868 41.2957C173.854 40.5118 173.603 39.8841 173.115 39.4125C172.611 38.9572 171.999 38.7359 171.279 38.7484C170.527 38.7616 169.924 39.0041 169.468 39.4762C168.98 39.9648 168.743 40.601 168.757 41.3849C168.771 42.1687 169.03 42.7963 169.534 43.2676C170.006 43.7234 170.618 43.9448 171.37 43.9317C172.09 43.9191 172.694 43.6765 173.181 43.2039ZM180.418 45.478C179.231 44.3945 178.622 42.9729 178.592 41.2132C178.561 39.4535 179.12 38.0115 180.268 36.8873C181.386 35.7956 182.848 35.234 184.656 35.2025C186.079 35.1776 187.422 35.5142 188.682 36.2123L187.245 39.1419C186.549 38.7059 185.761 38.4957 184.881 38.511C184.114 38.5244 183.486 38.7594 182.997 39.216C182.462 39.7054 182.201 40.3501 182.215 41.15C182.229 41.9498 182.512 42.585 183.064 43.0554C183.568 43.4947 184.204 43.7076 184.972 43.6942C185.852 43.6789 186.632 43.4412 187.312 42.9813L188.85 45.8589C187.615 46.6005 186.286 46.9838 184.862 47.0087C183.054 47.0402 181.573 46.53 180.418 45.478ZM199.506 36.5515C200.709 37.6347 201.326 39.0561 201.357 40.8158C201.387 42.5756 200.82 44.0097 199.656 45.1182C198.507 46.2264 197.028 46.7963 195.221 46.8278C193.429 46.8591 191.94 46.341 190.753 45.2736C189.55 44.2064 188.933 42.793 188.903 41.0332C188.872 39.2735 189.439 37.8314 190.603 36.7069C191.72 35.6152 193.191 35.0535 195.015 35.0216C196.854 34.9895 198.351 35.4995 199.506 36.5515ZM193.261 39.0609C192.758 39.5817 192.513 40.2181 192.526 40.97C192.539 41.7219 192.806 42.3493 193.327 42.8523C193.831 43.3076 194.443 43.5289 195.163 43.5163C195.899 43.5035 196.511 43.2608 196.998 42.7882C197.486 42.2996 197.723 41.6634 197.709 40.8795C197.696 40.0956 197.437 39.468 196.932 38.9968C196.428 38.5415 195.808 38.3203 195.072 38.3331C194.353 38.3457 193.749 38.5883 193.261 39.0609ZM202.857 35.2448L206.48 35.1816L206.507 36.6933L206.555 36.6925C207.301 35.4313 208.498 34.7863 210.145 34.7575C211.665 34.731 212.914 35.2053 213.891 36.1804C214.933 37.2343 215.471 38.6972 215.504 40.5689C215.536 42.4406 215.05 43.9213 214.045 45.011C213.102 46.0196 211.871 46.5372 210.352 46.5637C208.704 46.5925 207.485 45.9897 206.695 44.7553L206.647 44.7561L206.758 51.0671L203.134 51.1304L202.857 35.2448ZM211.097 42.5421C211.569 42.0538 211.798 41.4177 211.784 40.6338C211.771 39.8499 211.52 39.2222 211.031 38.7507C210.527 38.2954 209.915 38.074 209.195 38.0866C208.443 38.0997 207.84 38.3423 207.384 38.8143C206.896 39.3029 206.659 39.9392 206.673 40.723C206.687 41.5069 206.946 42.1345 207.45 42.6058C207.922 43.0616 208.534 43.283 209.286 43.2698C210.006 43.2573 210.61 43.0147 211.097 42.5421Z" fill="#005BFF"></path> </svg> 